M48
; DRILL file {KiCad 7.0.2-0} date 2023 May 11, Thursday 15:53:01
; FORMAT={-:-/ absolute / inch / decimal}
; #@! TF.CreationDate,2023-05-11T15:53:01-04:00
; #@! TF.GenerationSoftware,Kicad,Pcbnew,7.0.2-0
; #@! TF.FileFunction,NonPlated,1,2,NPTH
FMAT,2
INCH
; #@! TA.AperFunction,NonPlated,NPTH,ComponentDrill
T1C0.0591
; #@! TA.AperFunction,NonPlated,NPTH,ComponentDrill
T2C0.0670
; #@! TA.AperFunction,NonPlated,NPTH,ComponentDrill
T3C0.1181
; #@! TA.AperFunction,NonPlated,NPTH,ComponentDrill
T4C0.1350
%
G90
G05
T1
X7.6199Y-3.3753
X7.8955Y-3.3753
T2
X3.3599Y-2.71
X3.3599Y-2.71
X3.5444Y-3.3533
X3.5444Y-3.3533
X3.7289Y-3.9967
X3.7289Y-3.9967
X3.7762Y-2.5906
X3.7762Y-2.5906
X3.9607Y-3.234
X3.9607Y-3.234
X4.1452Y-3.8773
X4.1452Y-3.8773
X4.2248Y-2.2052
X4.2248Y-2.2052
X4.3179Y-2.868
X4.3179Y-2.868
X4.4111Y-3.5308
X4.4111Y-3.5308
X4.6537Y-2.1449
X4.6537Y-2.1449
X4.7468Y-2.8077
X4.7468Y-2.8077
X4.8399Y-3.4705
X4.8399Y-3.4705
X5.0374Y-1.8571
X5.0374Y-1.8571
X5.0762Y-2.5253
X5.0762Y-2.5253
X5.115Y-3.1935
X5.115Y-3.1935
X5.4694Y-1.8268
X5.4694Y-1.8268
X5.5082Y-2.4951
X5.5082Y-2.4951
X5.5471Y-3.1633
X5.5471Y-3.1633
X5.8758Y-2.0118
X5.8758Y-2.0118
X5.8758Y-2.6811
X5.8758Y-2.6811
X5.8758Y-3.3504
X5.8758Y-3.3504
X5.9467Y-4.2651
X5.9467Y-4.2651
X6.3089Y-2.0118
X6.3089Y-2.0118
X6.3089Y-2.6811
X6.3089Y-2.6811
X6.3089Y-3.3504
X6.3089Y-3.3504
X6.3798Y-4.2651
X6.3798Y-4.2651
X6.5845Y-2.1234
X6.5845Y-2.1234
X6.5845Y-2.7927
X6.5845Y-2.7927
X6.5845Y-3.462
X6.5845Y-3.462
X6.7318Y-4.2951
X6.7318Y-4.2951
X7.0176Y-2.1234
X7.0176Y-2.1234
X7.0176Y-2.7927
X7.0176Y-2.7927
X7.0176Y-3.462
X7.0176Y-3.462
X7.1538Y-4.3926
X7.1538Y-4.3926
X7.4666Y-4.4882
X7.4666Y-4.4882
X7.8709Y-4.6434
X7.8709Y-4.6434
T3
X3.3381Y-2.5626
X3.5035Y-2.4251
X3.5035Y-2.4251
X3.5226Y-3.206
X3.688Y-3.0685
X3.688Y-3.0685
X3.7071Y-3.8493
X3.7166Y-2.4541
X3.8724Y-3.7118
X3.8724Y-3.7118
X3.9011Y-3.0975
X4.0855Y-3.7408
X4.2237Y-2.0563
X4.3169Y-2.719
X4.4066Y-1.9431
X4.4066Y-1.9431
X4.41Y-3.3818
X4.4998Y-2.6059
X4.4998Y-2.6059
X4.5929Y-3.2686
X4.5929Y-3.2686
X4.6136Y-2.0015
X4.7068Y-2.6642
X4.7999Y-3.327
X5.0467Y-1.7084
X5.0856Y-2.3766
X5.1244Y-3.0448
X5.237Y-1.6083
X5.237Y-1.6083
X5.2759Y-2.2765
X5.2759Y-2.2765
X5.3147Y-2.9447
X5.3147Y-2.9447
X5.4395Y-1.6809
X5.4783Y-2.3492
X5.5171Y-3.0174
X5.8955Y-1.8642
X5.8955Y-2.5335
X5.8955Y-3.2028
X5.9664Y-4.1175
X6.0924Y-1.7776
X6.0924Y-1.7776
X6.0924Y-2.4469
X6.0924Y-2.4469
X6.0924Y-3.1162
X6.0924Y-3.1162
X6.1633Y-4.0309
X6.1633Y-4.0309
X6.2892Y-1.8642
X6.2892Y-2.5335
X6.2892Y-3.2028
X6.3601Y-4.1175
X6.6042Y-1.9757
X6.6042Y-2.645
X6.6042Y-3.3143
X6.7842Y-4.1557
X6.801Y-1.8891
X6.801Y-1.8891
X6.801Y-2.5584
X6.801Y-2.5584
X6.801Y-3.2277
X6.801Y-3.2277
X6.9955Y-4.1156
X6.9955Y-4.1156
X6.9979Y-1.9757
X6.9979Y-2.645
X6.9979Y-3.3143
X7.1678Y-4.2443
X7.5379Y-4.3574
X7.7527Y-4.3471
X7.7527Y-4.3471
X7.9054Y-4.4985
T4
X3.568Y-2.6503
X3.568Y-2.6503
X3.7525Y-3.2936
X3.7525Y-3.2936
X3.937Y-3.937
X3.937Y-3.937
X4.4392Y-2.1751
X4.4392Y-2.1751
X4.5324Y-2.8378
X4.5324Y-2.8378
X4.6255Y-3.5006
X4.6255Y-3.5006
X5.2534Y-1.842
X5.2534Y-1.842
X5.2922Y-2.5102
X5.2922Y-2.5102
X5.3311Y-3.1784
X5.3311Y-3.1784
X6.0924Y-2.0118
X6.0924Y-2.0118
X6.0924Y-2.6811
X6.0924Y-2.6811
X6.0924Y-3.3504
X6.0924Y-3.3504
X6.1633Y-4.2651
X6.1633Y-4.2651
X6.801Y-2.1234
X6.801Y-2.1234
X6.801Y-2.7927
X6.801Y-2.7927
X6.801Y-3.462
X6.801Y-3.462
X6.9428Y-4.3438
X6.9428Y-4.3438
X7.6687Y-4.5658
X7.6687Y-4.5658
T0
M30
