%TF.GenerationSoftware,KiCad,Pcbnew,7.0.2-0*%
%TF.CreationDate,2023-05-15T17:52:10-04:00*%
%TF.ProjectId,mini,6d696e69-2e6b-4696-9361-645f70636258,v1.0.0*%
%TF.SameCoordinates,Original*%
%TF.FileFunction,Copper,L1,Top*%
%TF.FilePolarity,Positive*%
%FSLAX46Y46*%
G04 Gerber Fmt 4.6, Leading zero omitted, Abs format (unit mm)*
G04 Created by KiCad (PCBNEW 7.0.2-0) date 2023-05-15 17:52:10*
%MOMM*%
%LPD*%
G01*
G04 APERTURE LIST*
G04 Aperture macros list*
%AMRoundRect*
0 Rectangle with rounded corners*
0 $1 Rounding radius*
0 $2 $3 $4 $5 $6 $7 $8 $9 X,Y pos of 4 corners*
0 Add a 4 corners polygon primitive as box body*
4,1,4,$2,$3,$4,$5,$6,$7,$8,$9,$2,$3,0*
0 Add four circle primitives for the rounded corners*
1,1,$1+$1,$2,$3*
1,1,$1+$1,$4,$5*
1,1,$1+$1,$6,$7*
1,1,$1+$1,$8,$9*
0 Add four rect primitives between the rounded corners*
20,1,$1+$1,$2,$3,$4,$5,0*
20,1,$1+$1,$4,$5,$6,$7,0*
20,1,$1+$1,$6,$7,$8,$9,0*
20,1,$1+$1,$8,$9,$2,$3,0*%
%AMRotRect*
0 Rectangle, with rotation*
0 The origin of the aperture is its center*
0 $1 length*
0 $2 width*
0 $3 Rotation angle, in degrees counterclockwise*
0 Add horizontal line*
21,1,$1,$2,0,0,$3*%
G04 Aperture macros list end*
%TA.AperFunction,ComponentPad*%
%ADD10RoundRect,0.400000X-0.900000X-0.400000X0.900000X-0.400000X0.900000X0.400000X-0.900000X0.400000X0*%
%TD*%
%TA.AperFunction,ComponentPad*%
%ADD11RoundRect,0.400050X-0.899950X-0.400050X0.899950X-0.400050X0.899950X0.400050X-0.899950X0.400050X0*%
%TD*%
%TA.AperFunction,ComponentPad*%
%ADD12RoundRect,0.400000X-0.400000X-0.900000X0.400000X-0.900000X0.400000X0.900000X-0.400000X0.900000X0*%
%TD*%
%TA.AperFunction,ComponentPad*%
%ADD13RoundRect,0.393700X-0.393700X-0.906300X0.393700X-0.906300X0.393700X0.906300X-0.393700X0.906300X0*%
%TD*%
%TA.AperFunction,ComponentPad*%
%ADD14C,2.032000*%
%TD*%
%TA.AperFunction,SMDPad,CuDef*%
%ADD15R,2.600000X2.600000*%
%TD*%
%TA.AperFunction,SMDPad,CuDef*%
%ADD16RotRect,2.600000X2.600000X16.000000*%
%TD*%
%TA.AperFunction,SMDPad,CuDef*%
%ADD17RotRect,2.600000X2.600000X339.000000*%
%TD*%
%TA.AperFunction,SMDPad,CuDef*%
%ADD18RotRect,2.600000X2.600000X8.000000*%
%TD*%
%TA.AperFunction,SMDPad,CuDef*%
%ADD19RotRect,2.600000X2.600000X347.000000*%
%TD*%
%TA.AperFunction,SMDPad,CuDef*%
%ADD20RotRect,2.600000X2.600000X4.000000*%
%TD*%
%TA.AperFunction,ComponentPad*%
%ADD21O,2.200000X1.600000*%
%TD*%
%TA.AperFunction,ViaPad*%
%ADD22C,0.800000*%
%TD*%
%TA.AperFunction,Conductor*%
%ADD23C,0.250000*%
%TD*%
%TA.AperFunction,Conductor*%
%ADD24C,1.000000*%
%TD*%
%TA.AperFunction,Conductor*%
%ADD25C,0.500000*%
%TD*%
G04 APERTURE END LIST*
D10*
%TO.P,RP2040Zero1,1*%
%TO.N,GP0*%
X201126574Y-50073756D03*
X201126574Y-50073756D03*
%TO.P,RP2040Zero1,2*%
%TO.N,GP1*%
X201126574Y-52613756D03*
X201126574Y-52613756D03*
%TO.P,RP2040Zero1,3*%
%TO.N,GP2*%
X201126574Y-55153756D03*
X201126574Y-55153756D03*
%TO.P,RP2040Zero1,4*%
%TO.N,GP3*%
X201126574Y-57693756D03*
X201126574Y-57693756D03*
%TO.P,RP2040Zero1,5*%
%TO.N,GP4*%
X201126574Y-60233756D03*
X201126574Y-60233756D03*
D11*
%TO.P,RP2040Zero1,6*%
%TO.N,GP5*%
X201126574Y-62773756D03*
X201126574Y-62773756D03*
%TO.P,RP2040Zero1,7*%
%TO.N,GP6*%
X201126574Y-65313756D03*
X201126574Y-65313756D03*
%TO.P,RP2040Zero1,8*%
%TO.N,GP7*%
X201126574Y-67853756D03*
X201126574Y-67853756D03*
%TO.P,RP2040Zero1,9*%
%TO.N,GP8*%
X201126574Y-70393756D03*
X201126574Y-70393756D03*
D12*
%TO.P,RP2040Zero1,10*%
%TO.N,GP9*%
X197986574Y-71203756D03*
X197986574Y-71203756D03*
D13*
%TO.P,RP2040Zero1,11*%
%TO.N,GP10*%
X195446574Y-71203756D03*
X195446574Y-71203756D03*
%TO.P,RP2040Zero1,12*%
%TO.N,GP11*%
X192906574Y-71203756D03*
X192906574Y-71203756D03*
%TO.P,RP2040Zero1,13*%
%TO.N,GP12*%
X190366574Y-71203756D03*
X190366574Y-71203756D03*
%TO.P,RP2040Zero1,14*%
%TO.N,GP13*%
X187826574Y-71203756D03*
X187826574Y-71203756D03*
D11*
%TO.P,RP2040Zero1,15*%
%TO.N,GP14*%
X184686574Y-70393756D03*
X184686574Y-70393756D03*
%TO.P,RP2040Zero1,16*%
%TO.N,GP15*%
X184686574Y-67853756D03*
X184686574Y-67853756D03*
%TO.P,RP2040Zero1,17*%
%TO.N,GP26*%
X184686574Y-65313756D03*
X184686574Y-65313756D03*
%TO.P,RP2040Zero1,18*%
%TO.N,GP27*%
X184686574Y-62773756D03*
X184686574Y-62773756D03*
%TO.P,RP2040Zero1,19*%
%TO.N,P5V*%
X184686574Y-50073756D03*
X184686574Y-50073756D03*
%TO.P,RP2040Zero1,20*%
%TO.N,GND*%
X184686574Y-52613756D03*
X184686574Y-52613756D03*
%TO.P,RP2040Zero1,21*%
%TO.N,P3V3*%
X184686574Y-55153756D03*
X184686574Y-55153756D03*
%TO.P,RP2040Zero1,22*%
%TO.N,GP28*%
X184686574Y-60233756D03*
X184686574Y-60233756D03*
%TO.P,RP2040Zero1,23*%
%TO.N,GP29*%
X184686574Y-57693756D03*
X184686574Y-57693756D03*
%TD*%
D14*
%TO.P,S30,1*%
%TO.N,GP28*%
X159746574Y-54900423D03*
X149746574Y-54900423D03*
%TO.P,S30,2*%
%TO.N,GND*%
X154746574Y-57000423D03*
X154746574Y-57000423D03*
%TD*%
D15*
%TO.P,S13,1*%
%TO.N,GP9*%
X176021574Y-81983756D03*
%TO.P,S13,2*%
%TO.N,GND*%
X164471574Y-84183756D03*
%TD*%
D14*
%TO.P,S24,1*%
%TO.N,GP26*%
X118236460Y-58313706D03*
X108333779Y-59705437D03*
%TO.P,S24,2*%
%TO.N,GND*%
X113577383Y-61089135D03*
X113577383Y-61089135D03*
%TD*%
%TO.P,S28,1*%
%TO.N,GP8*%
X159746574Y-88900423D03*
X149746574Y-88900423D03*
%TO.P,S28,2*%
%TO.N,GND*%
X154746574Y-91000423D03*
X154746574Y-91000423D03*
%TD*%
%TO.P,S25,1*%
%TO.N,GP5*%
X140661682Y-84172598D03*
X130686041Y-84870163D03*
%TO.P,S25,2*%
%TO.N,GND*%
X135820350Y-86616265D03*
X135820350Y-86616265D03*
%TD*%
D16*
%TO.P,S1,1*%
%TO.N,GP3*%
X101508090Y-93377781D03*
%TO.P,S1,2*%
%TO.N,GND*%
X91011919Y-98676168D03*
%TD*%
D14*
%TO.P,S33,1*%
%TO.N,GP29*%
X177746574Y-57733756D03*
X167746574Y-57733756D03*
%TO.P,S33,2*%
%TO.N,GND*%
X172746574Y-59833756D03*
X172746574Y-59833756D03*
%TD*%
%TO.P,S26,1*%
%TO.N,GP12*%
X139675335Y-67200057D03*
X129699694Y-67897622D03*
%TO.P,S26,2*%
%TO.N,GND*%
X134834003Y-69643724D03*
X134834003Y-69643724D03*
%TD*%
D17*
%TO.P,S18,1*%
%TO.N,GP2*%
X199975354Y-111589980D03*
%TO.P,S18,2*%
%TO.N,GND*%
X188404091Y-109504708D03*
%TD*%
D18*
%TO.P,S5,1*%
%TO.N,GP11*%
X117537253Y-65733224D03*
%TO.P,S5,2*%
%TO.N,GND*%
X106405838Y-69519263D03*
%TD*%
D19*
%TO.P,S17,1*%
%TO.N,GP6*%
X180876095Y-105272969D03*
%TO.P,S17,2*%
%TO.N,GND*%
X169127228Y-104818398D03*
%TD*%
D14*
%TO.P,S32,1*%
%TO.N,GP14*%
X177746574Y-74733756D03*
X167746574Y-74733756D03*
%TO.P,S32,2*%
%TO.N,GND*%
X172746574Y-76833756D03*
X172746574Y-76833756D03*
%TD*%
%TO.P,S23,1*%
%TO.N,GP11*%
X120602403Y-75148264D03*
X110699722Y-76539995D03*
%TO.P,S23,2*%
%TO.N,GND*%
X115943326Y-77923693D03*
X115943326Y-77923693D03*
%TD*%
%TO.P,S35,1*%
%TO.N,GP6*%
X180363610Y-115161118D03*
X170619910Y-112911607D03*
%TO.P,S35,2*%
%TO.N,GND*%
X175019363Y-116082539D03*
X175019363Y-116082539D03*
%TD*%
%TO.P,S21,1*%
%TO.N,GP15*%
X96482060Y-69591710D03*
X86869443Y-72348083D03*
%TO.P,S21,2*%
%TO.N,GND*%
X92254590Y-72988546D03*
X92254590Y-72988546D03*
%TD*%
%TO.P,S22,1*%
%TO.N,GP4*%
X122968346Y-91982821D03*
X113065665Y-93374552D03*
%TO.P,S22,2*%
%TO.N,GND*%
X118309269Y-94758250D03*
X118309269Y-94758250D03*
%TD*%
%TO.P,S34,1*%
%TO.N,GP7*%
X161546574Y-112133756D03*
X151546574Y-112133756D03*
%TO.P,S34,2*%
%TO.N,GND*%
X156546574Y-114233756D03*
X156546574Y-114233756D03*
%TD*%
%TO.P,S36,1*%
%TO.N,GP2*%
X198091693Y-121310574D03*
X188755889Y-117726895D03*
%TO.P,S36,2*%
%TO.N,GND*%
X192671218Y-121479254D03*
X192671218Y-121479254D03*
%TD*%
D15*
%TO.P,S12,1*%
%TO.N,GP28*%
X158021574Y-45150423D03*
%TO.P,S12,2*%
%TO.N,GND*%
X146471574Y-47350423D03*
%TD*%
D16*
%TO.P,S3,1*%
%TO.N,GP15*%
X92136420Y-60694883D03*
%TO.P,S3,2*%
%TO.N,GND*%
X81640249Y-65993270D03*
%TD*%
D20*
%TO.P,S8,1*%
%TO.N,GP12*%
X137274411Y-57594137D03*
%TO.P,S8,2*%
%TO.N,GND*%
X125906011Y-60594466D03*
%TD*%
D14*
%TO.P,S20,1*%
%TO.N,GP10*%
X101167895Y-85933159D03*
X91555278Y-88689532D03*
%TO.P,S20,2*%
%TO.N,GND*%
X96940425Y-89329995D03*
X96940425Y-89329995D03*
%TD*%
D20*
%TO.P,S9,1*%
%TO.N,GP27*%
X136288063Y-40621597D03*
%TO.P,S9,2*%
%TO.N,GND*%
X124919663Y-43621926D03*
%TD*%
D15*
%TO.P,S16,1*%
%TO.N,GP7*%
X159821574Y-102383756D03*
%TO.P,S16,2*%
%TO.N,GND*%
X148271574Y-104583756D03*
%TD*%
D14*
%TO.P,S31,1*%
%TO.N,GP9*%
X177746574Y-91733756D03*
X167746574Y-91733756D03*
%TO.P,S31,2*%
%TO.N,GND*%
X172746574Y-93833756D03*
X172746574Y-93833756D03*
%TD*%
D18*
%TO.P,S4,1*%
%TO.N,GP4*%
X119903196Y-82567781D03*
%TO.P,S4,2*%
%TO.N,GND*%
X108771781Y-86353820D03*
%TD*%
D21*
%TO.P,TRRS1,1*%
%TO.N,GND*%
X190846574Y-83433756D03*
X190846574Y-88033756D03*
%TO.P,TRRS1,2*%
X191946574Y-83433756D03*
X191946574Y-88033756D03*
%TO.P,TRRS1,3*%
%TO.N,P3V3*%
X195946574Y-83433756D03*
X195946574Y-88033756D03*
%TO.P,TRRS1,4*%
%TO.N,GP1*%
X198946574Y-83433756D03*
X198946574Y-88033756D03*
%TD*%
D14*
%TO.P,S19,1*%
%TO.N,GP3*%
X105853730Y-102274608D03*
X96241113Y-105030981D03*
%TO.P,S19,2*%
%TO.N,GND*%
X101626260Y-105671444D03*
X101626260Y-105671444D03*
%TD*%
D15*
%TO.P,S14,1*%
%TO.N,GP14*%
X176021574Y-64983756D03*
%TO.P,S14,2*%
%TO.N,GND*%
X164471574Y-67183756D03*
%TD*%
D14*
%TO.P,S27,1*%
%TO.N,GP27*%
X138688987Y-50227517D03*
X128713346Y-50925082D03*
%TO.P,S27,2*%
%TO.N,GND*%
X133847655Y-52671184D03*
X133847655Y-52671184D03*
%TD*%
D20*
%TO.P,S7,1*%
%TO.N,GP5*%
X138260758Y-74566678D03*
%TO.P,S7,2*%
%TO.N,GND*%
X126892358Y-77567007D03*
%TD*%
D15*
%TO.P,S10,1*%
%TO.N,GP8*%
X158021574Y-79150423D03*
%TO.P,S10,2*%
%TO.N,GND*%
X146471574Y-81350423D03*
%TD*%
D14*
%TO.P,S29,1*%
%TO.N,GP13*%
X159746574Y-71900423D03*
X149746574Y-71900423D03*
%TO.P,S29,2*%
%TO.N,GND*%
X154746574Y-74000423D03*
X154746574Y-74000423D03*
%TD*%
D15*
%TO.P,S11,1*%
%TO.N,GP13*%
X158021574Y-62150423D03*
%TO.P,S11,2*%
%TO.N,GND*%
X146471574Y-64350423D03*
%TD*%
D18*
%TO.P,S6,1*%
%TO.N,GP26*%
X115171310Y-48898666D03*
%TO.P,S6,2*%
%TO.N,GND*%
X104039895Y-52684705D03*
%TD*%
D16*
%TO.P,S2,1*%
%TO.N,GP10*%
X96822255Y-77036332D03*
%TO.P,S2,2*%
%TO.N,GND*%
X86326084Y-82334719D03*
%TD*%
D15*
%TO.P,S15,1*%
%TO.N,GP29*%
X176021574Y-47983756D03*
%TO.P,S15,2*%
%TO.N,GND*%
X164471574Y-50183756D03*
%TD*%
D22*
%TO.N,GND*%
X143091444Y-62986473D03*
X165383233Y-64595159D03*
%TD*%
D23*
%TO.N,P3V3*%
X201110248Y-53840316D02*
X202257993Y-53840344D01*
%TO.N,GP3*%
X101338109Y-95167599D02*
X101508090Y-93377781D01*
X105853730Y-102274608D02*
X96241113Y-105030981D01*
X102356777Y-98306289D02*
X105853730Y-102274608D01*
X101338113Y-95167599D02*
G75*
G03*
X102356777Y-98306289I4134787J-392701D01*
G01*
%TO.N,GND*%
X184755175Y-118691328D02*
X175019363Y-116082539D01*
X146314984Y-39417649D02*
X146471574Y-47350423D01*
X106405838Y-69519263D02*
X107712537Y-76716246D01*
D24*
X191946574Y-83433756D02*
X191946574Y-88033756D01*
D23*
X125906011Y-60594466D02*
X127912593Y-68298145D01*
X149074019Y-114488888D02*
X156546574Y-114233756D01*
X126403511Y-52482191D02*
X124919663Y-43621926D01*
X110608285Y-94650898D02*
X108771781Y-86353820D01*
X165383233Y-64595159D02*
X164471574Y-67183756D01*
X85136214Y-78185150D02*
X83948775Y-74044060D01*
X107682294Y-62216027D02*
X113577383Y-61089135D01*
X164459672Y-42625273D02*
X164471574Y-50183756D01*
X181505363Y-50800214D02*
X181416807Y-47634326D01*
X179310733Y-45187018D02*
X164357575Y-42503573D01*
X83948775Y-74044060D02*
X81640249Y-65993270D01*
X167865766Y-114747476D02*
X168662527Y-114896174D01*
X164357575Y-42503573D02*
X164153743Y-42467059D01*
X164153743Y-42467059D02*
X164357587Y-42503510D01*
X154746574Y-91000423D02*
X148574170Y-91446948D01*
X94117123Y-108112111D02*
X101626260Y-105671444D01*
X148343303Y-114270668D02*
X148271574Y-104583756D01*
X94003509Y-108330866D02*
X94105230Y-108661459D01*
X167859397Y-114801511D02*
X156546574Y-114233756D01*
X125196174Y-93394108D02*
X135820350Y-86616265D01*
X189287361Y-88047816D02*
X190846574Y-88033756D01*
X184757116Y-118685067D02*
X184916468Y-118741328D01*
X183422038Y-52638973D02*
X185286574Y-52613756D01*
X146566105Y-88646982D02*
X146578640Y-89614533D01*
X86326084Y-82334719D02*
X85136214Y-78185150D01*
X105391916Y-60626641D02*
X104039895Y-52684705D01*
X130482805Y-70084868D02*
X134834003Y-69643724D01*
X188062926Y-107144469D02*
X188404091Y-109504708D01*
X148588076Y-114505479D02*
X149074019Y-114488888D01*
X94003188Y-108330965D02*
X91011919Y-98676168D01*
X168662527Y-114896174D02*
X175019363Y-116082539D01*
D24*
X190846574Y-88033756D02*
X190846574Y-83433756D01*
D23*
X166718476Y-93884075D02*
X172746574Y-93833756D01*
X120957267Y-94690315D02*
X118309269Y-94758250D01*
X110540233Y-65083607D02*
X121295350Y-60663696D01*
X86326084Y-82334719D02*
X88058991Y-88654629D01*
X135820350Y-86616265D02*
X130867130Y-87739880D01*
X92254590Y-72988546D02*
X86391959Y-75211680D01*
X128639754Y-53952967D02*
X133847655Y-52671184D01*
X144546462Y-86636285D02*
X135820350Y-86616265D01*
X89915810Y-91350013D02*
X96940425Y-89329995D01*
X106405838Y-69519263D02*
X92254590Y-72988546D01*
X167534696Y-114273496D02*
X169127228Y-104818398D01*
X164153743Y-42467059D02*
X146189489Y-39254778D01*
X110097525Y-78512184D02*
X115943326Y-77923693D01*
X146509760Y-84297912D02*
X146471574Y-81350423D01*
X106405838Y-69519263D02*
X107494116Y-67703731D01*
X89216009Y-92627710D02*
X91011919Y-98676168D01*
X143091444Y-62986473D02*
X146471574Y-64350423D01*
X187728148Y-102488285D02*
X187728148Y-89621153D01*
X164405643Y-91910619D02*
X164471574Y-84183756D01*
X94105230Y-108661459D02*
X94003188Y-108330965D01*
X94105230Y-108661459D02*
X95980199Y-114755108D01*
X128555718Y-86228814D02*
X126892358Y-77567007D01*
X125906011Y-60594466D02*
X124336866Y-60326539D01*
X148588162Y-114507710D02*
X98694101Y-116670110D01*
X89216009Y-92627710D02*
X88627051Y-90644153D01*
X188404091Y-109504708D02*
X184709305Y-118578678D01*
X112965375Y-96105726D02*
X118309269Y-94758250D01*
X184916468Y-118741328D02*
X192671218Y-121479254D01*
X146509760Y-84297912D02*
X146566105Y-88646982D01*
X108771781Y-86353820D02*
X96940425Y-89329995D01*
X154746574Y-91000423D02*
X162593774Y-93363113D01*
X148588163Y-114507719D02*
G75*
G03*
X148588076Y-114505479I-63J1119D01*
G01*
X167534660Y-114273490D02*
G75*
G03*
X167865766Y-114747475I406740J-68510D01*
G01*
X162593777Y-93363104D02*
G75*
G03*
X166718476Y-93884074I3797023J13473504D01*
G01*
X146566145Y-88646982D02*
G75*
G03*
X144546462Y-86636286I-2030645J-20018D01*
G01*
X89915820Y-91350047D02*
G75*
G03*
X89216010Y-92627710I283480J-985753D01*
G01*
X184755152Y-118691415D02*
G75*
G03*
X184757116Y-118685068I848J3215D01*
G01*
X181505395Y-50800213D02*
G75*
G03*
X183422038Y-52638973I1891105J52913D01*
G01*
X110608285Y-94650898D02*
G75*
G03*
X112965375Y-96105726I1885015J417198D01*
G01*
X88058991Y-88654629D02*
G75*
G03*
X88627051Y-90644153I94979509J26043229D01*
G01*
X187728149Y-102488285D02*
G75*
G03*
X188062927Y-107144469I32546951J-15D01*
G01*
X164459720Y-42625273D02*
G75*
G03*
X164357587Y-42503510I-123920J-227D01*
G01*
X146189489Y-39254778D02*
G75*
G03*
X146188171Y-39261193I-589J-3222D01*
G01*
X184916467Y-118741332D02*
G75*
G03*
X184755175Y-118691329I-724667J-2052368D01*
G01*
X120957267Y-94690325D02*
G75*
G03*
X125196173Y-93394107I-212267J8273325D01*
G01*
X146578659Y-89614533D02*
G75*
G03*
X148574170Y-91446948I1861241J24133D01*
G01*
X86391925Y-75211607D02*
G75*
G03*
X85136215Y-78185150I1002575J-2175293D01*
G01*
X128555787Y-86228801D02*
G75*
G03*
X130867130Y-87739880I1886413J362201D01*
G01*
X94117130Y-108112133D02*
G75*
G03*
X94003510Y-108330866I54270J-167067D01*
G01*
X105391953Y-60626635D02*
G75*
G03*
X107682294Y-62216027I1923947J327535D01*
G01*
X164357539Y-42503547D02*
G75*
G03*
X164357575Y-42503573I61J47D01*
G01*
X162593778Y-93363098D02*
G75*
G03*
X164405643Y-91910619I359722J1407598D01*
G01*
X146315020Y-39417648D02*
G75*
G03*
X146188171Y-39261194I-163920J-3252D01*
G01*
X83948830Y-74044043D02*
G75*
G03*
X86391959Y-75211680I1759070J540843D01*
G01*
X144546466Y-86636328D02*
G75*
G03*
X146509759Y-84297912I-185266J2148928D01*
G01*
X94003118Y-108331006D02*
G75*
G03*
X94003508Y-108330866I182J106D01*
G01*
X127912621Y-68298138D02*
G75*
G03*
X130482805Y-70084867I2327579J606238D01*
G01*
X167859395Y-114801543D02*
G75*
G03*
X167865766Y-114747477I1405J27243D01*
G01*
X107712550Y-76716244D02*
G75*
G03*
X110097525Y-78512184I2164650J393044D01*
G01*
X110540235Y-65083612D02*
G75*
G03*
X107494116Y-67703731I2424365J-5899288D01*
G01*
X95980249Y-114755093D02*
G75*
G03*
X98694101Y-116670109I2596251J798793D01*
G01*
X124336864Y-60326550D02*
G75*
G03*
X121295350Y-60663696I-933464J-5466750D01*
G01*
X181416820Y-47634326D02*
G75*
G03*
X179310733Y-45187018I-2558120J-71574D01*
G01*
X126403527Y-52482188D02*
G75*
G03*
X128639754Y-53952966I1800073J301488D01*
G01*
X184709314Y-118578682D02*
G75*
G03*
X184757116Y-118685067I74586J-30418D01*
G01*
X189287362Y-88047912D02*
G75*
G03*
X187728148Y-89621153I14138J-1573288D01*
G01*
X164405577Y-91910624D02*
G75*
G03*
X166718476Y-93884074I2138823J164624D01*
G01*
X149074019Y-114488888D02*
G75*
G03*
X148588162Y-114507711I1805681J-52889712D01*
G01*
X168662528Y-114896169D02*
G75*
G03*
X167859397Y-114801511I-1105028J-5921231D01*
G01*
X88627017Y-90644163D02*
G75*
G03*
X89915810Y-91350012I1000383J297063D01*
G01*
X148343291Y-114270668D02*
G75*
G03*
X148588076Y-114505478I236709J1768D01*
G01*
%TO.N,GP10*%
X193389794Y-75037972D02*
X193920628Y-74772556D01*
X178723786Y-79636337D02*
X178812431Y-79639292D01*
X101167895Y-85933159D02*
X120533563Y-78626535D01*
X122060445Y-77146874D02*
X120666707Y-78540612D01*
X138637190Y-71718195D02*
X133904881Y-72916247D01*
X125491932Y-75158277D02*
X129372157Y-74105073D01*
X195445424Y-72307244D02*
X195446574Y-70603756D01*
X154495756Y-76134130D02*
X150152747Y-76303338D01*
X173848983Y-79561097D02*
X172713514Y-79588132D01*
X178598536Y-79632162D02*
X178259389Y-79620857D01*
X164063210Y-79060630D02*
X164082495Y-79069446D01*
X120552084Y-78655235D02*
X120494773Y-78712547D01*
X96591127Y-78694720D02*
X96822255Y-77036332D01*
X189121083Y-76676193D02*
X178592517Y-79581379D01*
X101167895Y-85933159D02*
X97452968Y-81621609D01*
X178723786Y-79636337D02*
X178598536Y-79632162D01*
X120666707Y-78540612D02*
X120552084Y-78655235D01*
X146044860Y-75040168D02*
X142594710Y-72494975D01*
X159959813Y-77303243D02*
X158963192Y-76904595D01*
X101167895Y-85933159D02*
X91555278Y-88689532D01*
X176902441Y-79575625D02*
X178259389Y-79620857D01*
X178812431Y-79639292D02*
X178856754Y-79640770D01*
X158963188Y-76904606D02*
G75*
G03*
X154495756Y-76134130I-4043588J-10108894D01*
G01*
X120533564Y-78626537D02*
G75*
G03*
X120666706Y-78540611I-132764J351837D01*
G01*
X164063210Y-79060631D02*
G75*
G03*
X159959813Y-77303243I-38450110J-84109469D01*
G01*
X193920645Y-74772589D02*
G75*
G03*
X195445423Y-72307244I-1233645J2467189D01*
G01*
X96591118Y-78694719D02*
G75*
G03*
X97452969Y-81621608I3665882J-510881D01*
G01*
X176902441Y-79575624D02*
G75*
G03*
X173848983Y-79561098I-1780941J-53428176D01*
G01*
X164082493Y-79069451D02*
G75*
G03*
X168298224Y-79814811I3544707J7754051D01*
G01*
X178592511Y-79581358D02*
G75*
G03*
X178598536Y-79632162I6889J-24942D01*
G01*
X178259389Y-79620847D02*
G75*
G03*
X178592517Y-79581378I37111J1112347D01*
G01*
X142594693Y-72494998D02*
G75*
G03*
X138637190Y-71718196I-2799993J-3795502D01*
G01*
X125491929Y-75158266D02*
G75*
G03*
X122060445Y-77146874I2019271J-7439334D01*
G01*
X189121084Y-76676195D02*
G75*
G03*
X193389794Y-75037972I-6265584J22706795D01*
G01*
X120552083Y-78655234D02*
G75*
G03*
X120533563Y-78626536I-12383J12334D01*
G01*
X146044848Y-75040184D02*
G75*
G03*
X150152747Y-76303338I3855052J5225784D01*
G01*
X172713514Y-79588134D02*
G75*
G03*
X168298224Y-79814812I1914286J-80401566D01*
G01*
X133904881Y-72916247D02*
G75*
G03*
X129372157Y-74105074I67303119J-265846953D01*
G01*
%TO.N,GP15*%
X150594256Y-59168036D02*
X141983997Y-55896138D01*
X126384532Y-57335464D02*
X131742747Y-55784402D01*
X92976809Y-65616241D02*
X96482060Y-69591710D01*
X181369581Y-65313725D02*
X181170383Y-64782531D01*
X111977033Y-63621224D02*
X96482060Y-69591710D01*
X122029346Y-58998963D02*
X116273726Y-61764650D01*
X96482060Y-69591710D02*
X86869443Y-72348083D01*
X155092113Y-60013708D02*
X158236499Y-60040583D01*
X165881589Y-62552821D02*
X178279670Y-62745787D01*
X91962833Y-62482126D02*
X92136420Y-60694883D01*
X183630111Y-67389163D02*
X185286574Y-67853756D01*
X136315486Y-55109936D02*
X137490236Y-55096883D01*
X126384534Y-57335471D02*
G75*
G03*
X122029346Y-58998963I7810066J-26980429D01*
G01*
X136315486Y-55109934D02*
G75*
G03*
X131742747Y-55784403I190314J-17128566D01*
G01*
X150594255Y-59168040D02*
G75*
G03*
X155092113Y-60013707I4608745J12128340D01*
G01*
X141983992Y-55896152D02*
G75*
G03*
X137490236Y-55096884I-4357492J-11466948D01*
G01*
X181170391Y-64782528D02*
G75*
G03*
X178279670Y-62745787I-2939591J-1102372D01*
G01*
X181369534Y-65313743D02*
G75*
G03*
X183630111Y-67389163I3176766J1191343D01*
G01*
X111977033Y-63621225D02*
G75*
G03*
X116273726Y-61764649I-21001033J54503125D01*
G01*
X162059117Y-61289325D02*
G75*
G03*
X165881589Y-62552821I3927183J5467125D01*
G01*
X91962808Y-62482124D02*
G75*
G03*
X92976810Y-65616240I4115192J-399676D01*
G01*
X162059141Y-61289292D02*
G75*
G03*
X158236499Y-60040584I-3879441J-5400608D01*
G01*
%TO.N,GP4*%
X119930545Y-87196728D02*
X122968346Y-91982821D01*
X122968346Y-91982821D02*
X113065665Y-93374552D01*
X119470024Y-84178242D02*
X119903196Y-82567781D01*
X119470055Y-84178250D02*
G75*
G03*
X119930545Y-87196728I3663645J-985450D01*
G01*
%TO.N,GP11*%
X117653740Y-70304616D02*
X120602403Y-75148264D01*
X120602403Y-75148264D02*
X110699722Y-76539995D01*
X166222422Y-78334395D02*
X174789967Y-78723044D01*
X191909933Y-72950496D02*
X192906574Y-70603756D01*
X166209724Y-78401892D02*
X166441780Y-78480492D01*
X120602403Y-75148264D02*
X139097265Y-70445334D01*
X166209724Y-78401892D02*
X165745613Y-78244693D01*
X117171504Y-67322444D02*
X117537253Y-65733224D01*
X161427061Y-76781958D02*
X165745613Y-78244693D01*
X146282026Y-73441838D02*
X143089147Y-71184803D01*
X150081860Y-74477532D02*
X150871164Y-74411757D01*
X157759616Y-74289675D02*
X156788378Y-73145002D01*
X188893061Y-75589976D02*
X179361742Y-78211088D01*
X152911397Y-73130182D02*
X152866527Y-73201227D01*
X156788369Y-73145009D02*
G75*
G03*
X154780986Y-72156978I-2140969J-1816591D01*
G01*
X188893058Y-75589965D02*
G75*
G03*
X191909933Y-72950496I-1220758J4439165D01*
G01*
X154780985Y-72156992D02*
G75*
G03*
X152911397Y-73130182I-99585J-2091108D01*
G01*
X117171512Y-67322446D02*
G75*
G03*
X117653741Y-70304616I3904788J-898654D01*
G01*
X150871164Y-74411763D02*
G75*
G03*
X152866526Y-73201227I-217364J2608063D01*
G01*
X174789968Y-78723032D02*
G75*
G03*
X179361742Y-78211088I667332J14710032D01*
G01*
X143089139Y-71184814D02*
G75*
G03*
X139097265Y-70445334I-2797539J-3957486D01*
G01*
X157759603Y-74289686D02*
G75*
G03*
X161427061Y-76781957I6331097J5371886D01*
G01*
X146282005Y-73441867D02*
G75*
G03*
X150081860Y-74477532I3321895J4699367D01*
G01*
X166222425Y-78334332D02*
G75*
G03*
X166209724Y-78401891I-1625J-34668D01*
G01*
X165745617Y-78244681D02*
G75*
G03*
X166222422Y-78334395I555283J1639281D01*
G01*
%TO.N,GP26*%
X115081930Y-53288250D02*
X118236460Y-58313706D01*
X158962995Y-59135926D02*
X155073399Y-59105299D01*
X130039227Y-55046269D02*
X118236460Y-58313706D01*
X142792144Y-55037307D02*
X150600034Y-58212265D01*
X180375406Y-62081120D02*
X166229475Y-61614771D01*
X182223024Y-63621137D02*
X182255099Y-63768680D01*
X114703636Y-50419605D02*
X115171310Y-48898666D01*
X118236460Y-58313706D02*
X108333779Y-59705437D01*
X183916732Y-65212338D02*
X185286574Y-65313756D01*
X134623040Y-54350984D02*
X138328487Y-54236086D01*
X134623040Y-54350986D02*
G75*
G03*
X130039227Y-55046269I602460J-19429414D01*
G01*
X182222986Y-63621145D02*
G75*
G03*
X180375406Y-62081121I-1912086J-415655D01*
G01*
X114703656Y-50419611D02*
G75*
G03*
X115081930Y-53288250I3321344J-1021289D01*
G01*
X142792140Y-55037317D02*
G75*
G03*
X138328487Y-54236087I-4124340J-10142583D01*
G01*
X182255036Y-63768694D02*
G75*
G03*
X183916732Y-65212338I1797464J390794D01*
G01*
X162596749Y-60350095D02*
G75*
G03*
X166229475Y-61614771I3845751J5196995D01*
G01*
X162596763Y-60350076D02*
G75*
G03*
X158962995Y-59135927I-3682463J-4976324D01*
G01*
X150600035Y-58212262D02*
G75*
G03*
X155073399Y-59105298I4568865J11235762D01*
G01*
%TO.N,GP5*%
X140661682Y-84172598D02*
X137638768Y-78868936D01*
X140661682Y-84172598D02*
X130686041Y-84870163D01*
X137550001Y-76016430D02*
X138260758Y-74566678D01*
X137550040Y-76016449D02*
G75*
G03*
X137638769Y-78868936I2738160J-1342451D01*
G01*
%TO.N,GP12*%
X136497219Y-59164007D02*
X137274411Y-57594137D01*
X168899636Y-77204186D02*
X168298224Y-77204186D01*
X146502776Y-72268675D02*
X139675335Y-67200057D01*
X139675335Y-67200057D02*
X136634092Y-62228202D01*
X154839000Y-71054712D02*
X154643807Y-71040770D01*
X190180998Y-72453623D02*
X190366574Y-70603756D01*
X179468683Y-77519994D02*
X188217418Y-74846769D01*
X161903146Y-75795644D02*
X164668756Y-76653937D01*
X158253814Y-73344828D02*
X157498655Y-72427850D01*
X149849805Y-73375269D02*
X150273412Y-73375269D01*
X139675335Y-67200057D02*
X129699694Y-67897622D01*
X176072086Y-76566032D02*
X175721109Y-76171183D01*
X172801175Y-75069235D02*
X173113378Y-75057672D01*
X175721098Y-76171193D02*
G75*
G03*
X173113378Y-75057672I-2484698J-2208607D01*
G01*
X136497210Y-59164002D02*
G75*
G03*
X136634093Y-62228202I2844290J-1408098D01*
G01*
X146502772Y-72268681D02*
G75*
G03*
X149849805Y-73375269I3347028J4508481D01*
G01*
X154643807Y-71040774D02*
G75*
G03*
X152460431Y-72156977I-168807J-2363326D01*
G01*
X158253830Y-73344815D02*
G75*
G03*
X161903146Y-75795644I5923970J4878515D01*
G01*
X188217402Y-74846717D02*
G75*
G03*
X190180998Y-72453623I-816402J2672017D01*
G01*
X157498686Y-72427825D02*
G75*
G03*
X154839000Y-71054712I-2930086J-2413075D01*
G01*
X176072118Y-76566004D02*
G75*
G03*
X179468683Y-77519993I2441882J2170504D01*
G01*
X172801174Y-75069215D02*
G75*
G03*
X170850836Y-76159936I90826J-2451485D01*
G01*
X150273412Y-73375274D02*
G75*
G03*
X152460429Y-72156977I-12J2572174D01*
G01*
X164668754Y-76653943D02*
G75*
G03*
X168298224Y-77204186I3629446J11694943D01*
G01*
X168899636Y-77204200D02*
G75*
G03*
X170850836Y-76159936I-36J2345100D01*
G01*
%TO.N,GP27*%
X157609216Y-56172221D02*
X157646656Y-56237741D01*
X175567529Y-59411175D02*
X174434262Y-57799257D01*
X136142287Y-45615855D02*
X138688987Y-50227517D01*
X155272476Y-54662036D02*
X155147835Y-54650052D01*
X167541395Y-60382478D02*
X168936798Y-60382478D01*
X135783112Y-42336330D02*
X136288063Y-40621597D01*
X178688449Y-61076519D02*
X180771739Y-61123023D01*
X174439017Y-57790802D02*
X174450243Y-57791551D01*
X147871735Y-55957721D02*
X138688987Y-50227517D01*
X174416566Y-57789305D02*
X174439017Y-57790802D01*
X183851959Y-61966756D02*
X185286574Y-62773756D01*
X172981621Y-57693642D02*
X174416566Y-57789305D01*
X138688987Y-50227517D02*
X128713346Y-50925082D01*
X152928715Y-56093167D02*
X152877626Y-56246435D01*
X170984877Y-58989854D02*
X171002572Y-58945099D01*
X163377274Y-59069854D02*
X162587692Y-58517146D01*
X162587697Y-58517139D02*
G75*
G03*
X159876277Y-57597232I-2933597J-4190861D01*
G01*
X175567561Y-59411153D02*
G75*
G03*
X178688449Y-61076519I3208439J2255653D01*
G01*
X135783108Y-42336329D02*
G75*
G03*
X136142288Y-45615855I4107492J-1209571D01*
G01*
X150808035Y-57305738D02*
G75*
G03*
X152877625Y-56246435I495065J1584138D01*
G01*
X183851946Y-61966779D02*
G75*
G03*
X180771739Y-61123023I-3227146J-5736821D01*
G01*
X147871732Y-55957725D02*
G75*
G03*
X150808031Y-57305751I6725668J10778025D01*
G01*
X172981620Y-57693664D02*
G75*
G03*
X171002572Y-58945099I-132120J-1981636D01*
G01*
X168936798Y-60382444D02*
G75*
G03*
X170984877Y-58989854I2J2202344D01*
G01*
X163377274Y-59069853D02*
G75*
G03*
X167541395Y-60382478I4164126J5948753D01*
G01*
X174439016Y-57790821D02*
G75*
G03*
X174434263Y-57799256I-316J-5379D01*
G01*
X157646669Y-56237733D02*
G75*
G03*
X159876277Y-57597230I2347031J1341133D01*
G01*
X174434262Y-57799257D02*
G75*
G03*
X174416566Y-57789305I-19262J-13543D01*
G01*
X157609223Y-56172217D02*
G75*
G03*
X155272476Y-54662037I-2626223J-1500683D01*
G01*
X155147837Y-54650027D02*
G75*
G03*
X152928715Y-56093167I-203337J-2115073D01*
G01*
%TO.N,GP8*%
X159746574Y-88900423D02*
X157165497Y-83490411D01*
X157242218Y-80584045D02*
X158021574Y-79150423D01*
X159746574Y-88900423D02*
X149746574Y-88900423D01*
X157242253Y-80584064D02*
G75*
G03*
X157165497Y-83490411I2811447J-1528436D01*
G01*
%TO.N,GP13*%
X176858953Y-76185024D02*
X176304142Y-75463769D01*
X156788058Y-64956860D02*
X159746574Y-71900423D01*
X156793865Y-64702338D02*
X158021574Y-62150423D01*
X164756302Y-75353999D02*
X159746574Y-71900423D01*
X156472422Y-65085251D02*
X154560192Y-65154787D01*
X151722912Y-67126514D02*
X149746574Y-71900423D01*
X173241601Y-73902566D02*
X172430504Y-73880036D01*
X187750720Y-72221568D02*
X187826574Y-70603756D01*
X167718085Y-76275964D02*
X167878270Y-76275964D01*
X180373561Y-76410262D02*
X186147213Y-74377286D01*
X156672683Y-64954228D02*
X156793865Y-64702338D01*
X154560190Y-65154745D02*
G75*
G03*
X151722913Y-67126514I116210J-3194455D01*
G01*
X186147202Y-74377253D02*
G75*
G03*
X187750719Y-72221568I-798702J2268353D01*
G01*
X178450657Y-76856109D02*
G75*
G03*
X180373561Y-76410262I-1043657J8870809D01*
G01*
X167878270Y-76275950D02*
G75*
G03*
X170154668Y-75057671I30J2735850D01*
G01*
X164756310Y-75353987D02*
G75*
G03*
X167718085Y-76275964I2961790J4296287D01*
G01*
X156472421Y-65085237D02*
G75*
G03*
X156672682Y-64954228I-8421J231437D01*
G01*
X176858967Y-76185013D02*
G75*
G03*
X178450656Y-76856102I1387233J1067113D01*
G01*
X156793863Y-64702337D02*
G75*
G03*
X156788059Y-64956860I277837J-133663D01*
G01*
X156788102Y-64956841D02*
G75*
G03*
X156672683Y-64954228I-58302J-24859D01*
G01*
X176304133Y-75463776D02*
G75*
G03*
X173241601Y-73902566I-3173733J-2441324D01*
G01*
X172430504Y-73880045D02*
G75*
G03*
X170154669Y-75057672I-73504J-2645855D01*
G01*
%TO.N,GP28*%
X165309409Y-58560963D02*
X159746574Y-54900423D01*
X157013218Y-47842308D02*
X157178515Y-47835697D01*
X152255294Y-49780342D02*
X149746574Y-54900423D01*
X172393034Y-56455170D02*
X172992334Y-56464390D01*
X170097485Y-57791550D02*
X170038636Y-57899015D01*
X157124935Y-47916441D02*
X159746574Y-54900423D01*
X157283726Y-47752813D02*
X158021574Y-45150423D01*
X157013218Y-47842308D02*
X155112310Y-47918345D01*
X179131219Y-60125357D02*
X185286574Y-60233756D01*
X176061824Y-58292576D02*
G75*
G03*
X179131219Y-60125357I3132676J1759776D01*
G01*
X157178513Y-47835659D02*
G75*
G03*
X157124936Y-47916441I2387J-59741D01*
G01*
X165309417Y-58560951D02*
G75*
G03*
X167927584Y-59248948I2329883J3540651D01*
G01*
X157178514Y-47835662D02*
G75*
G03*
X157283725Y-47752813I-4514J113962D01*
G01*
X172393034Y-56455157D02*
G75*
G03*
X170097485Y-57791550I-39534J-2571843D01*
G01*
X157124966Y-47916429D02*
G75*
G03*
X157013218Y-47842309I-107166J-40271D01*
G01*
X176061797Y-58292591D02*
G75*
G03*
X172992334Y-56464390I-3124597J-1755209D01*
G01*
X155112309Y-47918327D02*
G75*
G03*
X152255294Y-49780342I133091J-3327073D01*
G01*
X167927585Y-59248960D02*
G75*
G03*
X170038635Y-57899015I-177485J2603160D01*
G01*
%TO.N,GP9*%
X177746574Y-91733756D02*
X175313314Y-86826769D01*
X177746574Y-91733756D02*
X167746574Y-91733756D01*
X184428967Y-83607504D02*
X177746574Y-91733756D01*
X196690416Y-74557092D02*
X187843509Y-80506540D01*
X197979720Y-72149207D02*
X197986574Y-70603756D01*
X175270575Y-83604924D02*
X176021574Y-81983756D01*
X175270593Y-83604933D02*
G75*
G03*
X175313314Y-86826769I3381207J-1566367D01*
G01*
X196690440Y-74557127D02*
G75*
G03*
X197979719Y-72149207I-1628040J2420827D01*
G01*
X187843502Y-80506529D02*
G75*
G03*
X184428967Y-83607504I8889598J-13218871D01*
G01*
%TO.N,GP14*%
X174926159Y-67681365D02*
X175039553Y-67402116D01*
X177746574Y-74733756D02*
X180175430Y-71738590D01*
X172775091Y-67820990D02*
X174718765Y-67820990D01*
X183343490Y-70310879D02*
X185286574Y-70393756D01*
X177746574Y-74733756D02*
X175036911Y-67682409D01*
X169862419Y-69748883D02*
X167746574Y-74733756D01*
X175039553Y-67402116D02*
X176021574Y-64983756D01*
X175039550Y-67402115D02*
G75*
G03*
X175036911Y-67682409I353350J-143485D01*
G01*
X175036861Y-67682428D02*
G75*
G03*
X174926159Y-67681365I-55561J-21372D01*
G01*
X172775091Y-67820996D02*
G75*
G03*
X169862419Y-69748883I9J-3164204D01*
G01*
X183343490Y-70310880D02*
G75*
G03*
X180175430Y-71738590I-164790J-3863120D01*
G01*
X174718765Y-67820926D02*
G75*
G03*
X174926158Y-67681365I35J223826D01*
G01*
%TO.N,GP29*%
X174451988Y-50788653D02*
X172633727Y-50718720D01*
X177746574Y-57733756D02*
X174685289Y-50945803D01*
X175006663Y-50653106D02*
X176021574Y-47983756D01*
X169897998Y-52479425D02*
X167746574Y-57733756D01*
X177746574Y-57733756D02*
X185286574Y-57693756D01*
X174451988Y-50788653D02*
X174782580Y-50801368D01*
X174782578Y-50801408D02*
G75*
G03*
X174685290Y-50945803I-3978J-102292D01*
G01*
X174782578Y-50801414D02*
G75*
G03*
X175006663Y-50653106I8822J230114D01*
G01*
X174685247Y-50945822D02*
G75*
G03*
X174451988Y-50788653I-243547J-109778D01*
G01*
X172633726Y-50718746D02*
G75*
G03*
X169897999Y-52479425I-109126J-2836154D01*
G01*
%TO.N,GP7*%
X159072334Y-103778064D02*
X159821574Y-102383756D01*
X158988197Y-106608719D02*
X161546574Y-112133756D01*
X161546574Y-112133756D02*
X151546574Y-112133756D01*
X159072344Y-103778070D02*
G75*
G03*
X158988197Y-106608719I2790556J-1499530D01*
G01*
%TO.N,GP6*%
X180363610Y-115161118D02*
X170619910Y-112911607D01*
X199272377Y-71390996D02*
X199245729Y-66008209D01*
X197568837Y-75049939D02*
X190054153Y-81307519D01*
X179959969Y-106511274D02*
X180876095Y-105272969D01*
X179313884Y-109266077D02*
X180363610Y-115161118D01*
X199884561Y-65339718D02*
X200526574Y-65313756D01*
X180876095Y-105272969D02*
X187569264Y-84960299D01*
X190054163Y-81307531D02*
G75*
G03*
X187569264Y-84960299I5131537J-6162469D01*
G01*
X197568825Y-75049925D02*
G75*
G03*
X199272376Y-71390996I-3027325J3635525D01*
G01*
X179959950Y-106511260D02*
G75*
G03*
X179313885Y-109266077I2875950J-2127640D01*
G01*
X199884559Y-65339666D02*
G75*
G03*
X199245729Y-66008209I26941J-665234D01*
G01*
%TO.N,GP2*%
X198091693Y-121310574D02*
X188755889Y-117726895D01*
X198839090Y-112762429D02*
X199975354Y-111589980D01*
X198091693Y-121310574D02*
X197788787Y-115565320D01*
X198839103Y-112762441D02*
G75*
G03*
X197788787Y-115565320I2688697J-2605759D01*
G01*
%TO.N,P3V3*%
X195959952Y-82275190D02*
X195946574Y-83433756D01*
D25*
X195946574Y-83433756D02*
X195946574Y-88033756D01*
D23*
X197131973Y-81116625D02*
X200990277Y-81116625D01*
X203061586Y-54646091D02*
X202996681Y-79115535D01*
X197211997Y-54024476D02*
X185286574Y-55153756D01*
X201110248Y-53840318D02*
G75*
G03*
X197211997Y-54024476I-48J-41350082D01*
G01*
X203061653Y-54646091D02*
G75*
G03*
X202257993Y-53840344I-803653J2091D01*
G01*
X197131973Y-81116575D02*
G75*
G03*
X195959953Y-82275190I27J-1172125D01*
G01*
X200990277Y-81116588D02*
G75*
G03*
X202996681Y-79115535I23J2006388D01*
G01*
%TO.N,GP1*%
X202129458Y-52630268D02*
X200526574Y-52613756D01*
X198946574Y-88033756D02*
X201520784Y-88122126D01*
X203722221Y-54249717D02*
X203520486Y-86202063D01*
D25*
X198946574Y-88033756D02*
X198946574Y-83433756D01*
D23*
X201520782Y-88122186D02*
G75*
G03*
X203520486Y-86202063I66318J1932286D01*
G01*
X203722285Y-54249717D02*
G75*
G03*
X202129458Y-52630268I-1609385J10117D01*
G01*
%TD*%
M02*
