%TF.GenerationSoftware,KiCad,Pcbnew,7.0.2-0*%
%TF.CreationDate,2023-05-15T17:52:10-04:00*%
%TF.ProjectId,mini,6d696e69-2e6b-4696-9361-645f70636258,v1.0.0*%
%TF.SameCoordinates,Original*%
%TF.FileFunction,Legend,Top*%
%TF.FilePolarity,Positive*%
%FSLAX46Y46*%
G04 Gerber Fmt 4.6, Leading zero omitted, Abs format (unit mm)*
G04 Created by KiCad (PCBNEW 7.0.2-0) date 2023-05-15 17:52:10*
%MOMM*%
%LPD*%
G01*
G04 APERTURE LIST*
%ADD10C,0.300000*%
%ADD11C,0.150000*%
%ADD12C,0.120000*%
G04 APERTURE END LIST*
D10*
X99914742Y-111173928D02*
X99914742Y-114507262D01*
X98724266Y-109269167D02*
X97533789Y-112840595D01*
X97533789Y-112840595D02*
X100629028Y-112840595D01*
X104914742Y-109507262D02*
X102533790Y-109507262D01*
X102533790Y-109507262D02*
X102295694Y-111888214D01*
X102295694Y-111888214D02*
X102533790Y-111650119D01*
X102533790Y-111650119D02*
X103009980Y-111412024D01*
X103009980Y-111412024D02*
X104200456Y-111412024D01*
X104200456Y-111412024D02*
X104676647Y-111650119D01*
X104676647Y-111650119D02*
X104914742Y-111888214D01*
X104914742Y-111888214D02*
X105152837Y-112364405D01*
X105152837Y-112364405D02*
X105152837Y-113554881D01*
X105152837Y-113554881D02*
X104914742Y-114031071D01*
X104914742Y-114031071D02*
X104676647Y-114269167D01*
X104676647Y-114269167D02*
X104200456Y-114507262D01*
X104200456Y-114507262D02*
X103009980Y-114507262D01*
X103009980Y-114507262D02*
X102533790Y-114269167D01*
X102533790Y-114269167D02*
X102295694Y-114031071D01*
X107295695Y-114507262D02*
X107295695Y-109507262D01*
X109438552Y-114507262D02*
X109438552Y-111888214D01*
X109438552Y-111888214D02*
X109200457Y-111412024D01*
X109200457Y-111412024D02*
X108724266Y-111173928D01*
X108724266Y-111173928D02*
X108009980Y-111173928D01*
X108009980Y-111173928D02*
X107533790Y-111412024D01*
X107533790Y-111412024D02*
X107295695Y-111650119D01*
X114438552Y-114507262D02*
X111581409Y-114507262D01*
X113009981Y-114507262D02*
X113009981Y-109507262D01*
X113009981Y-109507262D02*
X112533790Y-110221547D01*
X112533790Y-110221547D02*
X112057600Y-110697738D01*
X112057600Y-110697738D02*
X111581409Y-110935833D01*
X118962362Y-109507262D02*
X116581410Y-109507262D01*
X116581410Y-109507262D02*
X116343314Y-111888214D01*
X116343314Y-111888214D02*
X116581410Y-111650119D01*
X116581410Y-111650119D02*
X117057600Y-111412024D01*
X117057600Y-111412024D02*
X118248076Y-111412024D01*
X118248076Y-111412024D02*
X118724267Y-111650119D01*
X118724267Y-111650119D02*
X118962362Y-111888214D01*
X118962362Y-111888214D02*
X119200457Y-112364405D01*
X119200457Y-112364405D02*
X119200457Y-113554881D01*
X119200457Y-113554881D02*
X118962362Y-114031071D01*
X118962362Y-114031071D02*
X118724267Y-114269167D01*
X118724267Y-114269167D02*
X118248076Y-114507262D01*
X118248076Y-114507262D02*
X117057600Y-114507262D01*
X117057600Y-114507262D02*
X116581410Y-114269167D01*
X116581410Y-114269167D02*
X116343314Y-114031071D01*
X121343315Y-114507262D02*
X121343315Y-109507262D01*
X123486172Y-114507262D02*
X123486172Y-111888214D01*
X123486172Y-111888214D02*
X123248077Y-111412024D01*
X123248077Y-111412024D02*
X122771886Y-111173928D01*
X122771886Y-111173928D02*
X122057600Y-111173928D01*
X122057600Y-111173928D02*
X121581410Y-111412024D01*
X121581410Y-111412024D02*
X121343315Y-111650119D01*
D11*
%TO.C,RP2040Zero1*%
D12*
X183906574Y-48483756D02*
X183906574Y-71983756D01*
X183906574Y-71983756D02*
X201906574Y-71983756D01*
X201906574Y-48483756D02*
X183906574Y-48483756D01*
X201906574Y-71983756D02*
X201906574Y-48483756D01*
%TO.C,G\u002A\u002A\u002A*%
G36*
X130939927Y-110521043D02*
G01*
X130964309Y-110521301D01*
X131207055Y-110523980D01*
X131207055Y-110548980D01*
X131207055Y-110573980D01*
X130970926Y-110576657D01*
X130894498Y-110577358D01*
X130835679Y-110577430D01*
X130792083Y-110576754D01*
X130761326Y-110575213D01*
X130741023Y-110572686D01*
X130728790Y-110569056D01*
X130722308Y-110564285D01*
X130714506Y-110544546D01*
X130715690Y-110533929D01*
X130719754Y-110529105D01*
X130729295Y-110525472D01*
X130746622Y-110522910D01*
X130774041Y-110521304D01*
X130813860Y-110520535D01*
X130868386Y-110520487D01*
X130939927Y-110521043D01*
G37*
G36*
X128694251Y-101057202D02*
G01*
X128701111Y-101067216D01*
X128704253Y-101083000D01*
X128696740Y-101104091D01*
X128680925Y-101129716D01*
X128641350Y-101193731D01*
X128608544Y-101260257D01*
X128579150Y-101336471D01*
X128566734Y-101373980D01*
X128551343Y-101420259D01*
X128539324Y-101450472D01*
X128528981Y-101467902D01*
X128518621Y-101475829D01*
X128513429Y-101477181D01*
X128492564Y-101472802D01*
X128485412Y-101463304D01*
X128484247Y-101440155D01*
X128491311Y-101403208D01*
X128505153Y-101356168D01*
X128524326Y-101302742D01*
X128547378Y-101246633D01*
X128572861Y-101191546D01*
X128599324Y-101141188D01*
X128625320Y-101099262D01*
X128630875Y-101091480D01*
X128656927Y-101061524D01*
X128677717Y-101050213D01*
X128694251Y-101057202D01*
G37*
G36*
X128791070Y-100686156D02*
G01*
X128790523Y-100707093D01*
X128776390Y-100730678D01*
X128756386Y-100748180D01*
X128720835Y-100776978D01*
X128678074Y-100818836D01*
X128631544Y-100869885D01*
X128584682Y-100926255D01*
X128540928Y-100984076D01*
X128520182Y-101013975D01*
X128487287Y-101060760D01*
X128461821Y-101091065D01*
X128442203Y-101106269D01*
X128426852Y-101107747D01*
X128418721Y-101102313D01*
X128412344Y-101087701D01*
X128416490Y-101065183D01*
X128432004Y-101032659D01*
X128459728Y-100988032D01*
X128471879Y-100970029D01*
X128514171Y-100911802D01*
X128559521Y-100855465D01*
X128605815Y-100803083D01*
X128650937Y-100756719D01*
X128692772Y-100718440D01*
X128729203Y-100690308D01*
X128758116Y-100674389D01*
X128776785Y-100672492D01*
X128791070Y-100686156D01*
G37*
G36*
X140312489Y-103948214D02*
G01*
X140326747Y-103971702D01*
X140338587Y-104007532D01*
X140349735Y-104054806D01*
X140359767Y-104109679D01*
X140368259Y-104168305D01*
X140374784Y-104226837D01*
X140378920Y-104281429D01*
X140380241Y-104328235D01*
X140378322Y-104363409D01*
X140372739Y-104383105D01*
X140372244Y-104383751D01*
X140356869Y-104397335D01*
X140341992Y-104394834D01*
X140336519Y-104391326D01*
X140331732Y-104379108D01*
X140326143Y-104350925D01*
X140320394Y-104310758D01*
X140315129Y-104262592D01*
X140314336Y-104253980D01*
X140307981Y-104195772D01*
X140299537Y-104136076D01*
X140290154Y-104082287D01*
X140281856Y-104045036D01*
X140270566Y-103997869D01*
X140266478Y-103966590D01*
X140269873Y-103948324D01*
X140281033Y-103940193D01*
X140292251Y-103938980D01*
X140312489Y-103948214D01*
G37*
G36*
X129390370Y-99647192D02*
G01*
X129398624Y-99666449D01*
X129395981Y-99681480D01*
X129385762Y-99692716D01*
X129363255Y-99711806D01*
X129332652Y-99735274D01*
X129320662Y-99743980D01*
X129286566Y-99770803D01*
X129244217Y-99807724D01*
X129198813Y-99850036D01*
X129155552Y-99893035D01*
X129152228Y-99896480D01*
X129108813Y-99940735D01*
X129076370Y-99971344D01*
X129052810Y-99989804D01*
X129036045Y-99997617D01*
X129023984Y-99996281D01*
X129018721Y-99992313D01*
X129012418Y-99979272D01*
X129016440Y-99960989D01*
X129031982Y-99935518D01*
X129060237Y-99900915D01*
X129102400Y-99855234D01*
X129103734Y-99853838D01*
X129148919Y-99808631D01*
X129196561Y-99764514D01*
X129243851Y-99723740D01*
X129287980Y-99688561D01*
X129326139Y-99661230D01*
X129355521Y-99644001D01*
X129371600Y-99638980D01*
X129390370Y-99647192D01*
G37*
G36*
X139917774Y-104954233D02*
G01*
X139936850Y-104973967D01*
X139953108Y-105009679D01*
X139961712Y-105041594D01*
X139972471Y-105103889D01*
X139980925Y-105176713D01*
X139986533Y-105252648D01*
X139988752Y-105324271D01*
X139987043Y-105384164D01*
X139986864Y-105386480D01*
X139983283Y-105426921D01*
X139979518Y-105451398D01*
X139974081Y-105463901D01*
X139965487Y-105468423D01*
X139956157Y-105468980D01*
X139937128Y-105468080D01*
X139930529Y-105466480D01*
X139929830Y-105456146D01*
X139928935Y-105429411D01*
X139927943Y-105389871D01*
X139926949Y-105341124D01*
X139926557Y-105318980D01*
X139923819Y-105242787D01*
X139918540Y-105173923D01*
X139911171Y-105117603D01*
X139907569Y-105098980D01*
X139895668Y-105044400D01*
X139887963Y-105006168D01*
X139884232Y-104981127D01*
X139884255Y-104966116D01*
X139887811Y-104957978D01*
X139894681Y-104953555D01*
X139897332Y-104952489D01*
X139917774Y-104954233D01*
G37*
G36*
X140134070Y-105304695D02*
G01*
X140141367Y-105309460D01*
X140145015Y-105322201D01*
X140146085Y-105346848D01*
X140145648Y-105387326D01*
X140145597Y-105390358D01*
X140142209Y-105437944D01*
X140134222Y-105495998D01*
X140122850Y-105558533D01*
X140109310Y-105619561D01*
X140094820Y-105673092D01*
X140080595Y-105713140D01*
X140079535Y-105715515D01*
X140064297Y-105733292D01*
X140045026Y-105738490D01*
X140029006Y-105729991D01*
X140025607Y-105723813D01*
X140023240Y-105716696D01*
X140022417Y-105708452D01*
X140023757Y-105695823D01*
X140027880Y-105675549D01*
X140035404Y-105644370D01*
X140046950Y-105599028D01*
X140055986Y-105563980D01*
X140068430Y-105510324D01*
X140079531Y-105452790D01*
X140087506Y-105400987D01*
X140089424Y-105383980D01*
X140093561Y-105344315D01*
X140097736Y-105320535D01*
X140103599Y-105308589D01*
X140112803Y-105304429D01*
X140122055Y-105303980D01*
X140134070Y-105304695D01*
G37*
G36*
X137331409Y-97956494D02*
G01*
X137359231Y-97977814D01*
X137398955Y-98014824D01*
X137425215Y-98041178D01*
X137515416Y-98125481D01*
X137603623Y-98192138D01*
X137689179Y-98240899D01*
X137771430Y-98271509D01*
X137849719Y-98283718D01*
X137923393Y-98277271D01*
X137983347Y-98256232D01*
X138025276Y-98237628D01*
X138053517Y-98230191D01*
X138070745Y-98233587D01*
X138078581Y-98244352D01*
X138077547Y-98266227D01*
X138059726Y-98287257D01*
X138028331Y-98306453D01*
X137986576Y-98322826D01*
X137937674Y-98335385D01*
X137884836Y-98343142D01*
X137831277Y-98345108D01*
X137780209Y-98340292D01*
X137772055Y-98338738D01*
X137711430Y-98319716D01*
X137642822Y-98287271D01*
X137570159Y-98244050D01*
X137497366Y-98192696D01*
X137428370Y-98135856D01*
X137367100Y-98076175D01*
X137344436Y-98050687D01*
X137313125Y-98010100D01*
X137297570Y-97980602D01*
X137297513Y-97961303D01*
X137312693Y-97951312D01*
X137315330Y-97950734D01*
X137331409Y-97956494D01*
G37*
G36*
X139301199Y-110779061D02*
G01*
X139373735Y-110779371D01*
X139430289Y-110780007D01*
X139472869Y-110781065D01*
X139503483Y-110782644D01*
X139524140Y-110784841D01*
X139536848Y-110787753D01*
X139543616Y-110791478D01*
X139546157Y-110795247D01*
X139549717Y-110806833D01*
X139549353Y-110816173D01*
X139543228Y-110823509D01*
X139529499Y-110829082D01*
X139506329Y-110833132D01*
X139471876Y-110835901D01*
X139424300Y-110837629D01*
X139361763Y-110838557D01*
X139282422Y-110838925D01*
X139212055Y-110838980D01*
X139122046Y-110838860D01*
X139050020Y-110838440D01*
X138993958Y-110837630D01*
X138951845Y-110836338D01*
X138921663Y-110834473D01*
X138901395Y-110831945D01*
X138889024Y-110828662D01*
X138882534Y-110824534D01*
X138882160Y-110824107D01*
X138874441Y-110804478D01*
X138875622Y-110794107D01*
X138879412Y-110789922D01*
X138888535Y-110786571D01*
X138904956Y-110783964D01*
X138930634Y-110782014D01*
X138967534Y-110780631D01*
X139017617Y-110779726D01*
X139082847Y-110779212D01*
X139165184Y-110779000D01*
X139210671Y-110778980D01*
X139301199Y-110779061D01*
G37*
G36*
X139991039Y-99885894D02*
G01*
X140018887Y-99897584D01*
X140038394Y-99906463D01*
X140229563Y-99985058D01*
X140418237Y-100043990D01*
X140605250Y-100083318D01*
X140791439Y-100103102D01*
X140977638Y-100103400D01*
X141164682Y-100084270D01*
X141353406Y-100045772D01*
X141484577Y-100008094D01*
X141537738Y-99992259D01*
X141574738Y-99984485D01*
X141597742Y-99984830D01*
X141608916Y-99993350D01*
X141610425Y-100010102D01*
X141610256Y-100011365D01*
X141605768Y-100022907D01*
X141593654Y-100033377D01*
X141570511Y-100044661D01*
X141532936Y-100058643D01*
X141512055Y-100065767D01*
X141359734Y-100109247D01*
X141198525Y-100141099D01*
X141033587Y-100160805D01*
X140870078Y-100167847D01*
X140713156Y-100161705D01*
X140638890Y-100153544D01*
X140505782Y-100129769D01*
X140364753Y-100094355D01*
X140222514Y-100049295D01*
X140085781Y-99996583D01*
X140035204Y-99974294D01*
X139990720Y-99952806D01*
X139962906Y-99935926D01*
X139949627Y-99921445D01*
X139948751Y-99907156D01*
X139956581Y-99892936D01*
X139964436Y-99884323D01*
X139974405Y-99881724D01*
X139991039Y-99885894D01*
G37*
G36*
X135862639Y-97485332D02*
G01*
X135866289Y-97491480D01*
X135903480Y-97606710D01*
X135943472Y-97703334D01*
X135987082Y-97782647D01*
X136035126Y-97845943D01*
X136088419Y-97894517D01*
X136140154Y-97926037D01*
X136207597Y-97948119D01*
X136283735Y-97952768D01*
X136367743Y-97940144D01*
X136458795Y-97910402D01*
X136556067Y-97863702D01*
X136599975Y-97838218D01*
X136647270Y-97811099D01*
X136681015Y-97796212D01*
X136703186Y-97793184D01*
X136715759Y-97801643D01*
X136720111Y-97815524D01*
X136718148Y-97828537D01*
X136706559Y-97842928D01*
X136682486Y-97861428D01*
X136650013Y-97882460D01*
X136546795Y-97940170D01*
X136447940Y-97982252D01*
X136354813Y-98008363D01*
X136268778Y-98018160D01*
X136191200Y-98011300D01*
X136164915Y-98004472D01*
X136087490Y-97969828D01*
X136017003Y-97916545D01*
X135953648Y-97844813D01*
X135897621Y-97754822D01*
X135887173Y-97734367D01*
X135861990Y-97679149D01*
X135840835Y-97624555D01*
X135824887Y-97574475D01*
X135815325Y-97532796D01*
X135813326Y-97503410D01*
X135814926Y-97495920D01*
X135827709Y-97483110D01*
X135846734Y-97479311D01*
X135862639Y-97485332D01*
G37*
G36*
X134332597Y-105955728D02*
G01*
X134339806Y-105973451D01*
X134340040Y-105974983D01*
X134336615Y-105989027D01*
X134322151Y-106010064D01*
X134295172Y-106039892D01*
X134254198Y-106080306D01*
X134250271Y-106084050D01*
X134161662Y-106162458D01*
X134078970Y-106222925D01*
X134000750Y-106266107D01*
X133925556Y-106292659D01*
X133851943Y-106303236D01*
X133778466Y-106298493D01*
X133777585Y-106298347D01*
X133720122Y-106282179D01*
X133654277Y-106252467D01*
X133584081Y-106211344D01*
X133513568Y-106160947D01*
X133504555Y-106153799D01*
X133464801Y-106120665D01*
X133439347Y-106096105D01*
X133425872Y-106077566D01*
X133422055Y-106062962D01*
X133425232Y-106042865D01*
X133435809Y-106035013D01*
X133455351Y-106039887D01*
X133485423Y-106057964D01*
X133527590Y-106089727D01*
X133538849Y-106098763D01*
X133622869Y-106160564D01*
X133700608Y-106204400D01*
X133773550Y-106230738D01*
X133843182Y-106240041D01*
X133910991Y-106232777D01*
X133940414Y-106224524D01*
X133988991Y-106202729D01*
X134046675Y-106167389D01*
X134110304Y-106120756D01*
X134176719Y-106065080D01*
X134218379Y-106026555D01*
X134262251Y-105986526D01*
X134295075Y-105961733D01*
X134318105Y-105951644D01*
X134332597Y-105955728D01*
G37*
G36*
X131074625Y-95913854D02*
G01*
X131091464Y-95929773D01*
X131112336Y-95961223D01*
X131131646Y-95995663D01*
X131204235Y-96116469D01*
X131291347Y-96238256D01*
X131389114Y-96356540D01*
X131493669Y-96466833D01*
X131601145Y-96564651D01*
X131667055Y-96616698D01*
X131772230Y-96687488D01*
X131892910Y-96756154D01*
X132024597Y-96820406D01*
X132162796Y-96877950D01*
X132222055Y-96899692D01*
X132268306Y-96916388D01*
X132298871Y-96928915D01*
X132317104Y-96939231D01*
X132326358Y-96949291D01*
X132329985Y-96961053D01*
X132330219Y-96962814D01*
X132329817Y-96981595D01*
X132318395Y-96988080D01*
X132305219Y-96988480D01*
X132283550Y-96984870D01*
X132249126Y-96975619D01*
X132207811Y-96962387D01*
X132187055Y-96955036D01*
X132006575Y-96882334D01*
X131843084Y-96802052D01*
X131694502Y-96712639D01*
X131558748Y-96612548D01*
X131433742Y-96500231D01*
X131317404Y-96374139D01*
X131207655Y-96232722D01*
X131197336Y-96218208D01*
X131163001Y-96167688D01*
X131127688Y-96112590D01*
X131095992Y-96060248D01*
X131076095Y-96024843D01*
X131054959Y-95984294D01*
X131042525Y-95957383D01*
X131037654Y-95940333D01*
X131039208Y-95929371D01*
X131045001Y-95921747D01*
X131059808Y-95911751D01*
X131074625Y-95913854D01*
G37*
G36*
X134305698Y-97014915D02*
G01*
X134324608Y-97035006D01*
X134335068Y-97051480D01*
X134367736Y-97096280D01*
X134412955Y-97143730D01*
X134464913Y-97188556D01*
X134517798Y-97225482D01*
X134541222Y-97238559D01*
X134596184Y-97264185D01*
X134648694Y-97283419D01*
X134703067Y-97297071D01*
X134763625Y-97305947D01*
X134834683Y-97310857D01*
X134920562Y-97312608D01*
X134937055Y-97312650D01*
X135003015Y-97312483D01*
X135053241Y-97311618D01*
X135091997Y-97309628D01*
X135123546Y-97306086D01*
X135152152Y-97300566D01*
X135182080Y-97292641D01*
X135204706Y-97285862D01*
X135252825Y-97271469D01*
X135285406Y-97263085D01*
X135305892Y-97260425D01*
X135317728Y-97263202D01*
X135324357Y-97271130D01*
X135326352Y-97275755D01*
X135327333Y-97292501D01*
X135315226Y-97307801D01*
X135288071Y-97322965D01*
X135243909Y-97339305D01*
X135220459Y-97346642D01*
X135185861Y-97356369D01*
X135153397Y-97363430D01*
X135118474Y-97368340D01*
X135076500Y-97371613D01*
X135022883Y-97373765D01*
X134967055Y-97375053D01*
X134878569Y-97375602D01*
X134807158Y-97373450D01*
X134750064Y-97368470D01*
X134720399Y-97363861D01*
X134606688Y-97334374D01*
X134504799Y-97291298D01*
X134416106Y-97235474D01*
X134341985Y-97167742D01*
X134291452Y-97101420D01*
X134269678Y-97060962D01*
X134262198Y-97031417D01*
X134269071Y-97013806D01*
X134286104Y-97008980D01*
X134305698Y-97014915D01*
G37*
G36*
X131366921Y-109152768D02*
G01*
X131380509Y-109165080D01*
X131397331Y-109189062D01*
X131419711Y-109227622D01*
X131425813Y-109238721D01*
X131460876Y-109298346D01*
X131500872Y-109358884D01*
X131542891Y-109416509D01*
X131584023Y-109467401D01*
X131621356Y-109507735D01*
X131648641Y-109531377D01*
X131703289Y-109559059D01*
X131761890Y-109567533D01*
X131821769Y-109556451D01*
X131826988Y-109554536D01*
X131873029Y-109527501D01*
X131920232Y-109481615D01*
X131967804Y-109417935D01*
X132014948Y-109337514D01*
X132057554Y-109248980D01*
X132075465Y-109210542D01*
X132089442Y-109187187D01*
X132102298Y-109175173D01*
X132116334Y-109170815D01*
X132134981Y-109171389D01*
X132141513Y-109183361D01*
X132142055Y-109195318D01*
X132137027Y-109218799D01*
X132123324Y-109255097D01*
X132103017Y-109300162D01*
X132078176Y-109349941D01*
X132050874Y-109400386D01*
X132023179Y-109447444D01*
X131997165Y-109487065D01*
X131983812Y-109504854D01*
X131933577Y-109559358D01*
X131883375Y-109596392D01*
X131829385Y-109618114D01*
X131768028Y-109626669D01*
X131720905Y-109626614D01*
X131685071Y-109621046D01*
X131653864Y-109609466D01*
X131608715Y-109580631D01*
X131558778Y-109534773D01*
X131505637Y-109473829D01*
X131450873Y-109399733D01*
X131396069Y-109314423D01*
X131357022Y-109246316D01*
X131335696Y-109202982D01*
X131327160Y-109173426D01*
X131331367Y-109156088D01*
X131348275Y-109149409D01*
X131354241Y-109149219D01*
X131366921Y-109152768D01*
G37*
G36*
X135320494Y-108027532D02*
G01*
X135328232Y-108039700D01*
X135327096Y-108062750D01*
X135316963Y-108098948D01*
X135297713Y-108150562D01*
X135297136Y-108152013D01*
X135248875Y-108263319D01*
X135198658Y-108360080D01*
X135147350Y-108440930D01*
X135095814Y-108504499D01*
X135047522Y-108547570D01*
X134969184Y-108595042D01*
X134892161Y-108624448D01*
X134817828Y-108635475D01*
X134747557Y-108627809D01*
X134725053Y-108620967D01*
X134657169Y-108588157D01*
X134585744Y-108537557D01*
X134512494Y-108470673D01*
X134439137Y-108389013D01*
X134392756Y-108329462D01*
X134346620Y-108263587D01*
X134312836Y-108207917D01*
X134291724Y-108163288D01*
X134283601Y-108130534D01*
X134288788Y-108110490D01*
X134306626Y-108103980D01*
X134323232Y-108111997D01*
X134343521Y-108136943D01*
X134359870Y-108163980D01*
X134402998Y-108233504D01*
X134453953Y-108303691D01*
X134509768Y-108371305D01*
X134567476Y-108433109D01*
X134624111Y-108485865D01*
X134676705Y-108526339D01*
X134709828Y-108545774D01*
X134771639Y-108568094D01*
X134831624Y-108572368D01*
X134893656Y-108558523D01*
X134933071Y-108541687D01*
X134989128Y-108508850D01*
X135039691Y-108467342D01*
X135086375Y-108415021D01*
X135130796Y-108349748D01*
X135174572Y-108269381D01*
X135219318Y-108171779D01*
X135228213Y-108150751D01*
X135250115Y-108099314D01*
X135266496Y-108063749D01*
X135279026Y-108041267D01*
X135289371Y-108029076D01*
X135299202Y-108024386D01*
X135304004Y-108023980D01*
X135320494Y-108027532D01*
G37*
G36*
X136476927Y-109012547D02*
G01*
X136487533Y-109021983D01*
X136490707Y-109040673D01*
X136486070Y-109070530D01*
X136473241Y-109113465D01*
X136451839Y-109171394D01*
X136438858Y-109203980D01*
X136395911Y-109303524D01*
X136354105Y-109386303D01*
X136311660Y-109455333D01*
X136266791Y-109513634D01*
X136237153Y-109545537D01*
X136177954Y-109595333D01*
X136118247Y-109625718D01*
X136056373Y-109637251D01*
X135990676Y-109630488D01*
X135987055Y-109629629D01*
X135922371Y-109604283D01*
X135855800Y-109559454D01*
X135787818Y-109495519D01*
X135728250Y-109425103D01*
X135675262Y-109353389D01*
X135632159Y-109288435D01*
X135599492Y-109231520D01*
X135577812Y-109183922D01*
X135567668Y-109146920D01*
X135569614Y-109121795D01*
X135584199Y-109109825D01*
X135592108Y-109108980D01*
X135605179Y-109115418D01*
X135621519Y-109136040D01*
X135642555Y-109172809D01*
X135652105Y-109191480D01*
X135686765Y-109253725D01*
X135728635Y-109317820D01*
X135774918Y-109380362D01*
X135822816Y-109437943D01*
X135869532Y-109487160D01*
X135912269Y-109524608D01*
X135941396Y-109543639D01*
X136000178Y-109565229D01*
X136059533Y-109571104D01*
X136094554Y-109566240D01*
X136137983Y-109546306D01*
X136183810Y-109508665D01*
X136230691Y-109455260D01*
X136277282Y-109388030D01*
X136322240Y-109308916D01*
X136364223Y-109219859D01*
X136401885Y-109122800D01*
X136402255Y-109121739D01*
X136421283Y-109070417D01*
X136437140Y-109036276D01*
X136451366Y-109017061D01*
X136465506Y-109010517D01*
X136476927Y-109012547D01*
G37*
G36*
X130395142Y-107748535D02*
G01*
X130397955Y-107751112D01*
X130407871Y-107766495D01*
X130422000Y-107794458D01*
X130437284Y-107828950D01*
X130437296Y-107828980D01*
X130474219Y-107908367D01*
X130517751Y-107986214D01*
X130565605Y-108059437D01*
X130615495Y-108124949D01*
X130665137Y-108179667D01*
X130712243Y-108220505D01*
X130740524Y-108238199D01*
X130795454Y-108255822D01*
X130852049Y-108254250D01*
X130909323Y-108234112D01*
X130966291Y-108196035D01*
X131021966Y-108140647D01*
X131075362Y-108068578D01*
X131115974Y-107998960D01*
X131138511Y-107957430D01*
X131155053Y-107930833D01*
X131168156Y-107916022D01*
X131180375Y-107909850D01*
X131189044Y-107908980D01*
X131206076Y-107910958D01*
X131211481Y-107920873D01*
X131209249Y-107942392D01*
X131198688Y-107976584D01*
X131177803Y-108021072D01*
X131149424Y-108071084D01*
X131116383Y-108121851D01*
X131081508Y-108168603D01*
X131060318Y-108193360D01*
X131010775Y-108240032D01*
X130956111Y-108278974D01*
X130901459Y-108307039D01*
X130852055Y-108321067D01*
X130819275Y-108322131D01*
X130781463Y-108318972D01*
X130772352Y-108317497D01*
X130725407Y-108301440D01*
X130674001Y-108271444D01*
X130623382Y-108231055D01*
X130584378Y-108190585D01*
X130548264Y-108144302D01*
X130510504Y-108089916D01*
X130472945Y-108030751D01*
X130437432Y-107970131D01*
X130405810Y-107911378D01*
X130379927Y-107857816D01*
X130361626Y-107812769D01*
X130352755Y-107779560D01*
X130352209Y-107772549D01*
X130359413Y-107752361D01*
X130376274Y-107743160D01*
X130395142Y-107748535D01*
G37*
G36*
X134266342Y-109221018D02*
G01*
X134282382Y-109228170D01*
X134288579Y-109244842D01*
X134284666Y-109272814D01*
X134270377Y-109313862D01*
X134245446Y-109369766D01*
X134243415Y-109374032D01*
X134186033Y-109482593D01*
X134125412Y-109575458D01*
X134062317Y-109651993D01*
X133997516Y-109711562D01*
X133931776Y-109753530D01*
X133865864Y-109777263D01*
X133800545Y-109782124D01*
X133759287Y-109775005D01*
X133706555Y-109753551D01*
X133650028Y-109718649D01*
X133595566Y-109674368D01*
X133557218Y-109634687D01*
X133523866Y-109592281D01*
X133489141Y-109542296D01*
X133454713Y-109487825D01*
X133422249Y-109431964D01*
X133393418Y-109377809D01*
X133369889Y-109328455D01*
X133353331Y-109286995D01*
X133345412Y-109256527D01*
X133346045Y-109243004D01*
X133359141Y-109232016D01*
X133374774Y-109228980D01*
X133387591Y-109231702D01*
X133398982Y-109242245D01*
X133411480Y-109264172D01*
X133427616Y-109301047D01*
X133429849Y-109306480D01*
X133449595Y-109349308D01*
X133476493Y-109400503D01*
X133506219Y-109452052D01*
X133522339Y-109477856D01*
X133582375Y-109561852D01*
X133642330Y-109628564D01*
X133701460Y-109677385D01*
X133759019Y-109707707D01*
X133814264Y-109718925D01*
X133818248Y-109718980D01*
X133873530Y-109709289D01*
X133930784Y-109680985D01*
X133988929Y-109635223D01*
X134046887Y-109573153D01*
X134103576Y-109495930D01*
X134157917Y-109404708D01*
X134207703Y-109303173D01*
X134226635Y-109262350D01*
X134240675Y-109237090D01*
X134252056Y-109224267D01*
X134263007Y-109220753D01*
X134266342Y-109221018D01*
G37*
G36*
X130873758Y-106771796D02*
G01*
X130885621Y-106782001D01*
X130898808Y-106805154D01*
X130908221Y-106825659D01*
X130947789Y-106902827D01*
X130999685Y-106985543D01*
X131060600Y-107069739D01*
X131127223Y-107151345D01*
X131196245Y-107226292D01*
X131264357Y-107290512D01*
X131324445Y-107337360D01*
X131399526Y-107377443D01*
X131478685Y-107398320D01*
X131560762Y-107400086D01*
X131644595Y-107382836D01*
X131729026Y-107346665D01*
X131804690Y-107297919D01*
X131860466Y-107249869D01*
X131919773Y-107188048D01*
X131978776Y-107117278D01*
X132033642Y-107042383D01*
X132080536Y-106968186D01*
X132107842Y-106916581D01*
X132126133Y-106888963D01*
X132146655Y-106873231D01*
X132165421Y-106870297D01*
X132178446Y-106881071D01*
X132182055Y-106899632D01*
X132176471Y-106918796D01*
X132161117Y-106950645D01*
X132138091Y-106991763D01*
X132109490Y-107038736D01*
X132077411Y-107088150D01*
X132043952Y-107136590D01*
X132011211Y-107180641D01*
X132003225Y-107190766D01*
X131926243Y-107276047D01*
X131843671Y-107347317D01*
X131757795Y-107403032D01*
X131670900Y-107441645D01*
X131607718Y-107458222D01*
X131561302Y-107465378D01*
X131523371Y-107467235D01*
X131483377Y-107463846D01*
X131452055Y-107458986D01*
X131385674Y-107441216D01*
X131319763Y-107409773D01*
X131251588Y-107363067D01*
X131178420Y-107299507D01*
X131113357Y-107232831D01*
X131047584Y-107156302D01*
X130984686Y-107074724D01*
X130928251Y-106992901D01*
X130881864Y-106915639D01*
X130860236Y-106873230D01*
X130841732Y-106828693D01*
X130835108Y-106798197D01*
X130840357Y-106779697D01*
X130857470Y-106771148D01*
X130859886Y-106770754D01*
X130873758Y-106771796D01*
G37*
G36*
X132247000Y-108038777D02*
G01*
X132260757Y-108054583D01*
X132278939Y-108083517D01*
X132302964Y-108127698D01*
X132316692Y-108154364D01*
X132379169Y-108268815D01*
X132441985Y-108366479D01*
X132507292Y-108450483D01*
X132557055Y-108504259D01*
X132602841Y-108546718D01*
X132643219Y-108574823D01*
X132683534Y-108591086D01*
X132729129Y-108598016D01*
X132758215Y-108598760D01*
X132807523Y-108593691D01*
X132853614Y-108578053D01*
X132897809Y-108550507D01*
X132941429Y-108509713D01*
X132985798Y-108454331D01*
X133032236Y-108383023D01*
X133082065Y-108294447D01*
X133108301Y-108243980D01*
X133136052Y-108190173D01*
X133156908Y-108151911D01*
X133172575Y-108126682D01*
X133184753Y-108111971D01*
X133195146Y-108105267D01*
X133203165Y-108103980D01*
X133223557Y-108110296D01*
X133229969Y-108120534D01*
X133226838Y-108135166D01*
X133216034Y-108163755D01*
X133199138Y-108202525D01*
X133177730Y-108247702D01*
X133171368Y-108260534D01*
X133117019Y-108364143D01*
X133066235Y-108449704D01*
X133017617Y-108518547D01*
X132969766Y-108571997D01*
X132921284Y-108611384D01*
X132870771Y-108638033D01*
X132816828Y-108653272D01*
X132758058Y-108658430D01*
X132752055Y-108658443D01*
X132709143Y-108656436D01*
X132668715Y-108651501D01*
X132639518Y-108644707D01*
X132639499Y-108644700D01*
X132591624Y-108619615D01*
X132538915Y-108577831D01*
X132483153Y-108521520D01*
X132426120Y-108452856D01*
X132369598Y-108374014D01*
X132315369Y-108287167D01*
X132265214Y-108194489D01*
X132257207Y-108178281D01*
X132231301Y-108120445D01*
X132217495Y-108077848D01*
X132215697Y-108049877D01*
X132225821Y-108035913D01*
X132236253Y-108033980D01*
X132247000Y-108038777D01*
G37*
G36*
X137328450Y-107925214D02*
G01*
X137334674Y-107937019D01*
X137335647Y-107961868D01*
X137335426Y-107968980D01*
X137329576Y-108012217D01*
X137315632Y-108068098D01*
X137295171Y-108131761D01*
X137269769Y-108198341D01*
X137241002Y-108262976D01*
X137238376Y-108268379D01*
X137199089Y-108336821D01*
X137151841Y-108400227D01*
X137100636Y-108453875D01*
X137049478Y-108493047D01*
X137046025Y-108495112D01*
X136995908Y-108515812D01*
X136939821Y-108525252D01*
X136885921Y-108522521D01*
X136860877Y-108515771D01*
X136817511Y-108496391D01*
X136776856Y-108470568D01*
X136734309Y-108434903D01*
X136685310Y-108386038D01*
X136644374Y-108339666D01*
X136602776Y-108286745D01*
X136562381Y-108230292D01*
X136525053Y-108173324D01*
X136492657Y-108118857D01*
X136467059Y-108069910D01*
X136450123Y-108029499D01*
X136443715Y-108000642D01*
X136443973Y-107995612D01*
X136454152Y-107977430D01*
X136466845Y-107973980D01*
X136479505Y-107979332D01*
X136495207Y-107996894D01*
X136515667Y-108028926D01*
X136535263Y-108063980D01*
X136587162Y-108152757D01*
X136642528Y-108234303D01*
X136699467Y-108306483D01*
X136756087Y-108367161D01*
X136810495Y-108414200D01*
X136860800Y-108445466D01*
X136880334Y-108453408D01*
X136924897Y-108463501D01*
X136965143Y-108460937D01*
X137005228Y-108444388D01*
X137049309Y-108412524D01*
X137072474Y-108391986D01*
X137104618Y-108359875D01*
X137130709Y-108327238D01*
X137154982Y-108288019D01*
X137181668Y-108236162D01*
X137182324Y-108234813D01*
X137206503Y-108180852D01*
X137230366Y-108120481D01*
X137250228Y-108063304D01*
X137257489Y-108038980D01*
X137269113Y-107996963D01*
X137279012Y-107961515D01*
X137285811Y-107937546D01*
X137287811Y-107930778D01*
X137299598Y-107921665D01*
X137314510Y-107920778D01*
X137328450Y-107925214D01*
G37*
G36*
X132866679Y-106852124D02*
G01*
X132878695Y-106863348D01*
X132892663Y-106886009D01*
X132910954Y-106923372D01*
X132915620Y-106933508D01*
X132966477Y-107032756D01*
X133027042Y-107130892D01*
X133095043Y-107225362D01*
X133168206Y-107313613D01*
X133244259Y-107393093D01*
X133320929Y-107461246D01*
X133395942Y-107515521D01*
X133467027Y-107553363D01*
X133467615Y-107553610D01*
X133542444Y-107574557D01*
X133619344Y-107575940D01*
X133697605Y-107557999D01*
X133776518Y-107520978D01*
X133855374Y-107465115D01*
X133927389Y-107397153D01*
X133993221Y-107319282D01*
X134057546Y-107228014D01*
X134115999Y-107129748D01*
X134135976Y-107091480D01*
X134155466Y-107054484D01*
X134170186Y-107032413D01*
X134183104Y-107021750D01*
X134197180Y-107018980D01*
X134214782Y-107023591D01*
X134221409Y-107038376D01*
X134216798Y-107064766D01*
X134200685Y-107104188D01*
X134172807Y-107158071D01*
X134170942Y-107161456D01*
X134097255Y-107282878D01*
X134019548Y-107388056D01*
X133938687Y-107476040D01*
X133855541Y-107545881D01*
X133775614Y-107594366D01*
X133733338Y-107614168D01*
X133699667Y-107626149D01*
X133665905Y-107632521D01*
X133623354Y-107635496D01*
X133612194Y-107635905D01*
X133563007Y-107635676D01*
X133516880Y-107632190D01*
X133482112Y-107626086D01*
X133481348Y-107625873D01*
X133415076Y-107599424D01*
X133342856Y-107556618D01*
X133266935Y-107499343D01*
X133189560Y-107429487D01*
X133112978Y-107348936D01*
X133039437Y-107259578D01*
X133029267Y-107246146D01*
X132990507Y-107191682D01*
X132952538Y-107133398D01*
X132916872Y-107074147D01*
X132885019Y-107016787D01*
X132858489Y-106964173D01*
X132838794Y-106919162D01*
X132827445Y-106884609D01*
X132825952Y-106863370D01*
X132826271Y-106862417D01*
X132839193Y-106851844D01*
X132854241Y-106849072D01*
X132866679Y-106852124D01*
G37*
G36*
X137391593Y-110734128D02*
G01*
X137510507Y-110734648D01*
X137614173Y-110735653D01*
X137704970Y-110737259D01*
X137785271Y-110739577D01*
X137857454Y-110742722D01*
X137923894Y-110746808D01*
X137986966Y-110751948D01*
X138049048Y-110758256D01*
X138112514Y-110765846D01*
X138179742Y-110774831D01*
X138216197Y-110779982D01*
X138382772Y-110806806D01*
X138533087Y-110837164D01*
X138665667Y-110870742D01*
X138713897Y-110885161D01*
X138771065Y-110903923D01*
X138811040Y-110919283D01*
X138836069Y-110932540D01*
X138848397Y-110944995D01*
X138850272Y-110957947D01*
X138848736Y-110963204D01*
X138837156Y-110974553D01*
X138813291Y-110977143D01*
X138775406Y-110970838D01*
X138721762Y-110955499D01*
X138712055Y-110952347D01*
X138575870Y-110912886D01*
X138420842Y-110877803D01*
X138247669Y-110847229D01*
X138057054Y-110821300D01*
X137977055Y-110812360D01*
X137934913Y-110808366D01*
X137888958Y-110804962D01*
X137837224Y-110802095D01*
X137777747Y-110799712D01*
X137708562Y-110797761D01*
X137627706Y-110796187D01*
X137533214Y-110794939D01*
X137423121Y-110793963D01*
X137295463Y-110793206D01*
X137262077Y-110793051D01*
X137141426Y-110792467D01*
X137039244Y-110791835D01*
X136953998Y-110791107D01*
X136884158Y-110790235D01*
X136828191Y-110789169D01*
X136784567Y-110787860D01*
X136751754Y-110786260D01*
X136728220Y-110784320D01*
X136712434Y-110781991D01*
X136702865Y-110779225D01*
X136697980Y-110775972D01*
X136697302Y-110775063D01*
X136692432Y-110766436D01*
X136690531Y-110759109D01*
X136693036Y-110752976D01*
X136701386Y-110747930D01*
X136717022Y-110743866D01*
X136741382Y-110740678D01*
X136775905Y-110738260D01*
X136822030Y-110736506D01*
X136881196Y-110735309D01*
X136954842Y-110734564D01*
X137044407Y-110734165D01*
X137151330Y-110734006D01*
X137255057Y-110733980D01*
X137391593Y-110734128D01*
G37*
G36*
X135210319Y-106992050D02*
G01*
X135231884Y-107016714D01*
X135260967Y-107058648D01*
X135273936Y-107078980D01*
X135371361Y-107222908D01*
X135476696Y-107355184D01*
X135595832Y-107483200D01*
X135596929Y-107484300D01*
X135656717Y-107542573D01*
X135706900Y-107587100D01*
X135750551Y-107619606D01*
X135790742Y-107641815D01*
X135830547Y-107655449D01*
X135873038Y-107662233D01*
X135917055Y-107663907D01*
X135960306Y-107662951D01*
X135991942Y-107658840D01*
X136020312Y-107649568D01*
X136053767Y-107633130D01*
X136060670Y-107629419D01*
X136121202Y-107590013D01*
X136186595Y-107535568D01*
X136253480Y-107469277D01*
X136318487Y-107394328D01*
X136345048Y-107360200D01*
X136373181Y-107322117D01*
X136398591Y-107285902D01*
X136423540Y-107247963D01*
X136450286Y-107204705D01*
X136481089Y-107152535D01*
X136518208Y-107087858D01*
X136536011Y-107056480D01*
X136558997Y-107023102D01*
X136579080Y-107009377D01*
X136582790Y-107008980D01*
X136601781Y-107014276D01*
X136607978Y-107030961D01*
X136601312Y-107060230D01*
X136581713Y-107103275D01*
X136576795Y-107112599D01*
X136500924Y-107244446D01*
X136421956Y-107363168D01*
X136341010Y-107467450D01*
X136259208Y-107555975D01*
X136177671Y-107627425D01*
X136097518Y-107680483D01*
X136090271Y-107684385D01*
X136052301Y-107703497D01*
X136021964Y-107715309D01*
X135991402Y-107721828D01*
X135952758Y-107725064D01*
X135927055Y-107726109D01*
X135875752Y-107726626D01*
X135837610Y-107723536D01*
X135805990Y-107716067D01*
X135789820Y-107710156D01*
X135730239Y-107679129D01*
X135663809Y-107632148D01*
X135592462Y-107571227D01*
X135518134Y-107498381D01*
X135442757Y-107415623D01*
X135368266Y-107324968D01*
X135296593Y-107228431D01*
X135229674Y-107128024D01*
X135227301Y-107124240D01*
X135195337Y-107068749D01*
X135177623Y-107027212D01*
X135174145Y-106999561D01*
X135184887Y-106985732D01*
X135195715Y-106983980D01*
X135210319Y-106992050D01*
G37*
G36*
X132662675Y-100156597D02*
G01*
X132736897Y-100175973D01*
X132803710Y-100212411D01*
X132861850Y-100265710D01*
X132910054Y-100335671D01*
X132916827Y-100348531D01*
X132947461Y-100427898D01*
X132966702Y-100520355D01*
X132974582Y-100622575D01*
X132971133Y-100731231D01*
X132956387Y-100842996D01*
X132930373Y-100954544D01*
X132910525Y-101016728D01*
X132858122Y-101145656D01*
X132795251Y-101266870D01*
X132723403Y-101378759D01*
X132644073Y-101479711D01*
X132558752Y-101568114D01*
X132468935Y-101642357D01*
X132376114Y-101700828D01*
X132281782Y-101741915D01*
X132224062Y-101757768D01*
X132168150Y-101766644D01*
X132119405Y-101766402D01*
X132067059Y-101756775D01*
X132054766Y-101753581D01*
X131980331Y-101723771D01*
X131917163Y-101677833D01*
X131865628Y-101616405D01*
X131826090Y-101540123D01*
X131798914Y-101449625D01*
X131784464Y-101345550D01*
X131782055Y-101276451D01*
X131791931Y-101131458D01*
X131821331Y-100985199D01*
X131869913Y-100838715D01*
X131937335Y-100693047D01*
X131984424Y-100613847D01*
X132172568Y-100613847D01*
X132175311Y-100635335D01*
X132184677Y-100651680D01*
X132195289Y-100663123D01*
X132229760Y-100684094D01*
X132272907Y-100688667D01*
X132321544Y-100676545D01*
X132324876Y-100675148D01*
X132373814Y-100645382D01*
X132419507Y-100601859D01*
X132458484Y-100549533D01*
X132487276Y-100493363D01*
X132502412Y-100438302D01*
X132503853Y-100419521D01*
X132497382Y-100374606D01*
X132478132Y-100342918D01*
X132448483Y-100324633D01*
X132410810Y-100319927D01*
X132367491Y-100328977D01*
X132320904Y-100351959D01*
X132273426Y-100389049D01*
X132260773Y-100401494D01*
X132214781Y-100458722D01*
X132186609Y-100518727D01*
X132174634Y-100579899D01*
X132172568Y-100613847D01*
X131984424Y-100613847D01*
X132019282Y-100555219D01*
X132053565Y-100508919D01*
X132098661Y-100455993D01*
X132150359Y-100400707D01*
X132204446Y-100347327D01*
X132256711Y-100300119D01*
X132302942Y-100263348D01*
X132316971Y-100253700D01*
X132408192Y-100202833D01*
X132497059Y-100169827D01*
X132582308Y-100154481D01*
X132662675Y-100156597D01*
G37*
G36*
X137391691Y-101953086D02*
G01*
X137466957Y-101971511D01*
X137535764Y-102008195D01*
X137597240Y-102062195D01*
X137650516Y-102132565D01*
X137694721Y-102218363D01*
X137728986Y-102318644D01*
X137729076Y-102318980D01*
X137737829Y-102365494D01*
X137743866Y-102426878D01*
X137747192Y-102498186D01*
X137747808Y-102574472D01*
X137745719Y-102650792D01*
X137740926Y-102722200D01*
X137733433Y-102783751D01*
X137728792Y-102808740D01*
X137688552Y-102962899D01*
X137637169Y-103101777D01*
X137573638Y-103227328D01*
X137496958Y-103341509D01*
X137406127Y-103446275D01*
X137397568Y-103454963D01*
X137351120Y-103499942D01*
X137311945Y-103533354D01*
X137274791Y-103559223D01*
X137234406Y-103581576D01*
X137228660Y-103584426D01*
X137186346Y-103604113D01*
X137152587Y-103616032D01*
X137118600Y-103622387D01*
X137075601Y-103625380D01*
X137063660Y-103625819D01*
X136997960Y-103625098D01*
X136950566Y-103617938D01*
X136939681Y-103614424D01*
X136867495Y-103576188D01*
X136804472Y-103520557D01*
X136751061Y-103448138D01*
X136707715Y-103359540D01*
X136675778Y-103258980D01*
X136666021Y-103204280D01*
X136659598Y-103135333D01*
X136656513Y-103057610D01*
X136656773Y-102976584D01*
X136660383Y-102897728D01*
X136667348Y-102826514D01*
X136675286Y-102778980D01*
X136708518Y-102649814D01*
X136751428Y-102527573D01*
X136778446Y-102467713D01*
X136913618Y-102467713D01*
X136928479Y-102506762D01*
X136932254Y-102511962D01*
X136962351Y-102536653D01*
X137000308Y-102543709D01*
X137046697Y-102533133D01*
X137088715Y-102512867D01*
X137136361Y-102478428D01*
X137176926Y-102435180D01*
X137209061Y-102386472D01*
X137231416Y-102335652D01*
X137242640Y-102286067D01*
X137241383Y-102241065D01*
X137226295Y-102203994D01*
X137217509Y-102193525D01*
X137184139Y-102173173D01*
X137143680Y-102169924D01*
X137098250Y-102183123D01*
X137049966Y-102212118D01*
X137000944Y-102256255D01*
X136995570Y-102262037D01*
X136955546Y-102314274D01*
X136927988Y-102368166D01*
X136913733Y-102420413D01*
X136913618Y-102467713D01*
X136778446Y-102467713D01*
X136802891Y-102413553D01*
X136861785Y-102309048D01*
X136926988Y-102215351D01*
X136997376Y-102133759D01*
X137071826Y-102065564D01*
X137149216Y-102012063D01*
X137228422Y-101974549D01*
X137308321Y-101954318D01*
X137387791Y-101952663D01*
X137391691Y-101953086D01*
G37*
G36*
X125924092Y-110204503D02*
G01*
X125959607Y-110206452D01*
X126007263Y-110210043D01*
X126068947Y-110215384D01*
X126146543Y-110222580D01*
X126241938Y-110231738D01*
X126253603Y-110232870D01*
X126469072Y-110253624D01*
X126668075Y-110272389D01*
X126854015Y-110289439D01*
X127030300Y-110305045D01*
X127200332Y-110319480D01*
X127367519Y-110333016D01*
X127535263Y-110345926D01*
X127706972Y-110358481D01*
X127886049Y-110370955D01*
X128075901Y-110383619D01*
X128279931Y-110396746D01*
X128387055Y-110403489D01*
X128569200Y-110414832D01*
X128733232Y-110424934D01*
X128880991Y-110433896D01*
X129014318Y-110441820D01*
X129135054Y-110448808D01*
X129245040Y-110454962D01*
X129346117Y-110460383D01*
X129440126Y-110465174D01*
X129528907Y-110469437D01*
X129614303Y-110473273D01*
X129698153Y-110476783D01*
X129747055Y-110478720D01*
X129859817Y-110483145D01*
X129954231Y-110486984D01*
X130031936Y-110490355D01*
X130094570Y-110493378D01*
X130143774Y-110496172D01*
X130181186Y-110498856D01*
X130208445Y-110501548D01*
X130227191Y-110504368D01*
X130239063Y-110507435D01*
X130245699Y-110510867D01*
X130248740Y-110514784D01*
X130248883Y-110515138D01*
X130247708Y-110533946D01*
X130241949Y-110544107D01*
X130237780Y-110548653D01*
X130232253Y-110552190D01*
X130223247Y-110554744D01*
X130208637Y-110556340D01*
X130186302Y-110557003D01*
X130154118Y-110556760D01*
X130109963Y-110555634D01*
X130051713Y-110553652D01*
X129977246Y-110550839D01*
X129907055Y-110548104D01*
X129766259Y-110542241D01*
X129612709Y-110535154D01*
X129445529Y-110526794D01*
X129263843Y-110517111D01*
X129066774Y-110506055D01*
X128853449Y-110493579D01*
X128622989Y-110479632D01*
X128374521Y-110464164D01*
X128107168Y-110447127D01*
X128052055Y-110443573D01*
X127777718Y-110425122D01*
X127506675Y-110405385D01*
X127234806Y-110384021D01*
X126957990Y-110360686D01*
X126672107Y-110335039D01*
X126373036Y-110306736D01*
X126188484Y-110288628D01*
X126112937Y-110281167D01*
X126043564Y-110274395D01*
X125982936Y-110268556D01*
X125933629Y-110263895D01*
X125898215Y-110260658D01*
X125879268Y-110259089D01*
X125877054Y-110258980D01*
X125862368Y-110251110D01*
X125856987Y-110233298D01*
X125862962Y-110214243D01*
X125865735Y-110211013D01*
X125871540Y-110207452D01*
X125881944Y-110205110D01*
X125898833Y-110204091D01*
X125924092Y-110204503D01*
G37*
G36*
X130818131Y-104892100D02*
G01*
X130823871Y-104900762D01*
X130828366Y-104918632D01*
X130832448Y-104948616D01*
X130836945Y-104993619D01*
X130840700Y-105034669D01*
X130856794Y-105154910D01*
X130881678Y-105260869D01*
X130914876Y-105351845D01*
X130955911Y-105427137D01*
X131004307Y-105486046D01*
X131059588Y-105527872D01*
X131121276Y-105551914D01*
X131188897Y-105557473D01*
X131196144Y-105556971D01*
X131251418Y-105546385D01*
X131305841Y-105522882D01*
X131362574Y-105484718D01*
X131422781Y-105432064D01*
X131465613Y-105392734D01*
X131497621Y-105368674D01*
X131521233Y-105360173D01*
X131538881Y-105367522D01*
X131552994Y-105391014D01*
X131566001Y-105430938D01*
X131570991Y-105449819D01*
X131611726Y-105580655D01*
X131662921Y-105694785D01*
X131725006Y-105792808D01*
X131798414Y-105875322D01*
X131883574Y-105942926D01*
X131956440Y-105984710D01*
X132048063Y-106023588D01*
X132137379Y-106047287D01*
X132231570Y-106057339D01*
X132297055Y-106057340D01*
X132397055Y-106053980D01*
X132400088Y-106080123D01*
X132399182Y-106099005D01*
X132386968Y-106108636D01*
X132371338Y-106112623D01*
X132334748Y-106116781D01*
X132284971Y-106118273D01*
X132228609Y-106117299D01*
X132172268Y-106114060D01*
X132122554Y-106108756D01*
X132096865Y-106104284D01*
X131986395Y-106070390D01*
X131882277Y-106019064D01*
X131787608Y-105952281D01*
X131705485Y-105872017D01*
X131676668Y-105836347D01*
X131643225Y-105789069D01*
X131614187Y-105741093D01*
X131587869Y-105688703D01*
X131562582Y-105628182D01*
X131536641Y-105555812D01*
X131508358Y-105467878D01*
X131506070Y-105460470D01*
X131497051Y-105459290D01*
X131475774Y-105473154D01*
X131442763Y-105501719D01*
X131442457Y-105502002D01*
X131379491Y-105553627D01*
X131318369Y-105588635D01*
X131254167Y-105609229D01*
X131184277Y-105617517D01*
X131140231Y-105618571D01*
X131108657Y-105616397D01*
X131082125Y-105609753D01*
X131053206Y-105597401D01*
X131047640Y-105594704D01*
X130981598Y-105551876D01*
X130924378Y-105492141D01*
X130875672Y-105415059D01*
X130835175Y-105320191D01*
X130818362Y-105267525D01*
X130803873Y-105209140D01*
X130791268Y-105142680D01*
X130781385Y-105074325D01*
X130775062Y-105010256D01*
X130773136Y-104956653D01*
X130773824Y-104938980D01*
X130777469Y-104910348D01*
X130784970Y-104896145D01*
X130799296Y-104890822D01*
X130799599Y-104890778D01*
X130810317Y-104889741D01*
X130818131Y-104892100D01*
G37*
G36*
X126319851Y-110471169D02*
G01*
X126408275Y-110475689D01*
X126467225Y-110479328D01*
X126602341Y-110489057D01*
X126718194Y-110499548D01*
X126815512Y-110510920D01*
X126895022Y-110523292D01*
X126957450Y-110536786D01*
X127003526Y-110551521D01*
X127033974Y-110567615D01*
X127041369Y-110573883D01*
X127057246Y-110592847D01*
X127059425Y-110609011D01*
X127054302Y-110623040D01*
X127037779Y-110645771D01*
X127009657Y-110665307D01*
X126968742Y-110681890D01*
X126913839Y-110695763D01*
X126843755Y-110707168D01*
X126757296Y-110716346D01*
X126653267Y-110723540D01*
X126532055Y-110728937D01*
X126457244Y-110731447D01*
X126385464Y-110733604D01*
X126320235Y-110735321D01*
X126265074Y-110736512D01*
X126223501Y-110737091D01*
X126202055Y-110737048D01*
X126176125Y-110736503D01*
X126133182Y-110735550D01*
X126076210Y-110734257D01*
X126008190Y-110732693D01*
X125932103Y-110730926D01*
X125850932Y-110729025D01*
X125807055Y-110727991D01*
X125715908Y-110725655D01*
X125610016Y-110722638D01*
X125494617Y-110719106D01*
X125374948Y-110715229D01*
X125256246Y-110711173D01*
X125143748Y-110707108D01*
X125077632Y-110704586D01*
X124987145Y-110701117D01*
X124900358Y-110697916D01*
X124819895Y-110695071D01*
X124748379Y-110692669D01*
X124688435Y-110690797D01*
X124642687Y-110689544D01*
X124613758Y-110688997D01*
X124610132Y-110688980D01*
X124542055Y-110688980D01*
X124542055Y-110655447D01*
X124542055Y-110621915D01*
X124589555Y-110625430D01*
X124609287Y-110626481D01*
X124646741Y-110628085D01*
X124699646Y-110630156D01*
X124765736Y-110632613D01*
X124842740Y-110635372D01*
X124928389Y-110638349D01*
X125020416Y-110641463D01*
X125092055Y-110643831D01*
X125190740Y-110647100D01*
X125287564Y-110650382D01*
X125379781Y-110653579D01*
X125464647Y-110656593D01*
X125539419Y-110659325D01*
X125601352Y-110661677D01*
X125647703Y-110663551D01*
X125667055Y-110664413D01*
X125719270Y-110666311D01*
X125785620Y-110667812D01*
X125863510Y-110668927D01*
X125950339Y-110669671D01*
X126043512Y-110670055D01*
X126140430Y-110670092D01*
X126238495Y-110669796D01*
X126335110Y-110669179D01*
X126427678Y-110668254D01*
X126513600Y-110667034D01*
X126590279Y-110665531D01*
X126655117Y-110663758D01*
X126705517Y-110661728D01*
X126738880Y-110659455D01*
X126742055Y-110659116D01*
X126793495Y-110652270D01*
X126844713Y-110643783D01*
X126891927Y-110634481D01*
X126931355Y-110625189D01*
X126959214Y-110616732D01*
X126971725Y-110609935D01*
X126972055Y-110608933D01*
X126962402Y-110601250D01*
X126934801Y-110592975D01*
X126891287Y-110584341D01*
X126833893Y-110575581D01*
X126764654Y-110566927D01*
X126685605Y-110558613D01*
X126598781Y-110550871D01*
X126506216Y-110543934D01*
X126409944Y-110538035D01*
X126312055Y-110533409D01*
X126243025Y-110530094D01*
X126191863Y-110526060D01*
X126156439Y-110520753D01*
X126134621Y-110513616D01*
X126124279Y-110504094D01*
X126123280Y-110491632D01*
X126125373Y-110484755D01*
X126135097Y-110477152D01*
X126158252Y-110472010D01*
X126195994Y-110469312D01*
X126249475Y-110469037D01*
X126319851Y-110471169D01*
G37*
G36*
X134873707Y-95226216D02*
G01*
X135295854Y-95251111D01*
X135672055Y-95289548D01*
X136104397Y-95352748D01*
X136532596Y-95435356D01*
X136955979Y-95537125D01*
X137373874Y-95657805D01*
X137785608Y-95797149D01*
X138190508Y-95954909D01*
X138587904Y-96130837D01*
X138977121Y-96324685D01*
X139357488Y-96536204D01*
X139728332Y-96765147D01*
X139802055Y-96813505D01*
X140124798Y-97038391D01*
X140440803Y-97280550D01*
X140748221Y-97538236D01*
X141045202Y-97809703D01*
X141329899Y-98093205D01*
X141600461Y-98386995D01*
X141855041Y-98689329D01*
X142036872Y-98923980D01*
X142267280Y-99249107D01*
X142483160Y-99587193D01*
X142683839Y-99936771D01*
X142868646Y-100296379D01*
X143036909Y-100664550D01*
X143187956Y-101039822D01*
X143321115Y-101420730D01*
X143435715Y-101805808D01*
X143525626Y-102168980D01*
X143608646Y-102584369D01*
X143672515Y-103000866D01*
X143717240Y-103417688D01*
X143742826Y-103834051D01*
X143749279Y-104249171D01*
X143736605Y-104662265D01*
X143704809Y-105072549D01*
X143653897Y-105479239D01*
X143583874Y-105881553D01*
X143495928Y-106273980D01*
X143384061Y-106681764D01*
X143254209Y-107080860D01*
X143106353Y-107471304D01*
X142940473Y-107853134D01*
X142756547Y-108226387D01*
X142554556Y-108591098D01*
X142334480Y-108947305D01*
X142096297Y-109295045D01*
X141839988Y-109634355D01*
X141565532Y-109965270D01*
X141286686Y-110273261D01*
X141133595Y-110435456D01*
X141225325Y-110417375D01*
X141331713Y-110399669D01*
X141421005Y-110391846D01*
X141493144Y-110393894D01*
X141548075Y-110405801D01*
X141585744Y-110427554D01*
X141606096Y-110459142D01*
X141609075Y-110500552D01*
X141608908Y-110501854D01*
X141592444Y-110550444D01*
X141556056Y-110598600D01*
X141499723Y-110646339D01*
X141423426Y-110693683D01*
X141377055Y-110717568D01*
X141291572Y-110754522D01*
X141187803Y-110791336D01*
X141067458Y-110827638D01*
X140932250Y-110863055D01*
X140783890Y-110897214D01*
X140624090Y-110929744D01*
X140454562Y-110960272D01*
X140277018Y-110988425D01*
X140093169Y-111013830D01*
X139922055Y-111034223D01*
X139854757Y-111041850D01*
X139793404Y-111049209D01*
X139741028Y-111055904D01*
X139700661Y-111061537D01*
X139675337Y-111065714D01*
X139668632Y-111067352D01*
X139664250Y-111071914D01*
X139666822Y-111080965D01*
X139677823Y-111096242D01*
X139698724Y-111119484D01*
X139730999Y-111152427D01*
X139776121Y-111196810D01*
X139788954Y-111209287D01*
X139842869Y-111260247D01*
X139902484Y-111314307D01*
X139962393Y-111366705D01*
X140017187Y-111412682D01*
X140047376Y-111436774D01*
X140196331Y-111547597D01*
X140354886Y-111656930D01*
X140520438Y-111763365D01*
X140690385Y-111865496D01*
X140862125Y-111961917D01*
X141033054Y-112051220D01*
X141200571Y-112132000D01*
X141362072Y-112202849D01*
X141514957Y-112262361D01*
X141656621Y-112309130D01*
X141667055Y-112312181D01*
X141739944Y-112332805D01*
X141808062Y-112350877D01*
X141873985Y-112366832D01*
X141940289Y-112381100D01*
X142009551Y-112394116D01*
X142084349Y-112406311D01*
X142167259Y-112418119D01*
X142260858Y-112429970D01*
X142367723Y-112442299D01*
X142490430Y-112455537D01*
X142571099Y-112463929D01*
X142682145Y-112475556D01*
X142775122Y-112485797D01*
X142851888Y-112494974D01*
X142914300Y-112503412D01*
X142964217Y-112511435D01*
X143003496Y-112519368D01*
X143033994Y-112527534D01*
X143057570Y-112536257D01*
X143076082Y-112545862D01*
X143088148Y-112554135D01*
X143119321Y-112586711D01*
X143131958Y-112621518D01*
X143127271Y-112657647D01*
X143106475Y-112694188D01*
X143070783Y-112730228D01*
X143021411Y-112764859D01*
X142959572Y-112797169D01*
X142886480Y-112826247D01*
X142803349Y-112851184D01*
X142711394Y-112871068D01*
X142653616Y-112880044D01*
X142588121Y-112885645D01*
X142508597Y-112887477D01*
X142420613Y-112885764D01*
X142329738Y-112880734D01*
X142241539Y-112872614D01*
X142161586Y-112861628D01*
X142149536Y-112859550D01*
X142021157Y-112833713D01*
X141879318Y-112799950D01*
X141728312Y-112759542D01*
X141572434Y-112713770D01*
X141415978Y-112663915D01*
X141263239Y-112611259D01*
X141118510Y-112557083D01*
X141067055Y-112536586D01*
X140911223Y-112471734D01*
X140761700Y-112405953D01*
X140615523Y-112337717D01*
X140469733Y-112265496D01*
X140321370Y-112187763D01*
X140167473Y-112102988D01*
X140005081Y-112009645D01*
X139831235Y-111906205D01*
X139747872Y-111855585D01*
X139686723Y-111818496D01*
X139630920Y-111785123D01*
X139582797Y-111756825D01*
X139544691Y-111734961D01*
X139518936Y-111720888D01*
X139507872Y-111715965D01*
X139495834Y-111720978D01*
X139470058Y-111734547D01*
X139433888Y-111754823D01*
X139390666Y-111779960D01*
X139372055Y-111791021D01*
X139022402Y-111989681D01*
X138663336Y-112173447D01*
X138298695Y-112340427D01*
X138047055Y-112444391D01*
X137653702Y-112589314D01*
X137251537Y-112717191D01*
X136842214Y-112827731D01*
X136427390Y-112920645D01*
X136008720Y-112995644D01*
X135587862Y-113052440D01*
X135166472Y-113090744D01*
X134746204Y-113110265D01*
X134328717Y-113110716D01*
X134242055Y-113108377D01*
X133809712Y-113084605D01*
X133379454Y-113041004D01*
X132951684Y-112977676D01*
X132526809Y-112894721D01*
X132105233Y-112792241D01*
X131687363Y-112670338D01*
X131273604Y-112529111D01*
X130864361Y-112368662D01*
X130460040Y-112189093D01*
X130357055Y-112139906D01*
X130051689Y-111983430D01*
X129742286Y-111808037D01*
X129429626Y-111614221D01*
X129114494Y-111402475D01*
X128797672Y-111173291D01*
X128669141Y-111075689D01*
X128531146Y-110969468D01*
X128642055Y-110969468D01*
X128649724Y-110977089D01*
X128671247Y-110994854D01*
X128704394Y-111021017D01*
X128746935Y-111053832D01*
X128796641Y-111091555D01*
X128829555Y-111116251D01*
X129078523Y-111298139D01*
X129319124Y-111465199D01*
X129554260Y-111619125D01*
X129786832Y-111761612D01*
X130019745Y-111894352D01*
X130255900Y-112019042D01*
X130498200Y-112137374D01*
X130749547Y-112251042D01*
X130842055Y-112290828D01*
X131238409Y-112448675D01*
X131642432Y-112589066D01*
X132052607Y-112711642D01*
X132467415Y-112816044D01*
X132885338Y-112901916D01*
X133304859Y-112968898D01*
X133724460Y-113016632D01*
X134007055Y-113037796D01*
X134069269Y-113040674D01*
X134147436Y-113043032D01*
X134238164Y-113044869D01*
X134338060Y-113046181D01*
X134443733Y-113046966D01*
X134551791Y-113047219D01*
X134658841Y-113046939D01*
X134761493Y-113046122D01*
X134856353Y-113044766D01*
X134940031Y-113042867D01*
X135009134Y-113040422D01*
X135042055Y-113038701D01*
X135469439Y-113003179D01*
X135893273Y-112949751D01*
X136312517Y-112878712D01*
X136726132Y-112790355D01*
X137133081Y-112684975D01*
X137532324Y-112562867D01*
X137922822Y-112424323D01*
X138303536Y-112269639D01*
X138673429Y-112099109D01*
X139031460Y-111913027D01*
X139047055Y-111904415D01*
X139147385Y-111848528D01*
X139230889Y-111801236D01*
X139298506Y-111761951D01*
X139351176Y-111730080D01*
X139389837Y-111705036D01*
X139415429Y-111686228D01*
X139428892Y-111673067D01*
X139431166Y-111664962D01*
X139430288Y-111663827D01*
X139418216Y-111655389D01*
X139391494Y-111638378D01*
X139352698Y-111614378D01*
X139304405Y-111584974D01*
X139249191Y-111551752D01*
X139212767Y-111530024D01*
X139061121Y-111441953D01*
X138921782Y-111365686D01*
X138791916Y-111299963D01*
X138668684Y-111243524D01*
X138549250Y-111195112D01*
X138430777Y-111153468D01*
X138310428Y-111117331D01*
X138242055Y-111099259D01*
X138185731Y-111085426D01*
X138131556Y-111073117D01*
X138078080Y-111062253D01*
X138023854Y-111052753D01*
X137967428Y-111044539D01*
X137907351Y-111037530D01*
X137842175Y-111031648D01*
X137770448Y-111026811D01*
X137690723Y-111022942D01*
X137601548Y-111019959D01*
X137501473Y-111017784D01*
X137389050Y-111016337D01*
X137262829Y-111015538D01*
X137121359Y-111015308D01*
X136963190Y-111015566D01*
X136786874Y-111016234D01*
X136734862Y-111016480D01*
X136222669Y-111018980D01*
X136188881Y-111071480D01*
X136131228Y-111144186D01*
X136060948Y-111204809D01*
X135981735Y-111250698D01*
X135900937Y-111278374D01*
X135853428Y-111285647D01*
X135799371Y-111288345D01*
X135747198Y-111286436D01*
X135705340Y-111279887D01*
X135702602Y-111279137D01*
X135674567Y-111274259D01*
X135656046Y-111280281D01*
X135652668Y-111282971D01*
X135599132Y-111317574D01*
X135533409Y-111340567D01*
X135459836Y-111351608D01*
X135382749Y-111350357D01*
X135306485Y-111336471D01*
X135246589Y-111314955D01*
X135196124Y-111291949D01*
X135161589Y-111320860D01*
X135112443Y-111350813D01*
X135052154Y-111370302D01*
X134987666Y-111377398D01*
X134962049Y-111376316D01*
X134895338Y-111362498D01*
X134836018Y-111333218D01*
X134783055Y-111287493D01*
X134735412Y-111224337D01*
X134692052Y-111142768D01*
X134675356Y-111103980D01*
X134654239Y-111052082D01*
X134770665Y-111052082D01*
X134777044Y-111078031D01*
X134793920Y-111121919D01*
X134821480Y-111167492D01*
X134855662Y-111209860D01*
X134892401Y-111244128D01*
X134927638Y-111265405D01*
X134934618Y-111267808D01*
X134967625Y-111275878D01*
X134994021Y-111277018D01*
X135024783Y-111271251D01*
X135037055Y-111268029D01*
X135081659Y-111246968D01*
X135124548Y-111210552D01*
X135130013Y-111203484D01*
X135266867Y-111203484D01*
X135267514Y-111209724D01*
X135283083Y-111220486D01*
X135313242Y-111230973D01*
X135352606Y-111239925D01*
X135395791Y-111246082D01*
X135432055Y-111248185D01*
X135483866Y-111245172D01*
X135527658Y-111233587D01*
X135547055Y-111225283D01*
X135585303Y-111202072D01*
X135606432Y-111184701D01*
X135762055Y-111184701D01*
X135770806Y-111189955D01*
X135793981Y-111189947D01*
X135826959Y-111185527D01*
X135865120Y-111177542D01*
X135903842Y-111166842D01*
X135938506Y-111154276D01*
X135946126Y-111150882D01*
X136017830Y-111107036D01*
X136076453Y-111048430D01*
X136121688Y-110976554D01*
X136142137Y-110933681D01*
X136146153Y-110922246D01*
X136252782Y-110922246D01*
X136859918Y-110915633D01*
X137045968Y-110913945D01*
X137213681Y-110913240D01*
X137364701Y-110913661D01*
X137500673Y-110915350D01*
X137623242Y-110918448D01*
X137734053Y-110923098D01*
X137834751Y-110929441D01*
X137926979Y-110937619D01*
X138012384Y-110947775D01*
X138092610Y-110960050D01*
X138169302Y-110974586D01*
X138244104Y-110991525D01*
X138318662Y-111011010D01*
X138394620Y-111033181D01*
X138459896Y-111053723D01*
X138518174Y-111073008D01*
X138574152Y-111092616D01*
X138629090Y-111113221D01*
X138684248Y-111135496D01*
X138740886Y-111160115D01*
X138800264Y-111187750D01*
X138863641Y-111219076D01*
X138932278Y-111254766D01*
X139007435Y-111295492D01*
X139090371Y-111341929D01*
X139182346Y-111394750D01*
X139284621Y-111454628D01*
X139398455Y-111522237D01*
X139525109Y-111598249D01*
X139665841Y-111683339D01*
X139821912Y-111778179D01*
X139868568Y-111806595D01*
X140097140Y-111942669D01*
X140314791Y-112065460D01*
X140524275Y-112176280D01*
X140728342Y-112276444D01*
X140929745Y-112367265D01*
X141131234Y-112450057D01*
X141335563Y-112526135D01*
X141477055Y-112574544D01*
X141671366Y-112636068D01*
X141850006Y-112686836D01*
X142014049Y-112727030D01*
X142164568Y-112756832D01*
X142302638Y-112776422D01*
X142429331Y-112785981D01*
X142545723Y-112785690D01*
X142652887Y-112775732D01*
X142662055Y-112774377D01*
X142733244Y-112760839D01*
X142804017Y-112742541D01*
X142870543Y-112720884D01*
X142928988Y-112697266D01*
X142975522Y-112673087D01*
X143006311Y-112649746D01*
X143007874Y-112648074D01*
X143016596Y-112636294D01*
X143012891Y-112629050D01*
X142993622Y-112622444D01*
X142985520Y-112620310D01*
X142960275Y-112614476D01*
X142928864Y-112608625D01*
X142889334Y-112602514D01*
X142839727Y-112595895D01*
X142778090Y-112588524D01*
X142702466Y-112580156D01*
X142610901Y-112570544D01*
X142501439Y-112559444D01*
X142497055Y-112559005D01*
X142316839Y-112539593D01*
X142153652Y-112518780D01*
X142004534Y-112495742D01*
X141866522Y-112469652D01*
X141736653Y-112439682D01*
X141611966Y-112405008D01*
X141489499Y-112364802D01*
X141366290Y-112318238D01*
X141239376Y-112264490D01*
X141105797Y-112202730D01*
X140962589Y-112132134D01*
X140957055Y-112129335D01*
X140763500Y-112026988D01*
X140572489Y-111917452D01*
X140387177Y-111802787D01*
X140210720Y-111685051D01*
X140046272Y-111566303D01*
X139896988Y-111448600D01*
X139841151Y-111401342D01*
X139796343Y-111361305D01*
X139743312Y-111311966D01*
X139687569Y-111258562D01*
X139634626Y-111206330D01*
X139614555Y-111186006D01*
X139568738Y-111138623D01*
X139535536Y-111102746D01*
X139513115Y-111076054D01*
X139499638Y-111056226D01*
X139493270Y-111040940D01*
X139492055Y-111031105D01*
X139496331Y-111005947D01*
X139505575Y-110990207D01*
X139519169Y-110985774D01*
X139549533Y-110979723D01*
X139593553Y-110972549D01*
X139648110Y-110964748D01*
X139710088Y-110956814D01*
X139733075Y-110954083D01*
X139899191Y-110934367D01*
X140047848Y-110915834D01*
X140181526Y-110898079D01*
X140302702Y-110880696D01*
X140413856Y-110863277D01*
X140517467Y-110845418D01*
X140616012Y-110826712D01*
X140711970Y-110806751D01*
X140807821Y-110785131D01*
X140901571Y-110762552D01*
X141045023Y-110724589D01*
X141169441Y-110686412D01*
X141274632Y-110648096D01*
X141360400Y-110609721D01*
X141426552Y-110571365D01*
X141471705Y-110534340D01*
X141504913Y-110500078D01*
X141479233Y-110493633D01*
X141453748Y-110492016D01*
X141410908Y-110495059D01*
X141352732Y-110502450D01*
X141281238Y-110513879D01*
X141198444Y-110529035D01*
X141106369Y-110547608D01*
X141050364Y-110559635D01*
X140916642Y-110588826D01*
X140800201Y-110613887D01*
X140698836Y-110635207D01*
X140610345Y-110653169D01*
X140532525Y-110668162D01*
X140463172Y-110680570D01*
X140400082Y-110690781D01*
X140341053Y-110699179D01*
X140283881Y-110706152D01*
X140226363Y-110712085D01*
X140166295Y-110717365D01*
X140137055Y-110719692D01*
X140064020Y-110723810D01*
X139985413Y-110725551D01*
X139904139Y-110725104D01*
X139823102Y-110722659D01*
X139745209Y-110718402D01*
X139673364Y-110712524D01*
X139610474Y-110705213D01*
X139559443Y-110696658D01*
X139523177Y-110687047D01*
X139506782Y-110678753D01*
X139496650Y-110659944D01*
X139492128Y-110628776D01*
X139492055Y-110623921D01*
X139492637Y-110604737D01*
X139496287Y-110589846D01*
X139505862Y-110575788D01*
X139524217Y-110559100D01*
X139554208Y-110536324D01*
X139579555Y-110517875D01*
X139671766Y-110449313D01*
X139763519Y-110377883D01*
X139852651Y-110305478D01*
X139937001Y-110233989D01*
X140014407Y-110165309D01*
X140082709Y-110101331D01*
X140139745Y-110043946D01*
X140183354Y-109995048D01*
X140197923Y-109976450D01*
X140230416Y-109927309D01*
X140246662Y-109888179D01*
X140246426Y-109857093D01*
X140229474Y-109832078D01*
X140195571Y-109811166D01*
X140177361Y-109803565D01*
X140148783Y-109794106D01*
X140127873Y-109793078D01*
X140104207Y-109800390D01*
X140098156Y-109802875D01*
X140074358Y-109817577D01*
X140042332Y-109843932D01*
X140006528Y-109878124D01*
X139989353Y-109896149D01*
X139898802Y-109991408D01*
X139815868Y-110072069D01*
X139737489Y-110140443D01*
X139660606Y-110198844D01*
X139582158Y-110249582D01*
X139499083Y-110294972D01*
X139408322Y-110337324D01*
X139401492Y-110340282D01*
X139343998Y-110363382D01*
X139282600Y-110384539D01*
X139216073Y-110403906D01*
X139143190Y-110421635D01*
X139062727Y-110437880D01*
X138973456Y-110452792D01*
X138874153Y-110466525D01*
X138763591Y-110479230D01*
X138640545Y-110491061D01*
X138503788Y-110502169D01*
X138352095Y-110512708D01*
X138184240Y-110522830D01*
X137998997Y-110532688D01*
X137795140Y-110542434D01*
X137767055Y-110543708D01*
X137574033Y-110551998D01*
X137384759Y-110559320D01*
X137201752Y-110565601D01*
X137027536Y-110570770D01*
X136864632Y-110574755D01*
X136715562Y-110577483D01*
X136582848Y-110578881D01*
X136532055Y-110579056D01*
X136463749Y-110579408D01*
X136401959Y-110580277D01*
X136349538Y-110581578D01*
X136309340Y-110583224D01*
X136284219Y-110585133D01*
X136277055Y-110586633D01*
X136273029Y-110599234D01*
X136269842Y-110628267D01*
X136267761Y-110670172D01*
X136267055Y-110718980D01*
X136266481Y-110771081D01*
X136264921Y-110819596D01*
X136262616Y-110858985D01*
X136259918Y-110883113D01*
X136252782Y-110922246D01*
X136146153Y-110922246D01*
X136151742Y-110906333D01*
X136149685Y-110892731D01*
X136135148Y-110891097D01*
X136107313Y-110899651D01*
X136089555Y-110906623D01*
X136045737Y-110921303D01*
X135994109Y-110934223D01*
X135952055Y-110941653D01*
X135906825Y-110947684D01*
X135877825Y-110952660D01*
X135861446Y-110958092D01*
X135854083Y-110965491D01*
X135852130Y-110976368D01*
X135852055Y-110983558D01*
X135846852Y-111015949D01*
X135833238Y-111057306D01*
X135814205Y-111100164D01*
X135792745Y-111137059D01*
X135787791Y-111143903D01*
X135771860Y-111166314D01*
X135762825Y-111181979D01*
X135762055Y-111184701D01*
X135606432Y-111184701D01*
X135625567Y-111168970D01*
X135664504Y-111129831D01*
X135698769Y-111088511D01*
X135725019Y-111048865D01*
X135739910Y-111014747D01*
X135742055Y-111000470D01*
X135733759Y-110997751D01*
X135712885Y-111001701D01*
X135702273Y-111005025D01*
X135636473Y-111022023D01*
X135557611Y-111033154D01*
X135471944Y-111037723D01*
X135415563Y-111036844D01*
X135314072Y-111032351D01*
X135308086Y-111069783D01*
X135300256Y-111102350D01*
X135287613Y-111140158D01*
X135282046Y-111154000D01*
X135271563Y-111182414D01*
X135266867Y-111203484D01*
X135130013Y-111203484D01*
X135161143Y-111163221D01*
X135178278Y-111131194D01*
X135195016Y-111091274D01*
X135201617Y-111066284D01*
X135197802Y-111053755D01*
X135183295Y-111051216D01*
X135169555Y-111053415D01*
X135051040Y-111072814D01*
X134944410Y-111077677D01*
X134847878Y-111068070D01*
X134833860Y-111065323D01*
X134770665Y-111052082D01*
X134654239Y-111052082D01*
X134642804Y-111023980D01*
X134124929Y-111017697D01*
X134013432Y-111016270D01*
X133898572Y-111014665D01*
X133783754Y-111012939D01*
X133672383Y-111011146D01*
X133567862Y-111009345D01*
X133473596Y-111007591D01*
X133392989Y-111005941D01*
X133337055Y-111004644D01*
X133067055Y-110997874D01*
X133038850Y-111073782D01*
X133004739Y-111148135D01*
X132962028Y-111213348D01*
X132913536Y-111265771D01*
X132863413Y-111301065D01*
X132805277Y-111322000D01*
X132740647Y-111329916D01*
X132674909Y-111325362D01*
X132613449Y-111308892D01*
X132561653Y-111281055D01*
X132546717Y-111268648D01*
X132535264Y-111258989D01*
X132524044Y-111255376D01*
X132507718Y-111258264D01*
X132480948Y-111268107D01*
X132461717Y-111275886D01*
X132382896Y-111299440D01*
X132301305Y-111308430D01*
X132221519Y-111303072D01*
X132148116Y-111283582D01*
X132098283Y-111258737D01*
X132073074Y-111243600D01*
X132053393Y-111236085D01*
X132031597Y-111234972D01*
X132000041Y-111239039D01*
X131987664Y-111241064D01*
X131900425Y-111245713D01*
X131813375Y-111232031D01*
X131729655Y-111201466D01*
X131652405Y-111155468D01*
X131584767Y-111095486D01*
X131535949Y-111032685D01*
X131502982Y-110981390D01*
X130890018Y-110975237D01*
X130737876Y-110973783D01*
X130582361Y-110972435D01*
X130424734Y-110971197D01*
X130266258Y-110970071D01*
X130108193Y-110969061D01*
X129951800Y-110968170D01*
X129798341Y-110967401D01*
X129649078Y-110966758D01*
X129505272Y-110966244D01*
X129368183Y-110965862D01*
X129239074Y-110965615D01*
X129119206Y-110965506D01*
X129009840Y-110965540D01*
X128912237Y-110965718D01*
X128827660Y-110966044D01*
X128757368Y-110966522D01*
X128702624Y-110967155D01*
X128664689Y-110967946D01*
X128644825Y-110968897D01*
X128642055Y-110969468D01*
X128531146Y-110969468D01*
X128521227Y-110961833D01*
X127299141Y-110952981D01*
X127125533Y-110951775D01*
X126944920Y-110950615D01*
X126759776Y-110949514D01*
X126572577Y-110948483D01*
X126385796Y-110947531D01*
X126201909Y-110946671D01*
X126023390Y-110945914D01*
X125852715Y-110945270D01*
X125692358Y-110944751D01*
X125544794Y-110944368D01*
X125412498Y-110944132D01*
X125307263Y-110944054D01*
X124537471Y-110943980D01*
X124540671Y-110898980D01*
X124543140Y-110871424D01*
X124545674Y-110853934D01*
X124546608Y-110851167D01*
X124557406Y-110850257D01*
X124587319Y-110849468D01*
X124635464Y-110848795D01*
X124700957Y-110848235D01*
X124782913Y-110847786D01*
X124880450Y-110847444D01*
X124992683Y-110847205D01*
X125118729Y-110847068D01*
X125257703Y-110847028D01*
X125408721Y-110847082D01*
X125570900Y-110847228D01*
X125743356Y-110847462D01*
X125925204Y-110847780D01*
X126115561Y-110848180D01*
X126313543Y-110848658D01*
X126518267Y-110849211D01*
X126728847Y-110849837D01*
X126944401Y-110850531D01*
X127164044Y-110851291D01*
X127386893Y-110852113D01*
X127612063Y-110852994D01*
X127838670Y-110853932D01*
X128065832Y-110854922D01*
X128292663Y-110855962D01*
X128518280Y-110857048D01*
X128741800Y-110858178D01*
X128962337Y-110859348D01*
X129179009Y-110860554D01*
X129390931Y-110861794D01*
X129597219Y-110863065D01*
X129796990Y-110864363D01*
X129989360Y-110865685D01*
X130173444Y-110867028D01*
X130348359Y-110868389D01*
X130513221Y-110869764D01*
X130667146Y-110871151D01*
X130809250Y-110872546D01*
X130938649Y-110873945D01*
X130977161Y-110874393D01*
X131457268Y-110880078D01*
X131457257Y-110862482D01*
X131572062Y-110862482D01*
X131576118Y-110876906D01*
X131586711Y-110903352D01*
X131600563Y-110933980D01*
X131645258Y-111005518D01*
X131704307Y-111064474D01*
X131775054Y-111108788D01*
X131854843Y-111136398D01*
X131863817Y-111138279D01*
X131901616Y-111145100D01*
X131925444Y-111147310D01*
X131940761Y-111145046D01*
X131950028Y-111140444D01*
X131957104Y-111131286D01*
X131947280Y-111119169D01*
X131946748Y-111118725D01*
X131928432Y-111096399D01*
X131908408Y-111060953D01*
X131889683Y-111018705D01*
X131875263Y-110975973D01*
X131874523Y-110972971D01*
X131982055Y-110972971D01*
X131988848Y-110993968D01*
X132007136Y-111024363D01*
X132033780Y-111059920D01*
X132065643Y-111096406D01*
X132095148Y-111125591D01*
X132155085Y-111171278D01*
X132216014Y-111198480D01*
X132280928Y-111207820D01*
X132352817Y-111199919D01*
X132396820Y-111188325D01*
X132432145Y-111176535D01*
X132451338Y-111167253D01*
X132457725Y-111158376D01*
X132456163Y-111150825D01*
X132449302Y-111133352D01*
X132438331Y-111103216D01*
X132425535Y-111066706D01*
X132424597Y-111063980D01*
X132406397Y-111010978D01*
X132516723Y-111010978D01*
X132518392Y-111021258D01*
X132526156Y-111044680D01*
X132537155Y-111073209D01*
X132566722Y-111129650D01*
X132604295Y-111176495D01*
X132645981Y-111209150D01*
X132657055Y-111214767D01*
X132699552Y-111226210D01*
X132747948Y-111227951D01*
X132793460Y-111220287D01*
X132819252Y-111209273D01*
X132852934Y-111181227D01*
X132887513Y-111139669D01*
X132918573Y-111090366D01*
X132933426Y-111060064D01*
X132944052Y-111034008D01*
X132949629Y-111016970D01*
X132949806Y-111013631D01*
X132939437Y-111014322D01*
X132914686Y-111018493D01*
X132880692Y-111025267D01*
X132877055Y-111026039D01*
X132827598Y-111032892D01*
X132766510Y-111035934D01*
X132700686Y-111035330D01*
X132637021Y-111031245D01*
X132582411Y-111023846D01*
X132558617Y-111018390D01*
X132533610Y-111012317D01*
X132518348Y-111010491D01*
X132516723Y-111010978D01*
X132406397Y-111010978D01*
X132400560Y-110993980D01*
X132248807Y-110993693D01*
X132174177Y-110992613D01*
X132116118Y-110989515D01*
X132071279Y-110984132D01*
X132039555Y-110977142D01*
X132005653Y-110968697D01*
X131987453Y-110967388D01*
X131982055Y-110972971D01*
X131874523Y-110972971D01*
X131871441Y-110960474D01*
X131860946Y-110911539D01*
X131789000Y-110906710D01*
X131740745Y-110900428D01*
X131686792Y-110888879D01*
X131663118Y-110881903D01*
X131957055Y-110881903D01*
X132012055Y-110900787D01*
X132053789Y-110913461D01*
X132097808Y-110924370D01*
X132117055Y-110928156D01*
X132156505Y-110932945D01*
X132205463Y-110936181D01*
X132257428Y-110937726D01*
X132305900Y-110937446D01*
X132344379Y-110935203D01*
X132358305Y-110933211D01*
X132387055Y-110927443D01*
X132387055Y-110789621D01*
X132482520Y-110789621D01*
X132483338Y-110842420D01*
X132486581Y-110887856D01*
X132488345Y-110900692D01*
X132492500Y-110920325D01*
X132500040Y-110932649D01*
X132515698Y-110941079D01*
X132544204Y-110949031D01*
X132560735Y-110952954D01*
X132611935Y-110964430D01*
X132651849Y-110971465D01*
X132688497Y-110974839D01*
X132729899Y-110975332D01*
X132777055Y-110973987D01*
X132831523Y-110969788D01*
X132883077Y-110961968D01*
X132921548Y-110952327D01*
X132952653Y-110940939D01*
X132970426Y-110929603D01*
X132980644Y-110912467D01*
X132988309Y-110886359D01*
X133093888Y-110886359D01*
X133096494Y-110892870D01*
X133107041Y-110896781D01*
X133128829Y-110898862D01*
X133165157Y-110899878D01*
X133198388Y-110900336D01*
X133236159Y-110900897D01*
X133290361Y-110901826D01*
X133357427Y-110903057D01*
X133433793Y-110904521D01*
X133515894Y-110906151D01*
X133600165Y-110907879D01*
X133627055Y-110908443D01*
X133723892Y-110910298D01*
X133834351Y-110912099D01*
X133952050Y-110913762D01*
X134070612Y-110915202D01*
X134183657Y-110916337D01*
X134284804Y-110917083D01*
X134285433Y-110917087D01*
X134623812Y-110918980D01*
X134618348Y-110881480D01*
X134614298Y-110850616D01*
X134609568Y-110810224D01*
X134606381Y-110780571D01*
X134603166Y-110749215D01*
X134707715Y-110749215D01*
X134710442Y-110788723D01*
X134715481Y-110833988D01*
X134722373Y-110880379D01*
X134730662Y-110923261D01*
X134733799Y-110936550D01*
X134741506Y-110961869D01*
X134752391Y-110976675D01*
X134772463Y-110986493D01*
X134795760Y-110993514D01*
X134830352Y-111002812D01*
X134860830Y-111010323D01*
X134872055Y-111012752D01*
X134905119Y-111015651D01*
X134951805Y-111015267D01*
X135006093Y-111012078D01*
X135061961Y-111006563D01*
X135113388Y-110999199D01*
X135154353Y-110990465D01*
X135155003Y-110990286D01*
X135189637Y-110980040D01*
X135216245Y-110971002D01*
X135229295Y-110965057D01*
X135229479Y-110964888D01*
X135232894Y-110951710D01*
X135235154Y-110923452D01*
X135236311Y-110884996D01*
X135236419Y-110841225D01*
X135235531Y-110797021D01*
X135233699Y-110757268D01*
X135230976Y-110726848D01*
X135227415Y-110710645D01*
X135226719Y-110709644D01*
X135209659Y-110704838D01*
X135177984Y-110711213D01*
X135176753Y-110711589D01*
X135148943Y-110716773D01*
X135106486Y-110720606D01*
X135053634Y-110723102D01*
X134994636Y-110724276D01*
X134933743Y-110724145D01*
X134875205Y-110722724D01*
X134823273Y-110720029D01*
X134782196Y-110716075D01*
X134756225Y-110710878D01*
X134753998Y-110710036D01*
X134724927Y-110701976D01*
X134711027Y-110706007D01*
X134707758Y-110720099D01*
X134707715Y-110749215D01*
X134603166Y-110749215D01*
X134599880Y-110717162D01*
X134568467Y-110722650D01*
X134429626Y-110742478D01*
X134275304Y-110756571D01*
X134109187Y-110764910D01*
X133934958Y-110767476D01*
X133756303Y-110764253D01*
X133576906Y-110755222D01*
X133400452Y-110740366D01*
X133298937Y-110728826D01*
X133244216Y-110722055D01*
X133196032Y-110716277D01*
X133158084Y-110711921D01*
X133134071Y-110709416D01*
X133127905Y-110708980D01*
X133119446Y-110718018D01*
X133112758Y-110745640D01*
X133108559Y-110781480D01*
X133104504Y-110820792D01*
X133099999Y-110854771D01*
X133096004Y-110876193D01*
X133095926Y-110876480D01*
X133093888Y-110886359D01*
X132988309Y-110886359D01*
X132989007Y-110883980D01*
X132996023Y-110847616D01*
X133001648Y-110801615D01*
X133004513Y-110758980D01*
X133006761Y-110692669D01*
X135335511Y-110692669D01*
X135336283Y-110830553D01*
X135336948Y-110887138D01*
X135338422Y-110926661D01*
X135341030Y-110952053D01*
X135345098Y-110966248D01*
X135350951Y-110972177D01*
X135352055Y-110972548D01*
X135376713Y-110975923D01*
X135415181Y-110977490D01*
X135461359Y-110977340D01*
X135509149Y-110975565D01*
X135552450Y-110972255D01*
X135576003Y-110969210D01*
X135634126Y-110957889D01*
X135685729Y-110944435D01*
X135726679Y-110930130D01*
X135752847Y-110916259D01*
X135756441Y-110913164D01*
X135765350Y-110897342D01*
X135770317Y-110869556D01*
X135771971Y-110826060D01*
X135771979Y-110820765D01*
X135770883Y-110785905D01*
X135768024Y-110744550D01*
X135763957Y-110701713D01*
X135759234Y-110662405D01*
X135754411Y-110631637D01*
X135750041Y-110614421D01*
X135748974Y-110612712D01*
X135739326Y-110614887D01*
X135715076Y-110622197D01*
X135680547Y-110633310D01*
X135660867Y-110639847D01*
X135572537Y-110663167D01*
X135469466Y-110679197D01*
X135455095Y-110680713D01*
X135335511Y-110692669D01*
X133006761Y-110692669D01*
X133007055Y-110683980D01*
X132822055Y-110687246D01*
X132734927Y-110687926D01*
X132665115Y-110686480D01*
X132610033Y-110682800D01*
X132567098Y-110676777D01*
X132565581Y-110676483D01*
X132494108Y-110662453D01*
X132488191Y-110698216D01*
X132484136Y-110738529D01*
X132482520Y-110789621D01*
X132387055Y-110789621D01*
X132387055Y-110789506D01*
X132387055Y-110651569D01*
X132294095Y-110645040D01*
X132196559Y-110634574D01*
X132105565Y-110617828D01*
X132027441Y-110595984D01*
X132022748Y-110594341D01*
X131989315Y-110585217D01*
X131970430Y-110587125D01*
X131968100Y-110588934D01*
X131963971Y-110602903D01*
X131960675Y-110633855D01*
X131958423Y-110678783D01*
X131957428Y-110734682D01*
X131957406Y-110740589D01*
X131957055Y-110881903D01*
X131663118Y-110881903D01*
X131644555Y-110876433D01*
X131604398Y-110863734D01*
X131579820Y-110859164D01*
X131572062Y-110862482D01*
X131457257Y-110862482D01*
X131457200Y-110770104D01*
X131552055Y-110770104D01*
X131599555Y-110791391D01*
X131657472Y-110814224D01*
X131717452Y-110832548D01*
X131772613Y-110844506D01*
X131810008Y-110848267D01*
X131852961Y-110848980D01*
X131846541Y-110814757D01*
X131845284Y-110792675D01*
X131846169Y-110756526D01*
X131848745Y-110711837D01*
X131852560Y-110664132D01*
X131857163Y-110618934D01*
X131862103Y-110581768D01*
X131866929Y-110558158D01*
X131867680Y-110555955D01*
X131861266Y-110546225D01*
X131835769Y-110535043D01*
X131807079Y-110526585D01*
X131764716Y-110513462D01*
X131730382Y-110500812D01*
X131993083Y-110500812D01*
X132004828Y-110517230D01*
X132032544Y-110530272D01*
X132055468Y-110537762D01*
X132119647Y-110555334D01*
X132186007Y-110569579D01*
X132250122Y-110579884D01*
X132307562Y-110585636D01*
X132353901Y-110586220D01*
X132379555Y-110582677D01*
X132381387Y-110581391D01*
X132502046Y-110581391D01*
X132502055Y-110583789D01*
X132510538Y-110597326D01*
X132524555Y-110603832D01*
X132574482Y-110615044D01*
X132611142Y-110622051D01*
X132640598Y-110625784D01*
X132668912Y-110627175D01*
X132677055Y-110627269D01*
X132697590Y-110627075D01*
X132706269Y-110625601D01*
X132701413Y-110621969D01*
X132681343Y-110615302D01*
X132644381Y-110604724D01*
X132622055Y-110598526D01*
X132572220Y-110584785D01*
X132538526Y-110575914D01*
X132517817Y-110571527D01*
X132506938Y-110571236D01*
X132502733Y-110574653D01*
X132502046Y-110581391D01*
X132381387Y-110581391D01*
X132398477Y-110569395D01*
X132402055Y-110554782D01*
X132399119Y-110542461D01*
X132387779Y-110532165D01*
X132364236Y-110521535D01*
X132329555Y-110509759D01*
X132290353Y-110496623D01*
X132238839Y-110478515D01*
X132181331Y-110457742D01*
X132124147Y-110436606D01*
X132073605Y-110417412D01*
X132040867Y-110404461D01*
X132028235Y-110405105D01*
X132016447Y-110420501D01*
X132008367Y-110438616D01*
X131995024Y-110476210D01*
X131993083Y-110500812D01*
X131730382Y-110500812D01*
X131714887Y-110495103D01*
X131667951Y-110475340D01*
X131665332Y-110474137D01*
X131629992Y-110458609D01*
X131602029Y-110447820D01*
X131585944Y-110443451D01*
X131583925Y-110443775D01*
X131577326Y-110459226D01*
X131570427Y-110489984D01*
X131563859Y-110531379D01*
X131558255Y-110578740D01*
X131554243Y-110627397D01*
X131552455Y-110672678D01*
X131552422Y-110677042D01*
X131552055Y-110770104D01*
X131457200Y-110770104D01*
X131457161Y-110707029D01*
X131457583Y-110646412D01*
X131458818Y-110589333D01*
X131460707Y-110540254D01*
X131463092Y-110503639D01*
X131464940Y-110487995D01*
X131472825Y-110442011D01*
X131344940Y-110435397D01*
X131074148Y-110421485D01*
X130820858Y-110408676D01*
X130582610Y-110396848D01*
X130356942Y-110385884D01*
X130141394Y-110375663D01*
X130047177Y-110371314D01*
X131608679Y-110371314D01*
X131608843Y-110371670D01*
X131622810Y-110383017D01*
X131651330Y-110398595D01*
X131689896Y-110416573D01*
X131734002Y-110435121D01*
X131779140Y-110452410D01*
X131820805Y-110466610D01*
X131854488Y-110475891D01*
X131872059Y-110478532D01*
X131884466Y-110469326D01*
X131899000Y-110442374D01*
X131908384Y-110418120D01*
X131929704Y-110357261D01*
X131888379Y-110339130D01*
X131861486Y-110327054D01*
X131822648Y-110309269D01*
X131778006Y-110288598D01*
X131750420Y-110275718D01*
X131653786Y-110230438D01*
X131629001Y-110297209D01*
X131617388Y-110331130D01*
X131610129Y-110357627D01*
X131608679Y-110371314D01*
X130047177Y-110371314D01*
X129933505Y-110366067D01*
X129730815Y-110356977D01*
X129667055Y-110354174D01*
X129239849Y-110334655D01*
X128830072Y-110314197D01*
X128435166Y-110292602D01*
X128052574Y-110269675D01*
X127679738Y-110245219D01*
X127314101Y-110219035D01*
X126953106Y-110190929D01*
X126594194Y-110160702D01*
X126234809Y-110128159D01*
X125872392Y-110093101D01*
X125504387Y-110055333D01*
X125128236Y-110014658D01*
X124853009Y-109983699D01*
X124777222Y-109975066D01*
X124707948Y-109967217D01*
X124647652Y-109960427D01*
X124598803Y-109954973D01*
X124563867Y-109951131D01*
X124545313Y-109949177D01*
X124543009Y-109948986D01*
X124540239Y-109940026D01*
X124539671Y-109917103D01*
X124540520Y-109898986D01*
X124544970Y-109866047D01*
X124552957Y-109850723D01*
X124558362Y-109848980D01*
X124571023Y-109850063D01*
X124601477Y-109853162D01*
X124647642Y-109858052D01*
X124707435Y-109864507D01*
X124778775Y-109872300D01*
X124859580Y-109881206D01*
X124947768Y-109890999D01*
X125014896Y-109898499D01*
X125451986Y-109946281D01*
X125870394Y-109989625D01*
X126270920Y-110028607D01*
X126654368Y-110063305D01*
X127021539Y-110093796D01*
X127147055Y-110103541D01*
X127229223Y-110109841D01*
X127307558Y-110115921D01*
X127379157Y-110121550D01*
X127441119Y-110126497D01*
X127490541Y-110130532D01*
X127524520Y-110133424D01*
X127535589Y-110134445D01*
X127594123Y-110140207D01*
X127495148Y-110022093D01*
X127249247Y-109717576D01*
X127021280Y-109411910D01*
X126809265Y-109102104D01*
X126611222Y-108785167D01*
X126425169Y-108458109D01*
X126297167Y-108213980D01*
X126241177Y-108102567D01*
X126192455Y-108003281D01*
X126148761Y-107911174D01*
X126107856Y-107821298D01*
X126067502Y-107728705D01*
X126025458Y-107628449D01*
X125979486Y-107515580D01*
X125966782Y-107483980D01*
X125817367Y-107086519D01*
X125687264Y-106686906D01*
X125576225Y-106284016D01*
X125484004Y-105876725D01*
X125410351Y-105463908D01*
X125355021Y-105044442D01*
X125317766Y-104617203D01*
X125310970Y-104503980D01*
X125307410Y-104417807D01*
X125305114Y-104316374D01*
X125304027Y-104203523D01*
X125304094Y-104083098D01*
X125304127Y-104079601D01*
X125363301Y-104079601D01*
X125372941Y-104488721D01*
X125401850Y-104900598D01*
X125432780Y-105183980D01*
X125491768Y-105579980D01*
X125569776Y-105977757D01*
X125666197Y-106375262D01*
X125780422Y-106770445D01*
X125911840Y-107161255D01*
X126059844Y-107545643D01*
X126223823Y-107921559D01*
X126284025Y-108048980D01*
X126422294Y-108321701D01*
X126576077Y-108599154D01*
X126742892Y-108877346D01*
X126920257Y-109152279D01*
X127105692Y-109419960D01*
X127287131Y-109663980D01*
X127327652Y-109715846D01*
X127374579Y-109774733D01*
X127425377Y-109837571D01*
X127477515Y-109901291D01*
X127528460Y-109962823D01*
X127575680Y-110019097D01*
X127616641Y-110067044D01*
X127648813Y-110103594D01*
X127658863Y-110114560D01*
X127687421Y-110145140D01*
X127957238Y-110162359D01*
X128038658Y-110167472D01*
X128134551Y-110173355D01*
X128239420Y-110179681D01*
X128347770Y-110186121D01*
X128454102Y-110192346D01*
X128552921Y-110198027D01*
X128567055Y-110198829D01*
X128626946Y-110202203D01*
X128684127Y-110205380D01*
X128740108Y-110208433D01*
X128796403Y-110211434D01*
X128854524Y-110214457D01*
X128915985Y-110217573D01*
X128982298Y-110220856D01*
X129054976Y-110224377D01*
X129135532Y-110228210D01*
X129225479Y-110232427D01*
X129326329Y-110237100D01*
X129439595Y-110242303D01*
X129566791Y-110248108D01*
X129709428Y-110254588D01*
X129869020Y-110261814D01*
X130047055Y-110269859D01*
X130163268Y-110275204D01*
X130291075Y-110281252D01*
X130425326Y-110287749D01*
X130560876Y-110294440D01*
X130692576Y-110301071D01*
X130815280Y-110307387D01*
X130923841Y-110313134D01*
X130937055Y-110313849D01*
X131029913Y-110318756D01*
X131119202Y-110323236D01*
X131202354Y-110327178D01*
X131276804Y-110330470D01*
X131339984Y-110332999D01*
X131389328Y-110334655D01*
X131422270Y-110335326D01*
X131430101Y-110335297D01*
X131503148Y-110333980D01*
X131528541Y-110273980D01*
X131546525Y-110230960D01*
X131555760Y-110201733D01*
X131554616Y-110181399D01*
X131541462Y-110165060D01*
X131514670Y-110147819D01*
X131480293Y-110128980D01*
X131422514Y-110095655D01*
X131353307Y-110052824D01*
X131276944Y-110003372D01*
X131197696Y-109950182D01*
X131119837Y-109896138D01*
X131047638Y-109844124D01*
X130985371Y-109797024D01*
X130967055Y-109782507D01*
X130916486Y-109740441D01*
X130858780Y-109690256D01*
X130800845Y-109638072D01*
X130749588Y-109590011D01*
X130746851Y-109587368D01*
X130702616Y-109545120D01*
X130668764Y-109514582D01*
X130641722Y-109493138D01*
X130617918Y-109478172D01*
X130593780Y-109467067D01*
X130571851Y-109459213D01*
X130516689Y-109438446D01*
X130450279Y-109409629D01*
X130378223Y-109375483D01*
X130306127Y-109338727D01*
X130239593Y-109302079D01*
X130202952Y-109280207D01*
X130069400Y-109189810D01*
X129939230Y-109087327D01*
X129814944Y-108975391D01*
X129699043Y-108856633D01*
X129594028Y-108733686D01*
X129502400Y-108609182D01*
X129426661Y-108485754D01*
X129400718Y-108435944D01*
X129382638Y-108400984D01*
X129369485Y-108381242D01*
X129358453Y-108373493D01*
X129347144Y-108374378D01*
X129305101Y-108384747D01*
X129271497Y-108384037D01*
X129237917Y-108371940D01*
X129234547Y-108370251D01*
X129182052Y-108332721D01*
X129134548Y-108276985D01*
X129092195Y-108204248D01*
X129055153Y-108115710D01*
X129023581Y-108012576D01*
X128997641Y-107896047D01*
X128977491Y-107767327D01*
X128963291Y-107627618D01*
X128955202Y-107478123D01*
X128953930Y-107367521D01*
X129052593Y-107367521D01*
X129056702Y-107507399D01*
X129066421Y-107641668D01*
X129081456Y-107768442D01*
X129101512Y-107885834D01*
X129126294Y-107991961D01*
X129155507Y-108084936D01*
X129188856Y-108162874D01*
X129226046Y-108223888D01*
X129245051Y-108246480D01*
X129273035Y-108270753D01*
X129296304Y-108277402D01*
X129318717Y-108266870D01*
X129329905Y-108256268D01*
X129346675Y-108232715D01*
X129367464Y-108195134D01*
X129389954Y-108148466D01*
X129411829Y-108097654D01*
X129430773Y-108047640D01*
X129438179Y-108025258D01*
X129455856Y-107981675D01*
X129476193Y-107957373D01*
X129500101Y-107951705D01*
X129526645Y-107962792D01*
X129544941Y-107980999D01*
X129552055Y-107999647D01*
X129548410Y-108018669D01*
X129538656Y-108051266D01*
X129524562Y-108092632D01*
X129507897Y-108137959D01*
X129490430Y-108182438D01*
X129473930Y-108221264D01*
X129460166Y-108249628D01*
X129459846Y-108250209D01*
X129439800Y-108286438D01*
X129486899Y-108377629D01*
X129574861Y-108527982D01*
X129681164Y-108674833D01*
X129804228Y-108816482D01*
X129942477Y-108951229D01*
X130094331Y-109077374D01*
X130221751Y-109169069D01*
X130253712Y-109189537D01*
X130293389Y-109213349D01*
X130336905Y-109238372D01*
X130380381Y-109262472D01*
X130419938Y-109283517D01*
X130451698Y-109299371D01*
X130471782Y-109307903D01*
X130475718Y-109308788D01*
X130474699Y-109302372D01*
X130462739Y-109285707D01*
X130450539Y-109271480D01*
X130349261Y-109148383D01*
X130251565Y-109008446D01*
X130158937Y-108854717D01*
X130072861Y-108690245D01*
X129994824Y-108518079D01*
X129926311Y-108341268D01*
X129868805Y-108162861D01*
X129823794Y-107985907D01*
X129823374Y-107983980D01*
X129802857Y-107884258D01*
X129786840Y-107792607D01*
X129774721Y-107703637D01*
X129765897Y-107611962D01*
X129759765Y-107512195D01*
X129755721Y-107398949D01*
X129755105Y-107373980D01*
X129749544Y-107133980D01*
X129709944Y-107090776D01*
X129660153Y-107022256D01*
X129620690Y-106936616D01*
X129591559Y-106833866D01*
X129572760Y-106714012D01*
X129564295Y-106577064D01*
X129565714Y-106433980D01*
X129578530Y-106248289D01*
X129602629Y-106067700D01*
X129638786Y-105889458D01*
X129687772Y-105710811D01*
X129750361Y-105529005D01*
X129827324Y-105341289D01*
X129919435Y-105144909D01*
X129937903Y-105107992D01*
X129988973Y-105010190D01*
X130046378Y-104906002D01*
X130106841Y-104801070D01*
X130167085Y-104701034D01*
X130223833Y-104611535D01*
X130243808Y-104581448D01*
X130266598Y-104546976D01*
X130285119Y-104517720D01*
X130296394Y-104498433D01*
X130298137Y-104494764D01*
X130292706Y-104481169D01*
X130269275Y-104459404D01*
X130229176Y-104430411D01*
X130154784Y-104380212D01*
X130124890Y-104412096D01*
X130095849Y-104445111D01*
X130058185Y-104490985D01*
X130014668Y-104546136D01*
X129968069Y-104606984D01*
X129921155Y-104669948D01*
X129876698Y-104731447D01*
X129864321Y-104748980D01*
X129742201Y-104935396D01*
X129625842Y-105137317D01*
X129517124Y-105350624D01*
X129417927Y-105571201D01*
X129330131Y-105794932D01*
X129255615Y-106017700D01*
X129208984Y-106183980D01*
X129155804Y-106416479D01*
X129112013Y-106659183D01*
X129078936Y-106903994D01*
X129062387Y-107078478D01*
X129054390Y-107223919D01*
X129052593Y-107367521D01*
X128953930Y-107367521D01*
X128953384Y-107320044D01*
X128957995Y-107154584D01*
X128969197Y-106982946D01*
X128987149Y-106806333D01*
X129006995Y-106658799D01*
X129056423Y-106380671D01*
X129120536Y-106112300D01*
X129200404Y-105850326D01*
X129297095Y-105591388D01*
X129411677Y-105332125D01*
X129460765Y-105231555D01*
X129576083Y-105014013D01*
X129696366Y-104812865D01*
X129823821Y-104624695D01*
X129960653Y-104446086D01*
X129995301Y-104404063D01*
X130022690Y-104370451D01*
X130044132Y-104342506D01*
X130057041Y-104323702D01*
X130059582Y-104317725D01*
X130051153Y-104309507D01*
X130029915Y-104291627D01*
X129998930Y-104266594D01*
X129961260Y-104236917D01*
X129955054Y-104232090D01*
X129766422Y-104075056D01*
X129582887Y-103901585D01*
X129407582Y-103715145D01*
X129243639Y-103519200D01*
X129094189Y-103317219D01*
X129001451Y-103176613D01*
X128919920Y-103037312D01*
X128842555Y-102887404D01*
X128771824Y-102732414D01*
X128710193Y-102577867D01*
X128660132Y-102429288D01*
X128646198Y-102381160D01*
X128623326Y-102289808D01*
X128601504Y-102186864D01*
X128582048Y-102079671D01*
X128566276Y-101975574D01*
X128555503Y-101881918D01*
X128554380Y-101868980D01*
X128550045Y-101823675D01*
X128545564Y-101795307D01*
X128540186Y-101780822D01*
X128533156Y-101777166D01*
X128531804Y-101777387D01*
X128515613Y-101780138D01*
X128485108Y-101784543D01*
X128445823Y-101789816D01*
X128429505Y-101791915D01*
X128328893Y-101796817D01*
X128237169Y-101785115D01*
X128155402Y-101757089D01*
X128084662Y-101713017D01*
X128066463Y-101697366D01*
X128022975Y-101651026D01*
X127993079Y-101602621D01*
X127974579Y-101547003D01*
X127965281Y-101479023D01*
X127964029Y-101457086D01*
X127965714Y-101415363D01*
X128063482Y-101415363D01*
X128064188Y-101448324D01*
X128073569Y-101516600D01*
X128094257Y-101570579D01*
X128128711Y-101613897D01*
X128179391Y-101650194D01*
X128212055Y-101667068D01*
X128274506Y-101686718D01*
X128349705Y-101693548D01*
X128435033Y-101687539D01*
X128524920Y-101669443D01*
X128575192Y-101657457D01*
X128609551Y-101653944D01*
X128631118Y-101661228D01*
X128643013Y-101681635D01*
X128648355Y-101717488D01*
X128650092Y-101762720D01*
X128657379Y-101880356D01*
X128673809Y-102010219D01*
X128698323Y-102147333D01*
X128729865Y-102286722D01*
X128767375Y-102423410D01*
X128809796Y-102552421D01*
X128828795Y-102603048D01*
X128921995Y-102815805D01*
X129033958Y-103026387D01*
X129163458Y-103233265D01*
X129309268Y-103434910D01*
X129470162Y-103629794D01*
X129644913Y-103816389D01*
X129832296Y-103993167D01*
X130031082Y-104158599D01*
X130147055Y-104245808D01*
X130331263Y-104374508D01*
X130511696Y-104491223D01*
X130686774Y-104595054D01*
X130854916Y-104685103D01*
X131014542Y-104760473D01*
X131147055Y-104814068D01*
X131189632Y-104830311D01*
X131225848Y-104845104D01*
X131251132Y-104856522D01*
X131260060Y-104861623D01*
X131270283Y-104881205D01*
X131267269Y-104906269D01*
X131252844Y-104929143D01*
X131242055Y-104937287D01*
X131229190Y-104942932D01*
X131214734Y-104944341D01*
X131194490Y-104940744D01*
X131164258Y-104931376D01*
X131119841Y-104915470D01*
X131117055Y-104914445D01*
X131060093Y-104891725D01*
X130989983Y-104860980D01*
X130910856Y-104824261D01*
X130826841Y-104783616D01*
X130742069Y-104741094D01*
X130660670Y-104698744D01*
X130586775Y-104658616D01*
X130524513Y-104622757D01*
X130504884Y-104610753D01*
X130392714Y-104540660D01*
X130308955Y-104672320D01*
X130178555Y-104885281D01*
X130064396Y-105089064D01*
X129965844Y-105285222D01*
X129882265Y-105475309D01*
X129813024Y-105660881D01*
X129757487Y-105843492D01*
X129715018Y-106024696D01*
X129685928Y-106198980D01*
X129678544Y-106267353D01*
X129673179Y-106345103D01*
X129669840Y-106428134D01*
X129668532Y-106512353D01*
X129669263Y-106593663D01*
X129672040Y-106667972D01*
X129676869Y-106731183D01*
X129683758Y-106779204D01*
X129684955Y-106784783D01*
X129709825Y-106875730D01*
X129739284Y-106948380D01*
X129774239Y-107004095D01*
X129815599Y-107044238D01*
X129864274Y-107070171D01*
X129878443Y-107074813D01*
X129912527Y-107083455D01*
X129938511Y-107085164D01*
X129967043Y-107079967D01*
X129984555Y-107075091D01*
X130050157Y-107048994D01*
X130113968Y-107008847D01*
X130177729Y-106953193D01*
X130243178Y-106880576D01*
X130291451Y-106818161D01*
X130325392Y-106772081D01*
X130349776Y-106739730D01*
X130366838Y-106718680D01*
X130378814Y-106706506D01*
X130387937Y-106700781D01*
X130396443Y-106699080D01*
X130401242Y-106698980D01*
X130427483Y-106707839D01*
X130446439Y-106729897D01*
X130452054Y-106752758D01*
X130445056Y-106777070D01*
X130425672Y-106811987D01*
X130396318Y-106854661D01*
X130359408Y-106902245D01*
X130317358Y-106951893D01*
X130272583Y-107000759D01*
X130227499Y-107045995D01*
X130184521Y-107084754D01*
X130146065Y-107114191D01*
X130144509Y-107115231D01*
X130069135Y-107156212D01*
X129993474Y-107180003D01*
X129920443Y-107185746D01*
X129908072Y-107184823D01*
X129849089Y-107178976D01*
X129855322Y-107386478D01*
X129858491Y-107477771D01*
X129862360Y-107554378D01*
X129867514Y-107621609D01*
X129874542Y-107684780D01*
X129884031Y-107749200D01*
X129896567Y-107820185D01*
X129912014Y-107899435D01*
X129950510Y-108068894D01*
X129996839Y-108229330D01*
X130053069Y-108386742D01*
X130121266Y-108547130D01*
X130172084Y-108653980D01*
X130239108Y-108783258D01*
X130306696Y-108899265D01*
X130378908Y-109008421D01*
X130459803Y-109117148D01*
X130485036Y-109148980D01*
X130656900Y-109348286D01*
X130841307Y-109533318D01*
X131039064Y-109704715D01*
X131250976Y-109863116D01*
X131477849Y-110009159D01*
X131720488Y-110143485D01*
X131771952Y-110169484D01*
X132042251Y-110292871D01*
X132322666Y-110399291D01*
X132612390Y-110488533D01*
X132910616Y-110560383D01*
X133216537Y-110614627D01*
X133529346Y-110651055D01*
X133627055Y-110658659D01*
X133700890Y-110662237D01*
X133789920Y-110664127D01*
X133889416Y-110664423D01*
X133978898Y-110663395D01*
X134961997Y-110663395D01*
X134964194Y-110665781D01*
X134980285Y-110666263D01*
X135009151Y-110665352D01*
X135027055Y-110664578D01*
X135074487Y-110661320D01*
X135120623Y-110656227D01*
X135157242Y-110650255D01*
X135164555Y-110648585D01*
X135196239Y-110637963D01*
X135210566Y-110625813D01*
X135212055Y-110619219D01*
X135210666Y-110611640D01*
X135204167Y-110608089D01*
X135189056Y-110608758D01*
X135161830Y-110613839D01*
X135118988Y-110623522D01*
X135114555Y-110624554D01*
X135049973Y-110639683D01*
X135003766Y-110650858D01*
X134974814Y-110658591D01*
X134961997Y-110663395D01*
X133978898Y-110663395D01*
X133994653Y-110663214D01*
X134100904Y-110660594D01*
X134203441Y-110656653D01*
X134297538Y-110651482D01*
X134378468Y-110645174D01*
X134392055Y-110643846D01*
X134704332Y-110602783D01*
X134787263Y-110586727D01*
X135311741Y-110586727D01*
X135320685Y-110603349D01*
X135335411Y-110617171D01*
X135345027Y-110621032D01*
X135379615Y-110622727D01*
X135427645Y-110620356D01*
X135483091Y-110614425D01*
X135539924Y-110605440D01*
X135547394Y-110604017D01*
X135568502Y-110599205D01*
X135854630Y-110599205D01*
X135856326Y-110607735D01*
X135859153Y-110627600D01*
X135862393Y-110662605D01*
X135865655Y-110707905D01*
X135868549Y-110758656D01*
X135868689Y-110761480D01*
X135871460Y-110817008D01*
X135875119Y-110855081D01*
X135882243Y-110878172D01*
X135895405Y-110888752D01*
X135917182Y-110889296D01*
X135950148Y-110882277D01*
X135985033Y-110873208D01*
X136028048Y-110860072D01*
X136076644Y-110842331D01*
X136110500Y-110828144D01*
X136175103Y-110798852D01*
X136168527Y-110691416D01*
X136161544Y-110608738D01*
X136151743Y-110540317D01*
X136139510Y-110488736D01*
X136137010Y-110481242D01*
X136128589Y-110477218D01*
X136108013Y-110482738D01*
X136073187Y-110498423D01*
X136064346Y-110502825D01*
X136017193Y-110524350D01*
X135963614Y-110545561D01*
X135923198Y-110559318D01*
X135886363Y-110570929D01*
X135865096Y-110579681D01*
X135855738Y-110588223D01*
X135854630Y-110599205D01*
X135568502Y-110599205D01*
X135580798Y-110596402D01*
X135619423Y-110585947D01*
X135658544Y-110574159D01*
X135693439Y-110562548D01*
X135719384Y-110552622D01*
X135731656Y-110545890D01*
X135732055Y-110545042D01*
X135728573Y-110529645D01*
X135720017Y-110505566D01*
X135709217Y-110479585D01*
X135699005Y-110458479D01*
X135692213Y-110449029D01*
X135691928Y-110448980D01*
X135680679Y-110451999D01*
X135654104Y-110460264D01*
X135615772Y-110472588D01*
X135569255Y-110487785D01*
X135518124Y-110504665D01*
X135465948Y-110522043D01*
X135416300Y-110538731D01*
X135372749Y-110553541D01*
X135338867Y-110565285D01*
X135318225Y-110572778D01*
X135313641Y-110574767D01*
X135311741Y-110586727D01*
X134787263Y-110586727D01*
X135007637Y-110544061D01*
X135301798Y-110467740D01*
X135498192Y-110403027D01*
X135794948Y-110403027D01*
X135796941Y-110412418D01*
X135804024Y-110434128D01*
X135813906Y-110461899D01*
X135824294Y-110489470D01*
X135832896Y-110510583D01*
X135837414Y-110518980D01*
X135847476Y-110516257D01*
X135871626Y-110509083D01*
X135904856Y-110498948D01*
X135908501Y-110497825D01*
X135948912Y-110483825D01*
X135992068Y-110466395D01*
X136033922Y-110447495D01*
X136070425Y-110429087D01*
X136097528Y-110413130D01*
X136111185Y-110401587D01*
X136112055Y-110399224D01*
X136108661Y-110385936D01*
X136100177Y-110361161D01*
X136089147Y-110331601D01*
X136078116Y-110303957D01*
X136069628Y-110284928D01*
X136067002Y-110280598D01*
X136057246Y-110283205D01*
X136036025Y-110293584D01*
X136020340Y-110302331D01*
X135991265Y-110317557D01*
X135950598Y-110336762D01*
X135905380Y-110356672D01*
X135887055Y-110364321D01*
X135848483Y-110380217D01*
X135817716Y-110393074D01*
X135798856Y-110401165D01*
X135794948Y-110403027D01*
X135498192Y-110403027D01*
X135586646Y-110373881D01*
X135862010Y-110262547D01*
X136127720Y-110133797D01*
X136383606Y-109987694D01*
X136588662Y-109853116D01*
X136785296Y-109704363D01*
X136974088Y-109538031D01*
X137011155Y-109500353D01*
X137167055Y-109500353D01*
X137197055Y-109489040D01*
X137220941Y-109478474D01*
X137254882Y-109461586D01*
X137291586Y-109442006D01*
X137292055Y-109441747D01*
X137465717Y-109334351D01*
X137632053Y-109208464D01*
X137791197Y-109063982D01*
X137832055Y-109022696D01*
X137925864Y-108921260D01*
X138005468Y-108824599D01*
X138074279Y-108728025D01*
X138135710Y-108626849D01*
X138177486Y-108548122D01*
X138213335Y-108476935D01*
X138173534Y-108385457D01*
X138154088Y-108338866D01*
X138135928Y-108292063D01*
X138121943Y-108252611D01*
X138117906Y-108239706D01*
X138109331Y-108207377D01*
X138107262Y-108187028D01*
X138111644Y-108171744D01*
X138117297Y-108162206D01*
X138137940Y-108144482D01*
X138163577Y-108139226D01*
X138186079Y-108147639D01*
X138189831Y-108151480D01*
X138197396Y-108165665D01*
X138209783Y-108194144D01*
X138225086Y-108232376D01*
X138237055Y-108263980D01*
X138264903Y-108333067D01*
X138292444Y-108389731D01*
X138318526Y-108431990D01*
X138341994Y-108457864D01*
X138353821Y-108464540D01*
X138377375Y-108462005D01*
X138403912Y-108442139D01*
X138432130Y-108407148D01*
X138460726Y-108359237D01*
X138488396Y-108300611D01*
X138513839Y-108233475D01*
X138535750Y-108160035D01*
X138537302Y-108153992D01*
X138554330Y-108082147D01*
X138567951Y-108012840D01*
X138578490Y-107942601D01*
X138586276Y-107867960D01*
X138591632Y-107785448D01*
X138594887Y-107691597D01*
X138596365Y-107582936D01*
X138596540Y-107523980D01*
X138595984Y-107410781D01*
X138593962Y-107312291D01*
X138590043Y-107223282D01*
X138583795Y-107138524D01*
X138574789Y-107052788D01*
X138562592Y-106960845D01*
X138546775Y-106857465D01*
X138536400Y-106793980D01*
X138525465Y-106728792D01*
X138517013Y-106680827D01*
X138510386Y-106647559D01*
X138504925Y-106626460D01*
X138499971Y-106615000D01*
X138494866Y-106610654D01*
X138488951Y-106610893D01*
X138488700Y-106610959D01*
X138475395Y-106615150D01*
X138446946Y-106624494D01*
X138407152Y-106637731D01*
X138359814Y-106653602D01*
X138344580Y-106658731D01*
X138289584Y-106677824D01*
X138251596Y-106692485D01*
X138228389Y-106703760D01*
X138217734Y-106712694D01*
X138216698Y-106718683D01*
X138222763Y-106747784D01*
X138228684Y-106791777D01*
X138234017Y-106845556D01*
X138238317Y-106904016D01*
X138241141Y-106962050D01*
X138242055Y-107010337D01*
X138235543Y-107133066D01*
X138215840Y-107241417D01*
X138182691Y-107336267D01*
X138135843Y-107418491D01*
X138116244Y-107444349D01*
X138075295Y-107494718D01*
X138069113Y-107619349D01*
X138051901Y-107795347D01*
X138017887Y-107978270D01*
X137967945Y-108165690D01*
X137902952Y-108355180D01*
X137823783Y-108544311D01*
X137731313Y-108730655D01*
X137626419Y-108911783D01*
X137573595Y-108993643D01*
X137474589Y-109133651D01*
X137362025Y-109277095D01*
X137234009Y-109426355D01*
X137192723Y-109472166D01*
X137167055Y-109500353D01*
X137011155Y-109500353D01*
X137153711Y-109355448D01*
X137322837Y-109157945D01*
X137447780Y-108992762D01*
X137561960Y-108819183D01*
X137664830Y-108634341D01*
X137755150Y-108441404D01*
X137831676Y-108243543D01*
X137893169Y-108043925D01*
X137938384Y-107845721D01*
X137963565Y-107676447D01*
X137967937Y-107632322D01*
X137970677Y-107596054D01*
X137971515Y-107571922D01*
X137970626Y-107564218D01*
X137958978Y-107563706D01*
X137935565Y-107568126D01*
X137926492Y-107570494D01*
X137883001Y-107577103D01*
X137827082Y-107577761D01*
X137765219Y-107573019D01*
X137703898Y-107563427D01*
X137649603Y-107549538D01*
X137639639Y-107546104D01*
X137554535Y-107507630D01*
X137465999Y-107454132D01*
X137378563Y-107388932D01*
X137296756Y-107315353D01*
X137236554Y-107250507D01*
X137200237Y-107205918D01*
X137177127Y-107172479D01*
X137166114Y-107147374D01*
X137166086Y-107127789D01*
X137175934Y-107110908D01*
X137179832Y-107106757D01*
X137203207Y-107092314D01*
X137228733Y-107094950D01*
X137257848Y-107115273D01*
X137291989Y-107153896D01*
X137292546Y-107154617D01*
X137350446Y-107221281D01*
X137418588Y-107286012D01*
X137492563Y-107345434D01*
X137567962Y-107396173D01*
X137640375Y-107434853D01*
X137678796Y-107450271D01*
X137742855Y-107466779D01*
X137808810Y-107474226D01*
X137871107Y-107472574D01*
X137924194Y-107461783D01*
X137947055Y-107452154D01*
X138007278Y-107408641D01*
X138057183Y-107349027D01*
X138096149Y-107274702D01*
X138123558Y-107187053D01*
X138138793Y-107087470D01*
X138141881Y-107014657D01*
X138140811Y-106967268D01*
X138137756Y-106914926D01*
X138133201Y-106862164D01*
X138127632Y-106813514D01*
X138121533Y-106773508D01*
X138115390Y-106746681D01*
X138112440Y-106739603D01*
X138103140Y-106734698D01*
X138082661Y-106735577D01*
X138047865Y-106742541D01*
X138026090Y-106747895D01*
X137944170Y-106766630D01*
X137846607Y-106785336D01*
X137737744Y-106803267D01*
X137621927Y-106819676D01*
X137572055Y-106825959D01*
X137512285Y-106831616D01*
X137436853Y-106836271D01*
X137349377Y-106839905D01*
X137253475Y-106842499D01*
X137152765Y-106844033D01*
X137050863Y-106844490D01*
X136951389Y-106843848D01*
X136857960Y-106842090D01*
X136774194Y-106839196D01*
X136703708Y-106835147D01*
X136657055Y-106830797D01*
X136448133Y-106802855D01*
X136248531Y-106770351D01*
X136059906Y-106733677D01*
X135883916Y-106693227D01*
X135722217Y-106649394D01*
X135576467Y-106602570D01*
X135448322Y-106553148D01*
X135404477Y-106533718D01*
X135362638Y-106512856D01*
X135337037Y-106495168D01*
X135324930Y-106477537D01*
X135323570Y-106456845D01*
X135325999Y-106444624D01*
X135334869Y-106424999D01*
X135350804Y-106415445D01*
X135376351Y-106416005D01*
X135414053Y-106426720D01*
X135464837Y-106446939D01*
X135607348Y-106502706D01*
X135763051Y-106553462D01*
X135933103Y-106599476D01*
X136118659Y-106641017D01*
X136320876Y-106678351D01*
X136540909Y-106711749D01*
X136687055Y-106730629D01*
X136738063Y-106735203D01*
X136805295Y-106738816D01*
X136884996Y-106741466D01*
X136973412Y-106743152D01*
X137066789Y-106743871D01*
X137161373Y-106743623D01*
X137253410Y-106742405D01*
X137339146Y-106740217D01*
X137414827Y-106737057D01*
X137476699Y-106732923D01*
X137497055Y-106730962D01*
X137597876Y-106718995D01*
X137697011Y-106705294D01*
X137791753Y-106690366D01*
X137879393Y-106674717D01*
X137957223Y-106658854D01*
X138022534Y-106643284D01*
X138072618Y-106628515D01*
X138098181Y-106618448D01*
X138135896Y-106604763D01*
X138177068Y-106595622D01*
X138185183Y-106594648D01*
X138226851Y-106587102D01*
X138282959Y-106571583D01*
X138350227Y-106549387D01*
X138425371Y-106521812D01*
X138505112Y-106490155D01*
X138586166Y-106455713D01*
X138665254Y-106419783D01*
X138739094Y-106383661D01*
X138797055Y-106352786D01*
X138933959Y-106271256D01*
X139066629Y-106182630D01*
X139190914Y-106089950D01*
X139302664Y-105996259D01*
X139370684Y-105932225D01*
X139411129Y-105893369D01*
X139441640Y-105869393D01*
X139465621Y-105860272D01*
X139486474Y-105865982D01*
X139507602Y-105886498D01*
X139532409Y-105921797D01*
X139538366Y-105931025D01*
X139597610Y-106012196D01*
X139660326Y-106077032D01*
X139725328Y-106124829D01*
X139791435Y-106154881D01*
X139857460Y-106166484D01*
X139921601Y-106159102D01*
X139958994Y-106141633D01*
X140001377Y-106109835D01*
X140045093Y-106067414D01*
X140086487Y-106018076D01*
X140121903Y-105965527D01*
X140133813Y-105943980D01*
X140189021Y-105815269D01*
X140227114Y-105678461D01*
X140247922Y-105536082D01*
X140251278Y-105390655D01*
X140237011Y-105244705D01*
X140204953Y-105100759D01*
X140192894Y-105061549D01*
X140170456Y-105000143D01*
X140142367Y-104934079D01*
X140111673Y-104869845D01*
X140081417Y-104813928D01*
X140062656Y-104783980D01*
X140045350Y-104748447D01*
X140044238Y-104718143D01*
X140054055Y-104700980D01*
X140079109Y-104689239D01*
X140113110Y-104695242D01*
X140156136Y-104719011D01*
X140175843Y-104733462D01*
X140214289Y-104759985D01*
X140256562Y-104784152D01*
X140287966Y-104798462D01*
X140355612Y-104816144D01*
X140414951Y-104815889D01*
X140465516Y-104798157D01*
X140506838Y-104763409D01*
X140538450Y-104712108D01*
X140559885Y-104644714D01*
X140570675Y-104561688D01*
X140571936Y-104518242D01*
X140571045Y-104476083D01*
X140567962Y-104432181D01*
X140562246Y-104384134D01*
X140553460Y-104329538D01*
X140541161Y-104265991D01*
X140524911Y-104191089D01*
X140504270Y-104102430D01*
X140478797Y-103997610D01*
X140470476Y-103963980D01*
X140426550Y-103783463D01*
X140388513Y-103618685D01*
X140355911Y-103466421D01*
X140328287Y-103323442D01*
X140305184Y-103186522D01*
X140286147Y-103052435D01*
X140270719Y-102917953D01*
X140258444Y-102779850D01*
X140248866Y-102634898D01*
X140241529Y-102479872D01*
X140235976Y-102311544D01*
X140235766Y-102303798D01*
X140234765Y-102245708D01*
X140234480Y-102176016D01*
X140234843Y-102097450D01*
X140235784Y-102012738D01*
X140237237Y-101924608D01*
X140239131Y-101835788D01*
X140241399Y-101749005D01*
X140243972Y-101666989D01*
X140246781Y-101592466D01*
X140249759Y-101528165D01*
X140252835Y-101476814D01*
X140255943Y-101441140D01*
X140257746Y-101428638D01*
X140258611Y-101415764D01*
X140253250Y-101404929D01*
X140238413Y-101393349D01*
X140210853Y-101378241D01*
X140182601Y-101364246D01*
X140146687Y-101347396D01*
X140118146Y-101335247D01*
X140101235Y-101329553D01*
X140098530Y-101329587D01*
X140098081Y-101340725D01*
X140100045Y-101367246D01*
X140104037Y-101404732D01*
X140107678Y-101433980D01*
X140119893Y-101545446D01*
X140129339Y-101669952D01*
X140135974Y-101803247D01*
X140139758Y-101941079D01*
X140140652Y-102079197D01*
X140138615Y-102213351D01*
X140133608Y-102339289D01*
X140125589Y-102452761D01*
X140117976Y-102523980D01*
X140074141Y-102800991D01*
X140013384Y-103075428D01*
X139936436Y-103345659D01*
X139844028Y-103610051D01*
X139736890Y-103866974D01*
X139615755Y-104114795D01*
X139481353Y-104351884D01*
X139334414Y-104576609D01*
X139175670Y-104787338D01*
X139026634Y-104960075D01*
X138857538Y-105131480D01*
X138681512Y-105286395D01*
X138499358Y-105424517D01*
X138311874Y-105545540D01*
X138119862Y-105649160D01*
X137924120Y-105735074D01*
X137725449Y-105802977D01*
X137524648Y-105852564D01*
X137322517Y-105883531D01*
X137119857Y-105895573D01*
X136917467Y-105888387D01*
X136716148Y-105861668D01*
X136676841Y-105854107D01*
X136486526Y-105805619D01*
X136303578Y-105739023D01*
X136128474Y-105654985D01*
X135961691Y-105554173D01*
X135803705Y-105437253D01*
X135654995Y-105304894D01*
X135516036Y-105157762D01*
X135387306Y-104996525D01*
X135269282Y-104821849D01*
X135162441Y-104634402D01*
X135067259Y-104434851D01*
X134984214Y-104223863D01*
X134913783Y-104002106D01*
X134856443Y-103770246D01*
X134812670Y-103528950D01*
X134782942Y-103278887D01*
X134776387Y-103195883D01*
X134772872Y-103150847D01*
X134769340Y-103122580D01*
X134764976Y-103107867D01*
X134758964Y-103103495D01*
X134753321Y-103104873D01*
X134678584Y-103135068D01*
X134602621Y-103161488D01*
X134528706Y-103183339D01*
X134460112Y-103199823D01*
X134400114Y-103210146D01*
X134351986Y-103213511D01*
X134321331Y-103209875D01*
X134292477Y-103193132D01*
X134258532Y-103159758D01*
X134221024Y-103111997D01*
X134195661Y-103073577D01*
X134873630Y-103073577D01*
X134874456Y-103113116D01*
X134877656Y-103170287D01*
X134880421Y-103209609D01*
X134906939Y-103462244D01*
X134948347Y-103707043D01*
X135004229Y-103943008D01*
X135074166Y-104169141D01*
X135157740Y-104384446D01*
X135254535Y-104587925D01*
X135364133Y-104778580D01*
X135486115Y-104955413D01*
X135620064Y-105117429D01*
X135724202Y-105224843D01*
X135837685Y-105328262D01*
X135948877Y-105416815D01*
X136063009Y-105494169D01*
X136185315Y-105563991D01*
X136265690Y-105604219D01*
X136448634Y-105681062D01*
X136634650Y-105738141D01*
X136823710Y-105775454D01*
X137015788Y-105792996D01*
X137210855Y-105790763D01*
X137382055Y-105772866D01*
X137587764Y-105732626D01*
X137790362Y-105673078D01*
X137989128Y-105594770D01*
X138183341Y-105498252D01*
X138372280Y-105384071D01*
X138555224Y-105252777D01*
X138731450Y-105104917D01*
X138900239Y-104941042D01*
X139060870Y-104761698D01*
X139212620Y-104567436D01*
X139354769Y-104358803D01*
X139451752Y-104198280D01*
X139584439Y-103947834D01*
X139702243Y-103685676D01*
X139804327Y-103414330D01*
X139889852Y-103136323D01*
X139957981Y-102854181D01*
X140007877Y-102570429D01*
X140018720Y-102488980D01*
X140024346Y-102438071D01*
X140028743Y-102384961D01*
X140032031Y-102326492D01*
X140034330Y-102259507D01*
X140035759Y-102180847D01*
X140036439Y-102087354D01*
X140036536Y-102018980D01*
X140036125Y-101908063D01*
X140034767Y-101812892D01*
X140032182Y-101729221D01*
X140028086Y-101652807D01*
X140022197Y-101579406D01*
X140014235Y-101504774D01*
X140003916Y-101424666D01*
X139991158Y-101336179D01*
X139979534Y-101258378D01*
X139878422Y-101189385D01*
X139839506Y-101163191D01*
X139807063Y-101142036D01*
X139784349Y-101127994D01*
X139774616Y-101123138D01*
X139774514Y-101123187D01*
X139775413Y-101133477D01*
X139780193Y-101158610D01*
X139787946Y-101194009D01*
X139792004Y-101211400D01*
X139831024Y-101406907D01*
X139858828Y-101615319D01*
X139875362Y-101832945D01*
X139880568Y-102056093D01*
X139874391Y-102281070D01*
X139856775Y-102504184D01*
X139827663Y-102721743D01*
X139816021Y-102788980D01*
X139755150Y-103068176D01*
X139676419Y-103338404D01*
X139579720Y-103599904D01*
X139464945Y-103852918D01*
X139331987Y-104097689D01*
X139180739Y-104334458D01*
X139045953Y-104518980D01*
X139000185Y-104575025D01*
X138943430Y-104639561D01*
X138878888Y-104709352D01*
X138809755Y-104781160D01*
X138739231Y-104851749D01*
X138670513Y-104917882D01*
X138606799Y-104976321D01*
X138551288Y-105023831D01*
X138532055Y-105039083D01*
X138351101Y-105168612D01*
X138167374Y-105281067D01*
X137982106Y-105375849D01*
X137796533Y-105452361D01*
X137611890Y-105510006D01*
X137510560Y-105533578D01*
X137323694Y-105563624D01*
X137143622Y-105575822D01*
X136967840Y-105570035D01*
X136793848Y-105546123D01*
X136619142Y-105503948D01*
X136542431Y-105479914D01*
X136370162Y-105411856D01*
X136204776Y-105325508D01*
X136047020Y-105221616D01*
X135897642Y-105100926D01*
X135757388Y-104964184D01*
X135627005Y-104812136D01*
X135507241Y-104645527D01*
X135398841Y-104465103D01*
X135302554Y-104271611D01*
X135279417Y-104218837D01*
X135215567Y-104056040D01*
X135161403Y-103888833D01*
X135116324Y-103714473D01*
X135079730Y-103530219D01*
X135051020Y-103333327D01*
X135029592Y-103121056D01*
X135024686Y-103056679D01*
X135017055Y-102949379D01*
X134953442Y-102993717D01*
X134921736Y-103015337D01*
X134895761Y-103032173D01*
X134880355Y-103041109D01*
X134879052Y-103041647D01*
X134875166Y-103050233D01*
X134873630Y-103073577D01*
X134195661Y-103073577D01*
X134181479Y-103052093D01*
X134141422Y-102982289D01*
X134121524Y-102942813D01*
X134302883Y-102942813D01*
X134308643Y-102960105D01*
X134319510Y-102983111D01*
X134339171Y-103013621D01*
X134359723Y-103028947D01*
X134378363Y-103027657D01*
X134387713Y-103017914D01*
X134389438Y-103000033D01*
X134383187Y-102973211D01*
X134371822Y-102945312D01*
X134358205Y-102924205D01*
X134351633Y-102918754D01*
X134328493Y-102916845D01*
X134316021Y-102923498D01*
X134305459Y-102932607D01*
X134302883Y-102942813D01*
X134121524Y-102942813D01*
X134102379Y-102904829D01*
X134081990Y-102859793D01*
X135119199Y-102859793D01*
X135126172Y-103006886D01*
X135133155Y-103130032D01*
X135141989Y-103239345D01*
X135153290Y-103340951D01*
X135167674Y-103440979D01*
X135173083Y-103473980D01*
X135218551Y-103697202D01*
X135277891Y-103911086D01*
X135350496Y-104114811D01*
X135435761Y-104307557D01*
X135533080Y-104488504D01*
X135641847Y-104656833D01*
X135761456Y-104811725D01*
X135891300Y-104952358D01*
X136030775Y-105077914D01*
X136179274Y-105187573D01*
X136336190Y-105280515D01*
X136500919Y-105355920D01*
X136587307Y-105387215D01*
X136758869Y-105434813D01*
X136930103Y-105463503D01*
X137103486Y-105473496D01*
X137281496Y-105465000D01*
X137373698Y-105453786D01*
X137560930Y-105416773D01*
X137748245Y-105360275D01*
X137934563Y-105284772D01*
X138118804Y-105190744D01*
X138299886Y-105078673D01*
X138434468Y-104981928D01*
X138493939Y-104933793D01*
X138562249Y-104874002D01*
X138635505Y-104806326D01*
X138709813Y-104734532D01*
X138781282Y-104662391D01*
X138846017Y-104593670D01*
X138900127Y-104532140D01*
X138904686Y-104526669D01*
X139070806Y-104310693D01*
X139219825Y-104084357D01*
X139351742Y-103847658D01*
X139466561Y-103600590D01*
X139564284Y-103343150D01*
X139644911Y-103075334D01*
X139708445Y-102797136D01*
X139754888Y-102508554D01*
X139758610Y-102478980D01*
X139766310Y-102398763D01*
X139771971Y-102303301D01*
X139775594Y-102197248D01*
X139777179Y-102085253D01*
X139776724Y-101971969D01*
X139774231Y-101862047D01*
X139769698Y-101760139D01*
X139763126Y-101670897D01*
X139758652Y-101628980D01*
X139747940Y-101549548D01*
X139734990Y-101466582D01*
X139720399Y-101382891D01*
X139704765Y-101301284D01*
X139688685Y-101224572D01*
X139672757Y-101155563D01*
X139657577Y-101097066D01*
X139643744Y-101051892D01*
X139631854Y-101022849D01*
X139628651Y-101017554D01*
X139616872Y-101005526D01*
X139592592Y-100983907D01*
X139559035Y-100955469D01*
X139519424Y-100922982D01*
X139507055Y-100913030D01*
X139469863Y-100882863D01*
X139420712Y-100842426D01*
X139362856Y-100794428D01*
X139299550Y-100741579D01*
X139234051Y-100686589D01*
X139169613Y-100632168D01*
X139168065Y-100630856D01*
X139061256Y-100540735D01*
X138966895Y-100462053D01*
X138882556Y-100392876D01*
X138805815Y-100331273D01*
X138734246Y-100275310D01*
X138665424Y-100223055D01*
X138596923Y-100172575D01*
X138555016Y-100142370D01*
X138346819Y-100001842D01*
X138141515Y-99880338D01*
X137937983Y-99777290D01*
X137735100Y-99692131D01*
X137531743Y-99624292D01*
X137530636Y-99623971D01*
X137477891Y-99609421D01*
X137418353Y-99594267D01*
X137355977Y-99579379D01*
X137294715Y-99565628D01*
X137238523Y-99553883D01*
X137191353Y-99545014D01*
X137157160Y-99539892D01*
X137144421Y-99538980D01*
X137120574Y-99544173D01*
X137082696Y-99558788D01*
X137033545Y-99581372D01*
X136975876Y-99610476D01*
X136912448Y-99644650D01*
X136846015Y-99682442D01*
X136779336Y-99722403D01*
X136715168Y-99763082D01*
X136702055Y-99771722D01*
X136507556Y-99912606D01*
X136322421Y-100070409D01*
X136147486Y-100243959D01*
X135983590Y-100432083D01*
X135831569Y-100633609D01*
X135692263Y-100847363D01*
X135566508Y-101072174D01*
X135455143Y-101306869D01*
X135359004Y-101550275D01*
X135297365Y-101737948D01*
X135263330Y-101851181D01*
X135303490Y-101901988D01*
X135358241Y-101983322D01*
X135395994Y-102068671D01*
X135417934Y-102161609D01*
X135425247Y-102265710D01*
X135425253Y-102268980D01*
X135420153Y-102360555D01*
X135403518Y-102443008D01*
X135373344Y-102524795D01*
X135356067Y-102561151D01*
X135330818Y-102608650D01*
X135304988Y-102650198D01*
X135274989Y-102690635D01*
X135237236Y-102734800D01*
X135188758Y-102786886D01*
X135119199Y-102859793D01*
X134081990Y-102859793D01*
X134079566Y-102854438D01*
X134062485Y-102815579D01*
X134048228Y-102784138D01*
X134038714Y-102764296D01*
X134036029Y-102759642D01*
X134027887Y-102764888D01*
X134007920Y-102782112D01*
X133978466Y-102809170D01*
X133941864Y-102843920D01*
X133904384Y-102880350D01*
X133725616Y-103044770D01*
X133537391Y-103196697D01*
X133341494Y-103335132D01*
X133139710Y-103459071D01*
X132933822Y-103567515D01*
X132725617Y-103659462D01*
X132516878Y-103733912D01*
X132309390Y-103789861D01*
X132266711Y-103799050D01*
X132085287Y-103829064D01*
X131899831Y-103845848D01*
X131714332Y-103849441D01*
X131532780Y-103839880D01*
X131359163Y-103817202D01*
X131227055Y-103789235D01*
X131035988Y-103730861D01*
X130854004Y-103655075D01*
X130681660Y-103562554D01*
X130519513Y-103453979D01*
X130368119Y-103330026D01*
X130228036Y-103191376D01*
X130099821Y-103038707D01*
X129984031Y-102872698D01*
X129881222Y-102694027D01*
X129791953Y-102503374D01*
X129716780Y-102301418D01*
X129656260Y-102088836D01*
X129610950Y-101866309D01*
X129602031Y-101808980D01*
X129585291Y-101664541D01*
X129574804Y-101506922D01*
X129570603Y-101341949D01*
X129570787Y-101327495D01*
X129674231Y-101327495D01*
X129674935Y-101428871D01*
X129677482Y-101523542D01*
X129681928Y-101607065D01*
X129686279Y-101657259D01*
X129718662Y-101884259D01*
X129766277Y-102101418D01*
X129828620Y-102308101D01*
X129905189Y-102503676D01*
X129995479Y-102687510D01*
X130098987Y-102858968D01*
X130215210Y-103017418D01*
X130343642Y-103162226D01*
X130483782Y-103292760D01*
X130635124Y-103408386D01*
X130797166Y-103508471D01*
X130969404Y-103592381D01*
X131151334Y-103659483D01*
X131313223Y-103702833D01*
X131383458Y-103717692D01*
X131446864Y-103728907D01*
X131508058Y-103736868D01*
X131571653Y-103741969D01*
X131642266Y-103744602D01*
X131724513Y-103745158D01*
X131802055Y-103744367D01*
X131891064Y-103742412D01*
X131964613Y-103739303D01*
X132027224Y-103734709D01*
X132083421Y-103728298D01*
X132137055Y-103719860D01*
X132364207Y-103669511D01*
X132589142Y-103599344D01*
X132811699Y-103509435D01*
X133031718Y-103399861D01*
X133249040Y-103270698D01*
X133463502Y-103122020D01*
X133572055Y-103038444D01*
X133622420Y-102997111D01*
X133678622Y-102948929D01*
X133737546Y-102896766D01*
X133796076Y-102843492D01*
X133851095Y-102791974D01*
X133899490Y-102745081D01*
X133938142Y-102705681D01*
X133960488Y-102680851D01*
X134002817Y-102630293D01*
X133990589Y-102542136D01*
X133985028Y-102502768D01*
X133980482Y-102471915D01*
X133977638Y-102454180D01*
X133977092Y-102451698D01*
X133969965Y-102457774D01*
X133950626Y-102476062D01*
X133921035Y-102504658D01*
X133883151Y-102541663D01*
X133838935Y-102585173D01*
X133806439Y-102617318D01*
X133654393Y-102761649D01*
X133505422Y-102889553D01*
X133356101Y-103003515D01*
X133203002Y-103106020D01*
X133042698Y-103199554D01*
X132907055Y-103269548D01*
X132696435Y-103362692D01*
X132485604Y-103436076D01*
X132274777Y-103489650D01*
X132064171Y-103523366D01*
X131854001Y-103537174D01*
X131732055Y-103536030D01*
X131534197Y-103519549D01*
X131345142Y-103485146D01*
X131164965Y-103432853D01*
X130993746Y-103362704D01*
X130831560Y-103274734D01*
X130678487Y-103168976D01*
X130534604Y-103045463D01*
X130481056Y-102992549D01*
X130351381Y-102845838D01*
X130236393Y-102686936D01*
X130135898Y-102515422D01*
X130049703Y-102330880D01*
X129977617Y-102132890D01*
X129919445Y-101921034D01*
X129874996Y-101694894D01*
X129870913Y-101668980D01*
X129863613Y-101618325D01*
X129858017Y-101570672D01*
X129853902Y-101522053D01*
X129851045Y-101468498D01*
X129849221Y-101406039D01*
X129848207Y-101330708D01*
X129847831Y-101258980D01*
X129847979Y-101194212D01*
X129947422Y-101194212D01*
X129947997Y-101312535D01*
X129951793Y-101427287D01*
X129958772Y-101533349D01*
X129968900Y-101625605D01*
X129970845Y-101638980D01*
X130013371Y-101865526D01*
X130070212Y-102078369D01*
X130141330Y-102277426D01*
X130226687Y-102462613D01*
X130326246Y-102633849D01*
X130439969Y-102791049D01*
X130553623Y-102919663D01*
X130686853Y-103042754D01*
X130832341Y-103150467D01*
X130988886Y-103242218D01*
X131155285Y-103317418D01*
X131330333Y-103375484D01*
X131512830Y-103415828D01*
X131597055Y-103428044D01*
X131658039Y-103432915D01*
X131733468Y-103434967D01*
X131818011Y-103434381D01*
X131906339Y-103431337D01*
X131993122Y-103426014D01*
X132073030Y-103418592D01*
X132137601Y-103409783D01*
X132360168Y-103362584D01*
X132577980Y-103296141D01*
X132791162Y-103210394D01*
X132999835Y-103105283D01*
X133204123Y-102980748D01*
X133404149Y-102836729D01*
X133537055Y-102728271D01*
X133572334Y-102696841D01*
X133615982Y-102656037D01*
X133665340Y-102608536D01*
X133717750Y-102557013D01*
X133770555Y-102504145D01*
X133821096Y-102452608D01*
X133866715Y-102405078D01*
X133904755Y-102364231D01*
X133932557Y-102332743D01*
X133933848Y-102331130D01*
X134112978Y-102331130D01*
X134119587Y-102440830D01*
X134131481Y-102503980D01*
X134142615Y-102546095D01*
X134157141Y-102595263D01*
X134173657Y-102647357D01*
X134190761Y-102698250D01*
X134207052Y-102743814D01*
X134221126Y-102779922D01*
X134231584Y-102802447D01*
X134234228Y-102806480D01*
X134253953Y-102818272D01*
X134275016Y-102811150D01*
X134281499Y-102804649D01*
X134285627Y-102794003D01*
X134284101Y-102775966D01*
X134276171Y-102747146D01*
X134261090Y-102704153D01*
X134256786Y-102692582D01*
X134226661Y-102607957D01*
X134204936Y-102536037D01*
X134190519Y-102471924D01*
X134182320Y-102410717D01*
X134179249Y-102347516D01*
X134179208Y-102343980D01*
X134185155Y-102235644D01*
X134205706Y-102139880D01*
X134241500Y-102054941D01*
X134293178Y-101979082D01*
X134325991Y-101943191D01*
X134399506Y-101880465D01*
X134476983Y-101836380D01*
X134561292Y-101809608D01*
X134635746Y-101799753D01*
X134679394Y-101796502D01*
X134706914Y-101792782D01*
X134722172Y-101787572D01*
X134729032Y-101779845D01*
X134730536Y-101774640D01*
X134726735Y-101752329D01*
X134707099Y-101737581D01*
X134674251Y-101730261D01*
X134630816Y-101730238D01*
X134579417Y-101737375D01*
X134522679Y-101751540D01*
X134463226Y-101772598D01*
X134423557Y-101790313D01*
X134358764Y-101829820D01*
X134295060Y-101882883D01*
X134238266Y-101943873D01*
X134194203Y-102007162D01*
X134188426Y-102017690D01*
X134147953Y-102114812D01*
X134122619Y-102220875D01*
X134112978Y-102331130D01*
X133933848Y-102331130D01*
X133943572Y-102318980D01*
X133957645Y-102296276D01*
X133966715Y-102270375D01*
X133972476Y-102235040D01*
X133975421Y-102201695D01*
X133992719Y-102079388D01*
X134026040Y-101969030D01*
X134075477Y-101870496D01*
X134141120Y-101783661D01*
X134223062Y-101708399D01*
X134265360Y-101680949D01*
X135050033Y-101680949D01*
X135056057Y-101695703D01*
X135079103Y-101715819D01*
X135111613Y-101737070D01*
X135176172Y-101776221D01*
X135217650Y-101645100D01*
X135236210Y-101587691D01*
X135256041Y-101528442D01*
X135274763Y-101474351D01*
X135289930Y-101432588D01*
X135388326Y-101196786D01*
X135501725Y-100968703D01*
X135629073Y-100749617D01*
X135769316Y-100540803D01*
X135921400Y-100343536D01*
X136084270Y-100159093D01*
X136256873Y-99988748D01*
X136438153Y-99833778D01*
X136627057Y-99695458D01*
X136822530Y-99575064D01*
X136827226Y-99572442D01*
X136861192Y-99553159D01*
X136884099Y-99538413D01*
X136894706Y-99527576D01*
X136891769Y-99520022D01*
X136874049Y-99515123D01*
X136840301Y-99512251D01*
X136789285Y-99510779D01*
X136719758Y-99510078D01*
X136703598Y-99509976D01*
X136646589Y-99509407D01*
X136603229Y-99509472D01*
X136569617Y-99511641D01*
X136541854Y-99517382D01*
X136516043Y-99528163D01*
X136488283Y-99545453D01*
X136454675Y-99570722D01*
X136411321Y-99605437D01*
X136377055Y-99632974D01*
X136321406Y-99679663D01*
X136256261Y-99737911D01*
X136185248Y-99804188D01*
X136111994Y-99874962D01*
X136040129Y-99946703D01*
X135973280Y-100015878D01*
X135915075Y-100078957D01*
X135892603Y-100104490D01*
X135716875Y-100323232D01*
X135556592Y-100554491D01*
X135412146Y-100797617D01*
X135283927Y-101051960D01*
X135188980Y-101273980D01*
X135168646Y-101326968D01*
X135146648Y-101386721D01*
X135124240Y-101449569D01*
X135102674Y-101511840D01*
X135083204Y-101569867D01*
X135067081Y-101619979D01*
X135055560Y-101658506D01*
X135050033Y-101680949D01*
X134265360Y-101680949D01*
X134321393Y-101644585D01*
X134414389Y-101600684D01*
X134427926Y-101592039D01*
X134440142Y-101577935D01*
X134564206Y-101577935D01*
X134605630Y-101581710D01*
X134644498Y-101584735D01*
X134683769Y-101587052D01*
X134687055Y-101587199D01*
X134727055Y-101588913D01*
X134771417Y-101491446D01*
X134887564Y-101214931D01*
X134983791Y-100939394D01*
X135060139Y-100664571D01*
X135116650Y-100390197D01*
X135153366Y-100116006D01*
X135170328Y-99841733D01*
X135167577Y-99567113D01*
X135145155Y-99291880D01*
X135131412Y-99186569D01*
X135123499Y-99134363D01*
X135115678Y-99087597D01*
X135108745Y-99050707D01*
X135103491Y-99028128D01*
X135102561Y-99025312D01*
X135093012Y-99012509D01*
X135071419Y-98989300D01*
X135040762Y-98958484D01*
X135004020Y-98922858D01*
X134964172Y-98885221D01*
X134924197Y-98848371D01*
X134887073Y-98815105D01*
X134855780Y-98788223D01*
X134833296Y-98770521D01*
X134826742Y-98766237D01*
X134820571Y-98766621D01*
X134821782Y-98780297D01*
X134830663Y-98809587D01*
X134832939Y-98816237D01*
X134867101Y-98926083D01*
X134899200Y-99050936D01*
X134928150Y-99185831D01*
X134952860Y-99325798D01*
X134968323Y-99433980D01*
X134976400Y-99515491D01*
X134982150Y-99611997D01*
X134985574Y-99718629D01*
X134986671Y-99830516D01*
X134985442Y-99942790D01*
X134981887Y-100050582D01*
X134976006Y-100149021D01*
X134968320Y-100228980D01*
X134935132Y-100458318D01*
X134891891Y-100675248D01*
X134837175Y-100884824D01*
X134769557Y-101092100D01*
X134687614Y-101302130D01*
X134626708Y-101440957D01*
X134564206Y-101577935D01*
X134440142Y-101577935D01*
X134442356Y-101575379D01*
X134459488Y-101547896D01*
X134481131Y-101506784D01*
X134500792Y-101466607D01*
X134609963Y-101219081D01*
X134701210Y-100968839D01*
X134774446Y-100716880D01*
X134829581Y-100464205D01*
X134866530Y-100211813D01*
X134885204Y-99960704D01*
X134885514Y-99711876D01*
X134867374Y-99466330D01*
X134830696Y-99225065D01*
X134775392Y-98989081D01*
X134731083Y-98843980D01*
X134707100Y-98773387D01*
X134686896Y-98718693D01*
X134668341Y-98676688D01*
X134649303Y-98644162D01*
X134627654Y-98617908D01*
X134601262Y-98594716D01*
X134567996Y-98571377D01*
X134537055Y-98551722D01*
X134336399Y-98436783D01*
X134130903Y-98339475D01*
X133917601Y-98258579D01*
X133693526Y-98192877D01*
X133620320Y-98175152D01*
X133525982Y-98154189D01*
X133434315Y-98135608D01*
X133343065Y-98119159D01*
X133249979Y-98104590D01*
X133152802Y-98091651D01*
X133049281Y-98080093D01*
X132937163Y-98069665D01*
X132814193Y-98060116D01*
X132678117Y-98051197D01*
X132526683Y-98042657D01*
X132357636Y-98034245D01*
X132347055Y-98033747D01*
X132262058Y-98029633D01*
X132178465Y-98025355D01*
X132099691Y-98021106D01*
X132029152Y-98017077D01*
X131970263Y-98013460D01*
X131926438Y-98010447D01*
X131912830Y-98009364D01*
X131808605Y-98000468D01*
X131701698Y-98068322D01*
X131532506Y-98183654D01*
X131366859Y-98312932D01*
X131202417Y-98458096D01*
X131042055Y-98615706D01*
X130855584Y-98822109D01*
X130684922Y-99040307D01*
X130530535Y-99269319D01*
X130392892Y-99508168D01*
X130272460Y-99755873D01*
X130169707Y-100011455D01*
X130085102Y-100273936D01*
X130019112Y-100542336D01*
X129972204Y-100815676D01*
X129965379Y-100868980D01*
X129956076Y-100967317D01*
X129950103Y-101077433D01*
X129947422Y-101194212D01*
X129847979Y-101194212D01*
X129848074Y-101152661D01*
X129849743Y-101061330D01*
X129853233Y-100980004D01*
X129858940Y-100903696D01*
X129867258Y-100827422D01*
X129878582Y-100746196D01*
X129893308Y-100655035D01*
X129897761Y-100628980D01*
X129953097Y-100365791D01*
X130027321Y-100106230D01*
X130119620Y-99851574D01*
X130229181Y-99603102D01*
X130355188Y-99362092D01*
X130496830Y-99129824D01*
X130653292Y-98907575D01*
X130823761Y-98696624D01*
X131007423Y-98498250D01*
X131203463Y-98313732D01*
X131411070Y-98144347D01*
X131536896Y-98053242D01*
X131573767Y-98026765D01*
X131602043Y-98004542D01*
X131619111Y-97988779D01*
X131622359Y-97981677D01*
X131621896Y-97981541D01*
X131606319Y-97978873D01*
X131575809Y-97973735D01*
X131535162Y-97966931D01*
X131500413Y-97961138D01*
X131393771Y-97943386D01*
X131355413Y-97973409D01*
X131199060Y-98102443D01*
X131042093Y-98244605D01*
X130889519Y-98394976D01*
X130746347Y-98548636D01*
X130626994Y-98688980D01*
X130459699Y-98911399D01*
X130306379Y-99147295D01*
X130167622Y-99395287D01*
X130044017Y-99653993D01*
X129936150Y-99922031D01*
X129844612Y-100198019D01*
X129769989Y-100480576D01*
X129712869Y-100768319D01*
X129696338Y-100875479D01*
X129688690Y-100943761D01*
X129682598Y-101027545D01*
X129678119Y-101122390D01*
X129675311Y-101223854D01*
X129674231Y-101327495D01*
X129570787Y-101327495D01*
X129572719Y-101175448D01*
X129581183Y-101013245D01*
X129596026Y-100861168D01*
X129596930Y-100853980D01*
X129640564Y-100585226D01*
X129702783Y-100315028D01*
X129782590Y-100045811D01*
X129878988Y-99780001D01*
X129990978Y-99520025D01*
X130117564Y-99268309D01*
X130257747Y-99027279D01*
X130410530Y-98799362D01*
X130480378Y-98705308D01*
X130566784Y-98597669D01*
X130665297Y-98483753D01*
X130771855Y-98367793D01*
X130882396Y-98254024D01*
X130992861Y-98146683D01*
X131099187Y-98050003D01*
X131152055Y-98004882D01*
X131188629Y-97974144D01*
X131219123Y-97947903D01*
X131240474Y-97928838D01*
X131249622Y-97919627D01*
X131249717Y-97919442D01*
X131242116Y-97913761D01*
X131219534Y-97904062D01*
X131186153Y-97892059D01*
X131169717Y-97886678D01*
X131087055Y-97860355D01*
X131062069Y-97892167D01*
X130995027Y-97974997D01*
X130915938Y-98068416D01*
X130827481Y-98169482D01*
X130732336Y-98275253D01*
X130633183Y-98382785D01*
X130532701Y-98489136D01*
X130433571Y-98591363D01*
X130340669Y-98684362D01*
X130209537Y-98811140D01*
X130085719Y-98925722D01*
X129965435Y-99031151D01*
X129844902Y-99130468D01*
X129720340Y-99226715D01*
X129587968Y-99322934D01*
X129444005Y-99422166D01*
X129327055Y-99499807D01*
X129227358Y-99565202D01*
X129142755Y-99620963D01*
X129071544Y-99668314D01*
X129012022Y-99708478D01*
X128962488Y-99742679D01*
X128921238Y-99772140D01*
X128886570Y-99798085D01*
X128856781Y-99821737D01*
X128830171Y-99844320D01*
X128805035Y-99867058D01*
X128779672Y-99891173D01*
X128771640Y-99898980D01*
X128712769Y-99960049D01*
X128669382Y-100013991D01*
X128639641Y-100063674D01*
X128621707Y-100111969D01*
X128615740Y-100142255D01*
X128618202Y-100193026D01*
X128638491Y-100239966D01*
X128674540Y-100281304D01*
X128724283Y-100315270D01*
X128785654Y-100340092D01*
X128856585Y-100353999D01*
X128863623Y-100354677D01*
X128911473Y-100359401D01*
X128943381Y-100364311D01*
X128963379Y-100370613D01*
X128975497Y-100379516D01*
X128982795Y-100390363D01*
X128990531Y-100412933D01*
X128985975Y-100432100D01*
X128967312Y-100449480D01*
X128932729Y-100466687D01*
X128880412Y-100485338D01*
X128873815Y-100487446D01*
X128732333Y-100541222D01*
X128603010Y-100609523D01*
X128483262Y-100693966D01*
X128370501Y-100796167D01*
X128356267Y-100810793D01*
X128287417Y-100887369D01*
X128231233Y-100961807D01*
X128182708Y-101041325D01*
X128145513Y-101114553D01*
X128100728Y-101223155D01*
X128073445Y-101323174D01*
X128063482Y-101415363D01*
X127965714Y-101415363D01*
X127968681Y-101341901D01*
X127992012Y-101224227D01*
X128033163Y-101105849D01*
X128091274Y-100988552D01*
X128165486Y-100874120D01*
X128254939Y-100764338D01*
X128338284Y-100679765D01*
X128404798Y-100622655D01*
X128480134Y-100566258D01*
X128557746Y-100515099D01*
X128631090Y-100473699D01*
X128649610Y-100464641D01*
X128680712Y-100449151D01*
X128703080Y-100436338D01*
X128712041Y-100428889D01*
X128712055Y-100428746D01*
X128703957Y-100420495D01*
X128684555Y-100409908D01*
X128618051Y-100370448D01*
X128566864Y-100319496D01*
X128531957Y-100259260D01*
X128514290Y-100191946D01*
X128514827Y-100119763D01*
X128530344Y-100056146D01*
X128565615Y-99981865D01*
X128619479Y-99904938D01*
X128690904Y-99826580D01*
X128778860Y-99748005D01*
X128817995Y-99717125D01*
X128845897Y-99696807D01*
X128887482Y-99667816D01*
X128939603Y-99632284D01*
X128999112Y-99592340D01*
X129062861Y-99550116D01*
X129117995Y-99514047D01*
X129246624Y-99429854D01*
X129360366Y-99354112D01*
X129461567Y-99285123D01*
X129552574Y-99221187D01*
X129635733Y-99160605D01*
X129713390Y-99101678D01*
X129787892Y-99042707D01*
X129861583Y-98981993D01*
X129913473Y-98937948D01*
X130026428Y-98838136D01*
X130147360Y-98726016D01*
X130272405Y-98605399D01*
X130397702Y-98480094D01*
X130519385Y-98353912D01*
X130633594Y-98230663D01*
X130657637Y-98203980D01*
X130689491Y-98167998D01*
X130728420Y-98123353D01*
X130771753Y-98073178D01*
X130816817Y-98020608D01*
X130860939Y-97968778D01*
X130901448Y-97920822D01*
X130935670Y-97879875D01*
X130960933Y-97849071D01*
X130970301Y-97837252D01*
X130974440Y-97828660D01*
X130970794Y-97819888D01*
X130956690Y-97808715D01*
X130929452Y-97792917D01*
X130895138Y-97774795D01*
X130799119Y-97719091D01*
X130711973Y-97655286D01*
X130627634Y-97578735D01*
X130594330Y-97544569D01*
X130499072Y-97431672D01*
X130423274Y-97314637D01*
X130366737Y-97193001D01*
X130329262Y-97066298D01*
X130310650Y-96934065D01*
X130308653Y-96883980D01*
X130409598Y-96883980D01*
X130421632Y-97002523D01*
X130452345Y-97119810D01*
X130500428Y-97233940D01*
X130564568Y-97343013D01*
X130643457Y-97445130D01*
X130735783Y-97538390D01*
X130840236Y-97620895D01*
X130955505Y-97690745D01*
X130971907Y-97699143D01*
X131026418Y-97723465D01*
X131095486Y-97749715D01*
X131173986Y-97776261D01*
X131256796Y-97801469D01*
X131338791Y-97823709D01*
X131414849Y-97841347D01*
X131424245Y-97843260D01*
X131503802Y-97858084D01*
X131586765Y-97871317D01*
X131675297Y-97883160D01*
X131771563Y-97893817D01*
X131877725Y-97903493D01*
X131995947Y-97912391D01*
X132128395Y-97920715D01*
X132277230Y-97928668D01*
X132387055Y-97933884D01*
X132585721Y-97943868D01*
X132766525Y-97955035D01*
X132931586Y-97967659D01*
X133083020Y-97982015D01*
X133222945Y-97998378D01*
X133353478Y-98017022D01*
X133476738Y-98038220D01*
X133594842Y-98062248D01*
X133709907Y-98089380D01*
X133824051Y-98119891D01*
X133825339Y-98120255D01*
X134040823Y-98191099D01*
X134253292Y-98280531D01*
X134460162Y-98387142D01*
X134658844Y-98509526D01*
X134846754Y-98646273D01*
X134952055Y-98733586D01*
X134984056Y-98761155D01*
X135010039Y-98782979D01*
X135026614Y-98796242D01*
X135030741Y-98798938D01*
X135027591Y-98791843D01*
X135015431Y-98773757D01*
X135006484Y-98761480D01*
X134913888Y-98645575D01*
X134815743Y-98540026D01*
X134707370Y-98440183D01*
X134584086Y-98341397D01*
X134582055Y-98339865D01*
X134385336Y-98203645D01*
X134177964Y-98083406D01*
X133959213Y-97978810D01*
X133728355Y-97889516D01*
X133484664Y-97815185D01*
X133427055Y-97800253D01*
X133352607Y-97782391D01*
X133278364Y-97766420D01*
X133201997Y-97752032D01*
X133121174Y-97738923D01*
X133033564Y-97726784D01*
X132936838Y-97715310D01*
X132828664Y-97704194D01*
X132706712Y-97693130D01*
X132568650Y-97681811D01*
X132467055Y-97674013D01*
X132282800Y-97659500D01*
X132116879Y-97644883D01*
X131967624Y-97629840D01*
X131833370Y-97614048D01*
X131712450Y-97597187D01*
X131603198Y-97578934D01*
X131503949Y-97558967D01*
X131413036Y-97536966D01*
X131328792Y-97512609D01*
X131249553Y-97485572D01*
X131173651Y-97455536D01*
X131099421Y-97422178D01*
X131057970Y-97401931D01*
X130925821Y-97331036D01*
X130808514Y-97257939D01*
X130706725Y-97184009D01*
X130644936Y-97133044D01*
X130600024Y-97089907D01*
X130572196Y-97054886D01*
X130561659Y-97028268D01*
X130568620Y-97010343D01*
X130577957Y-97005017D01*
X130594729Y-97002740D01*
X130611989Y-97011514D01*
X130634276Y-97033977D01*
X130640695Y-97041482D01*
X130678867Y-97080153D01*
X130732246Y-97124608D01*
X130797664Y-97172729D01*
X130871955Y-97222399D01*
X130951951Y-97271501D01*
X131034484Y-97317920D01*
X131116388Y-97359537D01*
X131117055Y-97359855D01*
X131186429Y-97391461D01*
X131256566Y-97420051D01*
X131329054Y-97445912D01*
X131405484Y-97469331D01*
X131487446Y-97490596D01*
X131576528Y-97509993D01*
X131674321Y-97527809D01*
X131782415Y-97544332D01*
X131902398Y-97559849D01*
X132035862Y-97574647D01*
X132184396Y-97589013D01*
X132349589Y-97603233D01*
X132533031Y-97617596D01*
X132552055Y-97619023D01*
X132696185Y-97630265D01*
X132823092Y-97641289D01*
X132935543Y-97652482D01*
X133036308Y-97664233D01*
X133128152Y-97676929D01*
X133213845Y-97690959D01*
X133296154Y-97706711D01*
X133377846Y-97724574D01*
X133461690Y-97744934D01*
X133476073Y-97748599D01*
X133641287Y-97794353D01*
X133792696Y-97843841D01*
X133936444Y-97899345D01*
X134078671Y-97963142D01*
X134153136Y-97999879D01*
X134313184Y-98086902D01*
X134468399Y-98182623D01*
X134614537Y-98284166D01*
X134747352Y-98388660D01*
X134814204Y-98447282D01*
X134844931Y-98475251D01*
X134864437Y-98492226D01*
X134872482Y-98497396D01*
X134868828Y-98489951D01*
X134853237Y-98469081D01*
X134825469Y-98433976D01*
X134801450Y-98403980D01*
X134751786Y-98345660D01*
X134690440Y-98279277D01*
X134621587Y-98208956D01*
X134549403Y-98138822D01*
X134478062Y-98073000D01*
X134411741Y-98015614D01*
X134392055Y-97999541D01*
X134213832Y-97868633D01*
X134021364Y-97749994D01*
X133817170Y-97644985D01*
X133603769Y-97554967D01*
X133502055Y-97518579D01*
X133427671Y-97494090D01*
X133355553Y-97471826D01*
X133283586Y-97451353D01*
X133209658Y-97432238D01*
X133131656Y-97414046D01*
X133047467Y-97396343D01*
X132954977Y-97378696D01*
X132852073Y-97360671D01*
X132736642Y-97341833D01*
X132606572Y-97321750D01*
X132459749Y-97299986D01*
X132383901Y-97288988D01*
X132247925Y-97269225D01*
X132130664Y-97251814D01*
X132030997Y-97236559D01*
X131947802Y-97223262D01*
X131879959Y-97211726D01*
X131826345Y-97201753D01*
X131785840Y-97193146D01*
X131757321Y-97185707D01*
X131739669Y-97179238D01*
X131732267Y-97174236D01*
X131725958Y-97154387D01*
X131734934Y-97136749D01*
X131755238Y-97128990D01*
X131755624Y-97128988D01*
X131775975Y-97130983D01*
X131808761Y-97136207D01*
X131846901Y-97143532D01*
X131847055Y-97143564D01*
X131871506Y-97148027D01*
X131913375Y-97154953D01*
X131970277Y-97163974D01*
X132039830Y-97174726D01*
X132119650Y-97186842D01*
X132207357Y-97199957D01*
X132300565Y-97213705D01*
X132370327Y-97223874D01*
X132519597Y-97245746D01*
X132651031Y-97265514D01*
X132766642Y-97283535D01*
X132868442Y-97300163D01*
X132958446Y-97315754D01*
X133038664Y-97330662D01*
X133111110Y-97345244D01*
X133177797Y-97359853D01*
X133240738Y-97374846D01*
X133274841Y-97383475D01*
X133516619Y-97455388D01*
X133747179Y-97543330D01*
X133966117Y-97647076D01*
X134173029Y-97766400D01*
X134367512Y-97901077D01*
X134549162Y-98050882D01*
X134662141Y-98158247D01*
X134773869Y-98275638D01*
X134870250Y-98388309D01*
X134954102Y-98499898D01*
X135028248Y-98614044D01*
X135065772Y-98678980D01*
X135084989Y-98711658D01*
X135096468Y-98726385D01*
X135100210Y-98723060D01*
X135096216Y-98701585D01*
X135084485Y-98661859D01*
X135066288Y-98607447D01*
X135018792Y-98488797D01*
X134958373Y-98371383D01*
X134883874Y-98253524D01*
X134794136Y-98133539D01*
X134688001Y-98009748D01*
X134567439Y-97883595D01*
X134484462Y-97802538D01*
X134408487Y-97732909D01*
X134334254Y-97670334D01*
X134256507Y-97610440D01*
X134169986Y-97548853D01*
X134142055Y-97529747D01*
X134029137Y-97456018D01*
X133912837Y-97386150D01*
X133791086Y-97319185D01*
X133661818Y-97254165D01*
X133522964Y-97190129D01*
X133372456Y-97126120D01*
X133208227Y-97061178D01*
X133028207Y-96994345D01*
X132857055Y-96933886D01*
X132743716Y-96894427D01*
X132646618Y-96860052D01*
X132632780Y-96855024D01*
X132982063Y-96855024D01*
X132986303Y-96859835D01*
X133006853Y-96870211D01*
X133041163Y-96885057D01*
X133086682Y-96903280D01*
X133140859Y-96923787D01*
X133152063Y-96927903D01*
X133373768Y-97013544D01*
X133584364Y-97104113D01*
X133781960Y-97198670D01*
X133964662Y-97296276D01*
X134130580Y-97395990D01*
X134235169Y-97466151D01*
X134381835Y-97576327D01*
X134522336Y-97695356D01*
X134654713Y-97821069D01*
X134777007Y-97951297D01*
X134887256Y-98083871D01*
X134983503Y-98216622D01*
X135063787Y-98347380D01*
X135106758Y-98430857D01*
X135154386Y-98543494D01*
X135190941Y-98655352D01*
X135215747Y-98763282D01*
X135228126Y-98864134D01*
X135227402Y-98954757D01*
X135224604Y-98978950D01*
X135219078Y-99035404D01*
X135220906Y-99086931D01*
X135226966Y-99128980D01*
X135239072Y-99204253D01*
X135248675Y-99279322D01*
X135255992Y-99357624D01*
X135261244Y-99442597D01*
X135264650Y-99537680D01*
X135266429Y-99646310D01*
X135266825Y-99753980D01*
X135266425Y-99856806D01*
X135265305Y-99942882D01*
X135263333Y-100015449D01*
X135260378Y-100077749D01*
X135256308Y-100133023D01*
X135250993Y-100184512D01*
X135248590Y-100203980D01*
X135209283Y-100459307D01*
X135158027Y-100703043D01*
X135093450Y-100940086D01*
X135014181Y-101175334D01*
X134918846Y-101413686D01*
X134893329Y-101472107D01*
X134872023Y-101520390D01*
X134853938Y-101561862D01*
X134840481Y-101593255D01*
X134833061Y-101611301D01*
X134832055Y-101614305D01*
X134840591Y-101619081D01*
X134861766Y-101626983D01*
X134888923Y-101635863D01*
X134915408Y-101643573D01*
X134934568Y-101647964D01*
X134937298Y-101648283D01*
X134943897Y-101639555D01*
X134954967Y-101615115D01*
X134969133Y-101578381D01*
X134985019Y-101532766D01*
X134990362Y-101516480D01*
X135087012Y-101247999D01*
X135201213Y-100985410D01*
X135331804Y-100730864D01*
X135477627Y-100486513D01*
X135637522Y-100254508D01*
X135746242Y-100114067D01*
X135795650Y-100055995D01*
X135857070Y-99988390D01*
X135927176Y-99914556D01*
X136002644Y-99837797D01*
X136080149Y-99761417D01*
X136156365Y-99688721D01*
X136227968Y-99623011D01*
X136291633Y-99567593D01*
X136317908Y-99546009D01*
X136360631Y-99510879D01*
X136398138Y-99478360D01*
X136427402Y-99451207D01*
X136445394Y-99432174D01*
X136449213Y-99426571D01*
X136477952Y-99381612D01*
X136523141Y-99332723D01*
X136556561Y-99303795D01*
X136727998Y-99303795D01*
X136730160Y-99305528D01*
X136743195Y-99303086D01*
X136769413Y-99296122D01*
X136811123Y-99284288D01*
X136846122Y-99274252D01*
X136967773Y-99242723D01*
X137088178Y-99218743D01*
X137211981Y-99201736D01*
X137343824Y-99191123D01*
X137488352Y-99186327D01*
X137557055Y-99185912D01*
X137786791Y-99195229D01*
X138012803Y-99222901D01*
X138236386Y-99269240D01*
X138458832Y-99334559D01*
X138681436Y-99419168D01*
X138857055Y-99499267D01*
X138921682Y-99531626D01*
X138986220Y-99565617D01*
X139052278Y-99602258D01*
X139121465Y-99642566D01*
X139195391Y-99687558D01*
X139275666Y-99738251D01*
X139363898Y-99795664D01*
X139461698Y-99860814D01*
X139570675Y-99934717D01*
X139692438Y-100018392D01*
X139828597Y-100112856D01*
X139837055Y-100118746D01*
X139907752Y-100167801D01*
X139976146Y-100214899D01*
X140039785Y-100258377D01*
X140096217Y-100296574D01*
X140142990Y-100327827D01*
X140177652Y-100350475D01*
X140194005Y-100360682D01*
X140235528Y-100386368D01*
X140261753Y-100405455D01*
X140275191Y-100420448D01*
X140278351Y-100433855D01*
X140276157Y-100442712D01*
X140271748Y-100451250D01*
X140265278Y-100456722D01*
X140255558Y-100458429D01*
X140241397Y-100455668D01*
X140221606Y-100447740D01*
X140194997Y-100433945D01*
X140160378Y-100413580D01*
X140116561Y-100385946D01*
X140062357Y-100350343D01*
X139996574Y-100306068D01*
X139918025Y-100252423D01*
X139825520Y-100188706D01*
X139717868Y-100114216D01*
X139714672Y-100112002D01*
X139570634Y-100012735D01*
X139440864Y-99924553D01*
X139323678Y-99846477D01*
X139217391Y-99777528D01*
X139120321Y-99716729D01*
X139030781Y-99663100D01*
X138947089Y-99615663D01*
X138867560Y-99573440D01*
X138790510Y-99535451D01*
X138714254Y-99500719D01*
X138637110Y-99468264D01*
X138557391Y-99437108D01*
X138545392Y-99432593D01*
X138415375Y-99388001D01*
X138274500Y-99346979D01*
X138129464Y-99311159D01*
X137986969Y-99282169D01*
X137853713Y-99261640D01*
X137832055Y-99259062D01*
X137742757Y-99251641D01*
X137641442Y-99247760D01*
X137532966Y-99247262D01*
X137422185Y-99249987D01*
X137313954Y-99255778D01*
X137213130Y-99264476D01*
X137124568Y-99275924D01*
X137082055Y-99283493D01*
X137017055Y-99296595D01*
X137149949Y-99297787D01*
X137374118Y-99309509D01*
X137600688Y-99340356D01*
X137828148Y-99389842D01*
X138054989Y-99457479D01*
X138279700Y-99542780D01*
X138500772Y-99645255D01*
X138716695Y-99764419D01*
X138846128Y-99845682D01*
X138903972Y-99884292D01*
X138960066Y-99922982D01*
X139016956Y-99963656D01*
X139077185Y-100008218D01*
X139143299Y-100058571D01*
X139217843Y-100116619D01*
X139303360Y-100184265D01*
X139372055Y-100239100D01*
X139508387Y-100347581D01*
X139631222Y-100443858D01*
X139742042Y-100528978D01*
X139842330Y-100603991D01*
X139933568Y-100669942D01*
X140017240Y-100727881D01*
X140094826Y-100778854D01*
X140167810Y-100823910D01*
X140237675Y-100864096D01*
X140305902Y-100900460D01*
X140312851Y-100904007D01*
X140467015Y-100973739D01*
X140627070Y-101029798D01*
X140789011Y-101071123D01*
X140948834Y-101096656D01*
X141072055Y-101104990D01*
X141129940Y-101106823D01*
X141170637Y-101109425D01*
X141196955Y-101113140D01*
X141211702Y-101118311D01*
X141216475Y-101122713D01*
X141218879Y-101142449D01*
X141211614Y-101154510D01*
X141194446Y-101162324D01*
X141160801Y-101166955D01*
X141113922Y-101168555D01*
X141057051Y-101167278D01*
X140993430Y-101163276D01*
X140926303Y-101156702D01*
X140858911Y-101147710D01*
X140794499Y-101136452D01*
X140784244Y-101134358D01*
X140699669Y-101115496D01*
X140619170Y-101094758D01*
X140541437Y-101071369D01*
X140465158Y-101044551D01*
X140389021Y-101013527D01*
X140311715Y-100977521D01*
X140231929Y-100935754D01*
X140148352Y-100887450D01*
X140059672Y-100831832D01*
X139964578Y-100768123D01*
X139861758Y-100695546D01*
X139749902Y-100613324D01*
X139627699Y-100520680D01*
X139493836Y-100416836D01*
X139347002Y-100301016D01*
X139257055Y-100229384D01*
X139103350Y-100109314D01*
X138960015Y-100003127D01*
X138824677Y-99909292D01*
X138694962Y-99826275D01*
X138568497Y-99752545D01*
X138442910Y-99686570D01*
X138341944Y-99638556D01*
X138160349Y-99562836D01*
X137974418Y-99498356D01*
X137786749Y-99445602D01*
X137599937Y-99405060D01*
X137416579Y-99377214D01*
X137239272Y-99362550D01*
X137070611Y-99361553D01*
X136923470Y-99373359D01*
X136856641Y-99382272D01*
X136809447Y-99389581D01*
X136781608Y-99395554D01*
X136772849Y-99400462D01*
X136782889Y-99404573D01*
X136811453Y-99408157D01*
X136858262Y-99411481D01*
X136882700Y-99412834D01*
X137077603Y-99428619D01*
X137266847Y-99455622D01*
X137451810Y-99494470D01*
X137633869Y-99545793D01*
X137814402Y-99610219D01*
X137994785Y-99688377D01*
X138176396Y-99780896D01*
X138360613Y-99888405D01*
X138548812Y-100011531D01*
X138742370Y-100150905D01*
X138942665Y-100307154D01*
X139068078Y-100410465D01*
X139131346Y-100463564D01*
X139203995Y-100524549D01*
X139280095Y-100588441D01*
X139353716Y-100650262D01*
X139418078Y-100704319D01*
X139559105Y-100820716D01*
X139688588Y-100923149D01*
X139808113Y-101012740D01*
X139919262Y-101090613D01*
X140023622Y-101157892D01*
X140122776Y-101215700D01*
X140187692Y-101249998D01*
X140320030Y-101311582D01*
X140443646Y-101357434D01*
X140561405Y-101388123D01*
X140676169Y-101404221D01*
X140790803Y-101406299D01*
X140908168Y-101394926D01*
X140912055Y-101394339D01*
X141040329Y-101367462D01*
X141155363Y-101327440D01*
X141260109Y-101272868D01*
X141357517Y-101202343D01*
X141405609Y-101159507D01*
X141453062Y-101109207D01*
X141483692Y-101063303D01*
X141499228Y-101018721D01*
X141502055Y-100988059D01*
X141492727Y-100946700D01*
X141464588Y-100910517D01*
X141417399Y-100879286D01*
X141364790Y-100857373D01*
X141340969Y-100849575D01*
X141318634Y-100843742D01*
X141294414Y-100839606D01*
X141264939Y-100836894D01*
X141226842Y-100835337D01*
X141176750Y-100834664D01*
X141111296Y-100834606D01*
X141082055Y-100834687D01*
X141013629Y-100835407D01*
X140951130Y-100837002D01*
X140897929Y-100839318D01*
X140857400Y-100842203D01*
X140832913Y-100845504D01*
X140830551Y-100846106D01*
X140797155Y-100851787D01*
X140770881Y-100845311D01*
X140770551Y-100845148D01*
X140750573Y-100826244D01*
X140743155Y-100800412D01*
X140750496Y-100775951D01*
X140751757Y-100774338D01*
X140765029Y-100766478D01*
X140793598Y-100754349D01*
X140833608Y-100739446D01*
X140881204Y-100723263D01*
X140895025Y-100718814D01*
X141082772Y-100651411D01*
X141256059Y-100573349D01*
X141414112Y-100485095D01*
X141556157Y-100387118D01*
X141681420Y-100279884D01*
X141763450Y-100194168D01*
X141829196Y-100109510D01*
X141875763Y-100027920D01*
X141902990Y-99949722D01*
X141910383Y-99898511D01*
X141911855Y-99861937D01*
X141909733Y-99838177D01*
X141901900Y-99820100D01*
X141886239Y-99800572D01*
X141878906Y-99792501D01*
X141843616Y-99753980D01*
X141750335Y-99750797D01*
X141718467Y-99750416D01*
X141684421Y-99751667D01*
X141645385Y-99754888D01*
X141598551Y-99760422D01*
X141541106Y-99768610D01*
X141470241Y-99779791D01*
X141383145Y-99794308D01*
X141362055Y-99797893D01*
X141280461Y-99811495D01*
X141198777Y-99824554D01*
X141120907Y-99836489D01*
X141050758Y-99846716D01*
X140992234Y-99854650D01*
X140949240Y-99859708D01*
X140947055Y-99859925D01*
X140847908Y-99866870D01*
X140749931Y-99867747D01*
X140651279Y-99862104D01*
X140550109Y-99849487D01*
X140444578Y-99829444D01*
X140332843Y-99801520D01*
X140213058Y-99765263D01*
X140083383Y-99720220D01*
X139941971Y-99665937D01*
X139786982Y-99601961D01*
X139642055Y-99539122D01*
X139455717Y-99458124D01*
X139284528Y-99386534D01*
X139126364Y-99323676D01*
X138979102Y-99268873D01*
X138840619Y-99221449D01*
X138708792Y-99180729D01*
X138581496Y-99146037D01*
X138456610Y-99116696D01*
X138332009Y-99092030D01*
X138205570Y-99071363D01*
X138147055Y-99063127D01*
X138001005Y-99049061D01*
X137842822Y-99043761D01*
X137678234Y-99046995D01*
X137512970Y-99058532D01*
X137352759Y-99078139D01*
X137227669Y-99100387D01*
X137138673Y-99122104D01*
X137046595Y-99150455D01*
X136956131Y-99183595D01*
X136871978Y-99219680D01*
X136798832Y-99256865D01*
X136747055Y-99289203D01*
X136734399Y-99298238D01*
X136727998Y-99303795D01*
X136556561Y-99303795D01*
X136582070Y-99281715D01*
X136652031Y-99230399D01*
X136730315Y-99180588D01*
X136814214Y-99134093D01*
X136901017Y-99092726D01*
X136988018Y-99058297D01*
X137012055Y-99050144D01*
X137167352Y-99007357D01*
X137336433Y-98975136D01*
X137515999Y-98953649D01*
X137702751Y-98943062D01*
X137893390Y-98943542D01*
X138084618Y-98955255D01*
X138273135Y-98978367D01*
X138311577Y-98984601D01*
X138442395Y-99008853D01*
X138571563Y-99037299D01*
X138701422Y-99070713D01*
X138834319Y-99109870D01*
X138972595Y-99155542D01*
X139118595Y-99208505D01*
X139274663Y-99269531D01*
X139443143Y-99339396D01*
X139625860Y-99418645D01*
X139688540Y-99446166D01*
X139744900Y-99470602D01*
X139792454Y-99490898D01*
X139828718Y-99506005D01*
X139851206Y-99514869D01*
X139857615Y-99516753D01*
X139853067Y-99507913D01*
X139837337Y-99486370D01*
X139812381Y-99454496D01*
X139780159Y-99414665D01*
X139742628Y-99369250D01*
X139701747Y-99320623D01*
X139659474Y-99271159D01*
X139617767Y-99223229D01*
X139584575Y-99185859D01*
X139501529Y-99096548D01*
X139406260Y-98999485D01*
X139302794Y-98898576D01*
X139195158Y-98797727D01*
X139087378Y-98700844D01*
X139059066Y-98676125D01*
X138818657Y-98474756D01*
X138580223Y-98289899D01*
X138339886Y-98118942D01*
X138093765Y-97959274D01*
X137837981Y-97808283D01*
X137568655Y-97663357D01*
X137510772Y-97633832D01*
X137186852Y-97477597D01*
X136866676Y-97338672D01*
X136547857Y-97216404D01*
X136228006Y-97110141D01*
X135904736Y-97019229D01*
X135575659Y-96943014D01*
X135238387Y-96880843D01*
X134890532Y-96832064D01*
X134529706Y-96796022D01*
X134417055Y-96787489D01*
X134331341Y-96782596D01*
X134233368Y-96778942D01*
X134126678Y-96776509D01*
X134014809Y-96775277D01*
X133901303Y-96775228D01*
X133789699Y-96776344D01*
X133683538Y-96778605D01*
X133586361Y-96781993D01*
X133501706Y-96786489D01*
X133433115Y-96792074D01*
X133427055Y-96792716D01*
X133362528Y-96800063D01*
X133294093Y-96808422D01*
X133225028Y-96817335D01*
X133158612Y-96826344D01*
X133098121Y-96834988D01*
X133046836Y-96842809D01*
X133008033Y-96849347D01*
X132984993Y-96854144D01*
X132982063Y-96855024D01*
X132632780Y-96855024D01*
X132562984Y-96829663D01*
X132490034Y-96802159D01*
X132424990Y-96776442D01*
X132365073Y-96751413D01*
X132307504Y-96725973D01*
X132249506Y-96699022D01*
X132188299Y-96669462D01*
X132187055Y-96668852D01*
X132096211Y-96622999D01*
X132015117Y-96578736D01*
X131941670Y-96534199D01*
X131873771Y-96487524D01*
X131809318Y-96436847D01*
X131746211Y-96380305D01*
X131682349Y-96316035D01*
X131615632Y-96242172D01*
X131543960Y-96156854D01*
X131465230Y-96058217D01*
X131391926Y-95963468D01*
X131317423Y-95867027D01*
X131275150Y-95813776D01*
X131412055Y-95813776D01*
X131417944Y-95823616D01*
X131434229Y-95846406D01*
X131458832Y-95879456D01*
X131489677Y-95920082D01*
X131524689Y-95965596D01*
X131561790Y-96013311D01*
X131598904Y-96060540D01*
X131633955Y-96104597D01*
X131664866Y-96142794D01*
X131685853Y-96168077D01*
X131755111Y-96243675D01*
X131834329Y-96319662D01*
X131915833Y-96388904D01*
X131957055Y-96420226D01*
X132026860Y-96466300D01*
X132113181Y-96515804D01*
X132213128Y-96567335D01*
X132323810Y-96619487D01*
X132442336Y-96670856D01*
X132565815Y-96720036D01*
X132601687Y-96733520D01*
X132756319Y-96790868D01*
X132896687Y-96765393D01*
X133109853Y-96730322D01*
X133319678Y-96703398D01*
X133529336Y-96684513D01*
X133741999Y-96673558D01*
X133960840Y-96670423D01*
X134189034Y-96675000D01*
X134429753Y-96687180D01*
X134662055Y-96704752D01*
X134970381Y-96737852D01*
X135281874Y-96783965D01*
X135592653Y-96842246D01*
X135898839Y-96911854D01*
X136196552Y-96991946D01*
X136481912Y-97081678D01*
X136617916Y-97129592D01*
X136927338Y-97250326D01*
X137239509Y-97386734D01*
X137549010Y-97536235D01*
X137850416Y-97696249D01*
X138052055Y-97812165D01*
X138338654Y-97992510D01*
X138621607Y-98190321D01*
X138897667Y-98403068D01*
X139163586Y-98628222D01*
X139416118Y-98863251D01*
X139472303Y-98918777D01*
X139590967Y-99040154D01*
X139696659Y-99154395D01*
X139792954Y-99265594D01*
X139883430Y-99377848D01*
X139949848Y-99465503D01*
X140047055Y-99597026D01*
X140147055Y-99632877D01*
X140271847Y-99675471D01*
X140383402Y-99708623D01*
X140485663Y-99733134D01*
X140582570Y-99749803D01*
X140678065Y-99759432D01*
X140776091Y-99762821D01*
X140787055Y-99762848D01*
X140838048Y-99762521D01*
X140884338Y-99761359D01*
X140928844Y-99759007D01*
X140974485Y-99755110D01*
X141024178Y-99749315D01*
X141080843Y-99741266D01*
X141147400Y-99730610D01*
X141226766Y-99716992D01*
X141321860Y-99700057D01*
X141358204Y-99693498D01*
X141460081Y-99676661D01*
X141557002Y-99663713D01*
X141646324Y-99654840D01*
X141725404Y-99650228D01*
X141791600Y-99650062D01*
X141842270Y-99654530D01*
X141859686Y-99658205D01*
X141908658Y-99680411D01*
X141953594Y-99716657D01*
X141987602Y-99761188D01*
X141991238Y-99768033D01*
X142012476Y-99828997D01*
X142017376Y-99895627D01*
X142005785Y-99969358D01*
X141977551Y-100051626D01*
X141955884Y-100098980D01*
X141938168Y-100133846D01*
X141921363Y-100163194D01*
X141902791Y-100190405D01*
X141879771Y-100218865D01*
X141849621Y-100251957D01*
X141809663Y-100293065D01*
X141773101Y-100329739D01*
X141636205Y-100454097D01*
X141492979Y-100559993D01*
X141342097Y-100648328D01*
X141222055Y-100704037D01*
X141177055Y-100722752D01*
X141249323Y-100729821D01*
X141341251Y-100744427D01*
X141422512Y-100768675D01*
X141490916Y-100801538D01*
X141544272Y-100841990D01*
X141577300Y-100883496D01*
X141598904Y-100939015D01*
X141604905Y-101001647D01*
X141595213Y-101065883D01*
X141580878Y-101104978D01*
X141549440Y-101156191D01*
X141502158Y-101211010D01*
X141442180Y-101266770D01*
X141372653Y-101320803D01*
X141296723Y-101370443D01*
X141217538Y-101413023D01*
X141217055Y-101413255D01*
X141102291Y-101458019D01*
X140976945Y-101488831D01*
X140844990Y-101505454D01*
X140710401Y-101507652D01*
X140577150Y-101495189D01*
X140449211Y-101467827D01*
X140424235Y-101460429D01*
X140363111Y-101441405D01*
X140357866Y-101467692D01*
X140354004Y-101497225D01*
X140350420Y-101544091D01*
X140347163Y-101605623D01*
X140344280Y-101679155D01*
X140341818Y-101762021D01*
X140339823Y-101851556D01*
X140338344Y-101945092D01*
X140337428Y-102039965D01*
X140337122Y-102133507D01*
X140337473Y-102223053D01*
X140338528Y-102305936D01*
X140340335Y-102379491D01*
X140341249Y-102404967D01*
X140344293Y-102478884D01*
X140347303Y-102547254D01*
X140350138Y-102607232D01*
X140352658Y-102655977D01*
X140354723Y-102690643D01*
X140356191Y-102708389D01*
X140356277Y-102708980D01*
X140358760Y-102730119D01*
X140362003Y-102764961D01*
X140365438Y-102807252D01*
X140366676Y-102823980D01*
X140375738Y-102931203D01*
X140387707Y-103038749D01*
X140403052Y-103149238D01*
X140422244Y-103265293D01*
X140445751Y-103389536D01*
X140474045Y-103524590D01*
X140507594Y-103673076D01*
X140546868Y-103837616D01*
X140552090Y-103858980D01*
X140573177Y-103945943D01*
X140593337Y-104030772D01*
X140611909Y-104110549D01*
X140628227Y-104182356D01*
X140641628Y-104243275D01*
X140651448Y-104290388D01*
X140656742Y-104318980D01*
X140664748Y-104383269D01*
X140669629Y-104453401D01*
X140671361Y-104524143D01*
X140669919Y-104590262D01*
X140665278Y-104646523D01*
X140658461Y-104683980D01*
X140631161Y-104757642D01*
X140592425Y-104820774D01*
X140544542Y-104870395D01*
X140489876Y-104903491D01*
X140451473Y-104913357D01*
X140401828Y-104917847D01*
X140348975Y-104916923D01*
X140300945Y-104910548D01*
X140278843Y-104904474D01*
X140254975Y-104896640D01*
X140245585Y-104896560D01*
X140246555Y-104904623D01*
X140247701Y-104907413D01*
X140264111Y-104949624D01*
X140282846Y-105003542D01*
X140301421Y-105061458D01*
X140317354Y-105115667D01*
X140327173Y-105153993D01*
X140336261Y-105207815D01*
X140343154Y-105276077D01*
X140347727Y-105353331D01*
X140349856Y-105434126D01*
X140349416Y-105513010D01*
X140346283Y-105584532D01*
X140340333Y-105643243D01*
X140338592Y-105654135D01*
X140313774Y-105764656D01*
X140279503Y-105869483D01*
X140237101Y-105966439D01*
X140187894Y-106053346D01*
X140133205Y-106128029D01*
X140074357Y-106188310D01*
X140012676Y-106232013D01*
X139977055Y-106248560D01*
X139901761Y-106266469D01*
X139823755Y-106265922D01*
X139745388Y-106247812D01*
X139669011Y-106213033D01*
X139596977Y-106162477D01*
X139531636Y-106097036D01*
X139511534Y-106071784D01*
X139489103Y-106042056D01*
X139470992Y-106018297D01*
X139460906Y-106005365D01*
X139460607Y-106005003D01*
X139450745Y-106007685D01*
X139429891Y-106021920D01*
X139401333Y-106045254D01*
X139375583Y-106068420D01*
X139249689Y-106176585D01*
X139108129Y-106281329D01*
X138955229Y-106379750D01*
X138795315Y-106468948D01*
X138728765Y-106502161D01*
X138678438Y-106526552D01*
X138643500Y-106544274D01*
X138621306Y-106557301D01*
X138609207Y-106567607D01*
X138604558Y-106577168D01*
X138604713Y-106587957D01*
X138605686Y-106593980D01*
X138626251Y-106713216D01*
X138643475Y-106815801D01*
X138657651Y-106904750D01*
X138669071Y-106983077D01*
X138678028Y-107053799D01*
X138684814Y-107119931D01*
X138689722Y-107184488D01*
X138693045Y-107250485D01*
X138695075Y-107320939D01*
X138696105Y-107398864D01*
X138696427Y-107487275D01*
X138696422Y-107528980D01*
X138696201Y-107622897D01*
X138695612Y-107699946D01*
X138694503Y-107763257D01*
X138692726Y-107815959D01*
X138690128Y-107861184D01*
X138686559Y-107902060D01*
X138681869Y-107941719D01*
X138675908Y-107983290D01*
X138673975Y-107995800D01*
X138648261Y-108134361D01*
X138617383Y-108253848D01*
X138581226Y-108354543D01*
X138539674Y-108436724D01*
X138492612Y-108500671D01*
X138448683Y-108540540D01*
X138423219Y-108557606D01*
X138401632Y-108566024D01*
X138375415Y-108567928D01*
X138346073Y-108566245D01*
X138285091Y-108561526D01*
X138252549Y-108627753D01*
X138182191Y-108753116D01*
X138094591Y-108879663D01*
X137992192Y-109005033D01*
X137877434Y-109126865D01*
X137752761Y-109242799D01*
X137620614Y-109350476D01*
X137483434Y-109447534D01*
X137343665Y-109531614D01*
X137286223Y-109561765D01*
X137248422Y-109579589D01*
X137202950Y-109599297D01*
X137154051Y-109619255D01*
X137105965Y-109637831D01*
X137062937Y-109653389D01*
X137029209Y-109664298D01*
X137009023Y-109668924D01*
X137007739Y-109668980D01*
X136994670Y-109675112D01*
X136969885Y-109691865D01*
X136936789Y-109716771D01*
X136898789Y-109747362D01*
X136893843Y-109751480D01*
X136773540Y-109846784D01*
X136640160Y-109943198D01*
X136499915Y-110036540D01*
X136359018Y-110122631D01*
X136259555Y-110178370D01*
X136220343Y-110200109D01*
X136188665Y-110218989D01*
X136168106Y-110232783D01*
X136162055Y-110238850D01*
X136165973Y-110251732D01*
X136176099Y-110276546D01*
X136186315Y-110299358D01*
X136202702Y-110339210D01*
X136219017Y-110385951D01*
X136227799Y-110415351D01*
X136245023Y-110478980D01*
X136471039Y-110478902D01*
X136591932Y-110478184D01*
X136729800Y-110476175D01*
X136881665Y-110472983D01*
X137044550Y-110468712D01*
X137215478Y-110463469D01*
X137391472Y-110457360D01*
X137569555Y-110450489D01*
X137746751Y-110442964D01*
X137920082Y-110434890D01*
X138086570Y-110426373D01*
X138243240Y-110417519D01*
X138307055Y-110413621D01*
X138493941Y-110400752D01*
X138662492Y-110386386D01*
X138814349Y-110369951D01*
X138951157Y-110350873D01*
X139074556Y-110328580D01*
X139186191Y-110302500D01*
X139287704Y-110272060D01*
X139380737Y-110236686D01*
X139466934Y-110195808D01*
X139547937Y-110148851D01*
X139625388Y-110095244D01*
X139700932Y-110034414D01*
X139776210Y-109965788D01*
X139852864Y-109888793D01*
X139872695Y-109867894D01*
X139915104Y-109824031D01*
X139955828Y-109784100D01*
X139991763Y-109750984D01*
X140019808Y-109727564D01*
X140034233Y-109717868D01*
X140097684Y-109696145D01*
X140163124Y-109693493D01*
X140227605Y-109709602D01*
X140288180Y-109744162D01*
X140288878Y-109744693D01*
X140328419Y-109785347D01*
X140349084Y-109832579D01*
X140350878Y-109886365D01*
X140333803Y-109946682D01*
X140297866Y-110013508D01*
X140243068Y-110086820D01*
X140222952Y-110110075D01*
X140184487Y-110150210D01*
X140132684Y-110199709D01*
X140070373Y-110256164D01*
X140000384Y-110317168D01*
X139925548Y-110380315D01*
X139848694Y-110443196D01*
X139772653Y-110503404D01*
X139700256Y-110558532D01*
X139667070Y-110582887D01*
X139654166Y-110595892D01*
X139653295Y-110603553D01*
X139665192Y-110606750D01*
X139692797Y-110610729D01*
X139731861Y-110614962D01*
X139773279Y-110618547D01*
X139869804Y-110623074D01*
X139979002Y-110623182D01*
X140094072Y-110619028D01*
X140208219Y-110610765D01*
X140237055Y-110607948D01*
X140317119Y-110598541D01*
X140402695Y-110586173D01*
X140496854Y-110570308D01*
X140602667Y-110550414D01*
X140723208Y-110525957D01*
X140787055Y-110512472D01*
X141007055Y-110465509D01*
X141155372Y-110314744D01*
X141443907Y-110007432D01*
X141716567Y-109688365D01*
X141973035Y-109358072D01*
X142212999Y-109017082D01*
X142436142Y-108665922D01*
X142642150Y-108305123D01*
X142830709Y-107935213D01*
X143001503Y-107556720D01*
X143154217Y-107170173D01*
X143288537Y-106776101D01*
X143316668Y-106684880D01*
X143422332Y-106307433D01*
X143509578Y-105933914D01*
X143578821Y-105561520D01*
X143630475Y-105187449D01*
X143664957Y-104808896D01*
X143682680Y-104423058D01*
X143685445Y-104193980D01*
X143684591Y-104030627D01*
X143681820Y-103881735D01*
X143676872Y-103741834D01*
X143669483Y-103605451D01*
X143659392Y-103467117D01*
X143646338Y-103321361D01*
X143641198Y-103269340D01*
X143589626Y-102854527D01*
X143519232Y-102444933D01*
X143430261Y-102041145D01*
X143322957Y-101643751D01*
X143197564Y-101253342D01*
X143054327Y-100870503D01*
X142893489Y-100495825D01*
X142715295Y-100129894D01*
X142519990Y-99773300D01*
X142307818Y-99426630D01*
X142079022Y-99090473D01*
X141833848Y-98765418D01*
X141705212Y-98607257D01*
X141451902Y-98316920D01*
X141183259Y-98034637D01*
X140901585Y-97762481D01*
X140609184Y-97502523D01*
X140308356Y-97256836D01*
X140001406Y-97027491D01*
X139782055Y-96876404D01*
X139414409Y-96643526D01*
X139040271Y-96429393D01*
X138658862Y-96233648D01*
X138269404Y-96055936D01*
X137871118Y-95895900D01*
X137463227Y-95753182D01*
X137072055Y-95634976D01*
X136647060Y-95526179D01*
X136220367Y-95437295D01*
X135792186Y-95368330D01*
X135362730Y-95319290D01*
X134932211Y-95290181D01*
X134500840Y-95281008D01*
X134068830Y-95291775D01*
X133636392Y-95322489D01*
X133203738Y-95373156D01*
X132771079Y-95443780D01*
X132422055Y-95515331D01*
X132343298Y-95533621D01*
X132257629Y-95554705D01*
X132167033Y-95577997D01*
X132073494Y-95602911D01*
X131978994Y-95628860D01*
X131885519Y-95655260D01*
X131795052Y-95681522D01*
X131709576Y-95707062D01*
X131631076Y-95731293D01*
X131561536Y-95753628D01*
X131502939Y-95773482D01*
X131457270Y-95790268D01*
X131426511Y-95803400D01*
X131412648Y-95812291D01*
X131412055Y-95813776D01*
X131275150Y-95813776D01*
X131253144Y-95786055D01*
X131197871Y-95719617D01*
X131150385Y-95666779D01*
X131109468Y-95626606D01*
X131073902Y-95598162D01*
X131042469Y-95580515D01*
X131013950Y-95572728D01*
X130987127Y-95573867D01*
X130960782Y-95582997D01*
X130933696Y-95599185D01*
X130925157Y-95605342D01*
X130896406Y-95635732D01*
X130868443Y-95681604D01*
X130843402Y-95738483D01*
X130823415Y-95801895D01*
X130816117Y-95833980D01*
X130807759Y-95899132D01*
X130804865Y-95978108D01*
X130807244Y-96065548D01*
X130814708Y-96156089D01*
X130827067Y-96244372D01*
X130831481Y-96268487D01*
X130855775Y-96370885D01*
X130890278Y-96483781D01*
X130932899Y-96601904D01*
X130981548Y-96719983D01*
X131034134Y-96832746D01*
X131088566Y-96934920D01*
X131110393Y-96971656D01*
X131135241Y-97014884D01*
X131148245Y-97046163D01*
X131150171Y-97069072D01*
X131141780Y-97087187D01*
X131136340Y-97093265D01*
X131110298Y-97107519D01*
X131082964Y-97103904D01*
X131067067Y-97091480D01*
X130973134Y-96985221D01*
X130887740Y-96895988D01*
X130810066Y-96823129D01*
X130739291Y-96765996D01*
X130674593Y-96723938D01*
X130615153Y-96696307D01*
X130560149Y-96682453D01*
X130548666Y-96681198D01*
X130514943Y-96679979D01*
X130491998Y-96684853D01*
X130470967Y-96698148D01*
X130464760Y-96703237D01*
X130437437Y-96733996D01*
X130419872Y-96773774D01*
X130411023Y-96825988D01*
X130409598Y-96883980D01*
X130308653Y-96883980D01*
X130308426Y-96878290D01*
X130308123Y-96827637D01*
X130309216Y-96791655D01*
X130312581Y-96765024D01*
X130319098Y-96742421D01*
X130329642Y-96718526D01*
X130337279Y-96703290D01*
X130365826Y-96657105D01*
X130400165Y-96622861D01*
X130415910Y-96611480D01*
X130445202Y-96593480D01*
X130470630Y-96583659D01*
X130500774Y-96579632D01*
X130532810Y-96578980D01*
X130585653Y-96582405D01*
X130636734Y-96593673D01*
X130689513Y-96614271D01*
X130747451Y-96645687D01*
X130814009Y-96689407D01*
X130850446Y-96715501D01*
X130873837Y-96732602D01*
X130856173Y-96693291D01*
X130831802Y-96633864D01*
X130806954Y-96564089D01*
X130782761Y-96488122D01*
X130760359Y-96410121D01*
X130740881Y-96334241D01*
X130725461Y-96264640D01*
X130715233Y-96205475D01*
X130711352Y-96162409D01*
X130710804Y-96138143D01*
X130708730Y-96120345D01*
X130702981Y-96109266D01*
X130691407Y-96105156D01*
X130671860Y-96108265D01*
X130642189Y-96118841D01*
X130600246Y-96137136D01*
X130543881Y-96163400D01*
X130492055Y-96187907D01*
X130114834Y-96377316D01*
X129747217Y-96584073D01*
X129389809Y-96807666D01*
X129043211Y-97047582D01*
X128708026Y-97303310D01*
X128384859Y-97574336D01*
X128074311Y-97860150D01*
X127776986Y-98160238D01*
X127493488Y-98474090D01*
X127224418Y-98801191D01*
X126970381Y-99141032D01*
X126905089Y-99233980D01*
X126711372Y-99527370D01*
X126526521Y-99835192D01*
X126351797Y-100154677D01*
X126188459Y-100483060D01*
X126037766Y-100817572D01*
X125900978Y-101155448D01*
X125779354Y-101493920D01*
X125674154Y-101830222D01*
X125603130Y-102093980D01*
X125516859Y-102481331D01*
X125449711Y-102874102D01*
X125401716Y-103271758D01*
X125372903Y-103673769D01*
X125363301Y-104079601D01*
X125304127Y-104079601D01*
X125305260Y-103958941D01*
X125307470Y-103834896D01*
X125310669Y-103714807D01*
X125314802Y-103602517D01*
X125319813Y-103501869D01*
X125325648Y-103416706D01*
X125326724Y-103403980D01*
X125363536Y-103052297D01*
X125411639Y-102714364D01*
X125471804Y-102386921D01*
X125544802Y-102066708D01*
X125631405Y-101750463D01*
X125732385Y-101434928D01*
X125848512Y-101116841D01*
X125897031Y-100993980D01*
X126022140Y-100695575D01*
X126150909Y-100413121D01*
X126285421Y-100142632D01*
X126427757Y-99880120D01*
X126580001Y-99621600D01*
X126744235Y-99363084D01*
X126766767Y-99328980D01*
X127010625Y-98979029D01*
X127268286Y-98643491D01*
X127540118Y-98321964D01*
X127826488Y-98014046D01*
X128127763Y-97719336D01*
X128444310Y-97437432D01*
X128653166Y-97265084D01*
X128976826Y-97017719D01*
X129314564Y-96782659D01*
X129663679Y-96561566D01*
X130021471Y-96356103D01*
X130385239Y-96167933D01*
X130599555Y-96066618D01*
X130702055Y-96019846D01*
X130702054Y-95950293D01*
X130708212Y-95856172D01*
X130725834Y-95766091D01*
X130753648Y-95682926D01*
X130790380Y-95609554D01*
X130834758Y-95548850D01*
X130885506Y-95503692D01*
X130905021Y-95491832D01*
X130942887Y-95479472D01*
X130991120Y-95474475D01*
X131041512Y-95476782D01*
X131085856Y-95486339D01*
X131102055Y-95493201D01*
X131159735Y-95531487D01*
X131221856Y-95587729D01*
X131289044Y-95662500D01*
X131295546Y-95670384D01*
X131364037Y-95753980D01*
X131550546Y-95692030D01*
X131947857Y-95570406D01*
X132353085Y-95466627D01*
X132764855Y-95380828D01*
X133181791Y-95313142D01*
X133602520Y-95263703D01*
X134025665Y-95232646D01*
X134449852Y-95220106D01*
X134873707Y-95226216D01*
G37*
%TD*%
M02*
