M48
; DRILL file {KiCad 7.0.2-0} date 2023 May 15, Monday 17:51:59
; FORMAT={-:-/ absolute / inch / decimal}
; #@! TF.CreationDate,2023-05-15T17:51:59-04:00
; #@! TF.GenerationSoftware,Kicad,Pcbnew,7.0.2-0
; #@! TF.FileFunction,Plated,1,2,PTH
FMAT,2
INCH
; #@! TA.AperFunction,Plated,PTH,ViaDrill
T1C0.0157
; #@! TA.AperFunction,Plated,PTH,ComponentDrill
T2C0.0354
; #@! TA.AperFunction,Plated,PTH,ComponentDrill
T3C0.0430
; #@! TA.AperFunction,Plated,PTH,ComponentDrill
T4C0.0500
%
G90
G05
T1
X5.6335Y-2.4798
X6.5112Y-2.5431
T3
X7.2947Y-1.9714
X7.2947Y-1.9714
X7.2947Y-2.0714
X7.2947Y-2.0714
X7.2947Y-2.1714
X7.2947Y-2.1714
X7.2947Y-2.2714
X7.2947Y-2.2714
X7.2947Y-2.3714
X7.2947Y-2.3714
X7.2947Y-2.4714
X7.2947Y-2.4714
X7.2947Y-2.5714
X7.2947Y-2.5714
X7.2947Y-2.6714
X7.2947Y-2.6714
X7.2947Y-2.7714
X7.2947Y-2.7714
X7.3947Y-2.7797
X7.3947Y-2.7797
X7.4947Y-2.7797
X7.4947Y-2.7797
X7.5947Y-2.7797
X7.5947Y-2.7797
X7.6947Y-2.7797
X7.6947Y-2.7797
X7.7947Y-2.7797
X7.7947Y-2.7797
X7.8947Y-1.9714
X7.8947Y-1.9714
X7.8947Y-2.0714
X7.8947Y-2.0714
X7.8947Y-2.1714
X7.8947Y-2.1714
X7.8947Y-2.2714
X7.8947Y-2.2714
X7.8947Y-2.3714
X7.8947Y-2.3714
X7.8947Y-2.4714
X7.8947Y-2.4714
X7.8947Y-2.5714
X7.8947Y-2.5714
X7.8947Y-2.6714
X7.8947Y-2.6714
X7.8947Y-2.7714
X7.8947Y-2.7714
T4
X3.4201Y-2.8483
X3.6045Y-3.4917
X3.6321Y-2.8736
X3.6321Y-2.8736
X3.789Y-4.1351
X3.7985Y-2.7398
X3.8166Y-3.5169
X3.8166Y-3.5169
X3.983Y-3.3832
X4.001Y-4.1603
X4.001Y-4.1603
X4.1675Y-4.0266
X4.2651Y-2.3506
X4.3583Y-3.0134
X4.4514Y-3.6762
X4.4716Y-2.4051
X4.4716Y-2.4051
X4.5647Y-3.0679
X4.5647Y-3.0679
X4.655Y-2.2958
X4.6578Y-3.7306
X4.6578Y-3.7306
X4.7481Y-2.9586
X4.8413Y-3.6214
X5.0675Y-2.0049
X5.1063Y-2.6731
X5.1451Y-3.3413
X5.2696Y-2.0737
X5.2696Y-2.0737
X5.3084Y-2.7419
X5.3084Y-2.7419
X5.3473Y-3.4101
X5.3473Y-3.4101
X5.4602Y-1.9775
X5.499Y-2.6457
X5.5379Y-3.3139
X5.8955Y-2.1614
X5.8955Y-2.8307
X5.8955Y-3.5
X5.9664Y-4.4147
X6.0924Y-2.2441
X6.0924Y-2.2441
X6.0924Y-2.9134
X6.0924Y-2.9134
X6.0924Y-3.5827
X6.0924Y-3.5827
X6.1633Y-4.4974
X6.1633Y-4.4974
X6.2892Y-2.1614
X6.2892Y-2.8307
X6.2892Y-3.5
X6.3601Y-4.4147
X6.6042Y-2.273
X6.6042Y-2.9423
X6.6042Y-3.6116
X6.7173Y-4.4453
X6.801Y-2.3557
X6.801Y-2.3557
X6.801Y-3.025
X6.801Y-3.025
X6.801Y-3.6942
X6.801Y-3.6942
X6.8905Y-4.5702
X6.8905Y-4.5702
X6.9979Y-2.273
X6.9979Y-2.9423
X6.9979Y-3.6116
X7.1009Y-4.5339
X7.4313Y-4.6349
X7.5855Y-4.7826
X7.5855Y-4.7826
X7.7989Y-4.776
T2
G00X7.5255Y-3.2848
M15
G01X7.5018Y-3.2848
M16
G05
G00X7.5255Y-3.4659
M15
G01X7.5018Y-3.4659
M16
G05
G00X7.5688Y-3.2848
M15
G01X7.5451Y-3.2848
M16
G05
G00X7.5688Y-3.4659
M15
G01X7.5451Y-3.4659
M16
G05
G00X7.7262Y-3.2848
M15
G01X7.7026Y-3.2848
M16
G05
G00X7.7262Y-3.4659
M15
G01X7.7026Y-3.4659
M16
G05
G00X7.8444Y-3.2848
M15
G01X7.8207Y-3.2848
M16
G05
G00X7.8444Y-3.4659
M15
G01X7.8207Y-3.4659
M16
G05
T0
M30
