%TF.GenerationSoftware,KiCad,Pcbnew,7.0.2-0*%
%TF.CreationDate,2023-05-15T17:52:10-04:00*%
%TF.ProjectId,mini,6d696e69-2e6b-4696-9361-645f70636258,v1.0.0*%
%TF.SameCoordinates,Original*%
%TF.FileFunction,Legend,Bot*%
%TF.FilePolarity,Positive*%
%FSLAX46Y46*%
G04 Gerber Fmt 4.6, Leading zero omitted, Abs format (unit mm)*
G04 Created by KiCad (PCBNEW 7.0.2-0) date 2023-05-15 17:52:10*
%MOMM*%
%LPD*%
G01*
G04 APERTURE LIST*
%ADD10C,0.300000*%
G04 APERTURE END LIST*
D10*
X121711059Y-111173928D02*
X121711059Y-114507262D01*
X122901535Y-109269167D02*
X124092012Y-112840595D01*
X124092012Y-112840595D02*
X120996773Y-112840595D01*
X116711059Y-109507262D02*
X119092011Y-109507262D01*
X119092011Y-109507262D02*
X119330107Y-111888214D01*
X119330107Y-111888214D02*
X119092011Y-111650119D01*
X119092011Y-111650119D02*
X118615821Y-111412024D01*
X118615821Y-111412024D02*
X117425345Y-111412024D01*
X117425345Y-111412024D02*
X116949154Y-111650119D01*
X116949154Y-111650119D02*
X116711059Y-111888214D01*
X116711059Y-111888214D02*
X116472964Y-112364405D01*
X116472964Y-112364405D02*
X116472964Y-113554881D01*
X116472964Y-113554881D02*
X116711059Y-114031071D01*
X116711059Y-114031071D02*
X116949154Y-114269167D01*
X116949154Y-114269167D02*
X117425345Y-114507262D01*
X117425345Y-114507262D02*
X118615821Y-114507262D01*
X118615821Y-114507262D02*
X119092011Y-114269167D01*
X119092011Y-114269167D02*
X119330107Y-114031071D01*
X114330106Y-114507262D02*
X114330106Y-109507262D01*
X112187249Y-114507262D02*
X112187249Y-111888214D01*
X112187249Y-111888214D02*
X112425344Y-111412024D01*
X112425344Y-111412024D02*
X112901535Y-111173928D01*
X112901535Y-111173928D02*
X113615821Y-111173928D01*
X113615821Y-111173928D02*
X114092011Y-111412024D01*
X114092011Y-111412024D02*
X114330106Y-111650119D01*
X107187249Y-114507262D02*
X110044392Y-114507262D01*
X108615820Y-114507262D02*
X108615820Y-109507262D01*
X108615820Y-109507262D02*
X109092011Y-110221547D01*
X109092011Y-110221547D02*
X109568201Y-110697738D01*
X109568201Y-110697738D02*
X110044392Y-110935833D01*
X102663439Y-109507262D02*
X105044391Y-109507262D01*
X105044391Y-109507262D02*
X105282487Y-111888214D01*
X105282487Y-111888214D02*
X105044391Y-111650119D01*
X105044391Y-111650119D02*
X104568201Y-111412024D01*
X104568201Y-111412024D02*
X103377725Y-111412024D01*
X103377725Y-111412024D02*
X102901534Y-111650119D01*
X102901534Y-111650119D02*
X102663439Y-111888214D01*
X102663439Y-111888214D02*
X102425344Y-112364405D01*
X102425344Y-112364405D02*
X102425344Y-113554881D01*
X102425344Y-113554881D02*
X102663439Y-114031071D01*
X102663439Y-114031071D02*
X102901534Y-114269167D01*
X102901534Y-114269167D02*
X103377725Y-114507262D01*
X103377725Y-114507262D02*
X104568201Y-114507262D01*
X104568201Y-114507262D02*
X105044391Y-114269167D01*
X105044391Y-114269167D02*
X105282487Y-114031071D01*
X100282486Y-114507262D02*
X100282486Y-109507262D01*
X98139629Y-114507262D02*
X98139629Y-111888214D01*
X98139629Y-111888214D02*
X98377724Y-111412024D01*
X98377724Y-111412024D02*
X98853915Y-111173928D01*
X98853915Y-111173928D02*
X99568201Y-111173928D01*
X99568201Y-111173928D02*
X100044391Y-111412024D01*
X100044391Y-111412024D02*
X100282486Y-111650119D01*
%TO.C,G\u002A\u002A\u002A*%
G36*
X138250250Y-110520535D02*
G01*
X138290069Y-110521304D01*
X138317488Y-110522910D01*
X138334815Y-110525472D01*
X138344356Y-110529105D01*
X138348420Y-110533929D01*
X138349604Y-110544546D01*
X138341802Y-110564285D01*
X138335320Y-110569056D01*
X138323087Y-110572686D01*
X138302784Y-110575213D01*
X138272027Y-110576754D01*
X138228431Y-110577430D01*
X138169612Y-110577358D01*
X138093184Y-110576657D01*
X137857055Y-110573980D01*
X137857055Y-110548980D01*
X137857055Y-110523980D01*
X138099801Y-110521301D01*
X138124183Y-110521043D01*
X138195724Y-110520487D01*
X138250250Y-110520535D01*
G37*
G36*
X140407183Y-101061524D02*
G01*
X140433235Y-101091480D01*
X140438790Y-101099262D01*
X140464786Y-101141188D01*
X140491249Y-101191546D01*
X140516732Y-101246633D01*
X140539784Y-101302742D01*
X140558957Y-101356168D01*
X140572799Y-101403208D01*
X140579863Y-101440155D01*
X140578698Y-101463304D01*
X140571546Y-101472802D01*
X140550681Y-101477181D01*
X140545489Y-101475829D01*
X140535129Y-101467902D01*
X140524786Y-101450472D01*
X140512767Y-101420259D01*
X140497376Y-101373980D01*
X140484960Y-101336471D01*
X140455566Y-101260257D01*
X140422760Y-101193731D01*
X140383185Y-101129716D01*
X140367370Y-101104091D01*
X140359857Y-101083000D01*
X140362999Y-101067216D01*
X140369859Y-101057202D01*
X140386393Y-101050213D01*
X140407183Y-101061524D01*
G37*
G36*
X140305994Y-100674389D02*
G01*
X140334907Y-100690308D01*
X140371338Y-100718440D01*
X140413173Y-100756719D01*
X140458295Y-100803083D01*
X140504589Y-100855465D01*
X140549939Y-100911802D01*
X140592231Y-100970029D01*
X140604382Y-100988032D01*
X140632106Y-101032659D01*
X140647620Y-101065183D01*
X140651766Y-101087701D01*
X140645389Y-101102313D01*
X140637258Y-101107747D01*
X140621907Y-101106269D01*
X140602289Y-101091065D01*
X140576823Y-101060760D01*
X140543928Y-101013975D01*
X140523182Y-100984076D01*
X140479428Y-100926255D01*
X140432566Y-100869885D01*
X140386036Y-100818836D01*
X140343275Y-100776978D01*
X140307724Y-100748180D01*
X140287720Y-100730678D01*
X140273587Y-100707093D01*
X140273040Y-100686156D01*
X140287325Y-100672492D01*
X140305994Y-100674389D01*
G37*
G36*
X128783077Y-103940193D02*
G01*
X128794237Y-103948324D01*
X128797632Y-103966590D01*
X128793544Y-103997869D01*
X128782254Y-104045036D01*
X128773956Y-104082287D01*
X128764573Y-104136076D01*
X128756129Y-104195772D01*
X128749774Y-104253980D01*
X128748981Y-104262592D01*
X128743716Y-104310758D01*
X128737967Y-104350925D01*
X128732378Y-104379108D01*
X128727591Y-104391326D01*
X128722118Y-104394834D01*
X128707241Y-104397335D01*
X128691866Y-104383751D01*
X128691371Y-104383105D01*
X128685788Y-104363409D01*
X128683869Y-104328235D01*
X128685190Y-104281429D01*
X128689326Y-104226837D01*
X128695851Y-104168305D01*
X128704343Y-104109679D01*
X128714375Y-104054806D01*
X128725523Y-104007532D01*
X128737363Y-103971702D01*
X128751621Y-103948214D01*
X128771859Y-103938980D01*
X128783077Y-103940193D01*
G37*
G36*
X139708589Y-99644001D02*
G01*
X139737971Y-99661230D01*
X139776130Y-99688561D01*
X139820259Y-99723740D01*
X139867549Y-99764514D01*
X139915191Y-99808631D01*
X139960376Y-99853838D01*
X139961710Y-99855234D01*
X140003873Y-99900915D01*
X140032128Y-99935518D01*
X140047670Y-99960989D01*
X140051692Y-99979272D01*
X140045389Y-99992313D01*
X140040126Y-99996281D01*
X140028065Y-99997617D01*
X140011300Y-99989804D01*
X139987740Y-99971344D01*
X139955297Y-99940735D01*
X139911882Y-99896480D01*
X139908558Y-99893035D01*
X139865297Y-99850036D01*
X139819893Y-99807724D01*
X139777544Y-99770803D01*
X139743448Y-99743980D01*
X139731458Y-99735274D01*
X139700855Y-99711806D01*
X139678348Y-99692716D01*
X139668129Y-99681480D01*
X139665486Y-99666449D01*
X139673740Y-99647192D01*
X139692510Y-99638980D01*
X139708589Y-99644001D01*
G37*
G36*
X129169429Y-104953555D02*
G01*
X129176299Y-104957978D01*
X129179855Y-104966116D01*
X129179878Y-104981127D01*
X129176147Y-105006168D01*
X129168442Y-105044400D01*
X129156541Y-105098980D01*
X129152939Y-105117603D01*
X129145570Y-105173923D01*
X129140291Y-105242787D01*
X129137553Y-105318980D01*
X129137161Y-105341124D01*
X129136167Y-105389871D01*
X129135175Y-105429411D01*
X129134280Y-105456146D01*
X129133581Y-105466480D01*
X129126982Y-105468080D01*
X129107953Y-105468980D01*
X129098623Y-105468423D01*
X129090029Y-105463901D01*
X129084592Y-105451398D01*
X129080827Y-105426921D01*
X129077246Y-105386480D01*
X129077067Y-105384164D01*
X129075358Y-105324271D01*
X129077577Y-105252648D01*
X129083185Y-105176713D01*
X129091639Y-105103889D01*
X129102398Y-105041594D01*
X129111002Y-105009679D01*
X129127260Y-104973967D01*
X129146336Y-104954233D01*
X129166778Y-104952489D01*
X129169429Y-104953555D01*
G37*
G36*
X128951307Y-105304429D02*
G01*
X128960511Y-105308589D01*
X128966374Y-105320535D01*
X128970549Y-105344315D01*
X128974686Y-105383980D01*
X128976604Y-105400987D01*
X128984579Y-105452790D01*
X128995680Y-105510324D01*
X129008124Y-105563980D01*
X129017160Y-105599028D01*
X129028706Y-105644370D01*
X129036230Y-105675549D01*
X129040353Y-105695823D01*
X129041693Y-105708452D01*
X129040870Y-105716696D01*
X129038503Y-105723813D01*
X129035104Y-105729991D01*
X129019084Y-105738490D01*
X128999813Y-105733292D01*
X128984575Y-105715515D01*
X128983515Y-105713140D01*
X128969290Y-105673092D01*
X128954800Y-105619561D01*
X128941260Y-105558533D01*
X128929888Y-105495998D01*
X128921901Y-105437944D01*
X128918513Y-105390358D01*
X128918462Y-105387326D01*
X128918025Y-105346848D01*
X128919095Y-105322201D01*
X128922743Y-105309460D01*
X128930040Y-105304695D01*
X128942055Y-105303980D01*
X128951307Y-105304429D01*
G37*
G36*
X131751417Y-97951312D02*
G01*
X131766597Y-97961303D01*
X131766540Y-97980602D01*
X131750985Y-98010100D01*
X131719674Y-98050687D01*
X131697010Y-98076175D01*
X131635740Y-98135856D01*
X131566744Y-98192696D01*
X131493951Y-98244050D01*
X131421288Y-98287271D01*
X131352680Y-98319716D01*
X131292055Y-98338738D01*
X131283901Y-98340292D01*
X131232833Y-98345108D01*
X131179274Y-98343142D01*
X131126436Y-98335385D01*
X131077534Y-98322826D01*
X131035779Y-98306453D01*
X131004384Y-98287257D01*
X130986563Y-98266227D01*
X130985529Y-98244352D01*
X130993365Y-98233587D01*
X131010593Y-98230191D01*
X131038834Y-98237628D01*
X131080763Y-98256232D01*
X131140717Y-98277271D01*
X131214391Y-98283718D01*
X131292680Y-98271509D01*
X131374931Y-98240899D01*
X131460487Y-98192138D01*
X131548694Y-98125481D01*
X131638895Y-98041178D01*
X131665155Y-98014824D01*
X131704879Y-97977814D01*
X131732701Y-97956494D01*
X131748780Y-97950734D01*
X131751417Y-97951312D01*
G37*
G36*
X129898926Y-110779000D02*
G01*
X129981263Y-110779212D01*
X130046493Y-110779726D01*
X130096576Y-110780631D01*
X130133476Y-110782014D01*
X130159154Y-110783964D01*
X130175575Y-110786571D01*
X130184698Y-110789922D01*
X130188488Y-110794107D01*
X130189669Y-110804478D01*
X130181950Y-110824107D01*
X130181576Y-110824534D01*
X130175086Y-110828662D01*
X130162715Y-110831945D01*
X130142447Y-110834473D01*
X130112265Y-110836338D01*
X130070152Y-110837630D01*
X130014090Y-110838440D01*
X129942064Y-110838860D01*
X129852055Y-110838980D01*
X129781688Y-110838925D01*
X129702347Y-110838557D01*
X129639810Y-110837629D01*
X129592234Y-110835901D01*
X129557781Y-110833132D01*
X129534611Y-110829082D01*
X129520882Y-110823509D01*
X129514757Y-110816173D01*
X129514393Y-110806833D01*
X129517953Y-110795247D01*
X129520494Y-110791478D01*
X129527262Y-110787753D01*
X129539970Y-110784841D01*
X129560627Y-110782644D01*
X129591241Y-110781065D01*
X129633821Y-110780007D01*
X129690375Y-110779371D01*
X129762911Y-110779061D01*
X129853439Y-110778980D01*
X129898926Y-110779000D01*
G37*
G36*
X129099674Y-99884323D02*
G01*
X129107529Y-99892936D01*
X129115359Y-99907156D01*
X129114483Y-99921445D01*
X129101204Y-99935926D01*
X129073390Y-99952806D01*
X129028906Y-99974294D01*
X128978329Y-99996583D01*
X128841596Y-100049295D01*
X128699357Y-100094355D01*
X128558328Y-100129769D01*
X128425220Y-100153544D01*
X128350954Y-100161705D01*
X128194032Y-100167847D01*
X128030523Y-100160805D01*
X127865585Y-100141099D01*
X127704376Y-100109247D01*
X127552055Y-100065767D01*
X127531174Y-100058643D01*
X127493599Y-100044661D01*
X127470456Y-100033377D01*
X127458342Y-100022907D01*
X127453854Y-100011365D01*
X127453685Y-100010102D01*
X127455194Y-99993350D01*
X127466368Y-99984830D01*
X127489372Y-99984485D01*
X127526372Y-99992259D01*
X127579533Y-100008094D01*
X127710704Y-100045772D01*
X127899428Y-100084270D01*
X128086472Y-100103400D01*
X128272671Y-100103102D01*
X128458860Y-100083318D01*
X128645873Y-100043990D01*
X128834547Y-99985058D01*
X129025716Y-99906463D01*
X129045223Y-99897584D01*
X129073071Y-99885894D01*
X129089705Y-99881724D01*
X129099674Y-99884323D01*
G37*
G36*
X133236401Y-97483110D02*
G01*
X133249184Y-97495920D01*
X133250784Y-97503410D01*
X133248785Y-97532796D01*
X133239223Y-97574475D01*
X133223275Y-97624555D01*
X133202120Y-97679149D01*
X133176937Y-97734367D01*
X133166489Y-97754822D01*
X133110462Y-97844813D01*
X133047107Y-97916545D01*
X132976620Y-97969828D01*
X132899195Y-98004472D01*
X132872910Y-98011300D01*
X132795332Y-98018160D01*
X132709297Y-98008363D01*
X132616170Y-97982252D01*
X132517315Y-97940170D01*
X132414097Y-97882460D01*
X132381624Y-97861428D01*
X132357551Y-97842928D01*
X132345962Y-97828537D01*
X132343999Y-97815524D01*
X132348351Y-97801643D01*
X132360924Y-97793184D01*
X132383095Y-97796212D01*
X132416840Y-97811099D01*
X132464135Y-97838218D01*
X132508043Y-97863702D01*
X132605315Y-97910402D01*
X132696367Y-97940144D01*
X132780375Y-97952768D01*
X132856513Y-97948119D01*
X132923956Y-97926037D01*
X132975691Y-97894517D01*
X133028984Y-97845943D01*
X133077028Y-97782647D01*
X133120638Y-97703334D01*
X133160630Y-97606710D01*
X133197821Y-97491480D01*
X133201471Y-97485332D01*
X133217376Y-97479311D01*
X133236401Y-97483110D01*
G37*
G36*
X134769035Y-105961733D02*
G01*
X134801859Y-105986526D01*
X134845731Y-106026555D01*
X134887391Y-106065080D01*
X134953806Y-106120756D01*
X135017435Y-106167389D01*
X135075119Y-106202729D01*
X135123696Y-106224524D01*
X135153119Y-106232777D01*
X135220928Y-106240041D01*
X135290560Y-106230738D01*
X135363502Y-106204400D01*
X135441241Y-106160564D01*
X135525261Y-106098763D01*
X135536520Y-106089727D01*
X135578687Y-106057964D01*
X135608759Y-106039887D01*
X135628301Y-106035013D01*
X135638878Y-106042865D01*
X135642055Y-106062962D01*
X135638238Y-106077566D01*
X135624763Y-106096105D01*
X135599309Y-106120665D01*
X135559555Y-106153799D01*
X135550542Y-106160947D01*
X135480029Y-106211344D01*
X135409833Y-106252467D01*
X135343988Y-106282179D01*
X135286525Y-106298347D01*
X135285644Y-106298493D01*
X135212167Y-106303236D01*
X135138554Y-106292659D01*
X135063360Y-106266107D01*
X134985140Y-106222925D01*
X134902448Y-106162458D01*
X134813839Y-106084050D01*
X134809912Y-106080306D01*
X134768938Y-106039892D01*
X134741959Y-106010064D01*
X134727495Y-105989027D01*
X134724070Y-105974983D01*
X134724304Y-105973451D01*
X134731513Y-105955728D01*
X134746005Y-105951644D01*
X134769035Y-105961733D01*
G37*
G36*
X138019109Y-95921747D02*
G01*
X138024902Y-95929371D01*
X138026456Y-95940333D01*
X138021585Y-95957383D01*
X138009151Y-95984294D01*
X137988015Y-96024843D01*
X137968118Y-96060248D01*
X137936422Y-96112590D01*
X137901109Y-96167688D01*
X137866774Y-96218208D01*
X137856455Y-96232722D01*
X137746706Y-96374139D01*
X137630368Y-96500231D01*
X137505362Y-96612548D01*
X137369608Y-96712639D01*
X137221026Y-96802052D01*
X137057535Y-96882334D01*
X136877055Y-96955036D01*
X136856299Y-96962387D01*
X136814984Y-96975619D01*
X136780560Y-96984870D01*
X136758891Y-96988480D01*
X136745715Y-96988080D01*
X136734293Y-96981595D01*
X136733891Y-96962814D01*
X136734125Y-96961053D01*
X136737752Y-96949291D01*
X136747006Y-96939231D01*
X136765239Y-96928915D01*
X136795804Y-96916388D01*
X136842055Y-96899692D01*
X136901314Y-96877950D01*
X137039513Y-96820406D01*
X137171200Y-96756154D01*
X137291880Y-96687488D01*
X137397055Y-96616698D01*
X137462965Y-96564651D01*
X137570441Y-96466833D01*
X137674996Y-96356540D01*
X137772763Y-96238256D01*
X137859875Y-96116469D01*
X137932464Y-95995663D01*
X137951774Y-95961223D01*
X137972646Y-95929773D01*
X137989485Y-95913854D01*
X138004302Y-95911751D01*
X138019109Y-95921747D01*
G37*
G36*
X134795039Y-97013806D02*
G01*
X134801912Y-97031417D01*
X134794432Y-97060962D01*
X134772658Y-97101420D01*
X134722125Y-97167742D01*
X134648004Y-97235474D01*
X134559311Y-97291298D01*
X134457422Y-97334374D01*
X134343711Y-97363861D01*
X134314046Y-97368470D01*
X134256952Y-97373450D01*
X134185541Y-97375602D01*
X134097055Y-97375053D01*
X134041227Y-97373765D01*
X133987610Y-97371613D01*
X133945636Y-97368340D01*
X133910713Y-97363430D01*
X133878249Y-97356369D01*
X133843651Y-97346642D01*
X133820201Y-97339305D01*
X133776039Y-97322965D01*
X133748884Y-97307801D01*
X133736777Y-97292501D01*
X133737758Y-97275755D01*
X133739753Y-97271130D01*
X133746382Y-97263202D01*
X133758218Y-97260425D01*
X133778704Y-97263085D01*
X133811285Y-97271469D01*
X133859404Y-97285862D01*
X133882030Y-97292641D01*
X133911958Y-97300566D01*
X133940564Y-97306086D01*
X133972113Y-97309628D01*
X134010869Y-97311618D01*
X134061095Y-97312483D01*
X134127055Y-97312650D01*
X134143548Y-97312608D01*
X134229427Y-97310857D01*
X134300485Y-97305947D01*
X134361043Y-97297071D01*
X134415416Y-97283419D01*
X134467926Y-97264185D01*
X134522888Y-97238559D01*
X134546312Y-97225482D01*
X134599197Y-97188556D01*
X134651155Y-97143730D01*
X134696374Y-97096280D01*
X134729042Y-97051480D01*
X134739502Y-97035006D01*
X134758412Y-97014915D01*
X134778006Y-97008980D01*
X134795039Y-97013806D01*
G37*
G36*
X137715835Y-109149409D02*
G01*
X137732743Y-109156088D01*
X137736950Y-109173426D01*
X137728414Y-109202982D01*
X137707088Y-109246316D01*
X137668041Y-109314423D01*
X137613237Y-109399733D01*
X137558473Y-109473829D01*
X137505332Y-109534773D01*
X137455395Y-109580631D01*
X137410246Y-109609466D01*
X137379039Y-109621046D01*
X137343205Y-109626614D01*
X137296082Y-109626669D01*
X137234725Y-109618114D01*
X137180735Y-109596392D01*
X137130533Y-109559358D01*
X137080298Y-109504854D01*
X137066945Y-109487065D01*
X137040931Y-109447444D01*
X137013236Y-109400386D01*
X136985934Y-109349941D01*
X136961093Y-109300162D01*
X136940786Y-109255097D01*
X136927083Y-109218799D01*
X136922055Y-109195318D01*
X136922597Y-109183361D01*
X136929129Y-109171389D01*
X136947776Y-109170815D01*
X136961812Y-109175173D01*
X136974668Y-109187187D01*
X136988645Y-109210542D01*
X137006556Y-109248980D01*
X137049162Y-109337514D01*
X137096306Y-109417935D01*
X137143878Y-109481615D01*
X137191081Y-109527501D01*
X137237122Y-109554536D01*
X137242341Y-109556451D01*
X137302220Y-109567533D01*
X137360821Y-109559059D01*
X137415469Y-109531377D01*
X137442754Y-109507735D01*
X137480087Y-109467401D01*
X137521219Y-109416509D01*
X137563238Y-109358884D01*
X137603234Y-109298346D01*
X137638297Y-109238721D01*
X137644399Y-109227622D01*
X137666779Y-109189062D01*
X137683601Y-109165080D01*
X137697189Y-109152768D01*
X137709869Y-109149219D01*
X137715835Y-109149409D01*
G37*
G36*
X133764908Y-108024386D02*
G01*
X133774739Y-108029076D01*
X133785084Y-108041267D01*
X133797614Y-108063749D01*
X133813995Y-108099314D01*
X133835897Y-108150751D01*
X133844792Y-108171779D01*
X133889538Y-108269381D01*
X133933314Y-108349748D01*
X133977735Y-108415021D01*
X134024419Y-108467342D01*
X134074982Y-108508850D01*
X134131039Y-108541687D01*
X134170454Y-108558523D01*
X134232486Y-108572368D01*
X134292471Y-108568094D01*
X134354282Y-108545774D01*
X134387405Y-108526339D01*
X134439999Y-108485865D01*
X134496634Y-108433109D01*
X134554342Y-108371305D01*
X134610157Y-108303691D01*
X134661112Y-108233504D01*
X134704240Y-108163980D01*
X134720589Y-108136943D01*
X134740878Y-108111997D01*
X134757484Y-108103980D01*
X134775322Y-108110490D01*
X134780509Y-108130534D01*
X134772386Y-108163288D01*
X134751274Y-108207917D01*
X134717490Y-108263587D01*
X134671354Y-108329462D01*
X134624973Y-108389013D01*
X134551616Y-108470673D01*
X134478366Y-108537557D01*
X134406941Y-108588157D01*
X134339057Y-108620967D01*
X134316553Y-108627809D01*
X134246282Y-108635475D01*
X134171949Y-108624448D01*
X134094926Y-108595042D01*
X134016588Y-108547570D01*
X133968296Y-108504499D01*
X133916760Y-108440930D01*
X133865452Y-108360080D01*
X133815235Y-108263319D01*
X133766974Y-108152013D01*
X133766397Y-108150562D01*
X133747147Y-108098948D01*
X133737014Y-108062750D01*
X133735878Y-108039700D01*
X133743616Y-108027532D01*
X133760106Y-108023980D01*
X133764908Y-108024386D01*
G37*
G36*
X132612744Y-109017061D02*
G01*
X132626970Y-109036276D01*
X132642827Y-109070417D01*
X132661855Y-109121739D01*
X132662225Y-109122800D01*
X132699887Y-109219859D01*
X132741870Y-109308916D01*
X132786828Y-109388030D01*
X132833419Y-109455260D01*
X132880300Y-109508665D01*
X132926127Y-109546306D01*
X132969556Y-109566240D01*
X133004577Y-109571104D01*
X133063932Y-109565229D01*
X133122714Y-109543639D01*
X133151841Y-109524608D01*
X133194578Y-109487160D01*
X133241294Y-109437943D01*
X133289192Y-109380362D01*
X133335475Y-109317820D01*
X133377345Y-109253725D01*
X133412005Y-109191480D01*
X133421555Y-109172809D01*
X133442591Y-109136040D01*
X133458931Y-109115418D01*
X133472002Y-109108980D01*
X133479911Y-109109825D01*
X133494496Y-109121795D01*
X133496442Y-109146920D01*
X133486298Y-109183922D01*
X133464618Y-109231520D01*
X133431951Y-109288435D01*
X133388848Y-109353389D01*
X133335860Y-109425103D01*
X133276292Y-109495519D01*
X133208310Y-109559454D01*
X133141739Y-109604283D01*
X133077055Y-109629629D01*
X133073434Y-109630488D01*
X133007737Y-109637251D01*
X132945863Y-109625718D01*
X132886156Y-109595333D01*
X132826957Y-109545537D01*
X132797319Y-109513634D01*
X132752450Y-109455333D01*
X132710005Y-109386303D01*
X132668199Y-109303524D01*
X132625252Y-109203980D01*
X132612271Y-109171394D01*
X132590869Y-109113465D01*
X132578040Y-109070530D01*
X132573403Y-109040673D01*
X132576577Y-109021983D01*
X132587183Y-109012547D01*
X132598604Y-109010517D01*
X132612744Y-109017061D01*
G37*
G36*
X138704697Y-107752361D02*
G01*
X138711901Y-107772549D01*
X138711355Y-107779560D01*
X138702484Y-107812769D01*
X138684183Y-107857816D01*
X138658300Y-107911378D01*
X138626678Y-107970131D01*
X138591165Y-108030751D01*
X138553606Y-108089916D01*
X138515846Y-108144302D01*
X138479732Y-108190585D01*
X138440728Y-108231055D01*
X138390109Y-108271444D01*
X138338703Y-108301440D01*
X138291758Y-108317497D01*
X138282647Y-108318972D01*
X138244835Y-108322131D01*
X138212055Y-108321067D01*
X138162651Y-108307039D01*
X138107999Y-108278974D01*
X138053335Y-108240032D01*
X138003792Y-108193360D01*
X137982602Y-108168603D01*
X137947727Y-108121851D01*
X137914686Y-108071084D01*
X137886307Y-108021072D01*
X137865422Y-107976584D01*
X137854861Y-107942392D01*
X137852629Y-107920873D01*
X137858034Y-107910958D01*
X137875066Y-107908980D01*
X137883735Y-107909850D01*
X137895954Y-107916022D01*
X137909057Y-107930833D01*
X137925599Y-107957430D01*
X137948136Y-107998960D01*
X137988748Y-108068578D01*
X138042144Y-108140647D01*
X138097819Y-108196035D01*
X138154787Y-108234112D01*
X138212061Y-108254250D01*
X138268656Y-108255822D01*
X138323586Y-108238199D01*
X138351867Y-108220505D01*
X138398973Y-108179667D01*
X138448615Y-108124949D01*
X138498505Y-108059437D01*
X138546359Y-107986214D01*
X138589891Y-107908367D01*
X138626814Y-107828980D01*
X138626826Y-107828950D01*
X138642110Y-107794458D01*
X138656239Y-107766495D01*
X138666155Y-107751112D01*
X138668968Y-107748535D01*
X138687836Y-107743160D01*
X138704697Y-107752361D01*
G37*
G36*
X134812054Y-109224267D02*
G01*
X134823435Y-109237090D01*
X134837475Y-109262350D01*
X134856407Y-109303173D01*
X134906193Y-109404708D01*
X134960534Y-109495930D01*
X135017223Y-109573153D01*
X135075181Y-109635223D01*
X135133326Y-109680985D01*
X135190580Y-109709289D01*
X135245862Y-109718980D01*
X135249846Y-109718925D01*
X135305091Y-109707707D01*
X135362650Y-109677385D01*
X135421780Y-109628564D01*
X135481735Y-109561852D01*
X135541771Y-109477856D01*
X135557891Y-109452052D01*
X135587617Y-109400503D01*
X135614515Y-109349308D01*
X135634261Y-109306480D01*
X135636494Y-109301047D01*
X135652630Y-109264172D01*
X135665128Y-109242245D01*
X135676519Y-109231702D01*
X135689336Y-109228980D01*
X135704969Y-109232016D01*
X135718065Y-109243004D01*
X135718698Y-109256527D01*
X135710779Y-109286995D01*
X135694221Y-109328455D01*
X135670692Y-109377809D01*
X135641861Y-109431964D01*
X135609397Y-109487825D01*
X135574969Y-109542296D01*
X135540244Y-109592281D01*
X135506892Y-109634687D01*
X135468544Y-109674368D01*
X135414082Y-109718649D01*
X135357555Y-109753551D01*
X135304823Y-109775005D01*
X135263565Y-109782124D01*
X135198246Y-109777263D01*
X135132334Y-109753530D01*
X135066594Y-109711562D01*
X135001793Y-109651993D01*
X134938698Y-109575458D01*
X134878077Y-109482593D01*
X134820695Y-109374032D01*
X134818664Y-109369766D01*
X134793733Y-109313862D01*
X134779444Y-109272814D01*
X134775531Y-109244842D01*
X134781728Y-109228170D01*
X134797768Y-109221018D01*
X134801103Y-109220753D01*
X134812054Y-109224267D01*
G37*
G36*
X138206640Y-106771148D02*
G01*
X138223753Y-106779697D01*
X138229002Y-106798197D01*
X138222378Y-106828693D01*
X138203874Y-106873230D01*
X138182246Y-106915639D01*
X138135859Y-106992901D01*
X138079424Y-107074724D01*
X138016526Y-107156302D01*
X137950753Y-107232831D01*
X137885690Y-107299507D01*
X137812522Y-107363067D01*
X137744347Y-107409773D01*
X137678436Y-107441216D01*
X137612055Y-107458986D01*
X137580733Y-107463846D01*
X137540739Y-107467235D01*
X137502808Y-107465378D01*
X137456392Y-107458222D01*
X137393210Y-107441645D01*
X137306315Y-107403032D01*
X137220439Y-107347317D01*
X137137867Y-107276047D01*
X137060885Y-107190766D01*
X137052899Y-107180641D01*
X137020158Y-107136590D01*
X136986699Y-107088150D01*
X136954620Y-107038736D01*
X136926019Y-106991763D01*
X136902993Y-106950645D01*
X136887639Y-106918796D01*
X136882055Y-106899632D01*
X136885664Y-106881071D01*
X136898689Y-106870297D01*
X136917455Y-106873231D01*
X136937977Y-106888963D01*
X136956268Y-106916581D01*
X136983574Y-106968186D01*
X137030468Y-107042383D01*
X137085334Y-107117278D01*
X137144337Y-107188048D01*
X137203644Y-107249869D01*
X137259420Y-107297919D01*
X137335084Y-107346665D01*
X137419515Y-107382836D01*
X137503348Y-107400086D01*
X137585425Y-107398320D01*
X137664584Y-107377443D01*
X137739665Y-107337360D01*
X137799753Y-107290512D01*
X137867865Y-107226292D01*
X137936887Y-107151345D01*
X138003510Y-107069739D01*
X138064425Y-106985543D01*
X138116321Y-106902827D01*
X138155889Y-106825659D01*
X138165302Y-106805154D01*
X138178489Y-106782001D01*
X138190352Y-106771796D01*
X138204224Y-106770754D01*
X138206640Y-106771148D01*
G37*
G36*
X136838289Y-108035913D02*
G01*
X136848413Y-108049877D01*
X136846615Y-108077848D01*
X136832809Y-108120445D01*
X136806903Y-108178281D01*
X136798896Y-108194489D01*
X136748741Y-108287167D01*
X136694512Y-108374014D01*
X136637990Y-108452856D01*
X136580957Y-108521520D01*
X136525195Y-108577831D01*
X136472486Y-108619615D01*
X136424611Y-108644700D01*
X136424592Y-108644707D01*
X136395395Y-108651501D01*
X136354967Y-108656436D01*
X136312055Y-108658443D01*
X136306052Y-108658430D01*
X136247282Y-108653272D01*
X136193339Y-108638033D01*
X136142826Y-108611384D01*
X136094344Y-108571997D01*
X136046493Y-108518547D01*
X135997875Y-108449704D01*
X135947091Y-108364143D01*
X135892742Y-108260534D01*
X135886380Y-108247702D01*
X135864972Y-108202525D01*
X135848076Y-108163755D01*
X135837272Y-108135166D01*
X135834141Y-108120534D01*
X135840553Y-108110296D01*
X135860945Y-108103980D01*
X135868964Y-108105267D01*
X135879357Y-108111971D01*
X135891535Y-108126682D01*
X135907202Y-108151911D01*
X135928058Y-108190173D01*
X135955809Y-108243980D01*
X135982045Y-108294447D01*
X136031874Y-108383023D01*
X136078312Y-108454331D01*
X136122681Y-108509713D01*
X136166301Y-108550507D01*
X136210496Y-108578053D01*
X136256587Y-108593691D01*
X136305895Y-108598760D01*
X136334981Y-108598016D01*
X136380576Y-108591086D01*
X136420891Y-108574823D01*
X136461269Y-108546718D01*
X136507055Y-108504259D01*
X136556818Y-108450483D01*
X136622125Y-108366479D01*
X136684941Y-108268815D01*
X136747418Y-108154364D01*
X136761146Y-108127698D01*
X136785171Y-108083517D01*
X136803353Y-108054583D01*
X136817110Y-108038777D01*
X136827857Y-108033980D01*
X136838289Y-108035913D01*
G37*
G36*
X131764512Y-107921665D02*
G01*
X131776299Y-107930778D01*
X131778299Y-107937546D01*
X131785098Y-107961515D01*
X131794997Y-107996963D01*
X131806621Y-108038980D01*
X131813882Y-108063304D01*
X131833744Y-108120481D01*
X131857607Y-108180852D01*
X131881786Y-108234813D01*
X131882442Y-108236162D01*
X131909128Y-108288019D01*
X131933401Y-108327238D01*
X131959492Y-108359875D01*
X131991636Y-108391986D01*
X132014801Y-108412524D01*
X132058882Y-108444388D01*
X132098967Y-108460937D01*
X132139213Y-108463501D01*
X132183776Y-108453408D01*
X132203310Y-108445466D01*
X132253615Y-108414200D01*
X132308023Y-108367161D01*
X132364643Y-108306483D01*
X132421582Y-108234303D01*
X132476948Y-108152757D01*
X132528847Y-108063980D01*
X132548443Y-108028926D01*
X132568903Y-107996894D01*
X132584605Y-107979332D01*
X132597265Y-107973980D01*
X132609958Y-107977430D01*
X132620137Y-107995612D01*
X132620395Y-108000642D01*
X132613987Y-108029499D01*
X132597051Y-108069910D01*
X132571453Y-108118857D01*
X132539057Y-108173324D01*
X132501729Y-108230292D01*
X132461334Y-108286745D01*
X132419736Y-108339666D01*
X132378800Y-108386038D01*
X132329801Y-108434903D01*
X132287254Y-108470568D01*
X132246599Y-108496391D01*
X132203233Y-108515771D01*
X132178189Y-108522521D01*
X132124289Y-108525252D01*
X132068202Y-108515812D01*
X132018085Y-108495112D01*
X132014632Y-108493047D01*
X131963474Y-108453875D01*
X131912269Y-108400227D01*
X131865021Y-108336821D01*
X131825734Y-108268379D01*
X131823108Y-108262976D01*
X131794341Y-108198341D01*
X131768939Y-108131761D01*
X131748478Y-108068098D01*
X131734534Y-108012217D01*
X131728684Y-107968980D01*
X131728463Y-107961868D01*
X131729436Y-107937019D01*
X131735660Y-107925214D01*
X131749600Y-107920778D01*
X131764512Y-107921665D01*
G37*
G36*
X136224917Y-106851844D02*
G01*
X136237839Y-106862417D01*
X136238158Y-106863370D01*
X136236665Y-106884609D01*
X136225316Y-106919162D01*
X136205621Y-106964173D01*
X136179091Y-107016787D01*
X136147238Y-107074147D01*
X136111572Y-107133398D01*
X136073603Y-107191682D01*
X136034843Y-107246146D01*
X136024673Y-107259578D01*
X135951132Y-107348936D01*
X135874550Y-107429487D01*
X135797175Y-107499343D01*
X135721254Y-107556618D01*
X135649034Y-107599424D01*
X135582762Y-107625873D01*
X135581998Y-107626086D01*
X135547230Y-107632190D01*
X135501103Y-107635676D01*
X135451916Y-107635905D01*
X135440756Y-107635496D01*
X135398205Y-107632521D01*
X135364443Y-107626149D01*
X135330772Y-107614168D01*
X135288496Y-107594366D01*
X135208569Y-107545881D01*
X135125423Y-107476040D01*
X135044562Y-107388056D01*
X134966855Y-107282878D01*
X134893168Y-107161456D01*
X134891303Y-107158071D01*
X134863425Y-107104188D01*
X134847312Y-107064766D01*
X134842701Y-107038376D01*
X134849328Y-107023591D01*
X134866930Y-107018980D01*
X134881006Y-107021750D01*
X134893924Y-107032413D01*
X134908644Y-107054484D01*
X134928134Y-107091480D01*
X134948111Y-107129748D01*
X135006564Y-107228014D01*
X135070889Y-107319282D01*
X135136721Y-107397153D01*
X135208736Y-107465115D01*
X135287592Y-107520978D01*
X135366505Y-107557999D01*
X135444766Y-107575940D01*
X135521666Y-107574557D01*
X135596495Y-107553610D01*
X135597083Y-107553363D01*
X135668168Y-107515521D01*
X135743181Y-107461246D01*
X135819851Y-107393093D01*
X135895904Y-107313613D01*
X135969067Y-107225362D01*
X136037068Y-107130892D01*
X136097633Y-107032756D01*
X136148490Y-106933508D01*
X136153156Y-106923372D01*
X136171447Y-106886009D01*
X136185415Y-106863348D01*
X136197431Y-106852124D01*
X136209869Y-106849072D01*
X136224917Y-106851844D01*
G37*
G36*
X131912780Y-110734006D02*
G01*
X132019703Y-110734165D01*
X132109268Y-110734564D01*
X132182914Y-110735309D01*
X132242080Y-110736506D01*
X132288205Y-110738260D01*
X132322728Y-110740678D01*
X132347088Y-110743866D01*
X132362724Y-110747930D01*
X132371074Y-110752976D01*
X132373579Y-110759109D01*
X132371678Y-110766436D01*
X132366808Y-110775063D01*
X132366130Y-110775972D01*
X132361245Y-110779225D01*
X132351676Y-110781991D01*
X132335890Y-110784320D01*
X132312356Y-110786260D01*
X132279543Y-110787860D01*
X132235919Y-110789169D01*
X132179952Y-110790235D01*
X132110112Y-110791107D01*
X132024866Y-110791835D01*
X131922684Y-110792467D01*
X131802033Y-110793051D01*
X131768647Y-110793206D01*
X131640989Y-110793963D01*
X131530896Y-110794939D01*
X131436404Y-110796187D01*
X131355548Y-110797761D01*
X131286363Y-110799712D01*
X131226886Y-110802095D01*
X131175152Y-110804962D01*
X131129197Y-110808366D01*
X131087055Y-110812360D01*
X131007056Y-110821300D01*
X130816441Y-110847229D01*
X130643268Y-110877803D01*
X130488240Y-110912886D01*
X130352055Y-110952347D01*
X130342348Y-110955499D01*
X130288704Y-110970838D01*
X130250819Y-110977143D01*
X130226954Y-110974553D01*
X130215374Y-110963204D01*
X130213838Y-110957947D01*
X130215713Y-110944995D01*
X130228041Y-110932540D01*
X130253070Y-110919283D01*
X130293045Y-110903923D01*
X130350213Y-110885161D01*
X130398443Y-110870742D01*
X130531023Y-110837164D01*
X130681338Y-110806806D01*
X130847913Y-110779982D01*
X130884368Y-110774831D01*
X130951596Y-110765846D01*
X131015062Y-110758256D01*
X131077144Y-110751948D01*
X131140216Y-110746808D01*
X131206656Y-110742722D01*
X131278839Y-110739577D01*
X131359140Y-110737259D01*
X131449937Y-110735653D01*
X131553603Y-110734648D01*
X131672517Y-110734128D01*
X131809053Y-110733980D01*
X131912780Y-110734006D01*
G37*
G36*
X133879223Y-106985732D02*
G01*
X133889965Y-106999561D01*
X133886487Y-107027212D01*
X133868773Y-107068749D01*
X133836809Y-107124240D01*
X133834436Y-107128024D01*
X133767517Y-107228431D01*
X133695844Y-107324968D01*
X133621353Y-107415623D01*
X133545976Y-107498381D01*
X133471648Y-107571227D01*
X133400301Y-107632148D01*
X133333871Y-107679129D01*
X133274290Y-107710156D01*
X133258120Y-107716067D01*
X133226500Y-107723536D01*
X133188358Y-107726626D01*
X133137055Y-107726109D01*
X133111352Y-107725064D01*
X133072708Y-107721828D01*
X133042146Y-107715309D01*
X133011809Y-107703497D01*
X132973839Y-107684385D01*
X132966592Y-107680483D01*
X132886439Y-107627425D01*
X132804902Y-107555975D01*
X132723100Y-107467450D01*
X132642154Y-107363168D01*
X132563186Y-107244446D01*
X132487315Y-107112599D01*
X132482397Y-107103275D01*
X132462798Y-107060230D01*
X132456132Y-107030961D01*
X132462329Y-107014276D01*
X132481320Y-107008980D01*
X132485030Y-107009377D01*
X132505113Y-107023102D01*
X132528099Y-107056480D01*
X132545902Y-107087858D01*
X132583021Y-107152535D01*
X132613824Y-107204705D01*
X132640570Y-107247963D01*
X132665519Y-107285902D01*
X132690929Y-107322117D01*
X132719062Y-107360200D01*
X132745623Y-107394328D01*
X132810630Y-107469277D01*
X132877515Y-107535568D01*
X132942908Y-107590013D01*
X133003440Y-107629419D01*
X133010343Y-107633130D01*
X133043798Y-107649568D01*
X133072168Y-107658840D01*
X133103804Y-107662951D01*
X133147055Y-107663907D01*
X133191072Y-107662233D01*
X133233563Y-107655449D01*
X133273368Y-107641815D01*
X133313559Y-107619606D01*
X133357210Y-107587100D01*
X133407393Y-107542573D01*
X133467181Y-107484300D01*
X133468278Y-107483200D01*
X133587414Y-107355184D01*
X133692749Y-107222908D01*
X133790174Y-107078980D01*
X133803143Y-107058648D01*
X133832226Y-107016714D01*
X133853791Y-106992050D01*
X133868395Y-106983980D01*
X133879223Y-106985732D01*
G37*
G36*
X137126775Y-100693047D02*
G01*
X137194197Y-100838715D01*
X137242779Y-100985199D01*
X137272179Y-101131458D01*
X137282055Y-101276451D01*
X137279646Y-101345550D01*
X137265196Y-101449625D01*
X137238020Y-101540123D01*
X137198482Y-101616405D01*
X137146947Y-101677833D01*
X137083779Y-101723771D01*
X137009344Y-101753581D01*
X136997051Y-101756775D01*
X136944705Y-101766402D01*
X136895960Y-101766644D01*
X136840048Y-101757768D01*
X136782328Y-101741915D01*
X136687996Y-101700828D01*
X136595175Y-101642357D01*
X136505358Y-101568114D01*
X136420037Y-101479711D01*
X136340707Y-101378759D01*
X136268859Y-101266870D01*
X136205988Y-101145656D01*
X136153585Y-101016728D01*
X136133737Y-100954544D01*
X136107723Y-100842996D01*
X136092977Y-100731231D01*
X136089528Y-100622575D01*
X136097408Y-100520355D01*
X136116649Y-100427898D01*
X136119882Y-100419521D01*
X136560257Y-100419521D01*
X136561698Y-100438302D01*
X136576834Y-100493363D01*
X136605626Y-100549533D01*
X136644603Y-100601859D01*
X136690296Y-100645382D01*
X136739234Y-100675148D01*
X136742566Y-100676545D01*
X136791203Y-100688667D01*
X136834350Y-100684094D01*
X136868821Y-100663123D01*
X136879433Y-100651680D01*
X136888799Y-100635335D01*
X136891542Y-100613847D01*
X136889476Y-100579899D01*
X136877501Y-100518727D01*
X136849329Y-100458722D01*
X136803337Y-100401494D01*
X136790684Y-100389049D01*
X136743206Y-100351959D01*
X136696619Y-100328977D01*
X136653300Y-100319927D01*
X136615627Y-100324633D01*
X136585978Y-100342918D01*
X136566728Y-100374606D01*
X136560257Y-100419521D01*
X136119882Y-100419521D01*
X136147283Y-100348531D01*
X136154056Y-100335671D01*
X136202260Y-100265710D01*
X136260400Y-100212411D01*
X136327213Y-100175973D01*
X136401435Y-100156597D01*
X136481802Y-100154481D01*
X136567051Y-100169827D01*
X136655918Y-100202833D01*
X136747139Y-100253700D01*
X136761168Y-100263348D01*
X136807399Y-100300119D01*
X136859664Y-100347327D01*
X136913751Y-100400707D01*
X136965449Y-100455993D01*
X137010545Y-100508919D01*
X137044828Y-100555219D01*
X137079686Y-100613847D01*
X137126775Y-100693047D01*
G37*
G36*
X132312682Y-102527573D02*
G01*
X132355592Y-102649814D01*
X132388824Y-102778980D01*
X132396762Y-102826514D01*
X132403727Y-102897728D01*
X132407337Y-102976584D01*
X132407597Y-103057610D01*
X132404512Y-103135333D01*
X132398089Y-103204280D01*
X132388332Y-103258980D01*
X132356395Y-103359540D01*
X132313049Y-103448138D01*
X132259638Y-103520557D01*
X132196615Y-103576188D01*
X132124429Y-103614424D01*
X132113544Y-103617938D01*
X132066150Y-103625098D01*
X132000450Y-103625819D01*
X131988509Y-103625380D01*
X131945510Y-103622387D01*
X131911523Y-103616032D01*
X131877764Y-103604113D01*
X131835450Y-103584426D01*
X131829704Y-103581576D01*
X131789319Y-103559223D01*
X131752165Y-103533354D01*
X131712990Y-103499942D01*
X131666542Y-103454963D01*
X131657983Y-103446275D01*
X131567152Y-103341509D01*
X131490472Y-103227328D01*
X131426941Y-103101777D01*
X131375558Y-102962899D01*
X131335318Y-102808740D01*
X131330677Y-102783751D01*
X131323184Y-102722200D01*
X131318391Y-102650792D01*
X131316302Y-102574472D01*
X131316918Y-102498186D01*
X131320244Y-102426878D01*
X131326281Y-102365494D01*
X131335034Y-102318980D01*
X131335124Y-102318644D01*
X131346255Y-102286067D01*
X131821470Y-102286067D01*
X131832694Y-102335652D01*
X131855049Y-102386472D01*
X131887184Y-102435180D01*
X131927749Y-102478428D01*
X131975395Y-102512867D01*
X132017413Y-102533133D01*
X132063802Y-102543709D01*
X132101759Y-102536653D01*
X132131856Y-102511962D01*
X132135631Y-102506762D01*
X132150492Y-102467713D01*
X132150377Y-102420413D01*
X132136122Y-102368166D01*
X132108564Y-102314274D01*
X132068540Y-102262037D01*
X132063166Y-102256255D01*
X132014144Y-102212118D01*
X131965860Y-102183123D01*
X131920430Y-102169924D01*
X131879971Y-102173173D01*
X131846601Y-102193525D01*
X131837815Y-102203994D01*
X131822727Y-102241065D01*
X131821470Y-102286067D01*
X131346255Y-102286067D01*
X131369389Y-102218363D01*
X131413594Y-102132565D01*
X131466870Y-102062195D01*
X131528346Y-102008195D01*
X131597153Y-101971511D01*
X131672419Y-101953086D01*
X131676319Y-101952663D01*
X131755789Y-101954318D01*
X131835688Y-101974549D01*
X131914894Y-102012063D01*
X131992284Y-102065564D01*
X132066734Y-102133759D01*
X132137122Y-102215351D01*
X132202325Y-102309048D01*
X132261219Y-102413553D01*
X132285664Y-102467713D01*
X132312682Y-102527573D01*
G37*
G36*
X143182166Y-110205110D02*
G01*
X143192570Y-110207452D01*
X143198375Y-110211013D01*
X143201148Y-110214243D01*
X143207123Y-110233298D01*
X143201742Y-110251110D01*
X143187056Y-110258980D01*
X143184842Y-110259089D01*
X143165895Y-110260658D01*
X143130481Y-110263895D01*
X143081174Y-110268556D01*
X143020546Y-110274395D01*
X142951173Y-110281167D01*
X142875626Y-110288628D01*
X142691074Y-110306736D01*
X142392003Y-110335039D01*
X142106120Y-110360686D01*
X141829304Y-110384021D01*
X141557435Y-110405385D01*
X141286392Y-110425122D01*
X141012055Y-110443573D01*
X140956942Y-110447127D01*
X140689589Y-110464164D01*
X140441121Y-110479632D01*
X140210661Y-110493579D01*
X139997336Y-110506055D01*
X139800267Y-110517111D01*
X139618581Y-110526794D01*
X139451401Y-110535154D01*
X139297851Y-110542241D01*
X139157055Y-110548104D01*
X139086864Y-110550839D01*
X139012397Y-110553652D01*
X138954147Y-110555634D01*
X138909992Y-110556760D01*
X138877808Y-110557003D01*
X138855473Y-110556340D01*
X138840863Y-110554744D01*
X138831857Y-110552190D01*
X138826330Y-110548653D01*
X138822161Y-110544107D01*
X138816402Y-110533946D01*
X138815227Y-110515138D01*
X138815370Y-110514784D01*
X138818411Y-110510867D01*
X138825047Y-110507435D01*
X138836919Y-110504368D01*
X138855665Y-110501548D01*
X138882924Y-110498856D01*
X138920336Y-110496172D01*
X138969540Y-110493378D01*
X139032174Y-110490355D01*
X139109879Y-110486984D01*
X139204293Y-110483145D01*
X139317055Y-110478720D01*
X139365957Y-110476783D01*
X139449807Y-110473273D01*
X139535203Y-110469437D01*
X139623984Y-110465174D01*
X139717993Y-110460383D01*
X139819070Y-110454962D01*
X139929056Y-110448808D01*
X140049792Y-110441820D01*
X140183119Y-110433896D01*
X140330878Y-110424934D01*
X140494910Y-110414832D01*
X140677055Y-110403489D01*
X140784179Y-110396746D01*
X140988209Y-110383619D01*
X141178061Y-110370955D01*
X141357138Y-110358481D01*
X141528847Y-110345926D01*
X141696591Y-110333016D01*
X141863778Y-110319480D01*
X142033810Y-110305045D01*
X142210095Y-110289439D01*
X142396035Y-110272389D01*
X142595038Y-110253624D01*
X142810507Y-110232870D01*
X142822172Y-110231738D01*
X142917567Y-110222580D01*
X142995163Y-110215384D01*
X143056847Y-110210043D01*
X143104503Y-110206452D01*
X143140018Y-110204503D01*
X143165277Y-110204091D01*
X143182166Y-110205110D01*
G37*
G36*
X138264511Y-104890778D02*
G01*
X138264814Y-104890822D01*
X138279140Y-104896145D01*
X138286641Y-104910348D01*
X138290286Y-104938980D01*
X138290974Y-104956653D01*
X138289048Y-105010256D01*
X138282725Y-105074325D01*
X138272842Y-105142680D01*
X138260237Y-105209140D01*
X138245748Y-105267525D01*
X138228935Y-105320191D01*
X138188438Y-105415059D01*
X138139732Y-105492141D01*
X138082512Y-105551876D01*
X138016470Y-105594704D01*
X138010904Y-105597401D01*
X137981985Y-105609753D01*
X137955453Y-105616397D01*
X137923879Y-105618571D01*
X137879833Y-105617517D01*
X137809943Y-105609229D01*
X137745741Y-105588635D01*
X137684619Y-105553627D01*
X137621653Y-105502002D01*
X137621347Y-105501719D01*
X137588336Y-105473154D01*
X137567059Y-105459290D01*
X137558040Y-105460470D01*
X137555752Y-105467878D01*
X137527469Y-105555812D01*
X137501528Y-105628182D01*
X137476241Y-105688703D01*
X137449923Y-105741093D01*
X137420885Y-105789069D01*
X137387442Y-105836347D01*
X137358625Y-105872017D01*
X137276502Y-105952281D01*
X137181833Y-106019064D01*
X137077715Y-106070390D01*
X136967245Y-106104284D01*
X136941556Y-106108756D01*
X136891842Y-106114060D01*
X136835501Y-106117299D01*
X136779139Y-106118273D01*
X136729362Y-106116781D01*
X136692772Y-106112623D01*
X136677142Y-106108636D01*
X136664928Y-106099005D01*
X136664022Y-106080123D01*
X136667055Y-106053980D01*
X136767055Y-106057340D01*
X136832540Y-106057339D01*
X136926731Y-106047287D01*
X137016047Y-106023588D01*
X137107670Y-105984710D01*
X137180536Y-105942926D01*
X137265696Y-105875322D01*
X137339104Y-105792808D01*
X137401189Y-105694785D01*
X137452384Y-105580655D01*
X137493119Y-105449819D01*
X137498109Y-105430938D01*
X137511116Y-105391014D01*
X137525229Y-105367522D01*
X137542877Y-105360173D01*
X137566489Y-105368674D01*
X137598497Y-105392734D01*
X137641329Y-105432064D01*
X137701536Y-105484718D01*
X137758269Y-105522882D01*
X137812692Y-105546385D01*
X137867966Y-105556971D01*
X137875213Y-105557473D01*
X137942834Y-105551914D01*
X138004522Y-105527872D01*
X138059803Y-105486046D01*
X138108199Y-105427137D01*
X138149234Y-105351845D01*
X138182432Y-105260869D01*
X138207316Y-105154910D01*
X138223410Y-105034669D01*
X138227165Y-104993619D01*
X138231662Y-104948616D01*
X138235744Y-104918632D01*
X138240239Y-104900762D01*
X138245979Y-104892100D01*
X138253793Y-104889741D01*
X138264511Y-104890778D01*
G37*
G36*
X142868116Y-110469312D02*
G01*
X142905858Y-110472010D01*
X142929013Y-110477152D01*
X142938737Y-110484755D01*
X142940830Y-110491632D01*
X142939831Y-110504094D01*
X142929489Y-110513616D01*
X142907671Y-110520753D01*
X142872247Y-110526060D01*
X142821085Y-110530094D01*
X142752055Y-110533409D01*
X142654166Y-110538035D01*
X142557894Y-110543934D01*
X142465329Y-110550871D01*
X142378505Y-110558613D01*
X142299456Y-110566927D01*
X142230217Y-110575581D01*
X142172823Y-110584341D01*
X142129309Y-110592975D01*
X142101708Y-110601250D01*
X142092055Y-110608933D01*
X142092385Y-110609935D01*
X142104896Y-110616732D01*
X142132755Y-110625189D01*
X142172183Y-110634481D01*
X142219397Y-110643783D01*
X142270615Y-110652270D01*
X142322055Y-110659116D01*
X142325230Y-110659455D01*
X142358593Y-110661728D01*
X142408993Y-110663758D01*
X142473831Y-110665531D01*
X142550510Y-110667034D01*
X142636432Y-110668254D01*
X142729000Y-110669179D01*
X142825615Y-110669796D01*
X142923680Y-110670092D01*
X143020598Y-110670055D01*
X143113771Y-110669671D01*
X143200600Y-110668927D01*
X143278490Y-110667812D01*
X143344840Y-110666311D01*
X143397055Y-110664413D01*
X143416407Y-110663551D01*
X143462758Y-110661677D01*
X143524691Y-110659325D01*
X143599463Y-110656593D01*
X143684329Y-110653579D01*
X143776546Y-110650382D01*
X143873370Y-110647100D01*
X143972055Y-110643831D01*
X144043694Y-110641463D01*
X144135721Y-110638349D01*
X144221370Y-110635372D01*
X144298374Y-110632613D01*
X144364464Y-110630156D01*
X144417369Y-110628085D01*
X144454823Y-110626481D01*
X144474555Y-110625430D01*
X144522055Y-110621915D01*
X144522055Y-110655447D01*
X144522055Y-110688980D01*
X144453978Y-110688980D01*
X144450352Y-110688997D01*
X144421423Y-110689544D01*
X144375675Y-110690797D01*
X144315731Y-110692669D01*
X144244215Y-110695071D01*
X144163752Y-110697916D01*
X144076965Y-110701117D01*
X143986478Y-110704586D01*
X143920362Y-110707108D01*
X143807864Y-110711173D01*
X143689162Y-110715229D01*
X143569493Y-110719106D01*
X143454094Y-110722638D01*
X143348202Y-110725655D01*
X143257055Y-110727991D01*
X143213178Y-110729025D01*
X143132007Y-110730926D01*
X143055920Y-110732693D01*
X142987900Y-110734257D01*
X142930928Y-110735550D01*
X142887985Y-110736503D01*
X142862055Y-110737048D01*
X142840609Y-110737091D01*
X142799036Y-110736512D01*
X142743875Y-110735321D01*
X142678646Y-110733604D01*
X142606866Y-110731447D01*
X142532055Y-110728937D01*
X142410843Y-110723540D01*
X142306814Y-110716346D01*
X142220355Y-110707168D01*
X142150271Y-110695763D01*
X142095368Y-110681890D01*
X142054453Y-110665307D01*
X142026331Y-110645771D01*
X142009808Y-110623040D01*
X142004685Y-110609011D01*
X142006864Y-110592847D01*
X142022741Y-110573883D01*
X142030136Y-110567615D01*
X142060584Y-110551521D01*
X142106660Y-110536786D01*
X142169088Y-110523292D01*
X142248598Y-110510920D01*
X142345916Y-110499548D01*
X142461769Y-110489057D01*
X142596885Y-110479328D01*
X142655835Y-110475689D01*
X142744259Y-110471169D01*
X142814635Y-110469037D01*
X142868116Y-110469312D01*
G37*
G36*
X143760016Y-104083098D02*
G01*
X143760083Y-104203523D01*
X143758996Y-104316374D01*
X143756700Y-104417807D01*
X143753140Y-104503980D01*
X143746344Y-104617203D01*
X143709089Y-105044442D01*
X143653759Y-105463908D01*
X143580106Y-105876725D01*
X143487885Y-106284016D01*
X143376846Y-106686906D01*
X143246743Y-107086519D01*
X143097328Y-107483980D01*
X143084624Y-107515580D01*
X143038652Y-107628449D01*
X142996608Y-107728705D01*
X142956254Y-107821298D01*
X142915349Y-107911174D01*
X142871655Y-108003281D01*
X142822933Y-108102567D01*
X142766943Y-108213980D01*
X142638941Y-108458109D01*
X142452888Y-108785167D01*
X142254845Y-109102104D01*
X142042830Y-109411910D01*
X141814863Y-109717576D01*
X141568962Y-110022093D01*
X141469987Y-110140207D01*
X141528521Y-110134445D01*
X141539590Y-110133424D01*
X141573569Y-110130532D01*
X141622991Y-110126497D01*
X141684953Y-110121550D01*
X141756552Y-110115921D01*
X141834887Y-110109841D01*
X141917055Y-110103541D01*
X142042571Y-110093796D01*
X142409742Y-110063305D01*
X142793190Y-110028607D01*
X143193716Y-109989625D01*
X143612124Y-109946281D01*
X144049214Y-109898499D01*
X144116342Y-109890999D01*
X144204530Y-109881206D01*
X144285335Y-109872300D01*
X144356675Y-109864507D01*
X144416468Y-109858052D01*
X144462633Y-109853162D01*
X144493087Y-109850063D01*
X144505748Y-109848980D01*
X144511153Y-109850723D01*
X144519140Y-109866047D01*
X144523590Y-109898986D01*
X144524439Y-109917103D01*
X144523871Y-109940026D01*
X144521101Y-109948986D01*
X144518797Y-109949177D01*
X144500243Y-109951131D01*
X144465307Y-109954973D01*
X144416458Y-109960427D01*
X144356162Y-109967217D01*
X144286888Y-109975066D01*
X144211101Y-109983699D01*
X143935874Y-110014658D01*
X143559723Y-110055333D01*
X143191718Y-110093101D01*
X142829301Y-110128159D01*
X142469916Y-110160702D01*
X142111004Y-110190929D01*
X141750009Y-110219035D01*
X141384372Y-110245219D01*
X141011536Y-110269675D01*
X140628944Y-110292602D01*
X140234038Y-110314197D01*
X139824261Y-110334655D01*
X139397055Y-110354174D01*
X139333295Y-110356977D01*
X139130605Y-110366067D01*
X139016933Y-110371314D01*
X138922716Y-110375663D01*
X138707168Y-110385884D01*
X138481500Y-110396848D01*
X138243252Y-110408676D01*
X137989962Y-110421485D01*
X137719170Y-110435397D01*
X137591285Y-110442011D01*
X137599170Y-110487995D01*
X137601018Y-110503639D01*
X137603403Y-110540254D01*
X137605292Y-110589333D01*
X137606527Y-110646412D01*
X137606949Y-110707029D01*
X137606910Y-110770104D01*
X137606853Y-110862482D01*
X137606842Y-110880078D01*
X138086949Y-110874393D01*
X138125461Y-110873945D01*
X138254860Y-110872546D01*
X138396964Y-110871151D01*
X138550889Y-110869764D01*
X138715751Y-110868389D01*
X138890666Y-110867028D01*
X139074750Y-110865685D01*
X139267120Y-110864363D01*
X139466891Y-110863065D01*
X139673179Y-110861794D01*
X139885101Y-110860554D01*
X140101773Y-110859348D01*
X140322310Y-110858178D01*
X140545830Y-110857048D01*
X140771447Y-110855962D01*
X140998278Y-110854922D01*
X141225440Y-110853932D01*
X141452047Y-110852994D01*
X141677217Y-110852113D01*
X141900066Y-110851291D01*
X142119709Y-110850531D01*
X142335263Y-110849837D01*
X142545843Y-110849211D01*
X142750567Y-110848658D01*
X142948549Y-110848180D01*
X143138906Y-110847780D01*
X143320754Y-110847462D01*
X143493210Y-110847228D01*
X143655389Y-110847082D01*
X143806407Y-110847028D01*
X143945381Y-110847068D01*
X144071427Y-110847205D01*
X144183660Y-110847444D01*
X144281197Y-110847786D01*
X144363153Y-110848235D01*
X144428646Y-110848795D01*
X144476791Y-110849468D01*
X144506704Y-110850257D01*
X144517502Y-110851167D01*
X144518436Y-110853934D01*
X144520970Y-110871424D01*
X144523439Y-110898980D01*
X144526639Y-110943980D01*
X143756847Y-110944054D01*
X143651612Y-110944132D01*
X143519316Y-110944368D01*
X143371752Y-110944751D01*
X143211395Y-110945270D01*
X143040720Y-110945914D01*
X142862201Y-110946671D01*
X142678314Y-110947531D01*
X142491533Y-110948483D01*
X142304334Y-110949514D01*
X142119190Y-110950615D01*
X141938577Y-110951775D01*
X141764969Y-110952981D01*
X140542883Y-110961833D01*
X140532964Y-110969468D01*
X140394969Y-111075689D01*
X140266438Y-111173291D01*
X139949616Y-111402475D01*
X139634484Y-111614221D01*
X139321824Y-111808037D01*
X139012421Y-111983430D01*
X138707055Y-112139906D01*
X138604070Y-112189093D01*
X138199749Y-112368662D01*
X137790506Y-112529111D01*
X137376747Y-112670338D01*
X136958877Y-112792241D01*
X136537301Y-112894721D01*
X136112426Y-112977676D01*
X135684656Y-113041004D01*
X135254398Y-113084605D01*
X134822055Y-113108377D01*
X134735393Y-113110716D01*
X134317906Y-113110265D01*
X133897638Y-113090744D01*
X133476248Y-113052440D01*
X133055390Y-112995644D01*
X132636720Y-112920645D01*
X132221896Y-112827731D01*
X131812573Y-112717191D01*
X131410408Y-112589314D01*
X131017055Y-112444391D01*
X130765415Y-112340427D01*
X130400774Y-112173447D01*
X130041708Y-111989681D01*
X129692055Y-111791021D01*
X129673444Y-111779960D01*
X129630222Y-111754823D01*
X129594052Y-111734547D01*
X129568276Y-111720978D01*
X129556238Y-111715965D01*
X129545174Y-111720888D01*
X129519419Y-111734961D01*
X129481313Y-111756825D01*
X129433190Y-111785123D01*
X129377387Y-111818496D01*
X129316238Y-111855585D01*
X129232875Y-111906205D01*
X129059029Y-112009645D01*
X128896637Y-112102988D01*
X128742740Y-112187763D01*
X128594377Y-112265496D01*
X128448587Y-112337717D01*
X128302410Y-112405953D01*
X128152887Y-112471734D01*
X127997055Y-112536586D01*
X127945600Y-112557083D01*
X127800871Y-112611259D01*
X127648132Y-112663915D01*
X127491676Y-112713770D01*
X127335798Y-112759542D01*
X127184792Y-112799950D01*
X127042953Y-112833713D01*
X126914574Y-112859550D01*
X126902524Y-112861628D01*
X126822571Y-112872614D01*
X126734372Y-112880734D01*
X126643497Y-112885764D01*
X126555513Y-112887477D01*
X126475989Y-112885645D01*
X126410494Y-112880044D01*
X126352716Y-112871068D01*
X126260761Y-112851184D01*
X126177630Y-112826247D01*
X126104538Y-112797169D01*
X126042699Y-112764859D01*
X125993327Y-112730228D01*
X125957635Y-112694188D01*
X125936839Y-112657647D01*
X125934069Y-112636294D01*
X126047514Y-112636294D01*
X126056236Y-112648074D01*
X126057799Y-112649746D01*
X126088588Y-112673087D01*
X126135122Y-112697266D01*
X126193567Y-112720884D01*
X126260093Y-112742541D01*
X126330866Y-112760839D01*
X126402055Y-112774377D01*
X126411223Y-112775732D01*
X126518387Y-112785690D01*
X126634779Y-112785981D01*
X126761472Y-112776422D01*
X126899542Y-112756832D01*
X127050061Y-112727030D01*
X127214104Y-112686836D01*
X127392744Y-112636068D01*
X127587055Y-112574544D01*
X127728547Y-112526135D01*
X127932876Y-112450057D01*
X128134365Y-112367265D01*
X128335768Y-112276444D01*
X128539835Y-112176280D01*
X128749319Y-112065460D01*
X128966970Y-111942669D01*
X129195542Y-111806595D01*
X129242198Y-111778179D01*
X129398269Y-111683339D01*
X129428663Y-111664962D01*
X129632944Y-111664962D01*
X129635218Y-111673067D01*
X129648681Y-111686228D01*
X129674273Y-111705036D01*
X129712934Y-111730080D01*
X129765604Y-111761951D01*
X129833221Y-111801236D01*
X129916725Y-111848528D01*
X130017055Y-111904415D01*
X130032650Y-111913027D01*
X130390681Y-112099109D01*
X130760574Y-112269639D01*
X131141288Y-112424323D01*
X131531786Y-112562867D01*
X131931029Y-112684975D01*
X132337978Y-112790355D01*
X132751593Y-112878712D01*
X133170837Y-112949751D01*
X133594671Y-113003179D01*
X134022055Y-113038701D01*
X134054976Y-113040422D01*
X134124079Y-113042867D01*
X134207757Y-113044766D01*
X134302617Y-113046122D01*
X134405269Y-113046939D01*
X134512319Y-113047219D01*
X134620377Y-113046966D01*
X134726050Y-113046181D01*
X134825946Y-113044869D01*
X134916674Y-113043032D01*
X134994841Y-113040674D01*
X135057055Y-113037796D01*
X135339650Y-113016632D01*
X135759251Y-112968898D01*
X136178772Y-112901916D01*
X136596695Y-112816044D01*
X137011503Y-112711642D01*
X137421678Y-112589066D01*
X137825701Y-112448675D01*
X138222055Y-112290828D01*
X138314563Y-112251042D01*
X138565910Y-112137374D01*
X138808210Y-112019042D01*
X139044365Y-111894352D01*
X139277278Y-111761612D01*
X139509850Y-111619125D01*
X139744986Y-111465199D01*
X139985587Y-111298139D01*
X140234555Y-111116251D01*
X140267469Y-111091555D01*
X140317175Y-111053832D01*
X140359716Y-111021017D01*
X140392863Y-110994854D01*
X140414386Y-110977089D01*
X140422055Y-110969468D01*
X140419285Y-110968897D01*
X140399421Y-110967946D01*
X140361486Y-110967155D01*
X140306742Y-110966522D01*
X140236450Y-110966044D01*
X140151873Y-110965718D01*
X140054270Y-110965540D01*
X139944904Y-110965506D01*
X139825036Y-110965615D01*
X139695927Y-110965862D01*
X139558838Y-110966244D01*
X139415032Y-110966758D01*
X139265769Y-110967401D01*
X139112310Y-110968170D01*
X138955917Y-110969061D01*
X138797852Y-110970071D01*
X138639376Y-110971197D01*
X138481749Y-110972435D01*
X138326234Y-110973783D01*
X138174092Y-110975237D01*
X137561128Y-110981390D01*
X137528161Y-111032685D01*
X137479343Y-111095486D01*
X137411705Y-111155468D01*
X137334455Y-111201466D01*
X137250735Y-111232031D01*
X137163685Y-111245713D01*
X137076446Y-111241064D01*
X137064069Y-111239039D01*
X137032513Y-111234972D01*
X137010717Y-111236085D01*
X136991036Y-111243600D01*
X136965827Y-111258737D01*
X136915994Y-111283582D01*
X136842591Y-111303072D01*
X136762805Y-111308430D01*
X136681214Y-111299440D01*
X136602393Y-111275886D01*
X136583162Y-111268107D01*
X136556392Y-111258264D01*
X136540066Y-111255376D01*
X136528846Y-111258989D01*
X136517393Y-111268648D01*
X136502457Y-111281055D01*
X136450661Y-111308892D01*
X136389201Y-111325362D01*
X136323463Y-111329916D01*
X136258833Y-111322000D01*
X136200697Y-111301065D01*
X136150574Y-111265771D01*
X136102082Y-111213348D01*
X136059371Y-111148135D01*
X136025260Y-111073782D01*
X136002910Y-111013631D01*
X136114304Y-111013631D01*
X136114481Y-111016970D01*
X136120058Y-111034008D01*
X136130684Y-111060064D01*
X136145537Y-111090366D01*
X136176597Y-111139669D01*
X136211176Y-111181227D01*
X136244858Y-111209273D01*
X136270650Y-111220287D01*
X136316162Y-111227951D01*
X136364558Y-111226210D01*
X136407055Y-111214767D01*
X136418129Y-111209150D01*
X136459815Y-111176495D01*
X136474348Y-111158376D01*
X136606385Y-111158376D01*
X136612772Y-111167253D01*
X136631965Y-111176535D01*
X136667290Y-111188325D01*
X136711293Y-111199919D01*
X136783182Y-111207820D01*
X136848096Y-111198480D01*
X136909025Y-111171278D01*
X136961491Y-111131286D01*
X137107006Y-111131286D01*
X137114082Y-111140444D01*
X137123349Y-111145046D01*
X137138666Y-111147310D01*
X137162494Y-111145100D01*
X137200293Y-111138279D01*
X137209267Y-111136398D01*
X137289056Y-111108788D01*
X137359803Y-111064474D01*
X137418852Y-111005518D01*
X137463547Y-110933980D01*
X137477399Y-110903352D01*
X137487992Y-110876906D01*
X137492048Y-110862482D01*
X137484290Y-110859164D01*
X137459712Y-110863734D01*
X137419555Y-110876433D01*
X137400992Y-110881903D01*
X137377318Y-110888879D01*
X137323365Y-110900428D01*
X137275110Y-110906710D01*
X137203164Y-110911539D01*
X137192669Y-110960474D01*
X137189587Y-110972971D01*
X137188847Y-110975973D01*
X137174427Y-111018705D01*
X137155702Y-111060953D01*
X137135678Y-111096399D01*
X137117362Y-111118725D01*
X137116830Y-111119169D01*
X137107006Y-111131286D01*
X136961491Y-111131286D01*
X136968962Y-111125591D01*
X136998467Y-111096406D01*
X137030330Y-111059920D01*
X137056974Y-111024363D01*
X137075262Y-110993968D01*
X137082055Y-110972971D01*
X137076657Y-110967388D01*
X137058457Y-110968697D01*
X137024555Y-110977142D01*
X136992831Y-110984132D01*
X136947992Y-110989515D01*
X136889933Y-110992613D01*
X136815303Y-110993693D01*
X136663550Y-110993980D01*
X136657713Y-111010978D01*
X136639513Y-111063980D01*
X136638575Y-111066706D01*
X136625779Y-111103216D01*
X136614808Y-111133352D01*
X136607947Y-111150825D01*
X136606385Y-111158376D01*
X136474348Y-111158376D01*
X136497388Y-111129650D01*
X136526955Y-111073209D01*
X136537954Y-111044680D01*
X136545718Y-111021258D01*
X136547387Y-111010978D01*
X136545762Y-111010491D01*
X136530500Y-111012317D01*
X136505493Y-111018390D01*
X136481699Y-111023846D01*
X136427089Y-111031245D01*
X136363424Y-111035330D01*
X136297600Y-111035934D01*
X136236512Y-111032892D01*
X136187055Y-111026039D01*
X136183418Y-111025267D01*
X136149424Y-111018493D01*
X136124673Y-111014322D01*
X136114304Y-111013631D01*
X136002910Y-111013631D01*
X135997055Y-110997874D01*
X135727055Y-111004644D01*
X135671121Y-111005941D01*
X135590514Y-111007591D01*
X135496248Y-111009345D01*
X135391727Y-111011146D01*
X135280356Y-111012939D01*
X135165538Y-111014665D01*
X135050678Y-111016270D01*
X134939181Y-111017697D01*
X134421306Y-111023980D01*
X134409871Y-111052082D01*
X134388754Y-111103980D01*
X134372058Y-111142768D01*
X134328698Y-111224337D01*
X134281055Y-111287493D01*
X134228092Y-111333218D01*
X134168772Y-111362498D01*
X134102061Y-111376316D01*
X134076444Y-111377398D01*
X134011956Y-111370302D01*
X133951667Y-111350813D01*
X133902521Y-111320860D01*
X133867986Y-111291949D01*
X133817521Y-111314955D01*
X133757625Y-111336471D01*
X133681361Y-111350357D01*
X133604274Y-111351608D01*
X133530701Y-111340567D01*
X133464978Y-111317574D01*
X133411442Y-111282971D01*
X133408064Y-111280281D01*
X133389543Y-111274259D01*
X133361508Y-111279137D01*
X133358770Y-111279887D01*
X133316912Y-111286436D01*
X133264739Y-111288345D01*
X133210682Y-111285647D01*
X133163173Y-111278374D01*
X133082375Y-111250698D01*
X133003162Y-111204809D01*
X132932882Y-111144186D01*
X132875229Y-111071480D01*
X132841441Y-111018980D01*
X132329248Y-111016480D01*
X132277236Y-111016234D01*
X132100920Y-111015566D01*
X131942751Y-111015308D01*
X131801281Y-111015538D01*
X131675060Y-111016337D01*
X131562637Y-111017784D01*
X131462562Y-111019959D01*
X131373387Y-111022942D01*
X131293662Y-111026811D01*
X131221935Y-111031648D01*
X131156759Y-111037530D01*
X131096682Y-111044539D01*
X131040256Y-111052753D01*
X130986030Y-111062253D01*
X130932554Y-111073117D01*
X130878379Y-111085426D01*
X130822055Y-111099259D01*
X130753682Y-111117331D01*
X130633333Y-111153468D01*
X130514860Y-111195112D01*
X130395426Y-111243524D01*
X130272194Y-111299963D01*
X130142328Y-111365686D01*
X130002989Y-111441953D01*
X129851343Y-111530024D01*
X129814919Y-111551752D01*
X129759705Y-111584974D01*
X129711412Y-111614378D01*
X129672616Y-111638378D01*
X129645894Y-111655389D01*
X129633822Y-111663827D01*
X129632944Y-111664962D01*
X129428663Y-111664962D01*
X129539001Y-111598249D01*
X129665655Y-111522237D01*
X129779489Y-111454628D01*
X129881764Y-111394750D01*
X129973739Y-111341929D01*
X130056675Y-111295492D01*
X130131832Y-111254766D01*
X130200469Y-111219076D01*
X130263846Y-111187750D01*
X130323224Y-111160115D01*
X130379862Y-111135496D01*
X130435020Y-111113221D01*
X130489958Y-111092616D01*
X130545936Y-111073008D01*
X130604214Y-111053723D01*
X130669490Y-111033181D01*
X130745448Y-111011010D01*
X130820006Y-110991525D01*
X130894808Y-110974586D01*
X130971500Y-110960050D01*
X131051726Y-110947775D01*
X131137131Y-110937619D01*
X131229359Y-110929441D01*
X131330057Y-110923098D01*
X131440868Y-110918448D01*
X131563437Y-110915350D01*
X131699409Y-110913661D01*
X131850429Y-110913240D01*
X132018142Y-110913945D01*
X132204192Y-110915633D01*
X132811328Y-110922246D01*
X132808426Y-110906333D01*
X132912368Y-110906333D01*
X132917957Y-110922246D01*
X132921973Y-110933681D01*
X132942422Y-110976554D01*
X132987657Y-111048430D01*
X133046280Y-111107036D01*
X133117984Y-111150882D01*
X133125604Y-111154276D01*
X133160268Y-111166842D01*
X133198990Y-111177542D01*
X133237151Y-111185527D01*
X133270129Y-111189947D01*
X133293304Y-111189955D01*
X133302055Y-111184701D01*
X133301285Y-111181979D01*
X133292250Y-111166314D01*
X133276319Y-111143903D01*
X133271365Y-111137059D01*
X133249905Y-111100164D01*
X133230872Y-111057306D01*
X133217258Y-111015949D01*
X133214772Y-111000470D01*
X133322055Y-111000470D01*
X133324200Y-111014747D01*
X133339091Y-111048865D01*
X133365341Y-111088511D01*
X133399606Y-111129831D01*
X133438543Y-111168970D01*
X133457678Y-111184701D01*
X133478807Y-111202072D01*
X133517055Y-111225283D01*
X133536452Y-111233587D01*
X133580244Y-111245172D01*
X133632055Y-111248185D01*
X133668319Y-111246082D01*
X133711504Y-111239925D01*
X133750868Y-111230973D01*
X133781027Y-111220486D01*
X133796596Y-111209724D01*
X133797243Y-111203484D01*
X133792547Y-111182414D01*
X133782064Y-111154000D01*
X133776497Y-111140158D01*
X133763854Y-111102350D01*
X133756024Y-111069783D01*
X133755464Y-111066284D01*
X133862493Y-111066284D01*
X133869094Y-111091274D01*
X133885832Y-111131194D01*
X133902967Y-111163221D01*
X133934097Y-111203484D01*
X133939562Y-111210552D01*
X133982451Y-111246968D01*
X134027055Y-111268029D01*
X134039327Y-111271251D01*
X134070089Y-111277018D01*
X134096485Y-111275878D01*
X134129492Y-111267808D01*
X134136472Y-111265405D01*
X134171709Y-111244128D01*
X134208448Y-111209860D01*
X134242630Y-111167492D01*
X134270190Y-111121919D01*
X134287066Y-111078031D01*
X134293445Y-111052082D01*
X134230250Y-111065323D01*
X134216232Y-111068070D01*
X134119700Y-111077677D01*
X134013070Y-111072814D01*
X133894555Y-111053415D01*
X133880815Y-111051216D01*
X133866308Y-111053755D01*
X133862493Y-111066284D01*
X133755464Y-111066284D01*
X133750038Y-111032351D01*
X133648547Y-111036844D01*
X133592166Y-111037723D01*
X133506499Y-111033154D01*
X133427637Y-111022023D01*
X133361837Y-111005025D01*
X133351225Y-111001701D01*
X133330351Y-110997751D01*
X133322055Y-111000470D01*
X133214772Y-111000470D01*
X133212055Y-110983558D01*
X133211980Y-110976368D01*
X133210027Y-110965491D01*
X133202664Y-110958092D01*
X133186285Y-110952660D01*
X133157285Y-110947684D01*
X133112055Y-110941653D01*
X133070001Y-110934223D01*
X133018373Y-110921303D01*
X132974555Y-110906623D01*
X132956797Y-110899651D01*
X132928962Y-110891097D01*
X132914425Y-110892731D01*
X132912368Y-110906333D01*
X132808426Y-110906333D01*
X132804192Y-110883113D01*
X132801494Y-110858985D01*
X132799189Y-110819596D01*
X132798522Y-110798852D01*
X132889007Y-110798852D01*
X132953610Y-110828144D01*
X132987466Y-110842331D01*
X133036062Y-110860072D01*
X133079077Y-110873208D01*
X133113962Y-110882277D01*
X133146928Y-110889296D01*
X133168705Y-110888752D01*
X133181867Y-110878172D01*
X133188991Y-110855081D01*
X133192289Y-110820765D01*
X133292131Y-110820765D01*
X133292139Y-110826060D01*
X133293793Y-110869556D01*
X133298760Y-110897342D01*
X133307669Y-110913164D01*
X133311263Y-110916259D01*
X133337431Y-110930130D01*
X133378381Y-110944435D01*
X133429984Y-110957889D01*
X133488107Y-110969210D01*
X133511660Y-110972255D01*
X133554961Y-110975565D01*
X133602751Y-110977340D01*
X133648929Y-110977490D01*
X133687397Y-110975923D01*
X133712055Y-110972548D01*
X133713159Y-110972177D01*
X133719012Y-110966248D01*
X133723080Y-110952053D01*
X133725688Y-110926661D01*
X133727162Y-110887138D01*
X133727702Y-110841225D01*
X133827691Y-110841225D01*
X133827799Y-110884996D01*
X133828956Y-110923452D01*
X133831216Y-110951710D01*
X133834631Y-110964888D01*
X133834815Y-110965057D01*
X133847865Y-110971002D01*
X133874473Y-110980040D01*
X133909107Y-110990286D01*
X133909757Y-110990465D01*
X133950722Y-110999199D01*
X134002149Y-111006563D01*
X134058017Y-111012078D01*
X134112305Y-111015267D01*
X134158991Y-111015651D01*
X134192055Y-111012752D01*
X134203280Y-111010323D01*
X134233758Y-111002812D01*
X134268350Y-110993514D01*
X134291647Y-110986493D01*
X134311719Y-110976675D01*
X134322604Y-110961869D01*
X134330311Y-110936550D01*
X134333448Y-110923261D01*
X134334276Y-110918980D01*
X134440298Y-110918980D01*
X134778677Y-110917087D01*
X134779306Y-110917083D01*
X134880453Y-110916337D01*
X134993498Y-110915202D01*
X135112060Y-110913762D01*
X135229759Y-110912099D01*
X135340218Y-110910298D01*
X135437055Y-110908443D01*
X135463945Y-110907879D01*
X135548216Y-110906151D01*
X135630317Y-110904521D01*
X135706683Y-110903057D01*
X135773749Y-110901826D01*
X135827951Y-110900897D01*
X135865722Y-110900336D01*
X135898953Y-110899878D01*
X135935281Y-110898862D01*
X135957069Y-110896781D01*
X135967616Y-110892870D01*
X135970222Y-110886359D01*
X135968184Y-110876480D01*
X135968106Y-110876193D01*
X135964111Y-110854771D01*
X135959606Y-110820792D01*
X135955551Y-110781480D01*
X135951352Y-110745640D01*
X135944664Y-110718018D01*
X135936205Y-110708980D01*
X135930039Y-110709416D01*
X135906026Y-110711921D01*
X135868078Y-110716277D01*
X135819894Y-110722055D01*
X135765173Y-110728826D01*
X135663658Y-110740366D01*
X135487204Y-110755222D01*
X135307807Y-110764253D01*
X135129152Y-110767476D01*
X134954923Y-110764910D01*
X134788806Y-110756571D01*
X134634484Y-110742478D01*
X134495643Y-110722650D01*
X134464230Y-110717162D01*
X134460944Y-110749215D01*
X134457729Y-110780571D01*
X134454542Y-110810224D01*
X134449812Y-110850616D01*
X134445762Y-110881480D01*
X134440298Y-110918980D01*
X134334276Y-110918980D01*
X134341737Y-110880379D01*
X134348629Y-110833988D01*
X134353668Y-110788723D01*
X134356395Y-110749215D01*
X134356352Y-110720099D01*
X134353083Y-110706007D01*
X134339183Y-110701976D01*
X134310112Y-110710036D01*
X134307885Y-110710878D01*
X134281914Y-110716075D01*
X134240837Y-110720029D01*
X134188905Y-110722724D01*
X134130367Y-110724145D01*
X134069474Y-110724276D01*
X134010476Y-110723102D01*
X133957624Y-110720606D01*
X133915167Y-110716773D01*
X133887357Y-110711589D01*
X133886126Y-110711213D01*
X133854451Y-110704838D01*
X133837391Y-110709644D01*
X133836695Y-110710645D01*
X133833134Y-110726848D01*
X133830411Y-110757268D01*
X133828579Y-110797021D01*
X133827691Y-110841225D01*
X133727702Y-110841225D01*
X133727827Y-110830553D01*
X133728599Y-110692669D01*
X133641692Y-110683980D01*
X136057055Y-110683980D01*
X136057349Y-110692669D01*
X136059597Y-110758980D01*
X136062462Y-110801615D01*
X136068087Y-110847616D01*
X136075103Y-110883980D01*
X136075801Y-110886359D01*
X136083466Y-110912467D01*
X136093684Y-110929603D01*
X136111457Y-110940939D01*
X136142562Y-110952327D01*
X136181033Y-110961968D01*
X136232587Y-110969788D01*
X136287055Y-110973987D01*
X136334211Y-110975332D01*
X136375613Y-110974839D01*
X136412261Y-110971465D01*
X136452175Y-110964430D01*
X136503375Y-110952954D01*
X136519906Y-110949031D01*
X136548412Y-110941079D01*
X136564070Y-110932649D01*
X136571610Y-110920325D01*
X136575765Y-110900692D01*
X136577529Y-110887856D01*
X136580772Y-110842420D01*
X136581590Y-110789621D01*
X136677055Y-110789621D01*
X136677055Y-110927443D01*
X136705805Y-110933211D01*
X136719731Y-110935203D01*
X136758210Y-110937446D01*
X136806682Y-110937726D01*
X136858647Y-110936181D01*
X136907605Y-110932945D01*
X136947055Y-110928156D01*
X136966302Y-110924370D01*
X137010321Y-110913461D01*
X137052055Y-110900787D01*
X137107055Y-110881903D01*
X137106704Y-110740589D01*
X137106682Y-110734682D01*
X137105687Y-110678783D01*
X137103435Y-110633855D01*
X137100139Y-110602903D01*
X137096010Y-110588934D01*
X137093680Y-110587125D01*
X137074795Y-110585217D01*
X137041362Y-110594341D01*
X137036669Y-110595984D01*
X136958545Y-110617828D01*
X136867551Y-110634574D01*
X136770015Y-110645040D01*
X136677055Y-110651569D01*
X136677055Y-110789506D01*
X136677055Y-110789621D01*
X136581590Y-110789621D01*
X136579974Y-110738529D01*
X136575919Y-110698216D01*
X136570002Y-110662453D01*
X136498529Y-110676483D01*
X136497012Y-110676777D01*
X136454077Y-110682800D01*
X136398995Y-110686480D01*
X136329183Y-110687926D01*
X136242055Y-110687246D01*
X136057055Y-110683980D01*
X133641692Y-110683980D01*
X133609015Y-110680713D01*
X133594644Y-110679197D01*
X133491573Y-110663167D01*
X133403243Y-110639847D01*
X133383563Y-110633310D01*
X133349034Y-110622197D01*
X133324784Y-110614887D01*
X133315136Y-110612712D01*
X133314069Y-110614421D01*
X133309699Y-110631637D01*
X133304876Y-110662405D01*
X133300153Y-110701713D01*
X133296086Y-110744550D01*
X133293227Y-110785905D01*
X133292131Y-110820765D01*
X133192289Y-110820765D01*
X133192650Y-110817008D01*
X133195421Y-110761480D01*
X133195561Y-110758656D01*
X133198455Y-110707905D01*
X133201717Y-110662605D01*
X133204957Y-110627600D01*
X133207784Y-110607735D01*
X133209480Y-110599205D01*
X133208372Y-110588223D01*
X133199014Y-110579681D01*
X133177747Y-110570929D01*
X133140912Y-110559318D01*
X133100496Y-110545561D01*
X133099185Y-110545042D01*
X133332055Y-110545042D01*
X133332454Y-110545890D01*
X133344726Y-110552622D01*
X133370671Y-110562548D01*
X133405566Y-110574159D01*
X133444687Y-110585947D01*
X133483312Y-110596402D01*
X133495608Y-110599205D01*
X133516716Y-110604017D01*
X133524186Y-110605440D01*
X133581019Y-110614425D01*
X133636465Y-110620356D01*
X133684495Y-110622727D01*
X133719083Y-110621032D01*
X133723598Y-110619219D01*
X133852055Y-110619219D01*
X133853544Y-110625813D01*
X133867871Y-110637963D01*
X133899555Y-110648585D01*
X133906868Y-110650255D01*
X133943487Y-110656227D01*
X133989623Y-110661320D01*
X134037055Y-110664578D01*
X134054959Y-110665352D01*
X134083825Y-110666263D01*
X134099916Y-110665781D01*
X134102113Y-110663395D01*
X134089296Y-110658591D01*
X134060344Y-110650858D01*
X134014137Y-110639683D01*
X133949555Y-110624554D01*
X133945122Y-110623522D01*
X133902280Y-110613839D01*
X133875054Y-110608758D01*
X133859943Y-110608089D01*
X133853444Y-110611640D01*
X133852055Y-110619219D01*
X133723598Y-110619219D01*
X133728699Y-110617171D01*
X133743425Y-110603349D01*
X133752369Y-110586727D01*
X133750469Y-110574767D01*
X133745885Y-110572778D01*
X133725243Y-110565285D01*
X133691361Y-110553541D01*
X133647810Y-110538731D01*
X133598162Y-110522043D01*
X133545986Y-110504665D01*
X133494855Y-110487785D01*
X133448338Y-110472588D01*
X133410006Y-110460264D01*
X133383431Y-110451999D01*
X133372182Y-110448980D01*
X133371897Y-110449029D01*
X133365105Y-110458479D01*
X133354893Y-110479585D01*
X133344093Y-110505566D01*
X133335537Y-110529645D01*
X133332055Y-110545042D01*
X133099185Y-110545042D01*
X133046917Y-110524350D01*
X132999764Y-110502825D01*
X132990923Y-110498423D01*
X132956097Y-110482738D01*
X132935521Y-110477218D01*
X132927100Y-110481242D01*
X132924600Y-110488736D01*
X132912367Y-110540317D01*
X132902566Y-110608738D01*
X132895583Y-110691416D01*
X132889007Y-110798852D01*
X132798522Y-110798852D01*
X132797629Y-110771081D01*
X132797055Y-110718980D01*
X132796349Y-110670172D01*
X132794268Y-110628267D01*
X132791081Y-110599234D01*
X132787055Y-110586633D01*
X132779891Y-110585133D01*
X132754770Y-110583224D01*
X132714572Y-110581578D01*
X132662151Y-110580277D01*
X132600361Y-110579408D01*
X132532055Y-110579056D01*
X132481262Y-110578881D01*
X132348548Y-110577483D01*
X132199478Y-110574755D01*
X132036574Y-110570770D01*
X131862358Y-110565601D01*
X131679351Y-110559320D01*
X131490077Y-110551998D01*
X131297055Y-110543708D01*
X131268970Y-110542434D01*
X131065113Y-110532688D01*
X130879870Y-110522830D01*
X130712015Y-110512708D01*
X130560322Y-110502169D01*
X130423565Y-110491061D01*
X130300519Y-110479230D01*
X130189957Y-110466525D01*
X130090654Y-110452792D01*
X130001383Y-110437880D01*
X129920920Y-110421635D01*
X129848037Y-110403906D01*
X129781510Y-110384539D01*
X129720112Y-110363382D01*
X129662618Y-110340282D01*
X129655788Y-110337324D01*
X129565027Y-110294972D01*
X129481952Y-110249582D01*
X129403504Y-110198844D01*
X129326621Y-110140443D01*
X129248242Y-110072069D01*
X129165308Y-109991408D01*
X129074757Y-109896149D01*
X129057582Y-109878124D01*
X129021778Y-109843932D01*
X128989752Y-109817577D01*
X128965954Y-109802875D01*
X128959903Y-109800390D01*
X128936237Y-109793078D01*
X128915327Y-109794106D01*
X128886749Y-109803565D01*
X128868539Y-109811166D01*
X128834636Y-109832078D01*
X128817684Y-109857093D01*
X128817448Y-109888179D01*
X128833694Y-109927309D01*
X128866187Y-109976450D01*
X128880756Y-109995048D01*
X128924365Y-110043946D01*
X128981401Y-110101331D01*
X129049703Y-110165309D01*
X129127109Y-110233989D01*
X129211459Y-110305478D01*
X129300591Y-110377883D01*
X129392344Y-110449313D01*
X129484555Y-110517875D01*
X129509902Y-110536324D01*
X129539893Y-110559100D01*
X129558248Y-110575788D01*
X129567823Y-110589846D01*
X129571473Y-110604737D01*
X129572055Y-110623921D01*
X129571982Y-110628776D01*
X129567460Y-110659944D01*
X129557328Y-110678753D01*
X129540933Y-110687047D01*
X129504667Y-110696658D01*
X129453636Y-110705213D01*
X129390746Y-110712524D01*
X129318901Y-110718402D01*
X129241008Y-110722659D01*
X129159971Y-110725104D01*
X129078697Y-110725551D01*
X129000090Y-110723810D01*
X128927055Y-110719692D01*
X128897815Y-110717365D01*
X128837747Y-110712085D01*
X128780229Y-110706152D01*
X128723057Y-110699179D01*
X128664028Y-110690781D01*
X128600938Y-110680570D01*
X128531585Y-110668162D01*
X128453765Y-110653169D01*
X128365274Y-110635207D01*
X128263909Y-110613887D01*
X128147468Y-110588826D01*
X128013746Y-110559635D01*
X127957741Y-110547608D01*
X127865666Y-110529035D01*
X127782872Y-110513879D01*
X127711378Y-110502450D01*
X127653202Y-110495059D01*
X127610362Y-110492016D01*
X127584877Y-110493633D01*
X127559197Y-110500078D01*
X127592405Y-110534340D01*
X127637558Y-110571365D01*
X127703710Y-110609721D01*
X127789478Y-110648096D01*
X127894669Y-110686412D01*
X128019087Y-110724589D01*
X128162539Y-110762552D01*
X128256289Y-110785131D01*
X128352140Y-110806751D01*
X128448098Y-110826712D01*
X128546643Y-110845418D01*
X128650254Y-110863277D01*
X128761408Y-110880696D01*
X128882584Y-110898079D01*
X129016262Y-110915834D01*
X129164919Y-110934367D01*
X129331035Y-110954083D01*
X129354022Y-110956814D01*
X129416000Y-110964748D01*
X129470557Y-110972549D01*
X129514577Y-110979723D01*
X129544941Y-110985774D01*
X129558535Y-110990207D01*
X129567779Y-111005947D01*
X129572055Y-111031105D01*
X129570840Y-111040940D01*
X129564472Y-111056226D01*
X129550995Y-111076054D01*
X129528574Y-111102746D01*
X129495372Y-111138623D01*
X129449555Y-111186006D01*
X129429484Y-111206330D01*
X129376541Y-111258562D01*
X129320798Y-111311966D01*
X129267767Y-111361305D01*
X129222959Y-111401342D01*
X129167122Y-111448600D01*
X129017838Y-111566303D01*
X128853390Y-111685051D01*
X128676933Y-111802787D01*
X128491621Y-111917452D01*
X128300610Y-112026988D01*
X128107055Y-112129335D01*
X128101521Y-112132134D01*
X127958313Y-112202730D01*
X127824734Y-112264490D01*
X127697820Y-112318238D01*
X127574611Y-112364802D01*
X127452144Y-112405008D01*
X127327457Y-112439682D01*
X127197588Y-112469652D01*
X127059576Y-112495742D01*
X126910458Y-112518780D01*
X126747271Y-112539593D01*
X126567055Y-112559005D01*
X126562671Y-112559444D01*
X126453209Y-112570544D01*
X126361644Y-112580156D01*
X126286020Y-112588524D01*
X126224383Y-112595895D01*
X126174776Y-112602514D01*
X126135246Y-112608625D01*
X126103835Y-112614476D01*
X126078590Y-112620310D01*
X126070488Y-112622444D01*
X126051219Y-112629050D01*
X126047514Y-112636294D01*
X125934069Y-112636294D01*
X125932152Y-112621518D01*
X125944789Y-112586711D01*
X125975962Y-112554135D01*
X125988028Y-112545862D01*
X126006540Y-112536257D01*
X126030116Y-112527534D01*
X126060614Y-112519368D01*
X126099893Y-112511435D01*
X126149810Y-112503412D01*
X126212222Y-112494974D01*
X126288988Y-112485797D01*
X126381965Y-112475556D01*
X126493011Y-112463929D01*
X126573680Y-112455537D01*
X126696387Y-112442299D01*
X126803252Y-112429970D01*
X126896851Y-112418119D01*
X126979761Y-112406311D01*
X127054559Y-112394116D01*
X127123821Y-112381100D01*
X127190125Y-112366832D01*
X127256048Y-112350877D01*
X127324166Y-112332805D01*
X127397055Y-112312181D01*
X127407489Y-112309130D01*
X127549153Y-112262361D01*
X127702038Y-112202849D01*
X127863539Y-112132000D01*
X128031056Y-112051220D01*
X128201985Y-111961917D01*
X128373725Y-111865496D01*
X128543672Y-111763365D01*
X128709224Y-111656930D01*
X128867779Y-111547597D01*
X129016734Y-111436774D01*
X129046923Y-111412682D01*
X129101717Y-111366705D01*
X129161626Y-111314307D01*
X129221241Y-111260247D01*
X129275156Y-111209287D01*
X129287989Y-111196810D01*
X129333111Y-111152427D01*
X129365386Y-111119484D01*
X129386287Y-111096242D01*
X129397288Y-111080965D01*
X129399860Y-111071914D01*
X129395478Y-111067352D01*
X129388773Y-111065714D01*
X129363449Y-111061537D01*
X129323082Y-111055904D01*
X129270706Y-111049209D01*
X129209353Y-111041850D01*
X129142055Y-111034223D01*
X128970941Y-111013830D01*
X128787092Y-110988425D01*
X128609548Y-110960272D01*
X128440020Y-110929744D01*
X128280220Y-110897214D01*
X128131860Y-110863055D01*
X127996652Y-110827638D01*
X127876307Y-110791336D01*
X127772538Y-110754522D01*
X127687055Y-110717568D01*
X127640684Y-110693683D01*
X127564387Y-110646339D01*
X127508054Y-110598600D01*
X127471666Y-110550444D01*
X127455202Y-110501854D01*
X127455035Y-110500552D01*
X127458014Y-110459142D01*
X127478366Y-110427554D01*
X127516035Y-110405801D01*
X127570966Y-110393894D01*
X127643105Y-110391846D01*
X127732397Y-110399669D01*
X127838785Y-110417375D01*
X127930515Y-110435456D01*
X127777424Y-110273261D01*
X127498578Y-109965270D01*
X127224122Y-109634355D01*
X126967813Y-109295045D01*
X126729630Y-108947305D01*
X126509554Y-108591098D01*
X126307563Y-108226387D01*
X126123637Y-107853134D01*
X125957757Y-107471304D01*
X125809901Y-107080860D01*
X125680049Y-106681764D01*
X125568182Y-106273980D01*
X125480236Y-105881553D01*
X125410213Y-105479239D01*
X125359301Y-105072549D01*
X125327505Y-104662265D01*
X125314831Y-104249171D01*
X125315689Y-104193980D01*
X125378665Y-104193980D01*
X125381430Y-104423058D01*
X125399153Y-104808896D01*
X125433635Y-105187449D01*
X125485289Y-105561520D01*
X125554532Y-105933914D01*
X125641778Y-106307433D01*
X125747442Y-106684880D01*
X125775573Y-106776101D01*
X125909893Y-107170173D01*
X126062607Y-107556720D01*
X126233401Y-107935213D01*
X126421960Y-108305123D01*
X126627968Y-108665922D01*
X126851111Y-109017082D01*
X127091075Y-109358072D01*
X127347543Y-109688365D01*
X127620203Y-110007432D01*
X127908738Y-110314744D01*
X128057055Y-110465509D01*
X128277055Y-110512472D01*
X128340902Y-110525957D01*
X128461443Y-110550414D01*
X128567256Y-110570308D01*
X128661415Y-110586173D01*
X128746991Y-110598541D01*
X128827055Y-110607948D01*
X128855891Y-110610765D01*
X128970038Y-110619028D01*
X129085108Y-110623182D01*
X129194306Y-110623074D01*
X129290831Y-110618547D01*
X129332249Y-110614962D01*
X129371313Y-110610729D01*
X129398918Y-110606750D01*
X129410815Y-110603553D01*
X129409944Y-110595892D01*
X129397040Y-110582887D01*
X129363854Y-110558532D01*
X129291457Y-110503404D01*
X129215416Y-110443196D01*
X129138562Y-110380315D01*
X129063726Y-110317168D01*
X128993737Y-110256164D01*
X128931426Y-110199709D01*
X128879623Y-110150210D01*
X128841158Y-110110075D01*
X128821042Y-110086820D01*
X128766244Y-110013508D01*
X128730307Y-109946682D01*
X128713232Y-109886365D01*
X128715026Y-109832579D01*
X128735691Y-109785347D01*
X128775232Y-109744693D01*
X128775930Y-109744162D01*
X128836505Y-109709602D01*
X128900986Y-109693493D01*
X128966426Y-109696145D01*
X129029877Y-109717868D01*
X129044302Y-109727564D01*
X129072347Y-109750984D01*
X129108282Y-109784100D01*
X129149006Y-109824031D01*
X129191415Y-109867894D01*
X129211246Y-109888793D01*
X129287900Y-109965788D01*
X129363178Y-110034414D01*
X129438722Y-110095244D01*
X129516173Y-110148851D01*
X129597176Y-110195808D01*
X129683373Y-110236686D01*
X129776406Y-110272060D01*
X129877919Y-110302500D01*
X129989554Y-110328580D01*
X130112953Y-110350873D01*
X130249761Y-110369951D01*
X130401618Y-110386386D01*
X130570169Y-110400752D01*
X130757055Y-110413621D01*
X130820870Y-110417519D01*
X130977540Y-110426373D01*
X131144028Y-110434890D01*
X131317359Y-110442964D01*
X131494555Y-110450489D01*
X131672638Y-110457360D01*
X131848632Y-110463469D01*
X132019560Y-110468712D01*
X132182445Y-110472983D01*
X132334310Y-110476175D01*
X132472178Y-110478184D01*
X132593071Y-110478902D01*
X132819087Y-110478980D01*
X132836311Y-110415351D01*
X132841128Y-110399224D01*
X132952055Y-110399224D01*
X132952925Y-110401587D01*
X132966582Y-110413130D01*
X132993685Y-110429087D01*
X133030188Y-110447495D01*
X133072042Y-110466395D01*
X133115198Y-110483825D01*
X133155609Y-110497825D01*
X133159254Y-110498948D01*
X133192484Y-110509083D01*
X133216634Y-110516257D01*
X133226696Y-110518980D01*
X133231214Y-110510583D01*
X133239816Y-110489470D01*
X133250204Y-110461899D01*
X133260086Y-110434128D01*
X133267169Y-110412418D01*
X133269162Y-110403027D01*
X133265254Y-110401165D01*
X133246394Y-110393074D01*
X133215627Y-110380217D01*
X133177055Y-110364321D01*
X133158730Y-110356672D01*
X133113512Y-110336762D01*
X133072845Y-110317557D01*
X133043770Y-110302331D01*
X133028085Y-110293584D01*
X133006864Y-110283205D01*
X132997108Y-110280598D01*
X132994482Y-110284928D01*
X132985994Y-110303957D01*
X132974963Y-110331601D01*
X132963933Y-110361161D01*
X132955449Y-110385936D01*
X132952055Y-110399224D01*
X132841128Y-110399224D01*
X132845093Y-110385951D01*
X132861408Y-110339210D01*
X132877795Y-110299358D01*
X132888011Y-110276546D01*
X132898137Y-110251732D01*
X132902055Y-110238850D01*
X132896004Y-110232783D01*
X132875445Y-110218989D01*
X132843767Y-110200109D01*
X132804555Y-110178370D01*
X132705092Y-110122631D01*
X132564195Y-110036540D01*
X132423950Y-109943198D01*
X132290570Y-109846784D01*
X132170267Y-109751480D01*
X132165321Y-109747362D01*
X132127321Y-109716771D01*
X132094225Y-109691865D01*
X132069440Y-109675112D01*
X132056371Y-109668980D01*
X132055087Y-109668924D01*
X132034901Y-109664298D01*
X132001173Y-109653389D01*
X131958145Y-109637831D01*
X131910059Y-109619255D01*
X131861160Y-109599297D01*
X131815688Y-109579589D01*
X131777887Y-109561765D01*
X131720445Y-109531614D01*
X131580676Y-109447534D01*
X131443496Y-109350476D01*
X131311349Y-109242799D01*
X131186676Y-109126865D01*
X131071918Y-109005033D01*
X130969519Y-108879663D01*
X130881919Y-108753116D01*
X130811561Y-108627753D01*
X130779019Y-108561526D01*
X130718037Y-108566245D01*
X130688695Y-108567928D01*
X130662478Y-108566024D01*
X130640891Y-108557606D01*
X130615427Y-108540540D01*
X130571498Y-108500671D01*
X130524436Y-108436724D01*
X130482884Y-108354543D01*
X130446727Y-108253848D01*
X130415849Y-108134361D01*
X130390135Y-107995800D01*
X130388202Y-107983290D01*
X130382241Y-107941719D01*
X130377551Y-107902060D01*
X130373982Y-107861184D01*
X130371384Y-107815959D01*
X130369607Y-107763257D01*
X130368498Y-107699946D01*
X130367909Y-107622897D01*
X130367688Y-107528980D01*
X130367687Y-107523980D01*
X130467570Y-107523980D01*
X130467745Y-107582936D01*
X130469223Y-107691597D01*
X130472478Y-107785448D01*
X130477834Y-107867960D01*
X130485620Y-107942601D01*
X130496159Y-108012840D01*
X130509780Y-108082147D01*
X130526808Y-108153992D01*
X130528360Y-108160035D01*
X130550271Y-108233475D01*
X130575714Y-108300611D01*
X130603384Y-108359237D01*
X130631980Y-108407148D01*
X130660198Y-108442139D01*
X130686735Y-108462005D01*
X130710289Y-108464540D01*
X130722116Y-108457864D01*
X130745584Y-108431990D01*
X130771666Y-108389731D01*
X130799207Y-108333067D01*
X130827055Y-108263980D01*
X130839024Y-108232376D01*
X130854327Y-108194144D01*
X130866714Y-108165665D01*
X130874279Y-108151480D01*
X130878031Y-108147639D01*
X130900533Y-108139226D01*
X130926170Y-108144482D01*
X130946813Y-108162206D01*
X130952466Y-108171744D01*
X130956848Y-108187028D01*
X130954779Y-108207377D01*
X130946204Y-108239706D01*
X130942167Y-108252611D01*
X130928182Y-108292063D01*
X130910022Y-108338866D01*
X130890576Y-108385457D01*
X130850775Y-108476935D01*
X130886624Y-108548122D01*
X130928400Y-108626849D01*
X130989831Y-108728025D01*
X131058642Y-108824599D01*
X131138246Y-108921260D01*
X131232055Y-109022696D01*
X131272913Y-109063982D01*
X131432057Y-109208464D01*
X131598393Y-109334351D01*
X131772055Y-109441747D01*
X131772524Y-109442006D01*
X131809228Y-109461586D01*
X131843169Y-109478474D01*
X131867055Y-109489040D01*
X131897055Y-109500353D01*
X131871387Y-109472166D01*
X131830101Y-109426355D01*
X131702085Y-109277095D01*
X131589521Y-109133651D01*
X131490515Y-108993643D01*
X131437691Y-108911783D01*
X131332797Y-108730655D01*
X131240327Y-108544311D01*
X131161158Y-108355180D01*
X131096165Y-108165690D01*
X131046223Y-107978270D01*
X131012209Y-107795347D01*
X130994997Y-107619349D01*
X130988815Y-107494718D01*
X130947866Y-107444349D01*
X130928267Y-107418491D01*
X130881419Y-107336267D01*
X130848270Y-107241417D01*
X130828567Y-107133066D01*
X130822055Y-107010337D01*
X130822969Y-106962050D01*
X130825793Y-106904016D01*
X130830093Y-106845556D01*
X130835426Y-106791777D01*
X130841347Y-106747784D01*
X130847412Y-106718683D01*
X130846376Y-106712694D01*
X130835721Y-106703760D01*
X130812514Y-106692485D01*
X130774526Y-106677824D01*
X130719530Y-106658731D01*
X130704296Y-106653602D01*
X130656958Y-106637731D01*
X130617164Y-106624494D01*
X130588715Y-106615150D01*
X130575410Y-106610959D01*
X130575159Y-106610893D01*
X130569244Y-106610654D01*
X130564139Y-106615000D01*
X130559185Y-106626460D01*
X130553724Y-106647559D01*
X130547097Y-106680827D01*
X130538645Y-106728792D01*
X130527710Y-106793980D01*
X130517335Y-106857465D01*
X130501518Y-106960845D01*
X130489321Y-107052788D01*
X130480315Y-107138524D01*
X130474067Y-107223282D01*
X130470148Y-107312291D01*
X130468126Y-107410781D01*
X130467570Y-107523980D01*
X130367687Y-107523980D01*
X130367683Y-107487275D01*
X130368005Y-107398864D01*
X130369035Y-107320939D01*
X130371065Y-107250485D01*
X130374388Y-107184488D01*
X130379296Y-107119931D01*
X130386082Y-107053799D01*
X130395039Y-106983077D01*
X130406459Y-106904750D01*
X130420635Y-106815801D01*
X130437859Y-106713216D01*
X130458424Y-106593980D01*
X130459397Y-106587957D01*
X130459552Y-106577168D01*
X130454903Y-106567607D01*
X130442804Y-106557301D01*
X130420610Y-106544274D01*
X130385672Y-106526552D01*
X130335345Y-106502161D01*
X130268795Y-106468948D01*
X130108881Y-106379750D01*
X129955981Y-106281329D01*
X129814421Y-106176585D01*
X129688527Y-106068420D01*
X129662777Y-106045254D01*
X129634219Y-106021920D01*
X129613365Y-106007685D01*
X129603503Y-106005003D01*
X129603204Y-106005365D01*
X129593118Y-106018297D01*
X129575007Y-106042056D01*
X129552576Y-106071784D01*
X129532474Y-106097036D01*
X129467133Y-106162477D01*
X129395099Y-106213033D01*
X129318722Y-106247812D01*
X129240355Y-106265922D01*
X129162349Y-106266469D01*
X129087055Y-106248560D01*
X129051434Y-106232013D01*
X128989753Y-106188310D01*
X128930905Y-106128029D01*
X128876216Y-106053346D01*
X128827009Y-105966439D01*
X128784607Y-105869483D01*
X128750336Y-105764656D01*
X128725518Y-105654135D01*
X128723777Y-105643243D01*
X128717827Y-105584532D01*
X128714694Y-105513010D01*
X128714254Y-105434126D01*
X128716383Y-105353331D01*
X128720956Y-105276077D01*
X128727849Y-105207815D01*
X128736937Y-105153993D01*
X128746756Y-105115667D01*
X128762689Y-105061458D01*
X128781264Y-105003542D01*
X128799999Y-104949624D01*
X128816409Y-104907413D01*
X128817555Y-104904623D01*
X128818525Y-104896560D01*
X128809135Y-104896640D01*
X128785267Y-104904474D01*
X128763165Y-104910548D01*
X128715135Y-104916923D01*
X128662282Y-104917847D01*
X128612637Y-104913357D01*
X128574234Y-104903491D01*
X128519568Y-104870395D01*
X128471685Y-104820774D01*
X128432949Y-104757642D01*
X128405649Y-104683980D01*
X128398832Y-104646523D01*
X128394191Y-104590262D01*
X128392749Y-104524143D01*
X128392893Y-104518242D01*
X128492174Y-104518242D01*
X128493435Y-104561688D01*
X128504225Y-104644714D01*
X128525660Y-104712108D01*
X128557272Y-104763409D01*
X128598594Y-104798157D01*
X128649159Y-104815889D01*
X128708498Y-104816144D01*
X128776144Y-104798462D01*
X128807548Y-104784152D01*
X128849821Y-104759985D01*
X128888267Y-104733462D01*
X128907974Y-104719011D01*
X128951000Y-104695242D01*
X128985001Y-104689239D01*
X129010055Y-104700980D01*
X129019872Y-104718143D01*
X129018760Y-104748447D01*
X129001454Y-104783980D01*
X128982693Y-104813928D01*
X128952437Y-104869845D01*
X128921743Y-104934079D01*
X128893654Y-105000143D01*
X128871216Y-105061549D01*
X128859157Y-105100759D01*
X128827099Y-105244705D01*
X128812832Y-105390655D01*
X128816188Y-105536082D01*
X128836996Y-105678461D01*
X128875089Y-105815269D01*
X128930297Y-105943980D01*
X128942207Y-105965527D01*
X128977623Y-106018076D01*
X129019017Y-106067414D01*
X129062733Y-106109835D01*
X129105116Y-106141633D01*
X129142509Y-106159102D01*
X129206650Y-106166484D01*
X129272675Y-106154881D01*
X129338782Y-106124829D01*
X129403784Y-106077032D01*
X129466500Y-106012196D01*
X129525744Y-105931025D01*
X129531701Y-105921797D01*
X129556508Y-105886498D01*
X129577636Y-105865982D01*
X129598489Y-105860272D01*
X129622470Y-105869393D01*
X129652981Y-105893369D01*
X129693426Y-105932225D01*
X129761446Y-105996259D01*
X129873196Y-106089950D01*
X129997481Y-106182630D01*
X130130151Y-106271256D01*
X130267055Y-106352786D01*
X130325016Y-106383661D01*
X130398856Y-106419783D01*
X130477944Y-106455713D01*
X130558998Y-106490155D01*
X130638739Y-106521812D01*
X130713883Y-106549387D01*
X130781151Y-106571583D01*
X130837259Y-106587102D01*
X130878927Y-106594648D01*
X130887042Y-106595622D01*
X130928214Y-106604763D01*
X130965929Y-106618448D01*
X130991492Y-106628515D01*
X131041576Y-106643284D01*
X131106887Y-106658854D01*
X131184717Y-106674717D01*
X131272357Y-106690366D01*
X131367099Y-106705294D01*
X131466234Y-106718995D01*
X131567055Y-106730962D01*
X131587411Y-106732923D01*
X131649283Y-106737057D01*
X131724964Y-106740217D01*
X131810700Y-106742405D01*
X131902737Y-106743623D01*
X131997321Y-106743871D01*
X132090698Y-106743152D01*
X132179114Y-106741466D01*
X132258815Y-106738816D01*
X132326047Y-106735203D01*
X132377055Y-106730629D01*
X132523201Y-106711749D01*
X132743234Y-106678351D01*
X132945451Y-106641017D01*
X133131007Y-106599476D01*
X133301059Y-106553462D01*
X133456762Y-106502706D01*
X133599273Y-106446939D01*
X133650057Y-106426720D01*
X133687759Y-106416005D01*
X133713306Y-106415445D01*
X133729241Y-106424999D01*
X133738111Y-106444624D01*
X133740540Y-106456845D01*
X133739180Y-106477537D01*
X133727073Y-106495168D01*
X133701472Y-106512856D01*
X133659633Y-106533718D01*
X133615788Y-106553148D01*
X133487643Y-106602570D01*
X133341893Y-106649394D01*
X133180194Y-106693227D01*
X133004204Y-106733677D01*
X132815579Y-106770351D01*
X132615977Y-106802855D01*
X132407055Y-106830797D01*
X132360402Y-106835147D01*
X132289916Y-106839196D01*
X132206150Y-106842090D01*
X132112721Y-106843848D01*
X132013247Y-106844490D01*
X131911345Y-106844033D01*
X131810635Y-106842499D01*
X131714733Y-106839905D01*
X131627257Y-106836271D01*
X131551825Y-106831616D01*
X131492055Y-106825959D01*
X131442183Y-106819676D01*
X131326366Y-106803267D01*
X131217503Y-106785336D01*
X131119940Y-106766630D01*
X131038020Y-106747895D01*
X131016245Y-106742541D01*
X130981449Y-106735577D01*
X130960970Y-106734698D01*
X130951670Y-106739603D01*
X130948720Y-106746681D01*
X130942577Y-106773508D01*
X130936478Y-106813514D01*
X130930909Y-106862164D01*
X130926354Y-106914926D01*
X130923299Y-106967268D01*
X130922229Y-107014657D01*
X130925317Y-107087470D01*
X130940552Y-107187053D01*
X130967961Y-107274702D01*
X131006927Y-107349027D01*
X131056832Y-107408641D01*
X131117055Y-107452154D01*
X131139916Y-107461783D01*
X131193003Y-107472574D01*
X131255300Y-107474226D01*
X131321255Y-107466779D01*
X131385314Y-107450271D01*
X131423735Y-107434853D01*
X131496148Y-107396173D01*
X131571547Y-107345434D01*
X131645522Y-107286012D01*
X131713664Y-107221281D01*
X131771564Y-107154617D01*
X131772121Y-107153896D01*
X131806262Y-107115273D01*
X131835377Y-107094950D01*
X131860903Y-107092314D01*
X131884278Y-107106757D01*
X131888176Y-107110908D01*
X131898024Y-107127789D01*
X131897996Y-107147374D01*
X131886983Y-107172479D01*
X131863873Y-107205918D01*
X131827556Y-107250507D01*
X131767354Y-107315353D01*
X131685547Y-107388932D01*
X131598111Y-107454132D01*
X131509575Y-107507630D01*
X131424471Y-107546104D01*
X131414507Y-107549538D01*
X131360212Y-107563427D01*
X131298891Y-107573019D01*
X131237028Y-107577761D01*
X131181109Y-107577103D01*
X131137618Y-107570494D01*
X131128545Y-107568126D01*
X131105132Y-107563706D01*
X131093484Y-107564218D01*
X131092595Y-107571922D01*
X131093433Y-107596054D01*
X131096173Y-107632322D01*
X131100545Y-107676447D01*
X131125726Y-107845721D01*
X131170941Y-108043925D01*
X131232434Y-108243543D01*
X131308960Y-108441404D01*
X131399280Y-108634341D01*
X131502150Y-108819183D01*
X131616330Y-108992762D01*
X131741273Y-109157945D01*
X131910399Y-109355448D01*
X132052955Y-109500353D01*
X132090022Y-109538031D01*
X132278814Y-109704363D01*
X132475448Y-109853116D01*
X132680504Y-109987694D01*
X132936390Y-110133797D01*
X133202100Y-110262547D01*
X133477464Y-110373881D01*
X133565918Y-110403027D01*
X133762312Y-110467740D01*
X134056473Y-110544061D01*
X134276847Y-110586727D01*
X134359778Y-110602783D01*
X134672055Y-110643846D01*
X134685642Y-110645174D01*
X134766572Y-110651482D01*
X134860669Y-110656653D01*
X134963206Y-110660594D01*
X135069457Y-110663214D01*
X135085212Y-110663395D01*
X135174694Y-110664423D01*
X135274190Y-110664127D01*
X135363220Y-110662237D01*
X135437055Y-110658659D01*
X135534764Y-110651055D01*
X135753339Y-110625601D01*
X136357841Y-110625601D01*
X136366520Y-110627075D01*
X136387055Y-110627269D01*
X136395198Y-110627175D01*
X136423512Y-110625784D01*
X136452968Y-110622051D01*
X136489628Y-110615044D01*
X136539555Y-110603832D01*
X136553572Y-110597326D01*
X136562055Y-110583789D01*
X136562064Y-110581391D01*
X136561377Y-110574653D01*
X136557172Y-110571236D01*
X136546293Y-110571527D01*
X136525584Y-110575914D01*
X136491890Y-110584785D01*
X136442055Y-110598526D01*
X136419729Y-110604724D01*
X136382767Y-110615302D01*
X136362697Y-110621969D01*
X136357841Y-110625601D01*
X135753339Y-110625601D01*
X135847573Y-110614627D01*
X136153494Y-110560383D01*
X136176742Y-110554782D01*
X136662055Y-110554782D01*
X136665633Y-110569395D01*
X136682723Y-110581391D01*
X136684555Y-110582677D01*
X136710209Y-110586220D01*
X136756548Y-110585636D01*
X136813988Y-110579884D01*
X136878103Y-110569579D01*
X136941570Y-110555955D01*
X137196430Y-110555955D01*
X137197181Y-110558158D01*
X137202007Y-110581768D01*
X137206947Y-110618934D01*
X137211550Y-110664132D01*
X137215365Y-110711837D01*
X137217941Y-110756526D01*
X137218826Y-110792675D01*
X137217569Y-110814757D01*
X137211149Y-110848980D01*
X137254102Y-110848267D01*
X137291497Y-110844506D01*
X137346658Y-110832548D01*
X137406638Y-110814224D01*
X137464555Y-110791391D01*
X137512055Y-110770104D01*
X137511688Y-110677042D01*
X137511655Y-110672678D01*
X137509867Y-110627397D01*
X137505855Y-110578740D01*
X137500251Y-110531379D01*
X137493683Y-110489984D01*
X137486784Y-110459226D01*
X137480185Y-110443775D01*
X137478166Y-110443451D01*
X137462081Y-110447820D01*
X137434118Y-110458609D01*
X137398778Y-110474137D01*
X137396159Y-110475340D01*
X137349223Y-110495103D01*
X137333728Y-110500812D01*
X137299394Y-110513462D01*
X137257031Y-110526585D01*
X137228341Y-110535043D01*
X137202844Y-110546225D01*
X137196430Y-110555955D01*
X136941570Y-110555955D01*
X136944463Y-110555334D01*
X137008642Y-110537762D01*
X137031566Y-110530272D01*
X137059282Y-110517230D01*
X137071027Y-110500812D01*
X137069086Y-110476210D01*
X137055743Y-110438616D01*
X137047663Y-110420501D01*
X137035875Y-110405105D01*
X137023243Y-110404461D01*
X136990505Y-110417412D01*
X136939963Y-110436606D01*
X136882779Y-110457742D01*
X136825271Y-110478515D01*
X136773757Y-110496623D01*
X136734555Y-110509759D01*
X136699874Y-110521535D01*
X136676331Y-110532165D01*
X136664991Y-110542461D01*
X136662055Y-110554782D01*
X136176742Y-110554782D01*
X136451720Y-110488533D01*
X136741444Y-110399291D01*
X136852192Y-110357261D01*
X137134406Y-110357261D01*
X137155726Y-110418120D01*
X137165110Y-110442374D01*
X137179644Y-110469326D01*
X137192051Y-110478532D01*
X137209622Y-110475891D01*
X137243305Y-110466610D01*
X137284970Y-110452410D01*
X137330108Y-110435121D01*
X137374214Y-110416573D01*
X137412780Y-110398595D01*
X137441300Y-110383017D01*
X137455267Y-110371670D01*
X137455431Y-110371314D01*
X137453981Y-110357627D01*
X137446722Y-110331130D01*
X137435109Y-110297209D01*
X137410324Y-110230438D01*
X137313690Y-110275718D01*
X137286104Y-110288598D01*
X137241462Y-110309269D01*
X137202624Y-110327054D01*
X137175731Y-110339130D01*
X137134406Y-110357261D01*
X136852192Y-110357261D01*
X137021859Y-110292871D01*
X137221511Y-110201733D01*
X137508350Y-110201733D01*
X137517585Y-110230960D01*
X137535569Y-110273980D01*
X137560962Y-110333980D01*
X137634009Y-110335297D01*
X137641840Y-110335326D01*
X137674782Y-110334655D01*
X137724126Y-110332999D01*
X137787306Y-110330470D01*
X137861756Y-110327178D01*
X137944908Y-110323236D01*
X138034197Y-110318756D01*
X138127055Y-110313849D01*
X138140269Y-110313134D01*
X138248830Y-110307387D01*
X138371534Y-110301071D01*
X138503234Y-110294440D01*
X138638784Y-110287749D01*
X138773035Y-110281252D01*
X138900842Y-110275204D01*
X139017055Y-110269859D01*
X139195090Y-110261814D01*
X139354682Y-110254588D01*
X139497319Y-110248108D01*
X139624515Y-110242303D01*
X139737781Y-110237100D01*
X139838631Y-110232427D01*
X139928578Y-110228210D01*
X140009134Y-110224377D01*
X140081812Y-110220856D01*
X140148125Y-110217573D01*
X140209586Y-110214457D01*
X140267707Y-110211434D01*
X140324002Y-110208433D01*
X140379983Y-110205380D01*
X140437164Y-110202203D01*
X140497055Y-110198829D01*
X140511189Y-110198027D01*
X140610008Y-110192346D01*
X140716340Y-110186121D01*
X140824690Y-110179681D01*
X140929559Y-110173355D01*
X141025452Y-110167472D01*
X141106872Y-110162359D01*
X141376689Y-110145140D01*
X141405247Y-110114560D01*
X141415297Y-110103594D01*
X141447469Y-110067044D01*
X141488430Y-110019097D01*
X141535650Y-109962823D01*
X141586595Y-109901291D01*
X141638733Y-109837571D01*
X141689531Y-109774733D01*
X141736458Y-109715846D01*
X141776979Y-109663980D01*
X141958418Y-109419960D01*
X142143853Y-109152279D01*
X142321218Y-108877346D01*
X142488033Y-108599154D01*
X142641816Y-108321701D01*
X142780085Y-108048980D01*
X142840287Y-107921559D01*
X143004266Y-107545643D01*
X143152270Y-107161255D01*
X143283688Y-106770445D01*
X143397913Y-106375262D01*
X143494334Y-105977757D01*
X143572342Y-105579980D01*
X143631330Y-105183980D01*
X143662260Y-104900598D01*
X143691169Y-104488721D01*
X143700809Y-104079601D01*
X143691207Y-103673769D01*
X143662394Y-103271758D01*
X143614399Y-102874102D01*
X143547251Y-102481331D01*
X143460980Y-102093980D01*
X143389956Y-101830222D01*
X143284756Y-101493920D01*
X143163132Y-101155448D01*
X143026344Y-100817572D01*
X142875651Y-100483060D01*
X142712313Y-100154677D01*
X142537589Y-99835192D01*
X142352738Y-99527370D01*
X142159021Y-99233980D01*
X142093729Y-99141032D01*
X141839692Y-98801191D01*
X141570622Y-98474090D01*
X141287124Y-98160238D01*
X140989799Y-97860150D01*
X140679251Y-97574336D01*
X140356084Y-97303310D01*
X140020899Y-97047582D01*
X139674301Y-96807666D01*
X139316893Y-96584073D01*
X138949276Y-96377316D01*
X138572055Y-96187907D01*
X138520229Y-96163400D01*
X138463864Y-96137136D01*
X138421921Y-96118841D01*
X138392250Y-96108265D01*
X138372703Y-96105156D01*
X138361129Y-96109266D01*
X138355380Y-96120345D01*
X138353306Y-96138143D01*
X138352758Y-96162409D01*
X138348877Y-96205475D01*
X138338649Y-96264640D01*
X138323229Y-96334241D01*
X138303751Y-96410121D01*
X138281349Y-96488122D01*
X138257156Y-96564089D01*
X138232308Y-96633864D01*
X138207937Y-96693291D01*
X138190273Y-96732602D01*
X138213664Y-96715501D01*
X138250101Y-96689407D01*
X138316659Y-96645687D01*
X138374597Y-96614271D01*
X138427376Y-96593673D01*
X138478457Y-96582405D01*
X138531300Y-96578980D01*
X138563336Y-96579632D01*
X138593480Y-96583659D01*
X138618908Y-96593480D01*
X138648200Y-96611480D01*
X138663945Y-96622861D01*
X138698284Y-96657105D01*
X138726831Y-96703290D01*
X138734468Y-96718526D01*
X138745012Y-96742421D01*
X138751529Y-96765024D01*
X138754894Y-96791655D01*
X138755987Y-96827637D01*
X138755684Y-96878290D01*
X138755457Y-96883980D01*
X138753460Y-96934065D01*
X138734848Y-97066298D01*
X138697373Y-97193001D01*
X138640836Y-97314637D01*
X138565038Y-97431672D01*
X138469780Y-97544569D01*
X138436476Y-97578735D01*
X138352137Y-97655286D01*
X138264991Y-97719091D01*
X138168972Y-97774795D01*
X138134658Y-97792917D01*
X138107420Y-97808715D01*
X138093316Y-97819888D01*
X138089670Y-97828660D01*
X138093809Y-97837252D01*
X138103177Y-97849071D01*
X138128440Y-97879875D01*
X138162662Y-97920822D01*
X138203171Y-97968778D01*
X138247293Y-98020608D01*
X138292357Y-98073178D01*
X138335690Y-98123353D01*
X138374619Y-98167998D01*
X138406473Y-98203980D01*
X138430516Y-98230663D01*
X138544725Y-98353912D01*
X138666408Y-98480094D01*
X138791705Y-98605399D01*
X138916750Y-98726016D01*
X139037682Y-98838136D01*
X139150637Y-98937948D01*
X139202527Y-98981993D01*
X139276218Y-99042707D01*
X139350720Y-99101678D01*
X139428377Y-99160605D01*
X139511536Y-99221187D01*
X139602543Y-99285123D01*
X139703744Y-99354112D01*
X139817486Y-99429854D01*
X139946115Y-99514047D01*
X140001249Y-99550116D01*
X140064998Y-99592340D01*
X140124507Y-99632284D01*
X140176628Y-99667816D01*
X140218213Y-99696807D01*
X140246115Y-99717125D01*
X140285250Y-99748005D01*
X140373206Y-99826580D01*
X140444631Y-99904938D01*
X140498495Y-99981865D01*
X140533766Y-100056146D01*
X140549283Y-100119763D01*
X140549820Y-100191946D01*
X140532153Y-100259260D01*
X140497246Y-100319496D01*
X140446059Y-100370448D01*
X140379555Y-100409908D01*
X140360153Y-100420495D01*
X140352055Y-100428746D01*
X140352069Y-100428889D01*
X140361030Y-100436338D01*
X140383398Y-100449151D01*
X140414500Y-100464641D01*
X140433020Y-100473699D01*
X140506364Y-100515099D01*
X140583976Y-100566258D01*
X140659312Y-100622655D01*
X140725826Y-100679765D01*
X140809171Y-100764338D01*
X140898624Y-100874120D01*
X140972836Y-100988552D01*
X141030947Y-101105849D01*
X141072098Y-101224227D01*
X141095429Y-101341901D01*
X141098396Y-101415363D01*
X141100081Y-101457086D01*
X141098829Y-101479023D01*
X141089531Y-101547003D01*
X141071031Y-101602621D01*
X141041135Y-101651026D01*
X140997647Y-101697366D01*
X140979448Y-101713017D01*
X140908708Y-101757089D01*
X140826941Y-101785115D01*
X140735217Y-101796817D01*
X140634605Y-101791915D01*
X140618287Y-101789816D01*
X140579002Y-101784543D01*
X140548497Y-101780138D01*
X140532306Y-101777387D01*
X140530954Y-101777166D01*
X140523924Y-101780822D01*
X140518546Y-101795307D01*
X140514065Y-101823675D01*
X140509730Y-101868980D01*
X140508607Y-101881918D01*
X140497834Y-101975574D01*
X140482062Y-102079671D01*
X140462606Y-102186864D01*
X140440784Y-102289808D01*
X140417912Y-102381160D01*
X140403978Y-102429288D01*
X140353917Y-102577867D01*
X140292286Y-102732414D01*
X140221555Y-102887404D01*
X140144190Y-103037312D01*
X140062659Y-103176613D01*
X139969921Y-103317219D01*
X139820471Y-103519200D01*
X139656528Y-103715145D01*
X139481223Y-103901585D01*
X139297688Y-104075056D01*
X139109056Y-104232090D01*
X139102850Y-104236917D01*
X139065180Y-104266594D01*
X139034195Y-104291627D01*
X139012957Y-104309507D01*
X139004528Y-104317725D01*
X139007069Y-104323702D01*
X139019978Y-104342506D01*
X139041420Y-104370451D01*
X139068809Y-104404063D01*
X139103457Y-104446086D01*
X139240289Y-104624695D01*
X139367744Y-104812865D01*
X139488027Y-105014013D01*
X139603345Y-105231555D01*
X139652433Y-105332125D01*
X139767015Y-105591388D01*
X139863706Y-105850326D01*
X139943574Y-106112300D01*
X140007687Y-106380671D01*
X140057115Y-106658799D01*
X140076961Y-106806333D01*
X140094913Y-106982946D01*
X140106115Y-107154584D01*
X140110726Y-107320044D01*
X140110180Y-107367521D01*
X140108908Y-107478123D01*
X140100819Y-107627618D01*
X140086619Y-107767327D01*
X140066469Y-107896047D01*
X140040529Y-108012576D01*
X140008957Y-108115710D01*
X139971915Y-108204248D01*
X139929562Y-108276985D01*
X139882058Y-108332721D01*
X139829563Y-108370251D01*
X139826193Y-108371940D01*
X139792613Y-108384037D01*
X139759009Y-108384747D01*
X139716966Y-108374378D01*
X139705657Y-108373493D01*
X139694625Y-108381242D01*
X139681472Y-108400984D01*
X139663392Y-108435944D01*
X139637449Y-108485754D01*
X139561710Y-108609182D01*
X139470082Y-108733686D01*
X139365067Y-108856633D01*
X139249166Y-108975391D01*
X139124880Y-109087327D01*
X138994710Y-109189810D01*
X138861158Y-109280207D01*
X138824517Y-109302079D01*
X138757983Y-109338727D01*
X138685887Y-109375483D01*
X138613831Y-109409629D01*
X138547421Y-109438446D01*
X138492259Y-109459213D01*
X138470330Y-109467067D01*
X138446192Y-109478172D01*
X138422388Y-109493138D01*
X138395346Y-109514582D01*
X138361494Y-109545120D01*
X138317259Y-109587368D01*
X138314522Y-109590011D01*
X138263265Y-109638072D01*
X138205330Y-109690256D01*
X138147624Y-109740441D01*
X138097055Y-109782507D01*
X138078739Y-109797024D01*
X138016472Y-109844124D01*
X137944273Y-109896138D01*
X137866414Y-109950182D01*
X137787166Y-110003372D01*
X137710803Y-110052824D01*
X137641596Y-110095655D01*
X137583817Y-110128980D01*
X137549440Y-110147819D01*
X137522648Y-110165060D01*
X137509494Y-110181399D01*
X137508350Y-110201733D01*
X137221511Y-110201733D01*
X137292158Y-110169484D01*
X137343622Y-110143485D01*
X137586261Y-110009159D01*
X137813134Y-109863116D01*
X138025046Y-109704715D01*
X138222803Y-109533318D01*
X138407210Y-109348286D01*
X138441270Y-109308788D01*
X138588392Y-109308788D01*
X138592328Y-109307903D01*
X138612412Y-109299371D01*
X138644172Y-109283517D01*
X138683729Y-109262472D01*
X138727205Y-109238372D01*
X138770721Y-109213349D01*
X138810398Y-109189537D01*
X138842359Y-109169069D01*
X138969779Y-109077374D01*
X139121633Y-108951229D01*
X139259882Y-108816482D01*
X139382946Y-108674833D01*
X139489249Y-108527982D01*
X139577211Y-108377629D01*
X139624310Y-108286438D01*
X139604264Y-108250209D01*
X139603944Y-108249628D01*
X139590180Y-108221264D01*
X139573680Y-108182438D01*
X139556213Y-108137959D01*
X139539548Y-108092632D01*
X139525454Y-108051266D01*
X139515700Y-108018669D01*
X139512055Y-107999647D01*
X139519169Y-107980999D01*
X139537465Y-107962792D01*
X139564009Y-107951705D01*
X139587917Y-107957373D01*
X139608254Y-107981675D01*
X139625931Y-108025258D01*
X139633337Y-108047640D01*
X139652281Y-108097654D01*
X139674156Y-108148466D01*
X139696646Y-108195134D01*
X139717435Y-108232715D01*
X139734205Y-108256268D01*
X139745393Y-108266870D01*
X139767806Y-108277402D01*
X139791075Y-108270753D01*
X139819059Y-108246480D01*
X139838064Y-108223888D01*
X139875254Y-108162874D01*
X139908603Y-108084936D01*
X139937816Y-107991961D01*
X139962598Y-107885834D01*
X139982654Y-107768442D01*
X139997689Y-107641668D01*
X140007408Y-107507399D01*
X140011517Y-107367521D01*
X140009720Y-107223919D01*
X140001723Y-107078478D01*
X139985174Y-106903994D01*
X139952097Y-106659183D01*
X139908306Y-106416479D01*
X139855126Y-106183980D01*
X139808495Y-106017700D01*
X139733979Y-105794932D01*
X139646183Y-105571201D01*
X139546986Y-105350624D01*
X139438268Y-105137317D01*
X139321909Y-104935396D01*
X139199789Y-104748980D01*
X139187412Y-104731447D01*
X139142955Y-104669948D01*
X139096041Y-104606984D01*
X139049442Y-104546136D01*
X139005925Y-104490985D01*
X138968261Y-104445111D01*
X138939220Y-104412096D01*
X138909326Y-104380212D01*
X138834934Y-104430411D01*
X138794835Y-104459404D01*
X138771404Y-104481169D01*
X138765973Y-104494764D01*
X138767716Y-104498433D01*
X138778991Y-104517720D01*
X138797512Y-104546976D01*
X138820302Y-104581448D01*
X138840277Y-104611535D01*
X138897025Y-104701034D01*
X138957269Y-104801070D01*
X139017732Y-104906002D01*
X139075137Y-105010190D01*
X139126207Y-105107992D01*
X139144675Y-105144909D01*
X139236786Y-105341289D01*
X139313749Y-105529005D01*
X139376338Y-105710811D01*
X139425324Y-105889458D01*
X139461481Y-106067700D01*
X139485580Y-106248289D01*
X139498396Y-106433980D01*
X139499815Y-106577064D01*
X139491350Y-106714012D01*
X139472551Y-106833866D01*
X139443420Y-106936616D01*
X139403957Y-107022256D01*
X139354166Y-107090776D01*
X139314566Y-107133980D01*
X139309005Y-107373980D01*
X139308389Y-107398949D01*
X139304345Y-107512195D01*
X139298213Y-107611962D01*
X139289389Y-107703637D01*
X139277270Y-107792607D01*
X139261253Y-107884258D01*
X139240736Y-107983980D01*
X139240316Y-107985907D01*
X139195305Y-108162861D01*
X139137799Y-108341268D01*
X139069286Y-108518079D01*
X138991249Y-108690245D01*
X138905173Y-108854717D01*
X138812545Y-109008446D01*
X138714849Y-109148383D01*
X138613571Y-109271480D01*
X138601371Y-109285707D01*
X138589411Y-109302372D01*
X138588392Y-109308788D01*
X138441270Y-109308788D01*
X138579074Y-109148980D01*
X138604307Y-109117148D01*
X138685202Y-109008421D01*
X138757414Y-108899265D01*
X138825002Y-108783258D01*
X138892026Y-108653980D01*
X138942844Y-108547130D01*
X139011041Y-108386742D01*
X139067271Y-108229330D01*
X139113600Y-108068894D01*
X139152096Y-107899435D01*
X139167543Y-107820185D01*
X139180079Y-107749200D01*
X139189568Y-107684780D01*
X139196596Y-107621609D01*
X139201750Y-107554378D01*
X139205619Y-107477771D01*
X139208788Y-107386478D01*
X139215021Y-107178976D01*
X139156038Y-107184823D01*
X139143667Y-107185746D01*
X139070636Y-107180003D01*
X138994975Y-107156212D01*
X138919601Y-107115231D01*
X138918045Y-107114191D01*
X138879589Y-107084754D01*
X138836611Y-107045995D01*
X138791527Y-107000759D01*
X138746752Y-106951893D01*
X138704702Y-106902245D01*
X138667792Y-106854661D01*
X138638438Y-106811987D01*
X138619054Y-106777070D01*
X138612056Y-106752758D01*
X138617671Y-106729897D01*
X138636627Y-106707839D01*
X138662868Y-106698980D01*
X138667667Y-106699080D01*
X138676173Y-106700781D01*
X138685296Y-106706506D01*
X138697272Y-106718680D01*
X138714334Y-106739730D01*
X138738718Y-106772081D01*
X138772659Y-106818161D01*
X138820932Y-106880576D01*
X138886381Y-106953193D01*
X138950142Y-107008847D01*
X139013953Y-107048994D01*
X139079555Y-107075091D01*
X139097067Y-107079967D01*
X139125599Y-107085164D01*
X139151583Y-107083455D01*
X139185667Y-107074813D01*
X139199836Y-107070171D01*
X139248511Y-107044238D01*
X139289871Y-107004095D01*
X139324826Y-106948380D01*
X139354285Y-106875730D01*
X139379155Y-106784783D01*
X139380352Y-106779204D01*
X139387241Y-106731183D01*
X139392070Y-106667972D01*
X139394847Y-106593663D01*
X139395578Y-106512353D01*
X139394270Y-106428134D01*
X139390931Y-106345103D01*
X139385566Y-106267353D01*
X139378182Y-106198980D01*
X139349092Y-106024696D01*
X139306623Y-105843492D01*
X139251086Y-105660881D01*
X139181845Y-105475309D01*
X139098266Y-105285222D01*
X138999714Y-105089064D01*
X138885555Y-104885281D01*
X138755155Y-104672320D01*
X138671396Y-104540660D01*
X138559226Y-104610753D01*
X138539597Y-104622757D01*
X138477335Y-104658616D01*
X138403440Y-104698744D01*
X138322041Y-104741094D01*
X138237269Y-104783616D01*
X138153254Y-104824261D01*
X138074127Y-104860980D01*
X138004017Y-104891725D01*
X137947055Y-104914445D01*
X137944269Y-104915470D01*
X137899852Y-104931376D01*
X137869620Y-104940744D01*
X137849376Y-104944341D01*
X137834920Y-104942932D01*
X137822055Y-104937287D01*
X137811266Y-104929143D01*
X137796841Y-104906269D01*
X137793827Y-104881205D01*
X137804050Y-104861623D01*
X137812978Y-104856522D01*
X137838262Y-104845104D01*
X137874478Y-104830311D01*
X137917055Y-104814068D01*
X138049568Y-104760473D01*
X138209194Y-104685103D01*
X138377336Y-104595054D01*
X138552414Y-104491223D01*
X138732847Y-104374508D01*
X138917055Y-104245808D01*
X139033028Y-104158599D01*
X139231814Y-103993167D01*
X139419197Y-103816389D01*
X139593948Y-103629794D01*
X139754842Y-103434910D01*
X139900652Y-103233265D01*
X140030152Y-103026387D01*
X140142115Y-102815805D01*
X140235315Y-102603048D01*
X140254314Y-102552421D01*
X140296735Y-102423410D01*
X140334245Y-102286722D01*
X140365787Y-102147333D01*
X140390301Y-102010219D01*
X140406731Y-101880356D01*
X140414018Y-101762720D01*
X140415755Y-101717488D01*
X140421097Y-101681635D01*
X140432992Y-101661228D01*
X140454559Y-101653944D01*
X140488918Y-101657457D01*
X140539190Y-101669443D01*
X140629077Y-101687539D01*
X140714405Y-101693548D01*
X140789604Y-101686718D01*
X140852055Y-101667068D01*
X140884719Y-101650194D01*
X140935399Y-101613897D01*
X140969853Y-101570579D01*
X140990541Y-101516600D01*
X140999922Y-101448324D01*
X141000628Y-101415363D01*
X140990665Y-101323174D01*
X140963382Y-101223155D01*
X140918597Y-101114553D01*
X140881402Y-101041325D01*
X140832877Y-100961807D01*
X140776693Y-100887369D01*
X140707843Y-100810793D01*
X140693609Y-100796167D01*
X140580848Y-100693966D01*
X140461100Y-100609523D01*
X140331777Y-100541222D01*
X140190295Y-100487446D01*
X140183698Y-100485338D01*
X140131381Y-100466687D01*
X140096798Y-100449480D01*
X140078135Y-100432100D01*
X140073579Y-100412933D01*
X140081315Y-100390363D01*
X140088613Y-100379516D01*
X140100731Y-100370613D01*
X140120729Y-100364311D01*
X140152637Y-100359401D01*
X140200487Y-100354677D01*
X140207525Y-100353999D01*
X140278456Y-100340092D01*
X140339827Y-100315270D01*
X140389570Y-100281304D01*
X140425619Y-100239966D01*
X140445908Y-100193026D01*
X140448370Y-100142255D01*
X140442403Y-100111969D01*
X140424469Y-100063674D01*
X140394728Y-100013991D01*
X140351341Y-99960049D01*
X140292470Y-99898980D01*
X140284438Y-99891173D01*
X140259075Y-99867058D01*
X140233939Y-99844320D01*
X140207329Y-99821737D01*
X140177540Y-99798085D01*
X140142872Y-99772140D01*
X140101622Y-99742679D01*
X140052088Y-99708478D01*
X139992566Y-99668314D01*
X139921355Y-99620963D01*
X139836752Y-99565202D01*
X139737055Y-99499807D01*
X139620105Y-99422166D01*
X139476142Y-99322934D01*
X139343770Y-99226715D01*
X139219208Y-99130468D01*
X139098675Y-99031151D01*
X138978391Y-98925722D01*
X138854573Y-98811140D01*
X138723441Y-98684362D01*
X138630539Y-98591363D01*
X138531409Y-98489136D01*
X138430927Y-98382785D01*
X138331774Y-98275253D01*
X138236629Y-98169482D01*
X138148172Y-98068416D01*
X138069083Y-97974997D01*
X138002041Y-97892167D01*
X137977055Y-97860355D01*
X137894393Y-97886678D01*
X137877957Y-97892059D01*
X137844576Y-97904062D01*
X137821994Y-97913761D01*
X137814393Y-97919442D01*
X137814488Y-97919627D01*
X137823636Y-97928838D01*
X137844987Y-97947903D01*
X137875481Y-97974144D01*
X137912055Y-98004882D01*
X137964923Y-98050003D01*
X138071249Y-98146683D01*
X138181714Y-98254024D01*
X138292255Y-98367793D01*
X138398813Y-98483753D01*
X138497326Y-98597669D01*
X138583732Y-98705308D01*
X138653580Y-98799362D01*
X138806363Y-99027279D01*
X138946546Y-99268309D01*
X139073132Y-99520025D01*
X139185122Y-99780001D01*
X139281520Y-100045811D01*
X139361327Y-100315028D01*
X139423546Y-100585226D01*
X139467180Y-100853980D01*
X139468084Y-100861168D01*
X139482927Y-101013245D01*
X139491391Y-101175448D01*
X139493323Y-101327495D01*
X139493507Y-101341949D01*
X139489306Y-101506922D01*
X139478819Y-101664541D01*
X139462079Y-101808980D01*
X139453160Y-101866309D01*
X139407850Y-102088836D01*
X139347330Y-102301418D01*
X139272157Y-102503374D01*
X139182888Y-102694027D01*
X139080079Y-102872698D01*
X138964289Y-103038707D01*
X138836074Y-103191376D01*
X138695991Y-103330026D01*
X138544597Y-103453979D01*
X138382450Y-103562554D01*
X138210106Y-103655075D01*
X138028122Y-103730861D01*
X137837055Y-103789235D01*
X137704947Y-103817202D01*
X137531330Y-103839880D01*
X137349778Y-103849441D01*
X137164279Y-103845848D01*
X136978823Y-103829064D01*
X136797399Y-103799050D01*
X136754720Y-103789861D01*
X136547232Y-103733912D01*
X136338493Y-103659462D01*
X136130288Y-103567515D01*
X135924400Y-103459071D01*
X135722616Y-103335132D01*
X135526719Y-103196697D01*
X135338494Y-103044770D01*
X135159726Y-102880350D01*
X135122246Y-102843920D01*
X135085644Y-102809170D01*
X135056190Y-102782112D01*
X135036223Y-102764888D01*
X135028081Y-102759642D01*
X135025396Y-102764296D01*
X135015882Y-102784138D01*
X135001625Y-102815579D01*
X134984544Y-102854438D01*
X134982120Y-102859793D01*
X134961731Y-102904829D01*
X134942586Y-102942813D01*
X134922688Y-102982289D01*
X134882631Y-103052093D01*
X134868449Y-103073577D01*
X134843086Y-103111997D01*
X134805578Y-103159758D01*
X134771633Y-103193132D01*
X134742779Y-103209875D01*
X134712124Y-103213511D01*
X134663996Y-103210146D01*
X134603998Y-103199823D01*
X134535404Y-103183339D01*
X134461489Y-103161488D01*
X134385526Y-103135068D01*
X134310789Y-103104873D01*
X134305146Y-103103495D01*
X134299134Y-103107867D01*
X134294770Y-103122580D01*
X134291238Y-103150847D01*
X134287723Y-103195883D01*
X134281168Y-103278887D01*
X134251440Y-103528950D01*
X134207667Y-103770246D01*
X134150327Y-104002106D01*
X134079896Y-104223863D01*
X133996851Y-104434851D01*
X133901669Y-104634402D01*
X133794828Y-104821849D01*
X133676804Y-104996525D01*
X133548074Y-105157762D01*
X133409115Y-105304894D01*
X133260405Y-105437253D01*
X133102419Y-105554173D01*
X132935636Y-105654985D01*
X132760532Y-105739023D01*
X132577584Y-105805619D01*
X132387269Y-105854107D01*
X132347962Y-105861668D01*
X132146643Y-105888387D01*
X131944253Y-105895573D01*
X131741593Y-105883531D01*
X131539462Y-105852564D01*
X131338661Y-105802977D01*
X131139990Y-105735074D01*
X130944248Y-105649160D01*
X130752236Y-105545540D01*
X130564752Y-105424517D01*
X130382598Y-105286395D01*
X130206572Y-105131480D01*
X130037476Y-104960075D01*
X129888440Y-104787338D01*
X129729696Y-104576609D01*
X129582757Y-104351884D01*
X129448355Y-104114795D01*
X129327220Y-103866974D01*
X129220082Y-103610051D01*
X129127674Y-103345659D01*
X129050726Y-103075428D01*
X128989969Y-102800991D01*
X128946134Y-102523980D01*
X128938521Y-102452761D01*
X128930502Y-102339289D01*
X128925495Y-102213351D01*
X128923458Y-102079197D01*
X128923848Y-102018980D01*
X129027574Y-102018980D01*
X129027671Y-102087354D01*
X129028351Y-102180847D01*
X129029780Y-102259507D01*
X129032079Y-102326492D01*
X129035367Y-102384961D01*
X129039764Y-102438071D01*
X129045390Y-102488980D01*
X129056233Y-102570429D01*
X129106129Y-102854181D01*
X129174258Y-103136323D01*
X129259783Y-103414330D01*
X129361867Y-103685676D01*
X129479671Y-103947834D01*
X129612358Y-104198280D01*
X129709341Y-104358803D01*
X129851490Y-104567436D01*
X130003240Y-104761698D01*
X130163871Y-104941042D01*
X130332660Y-105104917D01*
X130508886Y-105252777D01*
X130691830Y-105384071D01*
X130880769Y-105498252D01*
X131074982Y-105594770D01*
X131273748Y-105673078D01*
X131476346Y-105732626D01*
X131682055Y-105772866D01*
X131853255Y-105790763D01*
X132048322Y-105792996D01*
X132240400Y-105775454D01*
X132429460Y-105738141D01*
X132615476Y-105681062D01*
X132798420Y-105604219D01*
X132878795Y-105563991D01*
X133001101Y-105494169D01*
X133115233Y-105416815D01*
X133226425Y-105328262D01*
X133339908Y-105224843D01*
X133444046Y-105117429D01*
X133577995Y-104955413D01*
X133699977Y-104778580D01*
X133809575Y-104587925D01*
X133906370Y-104384446D01*
X133989944Y-104169141D01*
X134059881Y-103943008D01*
X134115763Y-103707043D01*
X134157171Y-103462244D01*
X134183689Y-103209609D01*
X134186454Y-103170287D01*
X134189654Y-103113116D01*
X134190480Y-103073577D01*
X134188944Y-103050233D01*
X134185058Y-103041647D01*
X134183755Y-103041109D01*
X134168349Y-103032173D01*
X134142374Y-103015337D01*
X134119930Y-103000033D01*
X134674672Y-103000033D01*
X134676397Y-103017914D01*
X134685747Y-103027657D01*
X134704387Y-103028947D01*
X134724939Y-103013621D01*
X134744600Y-102983111D01*
X134755467Y-102960105D01*
X134761227Y-102942813D01*
X134758651Y-102932607D01*
X134748089Y-102923498D01*
X134735617Y-102916845D01*
X134712477Y-102918754D01*
X134705905Y-102924205D01*
X134692288Y-102945312D01*
X134680923Y-102973211D01*
X134674672Y-103000033D01*
X134119930Y-103000033D01*
X134110668Y-102993717D01*
X134047055Y-102949379D01*
X134039424Y-103056679D01*
X134034518Y-103121056D01*
X134013090Y-103333327D01*
X133984380Y-103530219D01*
X133947786Y-103714473D01*
X133902707Y-103888833D01*
X133848543Y-104056040D01*
X133784693Y-104218837D01*
X133761556Y-104271611D01*
X133665269Y-104465103D01*
X133556869Y-104645527D01*
X133437105Y-104812136D01*
X133306722Y-104964184D01*
X133166468Y-105100926D01*
X133017090Y-105221616D01*
X132859334Y-105325508D01*
X132693948Y-105411856D01*
X132521679Y-105479914D01*
X132444968Y-105503948D01*
X132270262Y-105546123D01*
X132096270Y-105570035D01*
X131920488Y-105575822D01*
X131740416Y-105563624D01*
X131553550Y-105533578D01*
X131452220Y-105510006D01*
X131267577Y-105452361D01*
X131082004Y-105375849D01*
X130896736Y-105281067D01*
X130713009Y-105168612D01*
X130532055Y-105039083D01*
X130512822Y-105023831D01*
X130457311Y-104976321D01*
X130393597Y-104917882D01*
X130324879Y-104851749D01*
X130254355Y-104781160D01*
X130185222Y-104709352D01*
X130120680Y-104639561D01*
X130063925Y-104575025D01*
X130018157Y-104518980D01*
X129883371Y-104334458D01*
X129732123Y-104097689D01*
X129599165Y-103852918D01*
X129484390Y-103599904D01*
X129387691Y-103338404D01*
X129308960Y-103068176D01*
X129248089Y-102788980D01*
X129236447Y-102721743D01*
X129207335Y-102504184D01*
X129189719Y-102281070D01*
X129184343Y-102085253D01*
X129286931Y-102085253D01*
X129288516Y-102197248D01*
X129292139Y-102303301D01*
X129297800Y-102398763D01*
X129305500Y-102478980D01*
X129309222Y-102508554D01*
X129355665Y-102797136D01*
X129419199Y-103075334D01*
X129499826Y-103343150D01*
X129597549Y-103600590D01*
X129712368Y-103847658D01*
X129844285Y-104084357D01*
X129993304Y-104310693D01*
X130159424Y-104526669D01*
X130163983Y-104532140D01*
X130218093Y-104593670D01*
X130282828Y-104662391D01*
X130354297Y-104734532D01*
X130428605Y-104806326D01*
X130501861Y-104874002D01*
X130570171Y-104933793D01*
X130629642Y-104981928D01*
X130764224Y-105078673D01*
X130945306Y-105190744D01*
X131129547Y-105284772D01*
X131315865Y-105360275D01*
X131503180Y-105416773D01*
X131690412Y-105453786D01*
X131782614Y-105465000D01*
X131960624Y-105473496D01*
X132134007Y-105463503D01*
X132305241Y-105434813D01*
X132476803Y-105387215D01*
X132563191Y-105355920D01*
X132727920Y-105280515D01*
X132884836Y-105187573D01*
X133033335Y-105077914D01*
X133172810Y-104952358D01*
X133302654Y-104811725D01*
X133422263Y-104656833D01*
X133531030Y-104488504D01*
X133628349Y-104307557D01*
X133713614Y-104114811D01*
X133786219Y-103911086D01*
X133845559Y-103697202D01*
X133891027Y-103473980D01*
X133896436Y-103440979D01*
X133910820Y-103340951D01*
X133922121Y-103239345D01*
X133930955Y-103130032D01*
X133937938Y-103006886D01*
X133944911Y-102859793D01*
X133875352Y-102786886D01*
X133826874Y-102734800D01*
X133789121Y-102690635D01*
X133759122Y-102650198D01*
X133733292Y-102608650D01*
X133708043Y-102561151D01*
X133690766Y-102524795D01*
X133660592Y-102443008D01*
X133643957Y-102360555D01*
X133638857Y-102268980D01*
X133638863Y-102265710D01*
X133646176Y-102161609D01*
X133668116Y-102068671D01*
X133705869Y-101983322D01*
X133760620Y-101901988D01*
X133800780Y-101851181D01*
X133766745Y-101737948D01*
X133705106Y-101550275D01*
X133608967Y-101306869D01*
X133497602Y-101072174D01*
X133371847Y-100847363D01*
X133232541Y-100633609D01*
X133080520Y-100432083D01*
X132916624Y-100243959D01*
X132741689Y-100070409D01*
X132556554Y-99912606D01*
X132362055Y-99771722D01*
X132348942Y-99763082D01*
X132284774Y-99722403D01*
X132218095Y-99682442D01*
X132151662Y-99644650D01*
X132088234Y-99610476D01*
X132030565Y-99581372D01*
X131981414Y-99558788D01*
X131943536Y-99544173D01*
X131919689Y-99538980D01*
X131906950Y-99539892D01*
X131872757Y-99545014D01*
X131825587Y-99553883D01*
X131769395Y-99565628D01*
X131708133Y-99579379D01*
X131645757Y-99594267D01*
X131586219Y-99609421D01*
X131533474Y-99623971D01*
X131532367Y-99624292D01*
X131329010Y-99692131D01*
X131126127Y-99777290D01*
X130922595Y-99880338D01*
X130717291Y-100001842D01*
X130509094Y-100142370D01*
X130467187Y-100172575D01*
X130398686Y-100223055D01*
X130329864Y-100275310D01*
X130258295Y-100331273D01*
X130181554Y-100392876D01*
X130097215Y-100462053D01*
X130002854Y-100540735D01*
X129896045Y-100630856D01*
X129894497Y-100632168D01*
X129830059Y-100686589D01*
X129764560Y-100741579D01*
X129701254Y-100794428D01*
X129643398Y-100842426D01*
X129594247Y-100882863D01*
X129557055Y-100913030D01*
X129544686Y-100922982D01*
X129505075Y-100955469D01*
X129471518Y-100983907D01*
X129447238Y-101005526D01*
X129435459Y-101017554D01*
X129432256Y-101022849D01*
X129420366Y-101051892D01*
X129406533Y-101097066D01*
X129391353Y-101155563D01*
X129375425Y-101224572D01*
X129359345Y-101301284D01*
X129343711Y-101382891D01*
X129329120Y-101466582D01*
X129316170Y-101549548D01*
X129305458Y-101628980D01*
X129300984Y-101670897D01*
X129294412Y-101760139D01*
X129289879Y-101862047D01*
X129287386Y-101971969D01*
X129286931Y-102085253D01*
X129184343Y-102085253D01*
X129183542Y-102056093D01*
X129188748Y-101832945D01*
X129205282Y-101615319D01*
X129233086Y-101406907D01*
X129272106Y-101211400D01*
X129276164Y-101194009D01*
X129283917Y-101158610D01*
X129288697Y-101133477D01*
X129289596Y-101123187D01*
X129289494Y-101123138D01*
X129279761Y-101127994D01*
X129257047Y-101142036D01*
X129224604Y-101163191D01*
X129185688Y-101189385D01*
X129084576Y-101258378D01*
X129072952Y-101336179D01*
X129060194Y-101424666D01*
X129049875Y-101504774D01*
X129041913Y-101579406D01*
X129036024Y-101652807D01*
X129031928Y-101729221D01*
X129029343Y-101812892D01*
X129027985Y-101908063D01*
X129027574Y-102018980D01*
X128923848Y-102018980D01*
X128924352Y-101941079D01*
X128928136Y-101803247D01*
X128934771Y-101669952D01*
X128944217Y-101545446D01*
X128956432Y-101433980D01*
X128960073Y-101404732D01*
X128964065Y-101367246D01*
X128966029Y-101340725D01*
X128965580Y-101329587D01*
X128962875Y-101329553D01*
X128945964Y-101335247D01*
X128917423Y-101347396D01*
X128881509Y-101364246D01*
X128853257Y-101378241D01*
X128825697Y-101393349D01*
X128810860Y-101404929D01*
X128805499Y-101415764D01*
X128806364Y-101428638D01*
X128808167Y-101441140D01*
X128811275Y-101476814D01*
X128814351Y-101528165D01*
X128817329Y-101592466D01*
X128820138Y-101666989D01*
X128822711Y-101749005D01*
X128824979Y-101835788D01*
X128826873Y-101924608D01*
X128828326Y-102012738D01*
X128829267Y-102097450D01*
X128829630Y-102176016D01*
X128829345Y-102245708D01*
X128828344Y-102303798D01*
X128828134Y-102311544D01*
X128822581Y-102479872D01*
X128815244Y-102634898D01*
X128805666Y-102779850D01*
X128793391Y-102917953D01*
X128777963Y-103052435D01*
X128758926Y-103186522D01*
X128735823Y-103323442D01*
X128708199Y-103466421D01*
X128675597Y-103618685D01*
X128637560Y-103783463D01*
X128593634Y-103963980D01*
X128585313Y-103997610D01*
X128559840Y-104102430D01*
X128539199Y-104191089D01*
X128522949Y-104265991D01*
X128510650Y-104329538D01*
X128501864Y-104384134D01*
X128496148Y-104432181D01*
X128493065Y-104476083D01*
X128492174Y-104518242D01*
X128392893Y-104518242D01*
X128394481Y-104453401D01*
X128399362Y-104383269D01*
X128407368Y-104318980D01*
X128412662Y-104290388D01*
X128422482Y-104243275D01*
X128435883Y-104182356D01*
X128452201Y-104110549D01*
X128470773Y-104030772D01*
X128490933Y-103945943D01*
X128512020Y-103858980D01*
X128517242Y-103837616D01*
X128556516Y-103673076D01*
X128590065Y-103524590D01*
X128618359Y-103389536D01*
X128641866Y-103265293D01*
X128661058Y-103149238D01*
X128676403Y-103038749D01*
X128688372Y-102931203D01*
X128697434Y-102823980D01*
X128698672Y-102807252D01*
X128702107Y-102764961D01*
X128705350Y-102730119D01*
X128707833Y-102708980D01*
X128707919Y-102708389D01*
X128709387Y-102690643D01*
X128711452Y-102655977D01*
X128713972Y-102607232D01*
X128716807Y-102547254D01*
X128719817Y-102478884D01*
X128722861Y-102404967D01*
X128723775Y-102379491D01*
X128725582Y-102305936D01*
X128726637Y-102223053D01*
X128726988Y-102133507D01*
X128726682Y-102039965D01*
X128725766Y-101945092D01*
X128724287Y-101851556D01*
X128722292Y-101762021D01*
X128719830Y-101679155D01*
X128716947Y-101605623D01*
X128713690Y-101544091D01*
X128710106Y-101497225D01*
X128706244Y-101467692D01*
X128700999Y-101441405D01*
X128639875Y-101460429D01*
X128614899Y-101467827D01*
X128486960Y-101495189D01*
X128353709Y-101507652D01*
X128219120Y-101505454D01*
X128087165Y-101488831D01*
X127961819Y-101458019D01*
X127847055Y-101413255D01*
X127846572Y-101413023D01*
X127767387Y-101370443D01*
X127691457Y-101320803D01*
X127621930Y-101266770D01*
X127561952Y-101211010D01*
X127514670Y-101156191D01*
X127483232Y-101104978D01*
X127468897Y-101065883D01*
X127459205Y-101001647D01*
X127465206Y-100939015D01*
X127486810Y-100883496D01*
X127519838Y-100841990D01*
X127573194Y-100801538D01*
X127641598Y-100768675D01*
X127722859Y-100744427D01*
X127814787Y-100729821D01*
X127887055Y-100722752D01*
X127842055Y-100704037D01*
X127722013Y-100648328D01*
X127571131Y-100559993D01*
X127427905Y-100454097D01*
X127291009Y-100329739D01*
X127254447Y-100293065D01*
X127214489Y-100251957D01*
X127184339Y-100218865D01*
X127161319Y-100190405D01*
X127142747Y-100163194D01*
X127125942Y-100133846D01*
X127108226Y-100098980D01*
X127086559Y-100051626D01*
X127058325Y-99969358D01*
X127046734Y-99895627D01*
X127049212Y-99861937D01*
X127152255Y-99861937D01*
X127153727Y-99898511D01*
X127161120Y-99949722D01*
X127188347Y-100027920D01*
X127234914Y-100109510D01*
X127300660Y-100194168D01*
X127382690Y-100279884D01*
X127507953Y-100387118D01*
X127649998Y-100485095D01*
X127808051Y-100573349D01*
X127981338Y-100651411D01*
X128169085Y-100718814D01*
X128182906Y-100723263D01*
X128230502Y-100739446D01*
X128270512Y-100754349D01*
X128299081Y-100766478D01*
X128312353Y-100774338D01*
X128313614Y-100775951D01*
X128320955Y-100800412D01*
X128313537Y-100826244D01*
X128293559Y-100845148D01*
X128293229Y-100845311D01*
X128266955Y-100851787D01*
X128233559Y-100846106D01*
X128231197Y-100845504D01*
X128206710Y-100842203D01*
X128166181Y-100839318D01*
X128112980Y-100837002D01*
X128050481Y-100835407D01*
X127982055Y-100834687D01*
X127952814Y-100834606D01*
X127887360Y-100834664D01*
X127837268Y-100835337D01*
X127799171Y-100836894D01*
X127769696Y-100839606D01*
X127745476Y-100843742D01*
X127723141Y-100849575D01*
X127699320Y-100857373D01*
X127646711Y-100879286D01*
X127599522Y-100910517D01*
X127571383Y-100946700D01*
X127562055Y-100988059D01*
X127564882Y-101018721D01*
X127580418Y-101063303D01*
X127611048Y-101109207D01*
X127658501Y-101159507D01*
X127706593Y-101202343D01*
X127804001Y-101272868D01*
X127908747Y-101327440D01*
X128023781Y-101367462D01*
X128152055Y-101394339D01*
X128155942Y-101394926D01*
X128273307Y-101406299D01*
X128387941Y-101404221D01*
X128502705Y-101388123D01*
X128620464Y-101357434D01*
X128744080Y-101311582D01*
X128876418Y-101249998D01*
X128941334Y-101215700D01*
X129040488Y-101157892D01*
X129144848Y-101090613D01*
X129255997Y-101012740D01*
X129375522Y-100923149D01*
X129505005Y-100820716D01*
X129646032Y-100704319D01*
X129710394Y-100650262D01*
X129784015Y-100588441D01*
X129860115Y-100524549D01*
X129932764Y-100463564D01*
X129996032Y-100410465D01*
X130121445Y-100307154D01*
X130321740Y-100150905D01*
X130515298Y-100011531D01*
X130703497Y-99888405D01*
X130887714Y-99780896D01*
X131069325Y-99688377D01*
X131249708Y-99610219D01*
X131430241Y-99545793D01*
X131494862Y-99527576D01*
X132169404Y-99527576D01*
X132180011Y-99538413D01*
X132202918Y-99553159D01*
X132236884Y-99572442D01*
X132241580Y-99575064D01*
X132437053Y-99695458D01*
X132625957Y-99833778D01*
X132807237Y-99988748D01*
X132979840Y-100159093D01*
X133142710Y-100343536D01*
X133294794Y-100540803D01*
X133435037Y-100749617D01*
X133562385Y-100968703D01*
X133675784Y-101196786D01*
X133774180Y-101432588D01*
X133789347Y-101474351D01*
X133808069Y-101528442D01*
X133827900Y-101587691D01*
X133846460Y-101645100D01*
X133887938Y-101776221D01*
X133890545Y-101774640D01*
X134333574Y-101774640D01*
X134335078Y-101779845D01*
X134341938Y-101787572D01*
X134357196Y-101792782D01*
X134384716Y-101796502D01*
X134428364Y-101799753D01*
X134502818Y-101809608D01*
X134587127Y-101836380D01*
X134664604Y-101880465D01*
X134738119Y-101943191D01*
X134770932Y-101979082D01*
X134822610Y-102054941D01*
X134858404Y-102139880D01*
X134878955Y-102235644D01*
X134884902Y-102343980D01*
X134884861Y-102347516D01*
X134881790Y-102410717D01*
X134873591Y-102471924D01*
X134859174Y-102536037D01*
X134837449Y-102607957D01*
X134807324Y-102692582D01*
X134803020Y-102704153D01*
X134787939Y-102747146D01*
X134780009Y-102775966D01*
X134778483Y-102794003D01*
X134782611Y-102804649D01*
X134789094Y-102811150D01*
X134810157Y-102818272D01*
X134829882Y-102806480D01*
X134832526Y-102802447D01*
X134842984Y-102779922D01*
X134857058Y-102743814D01*
X134873349Y-102698250D01*
X134890453Y-102647357D01*
X134895863Y-102630293D01*
X135061293Y-102630293D01*
X135103622Y-102680851D01*
X135125968Y-102705681D01*
X135164620Y-102745081D01*
X135213015Y-102791974D01*
X135268034Y-102843492D01*
X135326564Y-102896766D01*
X135385488Y-102948929D01*
X135441690Y-102997111D01*
X135492055Y-103038444D01*
X135600608Y-103122020D01*
X135815070Y-103270698D01*
X136032392Y-103399861D01*
X136252411Y-103509435D01*
X136474968Y-103599344D01*
X136699903Y-103669511D01*
X136927055Y-103719860D01*
X136980689Y-103728298D01*
X137036886Y-103734709D01*
X137099497Y-103739303D01*
X137173046Y-103742412D01*
X137262055Y-103744367D01*
X137339597Y-103745158D01*
X137421844Y-103744602D01*
X137492457Y-103741969D01*
X137556052Y-103736868D01*
X137617246Y-103728907D01*
X137680652Y-103717692D01*
X137750887Y-103702833D01*
X137912776Y-103659483D01*
X138094706Y-103592381D01*
X138266944Y-103508471D01*
X138428986Y-103408386D01*
X138580328Y-103292760D01*
X138720468Y-103162226D01*
X138848900Y-103017418D01*
X138965123Y-102858968D01*
X139068631Y-102687510D01*
X139158921Y-102503676D01*
X139235490Y-102308101D01*
X139297833Y-102101418D01*
X139345448Y-101884259D01*
X139377831Y-101657259D01*
X139382182Y-101607065D01*
X139386628Y-101523542D01*
X139389175Y-101428871D01*
X139389879Y-101327495D01*
X139388799Y-101223854D01*
X139385991Y-101122390D01*
X139381512Y-101027545D01*
X139375420Y-100943761D01*
X139367772Y-100875479D01*
X139351241Y-100768319D01*
X139294121Y-100480576D01*
X139219498Y-100198019D01*
X139127960Y-99922031D01*
X139020093Y-99653993D01*
X138896488Y-99395287D01*
X138757731Y-99147295D01*
X138604411Y-98911399D01*
X138437116Y-98688980D01*
X138317763Y-98548636D01*
X138174591Y-98394976D01*
X138022017Y-98244605D01*
X137865050Y-98102443D01*
X137708697Y-97973409D01*
X137670339Y-97943386D01*
X137563697Y-97961138D01*
X137528948Y-97966931D01*
X137488301Y-97973735D01*
X137457791Y-97978873D01*
X137442214Y-97981541D01*
X137441751Y-97981677D01*
X137444999Y-97988779D01*
X137462067Y-98004542D01*
X137490343Y-98026765D01*
X137527214Y-98053242D01*
X137653040Y-98144347D01*
X137860647Y-98313732D01*
X138056687Y-98498250D01*
X138240349Y-98696624D01*
X138410818Y-98907575D01*
X138567280Y-99129824D01*
X138708922Y-99362092D01*
X138834929Y-99603102D01*
X138944490Y-99851574D01*
X139036789Y-100106230D01*
X139111013Y-100365791D01*
X139166349Y-100628980D01*
X139170802Y-100655035D01*
X139185528Y-100746196D01*
X139196852Y-100827422D01*
X139205170Y-100903696D01*
X139210877Y-100980004D01*
X139214367Y-101061330D01*
X139216036Y-101152661D01*
X139216131Y-101194212D01*
X139216279Y-101258980D01*
X139215903Y-101330708D01*
X139214889Y-101406039D01*
X139213065Y-101468498D01*
X139210208Y-101522053D01*
X139206093Y-101570672D01*
X139200497Y-101618325D01*
X139193197Y-101668980D01*
X139189114Y-101694894D01*
X139144665Y-101921034D01*
X139086493Y-102132890D01*
X139014407Y-102330880D01*
X138928212Y-102515422D01*
X138827717Y-102686936D01*
X138712729Y-102845838D01*
X138583054Y-102992549D01*
X138529506Y-103045463D01*
X138385623Y-103168976D01*
X138232550Y-103274734D01*
X138070364Y-103362704D01*
X137899145Y-103432853D01*
X137718968Y-103485146D01*
X137529913Y-103519549D01*
X137332055Y-103536030D01*
X137210109Y-103537174D01*
X136999939Y-103523366D01*
X136789333Y-103489650D01*
X136578506Y-103436076D01*
X136367675Y-103362692D01*
X136157055Y-103269548D01*
X136021412Y-103199554D01*
X135861108Y-103106020D01*
X135708009Y-103003515D01*
X135558688Y-102889553D01*
X135409717Y-102761649D01*
X135257671Y-102617318D01*
X135225175Y-102585173D01*
X135180959Y-102541663D01*
X135143075Y-102504658D01*
X135113484Y-102476062D01*
X135094145Y-102457774D01*
X135087018Y-102451698D01*
X135086472Y-102454180D01*
X135083628Y-102471915D01*
X135079082Y-102502768D01*
X135073521Y-102542136D01*
X135061293Y-102630293D01*
X134895863Y-102630293D01*
X134906969Y-102595263D01*
X134921495Y-102546095D01*
X134932629Y-102503980D01*
X134944523Y-102440830D01*
X134951132Y-102331130D01*
X134941491Y-102220875D01*
X134916157Y-102114812D01*
X134875684Y-102017690D01*
X134869907Y-102007162D01*
X134825844Y-101943873D01*
X134769050Y-101882883D01*
X134705346Y-101829820D01*
X134640553Y-101790313D01*
X134600884Y-101772598D01*
X134541431Y-101751540D01*
X134484693Y-101737375D01*
X134433294Y-101730238D01*
X134389859Y-101730261D01*
X134357011Y-101737581D01*
X134337375Y-101752329D01*
X134333574Y-101774640D01*
X133890545Y-101774640D01*
X133952497Y-101737070D01*
X133985007Y-101715819D01*
X134008053Y-101695703D01*
X134014077Y-101680949D01*
X134008550Y-101658506D01*
X133997029Y-101619979D01*
X133980906Y-101569867D01*
X133961436Y-101511840D01*
X133939870Y-101449569D01*
X133917462Y-101386721D01*
X133895464Y-101326968D01*
X133875130Y-101273980D01*
X133780183Y-101051960D01*
X133651964Y-100797617D01*
X133507518Y-100554491D01*
X133347235Y-100323232D01*
X133171507Y-100104490D01*
X133149035Y-100078957D01*
X133090830Y-100015878D01*
X133023981Y-99946703D01*
X132952116Y-99874962D01*
X132878862Y-99804188D01*
X132807849Y-99737911D01*
X132742704Y-99679663D01*
X132687055Y-99632974D01*
X132652789Y-99605437D01*
X132609435Y-99570722D01*
X132575827Y-99545453D01*
X132548067Y-99528163D01*
X132522256Y-99517382D01*
X132494493Y-99511641D01*
X132460881Y-99509472D01*
X132417521Y-99509407D01*
X132360512Y-99509976D01*
X132344352Y-99510078D01*
X132274825Y-99510779D01*
X132223809Y-99512251D01*
X132190061Y-99515123D01*
X132172341Y-99520022D01*
X132169404Y-99527576D01*
X131494862Y-99527576D01*
X131612300Y-99494470D01*
X131797263Y-99455622D01*
X131986507Y-99428619D01*
X132181410Y-99412834D01*
X132205848Y-99411481D01*
X132252657Y-99408157D01*
X132281221Y-99404573D01*
X132291261Y-99400462D01*
X132282502Y-99395554D01*
X132254663Y-99389581D01*
X132207469Y-99382272D01*
X132140640Y-99373359D01*
X131993499Y-99361553D01*
X131824838Y-99362550D01*
X131647531Y-99377214D01*
X131464173Y-99405060D01*
X131277361Y-99445602D01*
X131089692Y-99498356D01*
X130903761Y-99562836D01*
X130722166Y-99638556D01*
X130621200Y-99686570D01*
X130495613Y-99752545D01*
X130369148Y-99826275D01*
X130239433Y-99909292D01*
X130104095Y-100003127D01*
X129960760Y-100109314D01*
X129807055Y-100229384D01*
X129717108Y-100301016D01*
X129570274Y-100416836D01*
X129436411Y-100520680D01*
X129314208Y-100613324D01*
X129202352Y-100695546D01*
X129099532Y-100768123D01*
X129004438Y-100831832D01*
X128915758Y-100887450D01*
X128832181Y-100935754D01*
X128752395Y-100977521D01*
X128675089Y-101013527D01*
X128598952Y-101044551D01*
X128522673Y-101071369D01*
X128444940Y-101094758D01*
X128364441Y-101115496D01*
X128279866Y-101134358D01*
X128269611Y-101136452D01*
X128205199Y-101147710D01*
X128137807Y-101156702D01*
X128070680Y-101163276D01*
X128007059Y-101167278D01*
X127950188Y-101168555D01*
X127903309Y-101166955D01*
X127869664Y-101162324D01*
X127852496Y-101154510D01*
X127845231Y-101142449D01*
X127847635Y-101122713D01*
X127852408Y-101118311D01*
X127867155Y-101113140D01*
X127893473Y-101109425D01*
X127934170Y-101106823D01*
X127992055Y-101104990D01*
X128115276Y-101096656D01*
X128275099Y-101071123D01*
X128437040Y-101029798D01*
X128597095Y-100973739D01*
X128751259Y-100904007D01*
X128758208Y-100900460D01*
X128826435Y-100864096D01*
X128896300Y-100823910D01*
X128969284Y-100778854D01*
X129046870Y-100727881D01*
X129130542Y-100669942D01*
X129221780Y-100603991D01*
X129322068Y-100528978D01*
X129432888Y-100443858D01*
X129555723Y-100347581D01*
X129692055Y-100239100D01*
X129760750Y-100184265D01*
X129846267Y-100116619D01*
X129920811Y-100058571D01*
X129986925Y-100008218D01*
X130047154Y-99963656D01*
X130104044Y-99922982D01*
X130160138Y-99884292D01*
X130217982Y-99845682D01*
X130347415Y-99764419D01*
X130563338Y-99645255D01*
X130784410Y-99542780D01*
X131009121Y-99457479D01*
X131235962Y-99389842D01*
X131463422Y-99340356D01*
X131689992Y-99309509D01*
X131914161Y-99297787D01*
X132047055Y-99296595D01*
X131982055Y-99283493D01*
X131939542Y-99275924D01*
X131850980Y-99264476D01*
X131750156Y-99255778D01*
X131641925Y-99249987D01*
X131531144Y-99247262D01*
X131422668Y-99247760D01*
X131321353Y-99251641D01*
X131232055Y-99259062D01*
X131210397Y-99261640D01*
X131077141Y-99282169D01*
X130934646Y-99311159D01*
X130789610Y-99346979D01*
X130648735Y-99388001D01*
X130518718Y-99432593D01*
X130506719Y-99437108D01*
X130427000Y-99468264D01*
X130349856Y-99500719D01*
X130273600Y-99535451D01*
X130196550Y-99573440D01*
X130117021Y-99615663D01*
X130033329Y-99663100D01*
X129943789Y-99716729D01*
X129846719Y-99777528D01*
X129740432Y-99846477D01*
X129623246Y-99924553D01*
X129493476Y-100012735D01*
X129349438Y-100112002D01*
X129346242Y-100114216D01*
X129238590Y-100188706D01*
X129146085Y-100252423D01*
X129067536Y-100306068D01*
X129001753Y-100350343D01*
X128947549Y-100385946D01*
X128903732Y-100413580D01*
X128869113Y-100433945D01*
X128842504Y-100447740D01*
X128822713Y-100455668D01*
X128808552Y-100458429D01*
X128798832Y-100456722D01*
X128792362Y-100451250D01*
X128787953Y-100442712D01*
X128785759Y-100433855D01*
X128788919Y-100420448D01*
X128802357Y-100405455D01*
X128828582Y-100386368D01*
X128870105Y-100360682D01*
X128886458Y-100350475D01*
X128921120Y-100327827D01*
X128967893Y-100296574D01*
X129024325Y-100258377D01*
X129087964Y-100214899D01*
X129156358Y-100167801D01*
X129227055Y-100118746D01*
X129235513Y-100112856D01*
X129371672Y-100018392D01*
X129493435Y-99934717D01*
X129602412Y-99860814D01*
X129700212Y-99795664D01*
X129788444Y-99738251D01*
X129868719Y-99687558D01*
X129942645Y-99642566D01*
X130011832Y-99602258D01*
X130077890Y-99565617D01*
X130142428Y-99531626D01*
X130207055Y-99499267D01*
X130382674Y-99419168D01*
X130605278Y-99334559D01*
X130827724Y-99269240D01*
X131051307Y-99222901D01*
X131277319Y-99195229D01*
X131507055Y-99185912D01*
X131575758Y-99186327D01*
X131720286Y-99191123D01*
X131852129Y-99201736D01*
X131975932Y-99218743D01*
X132096337Y-99242723D01*
X132217988Y-99274252D01*
X132252987Y-99284288D01*
X132294697Y-99296122D01*
X132320915Y-99303086D01*
X132333950Y-99305528D01*
X132336112Y-99303795D01*
X132329711Y-99298238D01*
X132317055Y-99289203D01*
X132265278Y-99256865D01*
X132192132Y-99219680D01*
X132107979Y-99183595D01*
X132017515Y-99150455D01*
X131925437Y-99122104D01*
X131836441Y-99100387D01*
X131711351Y-99078139D01*
X131551140Y-99058532D01*
X131385876Y-99046995D01*
X131221288Y-99043761D01*
X131063105Y-99049061D01*
X130917055Y-99063127D01*
X130858540Y-99071363D01*
X130732101Y-99092030D01*
X130607500Y-99116696D01*
X130482614Y-99146037D01*
X130355318Y-99180729D01*
X130223491Y-99221449D01*
X130085008Y-99268873D01*
X129937746Y-99323676D01*
X129779582Y-99386534D01*
X129608393Y-99458124D01*
X129422055Y-99539122D01*
X129277128Y-99601961D01*
X129122139Y-99665937D01*
X128980727Y-99720220D01*
X128851052Y-99765263D01*
X128731267Y-99801520D01*
X128619532Y-99829444D01*
X128514001Y-99849487D01*
X128412831Y-99862104D01*
X128314179Y-99867747D01*
X128216202Y-99866870D01*
X128117055Y-99859925D01*
X128114870Y-99859708D01*
X128071876Y-99854650D01*
X128013352Y-99846716D01*
X127943203Y-99836489D01*
X127865333Y-99824554D01*
X127783649Y-99811495D01*
X127702055Y-99797893D01*
X127680965Y-99794308D01*
X127593869Y-99779791D01*
X127523004Y-99768610D01*
X127465559Y-99760422D01*
X127418725Y-99754888D01*
X127379689Y-99751667D01*
X127345643Y-99750416D01*
X127313775Y-99750797D01*
X127220494Y-99753980D01*
X127185204Y-99792501D01*
X127177871Y-99800572D01*
X127162210Y-99820100D01*
X127154377Y-99838177D01*
X127152255Y-99861937D01*
X127049212Y-99861937D01*
X127051634Y-99828997D01*
X127072872Y-99768033D01*
X127076508Y-99761188D01*
X127110516Y-99716657D01*
X127155452Y-99680411D01*
X127204424Y-99658205D01*
X127221840Y-99654530D01*
X127272510Y-99650062D01*
X127338706Y-99650228D01*
X127417786Y-99654840D01*
X127507108Y-99663713D01*
X127604029Y-99676661D01*
X127705906Y-99693498D01*
X127742250Y-99700057D01*
X127837344Y-99716992D01*
X127916710Y-99730610D01*
X127983267Y-99741266D01*
X128039932Y-99749315D01*
X128089625Y-99755110D01*
X128135266Y-99759007D01*
X128179772Y-99761359D01*
X128226062Y-99762521D01*
X128277055Y-99762848D01*
X128288019Y-99762821D01*
X128386045Y-99759432D01*
X128481540Y-99749803D01*
X128578447Y-99733134D01*
X128680708Y-99708623D01*
X128792263Y-99675471D01*
X128917055Y-99632877D01*
X129017055Y-99597026D01*
X129076384Y-99516753D01*
X129206495Y-99516753D01*
X129212904Y-99514869D01*
X129235392Y-99506005D01*
X129271656Y-99490898D01*
X129319210Y-99470602D01*
X129375570Y-99446166D01*
X129438250Y-99418645D01*
X129620967Y-99339396D01*
X129789447Y-99269531D01*
X129945515Y-99208505D01*
X130091515Y-99155542D01*
X130229791Y-99109870D01*
X130362688Y-99070713D01*
X130492547Y-99037299D01*
X130621715Y-99008853D01*
X130752533Y-98984601D01*
X130790975Y-98978367D01*
X130979492Y-98955255D01*
X131170720Y-98943542D01*
X131361359Y-98943062D01*
X131548111Y-98953649D01*
X131727677Y-98975136D01*
X131896758Y-99007357D01*
X132052055Y-99050144D01*
X132076092Y-99058297D01*
X132163093Y-99092726D01*
X132249896Y-99134093D01*
X132333795Y-99180588D01*
X132412079Y-99230399D01*
X132482040Y-99281715D01*
X132507549Y-99303795D01*
X132540969Y-99332723D01*
X132586158Y-99381612D01*
X132614897Y-99426571D01*
X132618716Y-99432174D01*
X132636708Y-99451207D01*
X132665972Y-99478360D01*
X132703479Y-99510879D01*
X132746202Y-99546009D01*
X132772477Y-99567593D01*
X132836142Y-99623011D01*
X132907745Y-99688721D01*
X132983961Y-99761417D01*
X133061466Y-99837797D01*
X133136934Y-99914556D01*
X133207040Y-99988390D01*
X133268460Y-100055995D01*
X133317868Y-100114067D01*
X133426588Y-100254508D01*
X133586483Y-100486513D01*
X133732306Y-100730864D01*
X133862897Y-100985410D01*
X133977098Y-101247999D01*
X134073748Y-101516480D01*
X134079091Y-101532766D01*
X134094977Y-101578381D01*
X134109143Y-101615115D01*
X134120213Y-101639555D01*
X134126812Y-101648283D01*
X134129542Y-101647964D01*
X134148702Y-101643573D01*
X134175187Y-101635863D01*
X134202344Y-101626983D01*
X134223519Y-101619081D01*
X134232055Y-101614305D01*
X134231049Y-101611301D01*
X134223629Y-101593255D01*
X134210172Y-101561862D01*
X134192087Y-101520390D01*
X134170781Y-101472107D01*
X134145264Y-101413686D01*
X134049929Y-101175334D01*
X133970660Y-100940086D01*
X133906083Y-100703043D01*
X133854827Y-100459307D01*
X133815520Y-100203980D01*
X133813117Y-100184512D01*
X133807802Y-100133023D01*
X133803732Y-100077749D01*
X133800777Y-100015449D01*
X133798805Y-99942882D01*
X133797685Y-99856806D01*
X133797626Y-99841733D01*
X133893782Y-99841733D01*
X133910744Y-100116006D01*
X133947460Y-100390197D01*
X134003971Y-100664571D01*
X134080319Y-100939394D01*
X134176546Y-101214931D01*
X134292693Y-101491446D01*
X134337055Y-101588913D01*
X134377055Y-101587199D01*
X134380341Y-101587052D01*
X134419612Y-101584735D01*
X134458480Y-101581710D01*
X134499904Y-101577935D01*
X134437402Y-101440957D01*
X134376496Y-101302130D01*
X134294553Y-101092100D01*
X134226935Y-100884824D01*
X134172219Y-100675248D01*
X134128978Y-100458318D01*
X134095790Y-100228980D01*
X134088104Y-100149021D01*
X134082223Y-100050582D01*
X134078668Y-99942790D01*
X134077439Y-99830516D01*
X134078536Y-99718629D01*
X134078753Y-99711876D01*
X134178596Y-99711876D01*
X134178906Y-99960704D01*
X134197580Y-100211813D01*
X134234529Y-100464205D01*
X134289664Y-100716880D01*
X134362900Y-100968839D01*
X134454147Y-101219081D01*
X134563318Y-101466607D01*
X134582979Y-101506784D01*
X134604622Y-101547896D01*
X134621754Y-101575379D01*
X134623968Y-101577935D01*
X134636184Y-101592039D01*
X134649721Y-101600684D01*
X134742717Y-101644585D01*
X134798750Y-101680949D01*
X134841048Y-101708399D01*
X134922990Y-101783661D01*
X134988633Y-101870496D01*
X135038070Y-101969030D01*
X135071391Y-102079388D01*
X135088689Y-102201695D01*
X135091634Y-102235040D01*
X135097395Y-102270375D01*
X135106465Y-102296276D01*
X135120538Y-102318980D01*
X135130262Y-102331130D01*
X135131553Y-102332743D01*
X135159355Y-102364231D01*
X135197395Y-102405078D01*
X135243014Y-102452608D01*
X135293555Y-102504145D01*
X135346360Y-102557013D01*
X135398770Y-102608536D01*
X135448128Y-102656037D01*
X135491776Y-102696841D01*
X135527055Y-102728271D01*
X135659961Y-102836729D01*
X135859987Y-102980748D01*
X136064275Y-103105283D01*
X136272948Y-103210394D01*
X136486130Y-103296141D01*
X136703942Y-103362584D01*
X136926509Y-103409783D01*
X136991080Y-103418592D01*
X137070988Y-103426014D01*
X137157771Y-103431337D01*
X137246099Y-103434381D01*
X137330642Y-103434967D01*
X137406071Y-103432915D01*
X137467055Y-103428044D01*
X137551280Y-103415828D01*
X137733777Y-103375484D01*
X137908825Y-103317418D01*
X138075224Y-103242218D01*
X138231769Y-103150467D01*
X138377257Y-103042754D01*
X138510487Y-102919663D01*
X138624141Y-102791049D01*
X138737864Y-102633849D01*
X138837423Y-102462613D01*
X138922780Y-102277426D01*
X138993898Y-102078369D01*
X139050739Y-101865526D01*
X139093265Y-101638980D01*
X139095210Y-101625605D01*
X139105338Y-101533349D01*
X139112317Y-101427287D01*
X139116113Y-101312535D01*
X139116688Y-101194212D01*
X139114007Y-101077433D01*
X139108034Y-100967317D01*
X139098731Y-100868980D01*
X139091906Y-100815676D01*
X139044998Y-100542336D01*
X138979008Y-100273936D01*
X138894403Y-100011455D01*
X138791650Y-99755873D01*
X138671218Y-99508168D01*
X138533575Y-99269319D01*
X138379188Y-99040307D01*
X138208526Y-98822109D01*
X138022055Y-98615706D01*
X137861693Y-98458096D01*
X137697251Y-98312932D01*
X137531604Y-98183654D01*
X137362412Y-98068322D01*
X137255505Y-98000468D01*
X137151280Y-98009364D01*
X137137672Y-98010447D01*
X137093847Y-98013460D01*
X137034958Y-98017077D01*
X136964419Y-98021106D01*
X136885645Y-98025355D01*
X136802052Y-98029633D01*
X136717055Y-98033747D01*
X136706474Y-98034245D01*
X136537427Y-98042657D01*
X136385993Y-98051197D01*
X136249917Y-98060116D01*
X136126947Y-98069665D01*
X136014829Y-98080093D01*
X135911308Y-98091651D01*
X135814131Y-98104590D01*
X135721045Y-98119159D01*
X135629795Y-98135608D01*
X135538128Y-98154189D01*
X135443790Y-98175152D01*
X135370584Y-98192877D01*
X135146509Y-98258579D01*
X134933207Y-98339475D01*
X134727711Y-98436783D01*
X134527055Y-98551722D01*
X134496114Y-98571377D01*
X134462848Y-98594716D01*
X134436456Y-98617908D01*
X134414807Y-98644162D01*
X134395769Y-98676688D01*
X134377214Y-98718693D01*
X134357010Y-98773387D01*
X134333027Y-98843980D01*
X134288718Y-98989081D01*
X134233414Y-99225065D01*
X134196736Y-99466330D01*
X134178596Y-99711876D01*
X134078753Y-99711876D01*
X134081960Y-99611997D01*
X134087710Y-99515491D01*
X134095787Y-99433980D01*
X134111250Y-99325798D01*
X134135960Y-99185831D01*
X134164910Y-99050936D01*
X134197009Y-98926083D01*
X134231171Y-98816237D01*
X134233447Y-98809587D01*
X134242328Y-98780297D01*
X134243539Y-98766621D01*
X134237368Y-98766237D01*
X134230814Y-98770521D01*
X134208330Y-98788223D01*
X134177037Y-98815105D01*
X134139913Y-98848371D01*
X134099938Y-98885221D01*
X134060090Y-98922858D01*
X134023348Y-98958484D01*
X133992691Y-98989300D01*
X133971098Y-99012509D01*
X133961549Y-99025312D01*
X133960619Y-99028128D01*
X133955365Y-99050707D01*
X133948432Y-99087597D01*
X133940611Y-99134363D01*
X133932698Y-99186569D01*
X133918955Y-99291880D01*
X133896533Y-99567113D01*
X133893782Y-99841733D01*
X133797626Y-99841733D01*
X133797285Y-99753980D01*
X133797681Y-99646310D01*
X133799460Y-99537680D01*
X133802866Y-99442597D01*
X133808118Y-99357624D01*
X133815435Y-99279322D01*
X133825038Y-99204253D01*
X133837144Y-99128980D01*
X133843204Y-99086931D01*
X133845032Y-99035404D01*
X133839506Y-98978950D01*
X133836708Y-98954757D01*
X133835984Y-98864134D01*
X133848363Y-98763282D01*
X133857607Y-98723060D01*
X133963900Y-98723060D01*
X133967642Y-98726385D01*
X133979121Y-98711658D01*
X133998338Y-98678980D01*
X134035862Y-98614044D01*
X134110008Y-98499898D01*
X134193860Y-98388309D01*
X134290241Y-98275638D01*
X134401969Y-98158247D01*
X134514948Y-98050882D01*
X134696598Y-97901077D01*
X134891081Y-97766400D01*
X135097993Y-97647076D01*
X135316931Y-97543330D01*
X135547491Y-97455388D01*
X135789269Y-97383475D01*
X135823372Y-97374846D01*
X135886313Y-97359853D01*
X135953000Y-97345244D01*
X136025446Y-97330662D01*
X136105664Y-97315754D01*
X136195668Y-97300163D01*
X136297468Y-97283535D01*
X136413079Y-97265514D01*
X136544513Y-97245746D01*
X136693783Y-97223874D01*
X136763545Y-97213705D01*
X136856753Y-97199957D01*
X136944460Y-97186842D01*
X137024280Y-97174726D01*
X137093833Y-97163974D01*
X137150735Y-97154953D01*
X137192604Y-97148027D01*
X137217055Y-97143564D01*
X137217209Y-97143532D01*
X137255349Y-97136207D01*
X137288135Y-97130983D01*
X137308486Y-97128988D01*
X137308872Y-97128990D01*
X137329176Y-97136749D01*
X137338152Y-97154387D01*
X137331843Y-97174236D01*
X137324441Y-97179238D01*
X137306789Y-97185707D01*
X137278270Y-97193146D01*
X137237765Y-97201753D01*
X137184151Y-97211726D01*
X137116308Y-97223262D01*
X137033113Y-97236559D01*
X136933446Y-97251814D01*
X136816185Y-97269225D01*
X136680209Y-97288988D01*
X136604361Y-97299986D01*
X136457538Y-97321750D01*
X136327468Y-97341833D01*
X136212037Y-97360671D01*
X136109133Y-97378696D01*
X136016643Y-97396343D01*
X135932454Y-97414046D01*
X135854452Y-97432238D01*
X135780524Y-97451353D01*
X135708557Y-97471826D01*
X135636439Y-97494090D01*
X135562055Y-97518579D01*
X135460341Y-97554967D01*
X135246940Y-97644985D01*
X135042746Y-97749994D01*
X134850278Y-97868633D01*
X134672055Y-97999541D01*
X134652369Y-98015614D01*
X134586048Y-98073000D01*
X134514707Y-98138822D01*
X134442523Y-98208956D01*
X134373670Y-98279277D01*
X134312324Y-98345660D01*
X134262660Y-98403980D01*
X134238641Y-98433976D01*
X134210873Y-98469081D01*
X134195282Y-98489951D01*
X134191628Y-98497396D01*
X134199673Y-98492226D01*
X134219179Y-98475251D01*
X134249906Y-98447282D01*
X134316758Y-98388660D01*
X134449573Y-98284166D01*
X134595711Y-98182623D01*
X134750926Y-98086902D01*
X134910974Y-97999879D01*
X134985439Y-97963142D01*
X135127666Y-97899345D01*
X135271414Y-97843841D01*
X135422823Y-97794353D01*
X135588037Y-97748599D01*
X135602420Y-97744934D01*
X135686264Y-97724574D01*
X135767956Y-97706711D01*
X135850265Y-97690959D01*
X135935958Y-97676929D01*
X136027802Y-97664233D01*
X136128567Y-97652482D01*
X136241018Y-97641289D01*
X136367925Y-97630265D01*
X136512055Y-97619023D01*
X136531079Y-97617596D01*
X136714521Y-97603233D01*
X136879714Y-97589013D01*
X137028248Y-97574647D01*
X137161712Y-97559849D01*
X137281695Y-97544332D01*
X137389789Y-97527809D01*
X137487582Y-97509993D01*
X137576664Y-97490596D01*
X137658626Y-97469331D01*
X137735056Y-97445912D01*
X137807544Y-97420051D01*
X137877681Y-97391461D01*
X137947055Y-97359855D01*
X137947722Y-97359537D01*
X138029626Y-97317920D01*
X138112159Y-97271501D01*
X138192155Y-97222399D01*
X138266446Y-97172729D01*
X138331864Y-97124608D01*
X138385243Y-97080153D01*
X138423415Y-97041482D01*
X138429834Y-97033977D01*
X138452121Y-97011514D01*
X138469381Y-97002740D01*
X138486153Y-97005017D01*
X138495490Y-97010343D01*
X138502451Y-97028268D01*
X138491914Y-97054886D01*
X138464086Y-97089907D01*
X138419174Y-97133044D01*
X138357385Y-97184009D01*
X138255596Y-97257939D01*
X138138289Y-97331036D01*
X138006140Y-97401931D01*
X137964689Y-97422178D01*
X137890459Y-97455536D01*
X137814557Y-97485572D01*
X137735318Y-97512609D01*
X137651074Y-97536966D01*
X137560161Y-97558967D01*
X137460912Y-97578934D01*
X137351660Y-97597187D01*
X137230740Y-97614048D01*
X137096486Y-97629840D01*
X136947231Y-97644883D01*
X136781310Y-97659500D01*
X136597055Y-97674013D01*
X136495460Y-97681811D01*
X136357398Y-97693130D01*
X136235446Y-97704194D01*
X136127272Y-97715310D01*
X136030546Y-97726784D01*
X135942936Y-97738923D01*
X135862113Y-97752032D01*
X135785746Y-97766420D01*
X135711503Y-97782391D01*
X135637055Y-97800253D01*
X135579446Y-97815185D01*
X135335755Y-97889516D01*
X135104897Y-97978810D01*
X134886146Y-98083406D01*
X134678774Y-98203645D01*
X134482055Y-98339865D01*
X134480024Y-98341397D01*
X134356740Y-98440183D01*
X134248367Y-98540026D01*
X134150222Y-98645575D01*
X134057626Y-98761480D01*
X134048679Y-98773757D01*
X134036519Y-98791843D01*
X134033369Y-98798938D01*
X134037496Y-98796242D01*
X134054071Y-98782979D01*
X134080054Y-98761155D01*
X134112055Y-98733586D01*
X134217356Y-98646273D01*
X134405266Y-98509526D01*
X134603948Y-98387142D01*
X134810818Y-98280531D01*
X135023287Y-98191099D01*
X135238771Y-98120255D01*
X135240059Y-98119891D01*
X135354203Y-98089380D01*
X135469268Y-98062248D01*
X135587372Y-98038220D01*
X135710632Y-98017022D01*
X135841165Y-97998378D01*
X135981090Y-97982015D01*
X136132524Y-97967659D01*
X136297585Y-97955035D01*
X136478389Y-97943868D01*
X136677055Y-97933884D01*
X136786880Y-97928668D01*
X136935715Y-97920715D01*
X137068163Y-97912391D01*
X137186385Y-97903493D01*
X137292547Y-97893817D01*
X137388813Y-97883160D01*
X137477345Y-97871317D01*
X137560308Y-97858084D01*
X137639865Y-97843260D01*
X137649261Y-97841347D01*
X137725319Y-97823709D01*
X137807314Y-97801469D01*
X137890124Y-97776261D01*
X137968624Y-97749715D01*
X138037692Y-97723465D01*
X138092203Y-97699143D01*
X138108605Y-97690745D01*
X138223874Y-97620895D01*
X138328327Y-97538390D01*
X138420653Y-97445130D01*
X138499542Y-97343013D01*
X138563682Y-97233940D01*
X138611765Y-97119810D01*
X138642478Y-97002523D01*
X138654512Y-96883980D01*
X138653087Y-96825988D01*
X138644238Y-96773774D01*
X138626673Y-96733996D01*
X138599350Y-96703237D01*
X138593143Y-96698148D01*
X138572112Y-96684853D01*
X138549167Y-96679979D01*
X138515444Y-96681198D01*
X138503961Y-96682453D01*
X138448957Y-96696307D01*
X138389517Y-96723938D01*
X138324819Y-96765996D01*
X138254044Y-96823129D01*
X138176370Y-96895988D01*
X138090976Y-96985221D01*
X137997043Y-97091480D01*
X137981146Y-97103904D01*
X137953812Y-97107519D01*
X137927770Y-97093265D01*
X137922330Y-97087187D01*
X137913939Y-97069072D01*
X137915865Y-97046163D01*
X137928869Y-97014884D01*
X137953717Y-96971656D01*
X137975544Y-96934920D01*
X138029976Y-96832746D01*
X138082562Y-96719983D01*
X138131211Y-96601904D01*
X138173832Y-96483781D01*
X138208335Y-96370885D01*
X138232629Y-96268487D01*
X138237043Y-96244372D01*
X138249402Y-96156089D01*
X138256866Y-96065548D01*
X138259245Y-95978108D01*
X138256351Y-95899132D01*
X138247993Y-95833980D01*
X138240695Y-95801895D01*
X138220708Y-95738483D01*
X138195667Y-95681604D01*
X138167704Y-95635732D01*
X138138953Y-95605342D01*
X138130414Y-95599185D01*
X138103328Y-95582997D01*
X138076983Y-95573867D01*
X138050160Y-95572728D01*
X138021641Y-95580515D01*
X137990208Y-95598162D01*
X137954642Y-95626606D01*
X137913725Y-95666779D01*
X137866239Y-95719617D01*
X137810966Y-95786055D01*
X137788960Y-95813776D01*
X137746687Y-95867027D01*
X137672184Y-95963468D01*
X137598880Y-96058217D01*
X137520150Y-96156854D01*
X137448478Y-96242172D01*
X137381761Y-96316035D01*
X137317899Y-96380305D01*
X137254792Y-96436847D01*
X137190339Y-96487524D01*
X137122440Y-96534199D01*
X137048993Y-96578736D01*
X136967899Y-96622999D01*
X136877055Y-96668852D01*
X136875811Y-96669462D01*
X136814604Y-96699022D01*
X136756606Y-96725973D01*
X136699037Y-96751413D01*
X136639120Y-96776442D01*
X136574076Y-96802159D01*
X136501126Y-96829663D01*
X136431330Y-96855024D01*
X136417492Y-96860052D01*
X136320394Y-96894427D01*
X136207055Y-96933886D01*
X136035903Y-96994345D01*
X135855883Y-97061178D01*
X135691654Y-97126120D01*
X135541146Y-97190129D01*
X135402292Y-97254165D01*
X135273024Y-97319185D01*
X135151273Y-97386150D01*
X135034973Y-97456018D01*
X134922055Y-97529747D01*
X134894124Y-97548853D01*
X134807603Y-97610440D01*
X134729856Y-97670334D01*
X134655623Y-97732909D01*
X134579648Y-97802538D01*
X134496671Y-97883595D01*
X134376109Y-98009748D01*
X134269974Y-98133539D01*
X134180236Y-98253524D01*
X134105737Y-98371383D01*
X134045318Y-98488797D01*
X133997822Y-98607447D01*
X133979625Y-98661859D01*
X133967894Y-98701585D01*
X133963900Y-98723060D01*
X133857607Y-98723060D01*
X133873169Y-98655352D01*
X133909724Y-98543494D01*
X133957352Y-98430857D01*
X134000323Y-98347380D01*
X134080607Y-98216622D01*
X134176854Y-98083871D01*
X134287103Y-97951297D01*
X134409397Y-97821069D01*
X134541774Y-97695356D01*
X134682275Y-97576327D01*
X134828941Y-97466151D01*
X134933530Y-97395990D01*
X135099448Y-97296276D01*
X135282150Y-97198670D01*
X135479746Y-97104113D01*
X135690342Y-97013544D01*
X135912047Y-96927903D01*
X135923251Y-96923787D01*
X135977428Y-96903280D01*
X136022947Y-96885057D01*
X136057257Y-96870211D01*
X136077807Y-96859835D01*
X136082047Y-96855024D01*
X136079117Y-96854144D01*
X136056077Y-96849347D01*
X136017274Y-96842809D01*
X135965989Y-96834988D01*
X135905498Y-96826344D01*
X135839082Y-96817335D01*
X135770017Y-96808422D01*
X135701582Y-96800063D01*
X135637055Y-96792716D01*
X135630995Y-96792074D01*
X135562404Y-96786489D01*
X135477749Y-96781993D01*
X135380572Y-96778605D01*
X135274411Y-96776344D01*
X135162807Y-96775228D01*
X135049301Y-96775277D01*
X134937432Y-96776509D01*
X134830742Y-96778942D01*
X134732769Y-96782596D01*
X134647055Y-96787489D01*
X134534404Y-96796022D01*
X134173578Y-96832064D01*
X133825723Y-96880843D01*
X133488451Y-96943014D01*
X133159374Y-97019229D01*
X132836104Y-97110141D01*
X132516253Y-97216404D01*
X132197434Y-97338672D01*
X131877258Y-97477597D01*
X131553338Y-97633832D01*
X131495455Y-97663357D01*
X131226129Y-97808283D01*
X130970345Y-97959274D01*
X130724224Y-98118942D01*
X130483887Y-98289899D01*
X130245453Y-98474756D01*
X130005044Y-98676125D01*
X129976732Y-98700844D01*
X129868952Y-98797727D01*
X129761316Y-98898576D01*
X129657850Y-98999485D01*
X129562581Y-99096548D01*
X129479535Y-99185859D01*
X129446343Y-99223229D01*
X129404636Y-99271159D01*
X129362363Y-99320623D01*
X129321482Y-99369250D01*
X129283951Y-99414665D01*
X129251729Y-99454496D01*
X129226773Y-99486370D01*
X129211043Y-99507913D01*
X129206495Y-99516753D01*
X129076384Y-99516753D01*
X129114262Y-99465503D01*
X129180680Y-99377848D01*
X129271156Y-99265594D01*
X129367451Y-99154395D01*
X129473143Y-99040154D01*
X129591807Y-98918777D01*
X129647992Y-98863251D01*
X129900524Y-98628222D01*
X130166443Y-98403068D01*
X130442503Y-98190321D01*
X130725456Y-97992510D01*
X131012055Y-97812165D01*
X131213694Y-97696249D01*
X131515100Y-97536235D01*
X131824601Y-97386734D01*
X132136772Y-97250326D01*
X132446194Y-97129592D01*
X132582198Y-97081678D01*
X132867558Y-96991946D01*
X133165271Y-96911854D01*
X133471457Y-96842246D01*
X133782236Y-96783965D01*
X134093729Y-96737852D01*
X134402055Y-96704752D01*
X134634357Y-96687180D01*
X134875076Y-96675000D01*
X135103270Y-96670423D01*
X135322111Y-96673558D01*
X135534774Y-96684513D01*
X135744432Y-96703398D01*
X135954257Y-96730322D01*
X136167423Y-96765393D01*
X136307791Y-96790868D01*
X136462423Y-96733520D01*
X136498295Y-96720036D01*
X136621774Y-96670856D01*
X136740300Y-96619487D01*
X136850982Y-96567335D01*
X136950929Y-96515804D01*
X137037250Y-96466300D01*
X137107055Y-96420226D01*
X137148277Y-96388904D01*
X137229781Y-96319662D01*
X137308999Y-96243675D01*
X137378257Y-96168077D01*
X137399244Y-96142794D01*
X137430155Y-96104597D01*
X137465206Y-96060540D01*
X137502320Y-96013311D01*
X137539421Y-95965596D01*
X137574433Y-95920082D01*
X137605278Y-95879456D01*
X137629881Y-95846406D01*
X137646166Y-95823616D01*
X137652055Y-95813776D01*
X137651462Y-95812291D01*
X137637599Y-95803400D01*
X137606840Y-95790268D01*
X137561171Y-95773482D01*
X137502574Y-95753628D01*
X137433034Y-95731293D01*
X137354534Y-95707062D01*
X137269058Y-95681522D01*
X137178591Y-95655260D01*
X137085116Y-95628860D01*
X136990616Y-95602911D01*
X136897077Y-95577997D01*
X136806481Y-95554705D01*
X136720812Y-95533621D01*
X136642055Y-95515331D01*
X136293031Y-95443780D01*
X135860372Y-95373156D01*
X135427718Y-95322489D01*
X134995280Y-95291775D01*
X134563270Y-95281008D01*
X134131899Y-95290181D01*
X133701380Y-95319290D01*
X133271924Y-95368330D01*
X132843743Y-95437295D01*
X132417050Y-95526179D01*
X131992055Y-95634976D01*
X131600883Y-95753182D01*
X131192992Y-95895900D01*
X130794706Y-96055936D01*
X130405248Y-96233648D01*
X130023839Y-96429393D01*
X129649701Y-96643526D01*
X129282055Y-96876404D01*
X129062704Y-97027491D01*
X128755754Y-97256836D01*
X128454926Y-97502523D01*
X128162525Y-97762481D01*
X127880851Y-98034637D01*
X127612208Y-98316920D01*
X127358898Y-98607257D01*
X127230262Y-98765418D01*
X126985088Y-99090473D01*
X126756292Y-99426630D01*
X126544120Y-99773300D01*
X126348815Y-100129894D01*
X126170621Y-100495825D01*
X126009783Y-100870503D01*
X125866546Y-101253342D01*
X125741153Y-101643751D01*
X125633849Y-102041145D01*
X125544878Y-102444933D01*
X125474484Y-102854527D01*
X125422912Y-103269340D01*
X125417772Y-103321361D01*
X125404718Y-103467117D01*
X125394627Y-103605451D01*
X125387238Y-103741834D01*
X125382290Y-103881735D01*
X125379519Y-104030627D01*
X125378665Y-104193980D01*
X125315689Y-104193980D01*
X125321284Y-103834051D01*
X125346870Y-103417688D01*
X125391595Y-103000866D01*
X125455464Y-102584369D01*
X125538484Y-102168980D01*
X125628395Y-101805808D01*
X125742995Y-101420730D01*
X125876154Y-101039822D01*
X126027201Y-100664550D01*
X126195464Y-100296379D01*
X126380271Y-99936771D01*
X126580950Y-99587193D01*
X126796830Y-99249107D01*
X127027238Y-98923980D01*
X127209069Y-98689329D01*
X127463649Y-98386995D01*
X127734211Y-98093205D01*
X128018908Y-97809703D01*
X128315889Y-97538236D01*
X128623307Y-97280550D01*
X128939312Y-97038391D01*
X129262055Y-96813505D01*
X129335778Y-96765147D01*
X129706622Y-96536204D01*
X130086989Y-96324685D01*
X130476206Y-96130837D01*
X130873602Y-95954909D01*
X131278502Y-95797149D01*
X131690236Y-95657805D01*
X132108131Y-95537125D01*
X132531514Y-95435356D01*
X132959713Y-95352748D01*
X133392055Y-95289548D01*
X133768256Y-95251111D01*
X134190403Y-95226216D01*
X134614258Y-95220106D01*
X135038445Y-95232646D01*
X135461590Y-95263703D01*
X135882319Y-95313142D01*
X136299255Y-95380828D01*
X136711025Y-95466627D01*
X137116253Y-95570406D01*
X137513564Y-95692030D01*
X137700073Y-95753980D01*
X137768564Y-95670384D01*
X137775066Y-95662500D01*
X137842254Y-95587729D01*
X137904375Y-95531487D01*
X137962055Y-95493201D01*
X137978254Y-95486339D01*
X138022598Y-95476782D01*
X138072990Y-95474475D01*
X138121223Y-95479472D01*
X138159089Y-95491832D01*
X138178604Y-95503692D01*
X138229352Y-95548850D01*
X138273730Y-95609554D01*
X138310462Y-95682926D01*
X138338276Y-95766091D01*
X138355898Y-95856172D01*
X138362056Y-95950293D01*
X138362055Y-96019846D01*
X138464555Y-96066618D01*
X138678871Y-96167933D01*
X139042639Y-96356103D01*
X139400431Y-96561566D01*
X139749546Y-96782659D01*
X140087284Y-97017719D01*
X140410944Y-97265084D01*
X140619800Y-97437432D01*
X140936347Y-97719336D01*
X141237622Y-98014046D01*
X141523992Y-98321964D01*
X141795824Y-98643491D01*
X142053485Y-98979029D01*
X142297343Y-99328980D01*
X142319875Y-99363084D01*
X142484109Y-99621600D01*
X142636353Y-99880120D01*
X142778689Y-100142632D01*
X142913201Y-100413121D01*
X143041970Y-100695575D01*
X143167079Y-100993980D01*
X143215598Y-101116841D01*
X143331725Y-101434928D01*
X143432705Y-101750463D01*
X143519308Y-102066708D01*
X143592306Y-102386921D01*
X143652471Y-102714364D01*
X143700574Y-103052297D01*
X143737386Y-103403980D01*
X143738462Y-103416706D01*
X143744297Y-103501869D01*
X143749308Y-103602517D01*
X143753441Y-103714807D01*
X143756640Y-103834896D01*
X143758850Y-103958941D01*
X143759983Y-104079601D01*
X143760016Y-104083098D01*
G37*
%TD*%
M02*
