%TF.GenerationSoftware,KiCad,Pcbnew,7.0.2-0*%
%TF.CreationDate,2023-05-11T15:54:29-04:00*%
%TF.ProjectId,mini,6d696e69-2e6b-4696-9361-645f70636258,v1.0.0*%
%TF.SameCoordinates,Original*%
%TF.FileFunction,Copper,L2,Bot*%
%TF.FilePolarity,Positive*%
%FSLAX46Y46*%
G04 Gerber Fmt 4.6, Leading zero omitted, Abs format (unit mm)*
G04 Created by KiCad (PCBNEW 7.0.2-0) date 2023-05-11 15:54:29*
%MOMM*%
%LPD*%
G01*
G04 APERTURE LIST*
G04 Aperture macros list*
%AMRoundRect*
0 Rectangle with rounded corners*
0 $1 Rounding radius*
0 $2 $3 $4 $5 $6 $7 $8 $9 X,Y pos of 4 corners*
0 Add a 4 corners polygon primitive as box body*
4,1,4,$2,$3,$4,$5,$6,$7,$8,$9,$2,$3,0*
0 Add four circle primitives for the rounded corners*
1,1,$1+$1,$2,$3*
1,1,$1+$1,$4,$5*
1,1,$1+$1,$6,$7*
1,1,$1+$1,$8,$9*
0 Add four rect primitives between the rounded corners*
20,1,$1+$1,$2,$3,$4,$5,0*
20,1,$1+$1,$4,$5,$6,$7,0*
20,1,$1+$1,$6,$7,$8,$9,0*
20,1,$1+$1,$8,$9,$2,$3,0*%
G04 Aperture macros list end*
%TA.AperFunction,ComponentPad*%
%ADD10C,1.600000*%
%TD*%
%TA.AperFunction,ComponentPad*%
%ADD11O,2.200000X1.600000*%
%TD*%
%TA.AperFunction,ComponentPad*%
%ADD12RoundRect,0.400000X-0.900000X-0.400000X0.900000X-0.400000X0.900000X0.400000X-0.900000X0.400000X0*%
%TD*%
%TA.AperFunction,ComponentPad*%
%ADD13RoundRect,0.400050X-0.899950X-0.400050X0.899950X-0.400050X0.899950X0.400050X-0.899950X0.400050X0*%
%TD*%
%TA.AperFunction,ComponentPad*%
%ADD14RoundRect,0.400000X-0.400000X-0.900000X0.400000X-0.900000X0.400000X0.900000X-0.400000X0.900000X0*%
%TD*%
%TA.AperFunction,ComponentPad*%
%ADD15RoundRect,0.393700X-0.393700X-0.906300X0.393700X-0.906300X0.393700X0.906300X-0.393700X0.906300X0*%
%TD*%
%TA.AperFunction,Conductor*%
%ADD16C,0.250000*%
%TD*%
G04 APERTURE END LIST*
D10*
%TO.P,S18,1*%
%TO.N,GP2*%
X188682125Y-119091035D03*
X197233722Y-122373685D03*
%TO.P,S18,2*%
%TO.N,GND*%
X190983252Y-120295698D03*
X194717574Y-121729170D03*
%TO.P,S18,3*%
%TO.N,N/C*%
X201435824Y-113435943D03*
%TO.P,S18,4*%
X191539871Y-109637243D03*
%TD*%
%TO.P,S7,1*%
%TO.N,GP5*%
X131195715Y-86137661D03*
X140333401Y-85498692D03*
%TO.P,S7,2*%
%TO.N,GND*%
X133790357Y-86256959D03*
X137780613Y-85977933D03*
%TO.P,S7,3*%
%TO.N,N/C*%
X140364546Y-75622461D03*
%TO.P,S7,4*%
X129790367Y-76361880D03*
%TD*%
%TO.P,S11,1*%
%TO.N,GP13*%
X150166600Y-73200400D03*
X159326600Y-73200400D03*
%TO.P,S11,2*%
%TO.N,GND*%
X152746600Y-73500400D03*
X156746600Y-73500400D03*
%TO.P,S11,3*%
%TO.N,N/C*%
X160046600Y-63350400D03*
%TO.P,S11,4*%
X149446600Y-63350400D03*
%TD*%
%TO.P,S16,1*%
%TO.N,GP7*%
X151966600Y-113433800D03*
X161126600Y-113433800D03*
%TO.P,S16,2*%
%TO.N,GND*%
X154546600Y-113733800D03*
X158546600Y-113733800D03*
%TO.P,S16,3*%
%TO.N,N/C*%
X161846600Y-103583800D03*
%TO.P,S16,4*%
X151246600Y-103583800D03*
%TD*%
%TO.P,S4,1*%
%TO.N,GP4*%
X113662455Y-94603480D03*
X122733311Y-93328654D03*
%TO.P,S4,2*%
%TO.N,GND*%
X116259099Y-94541494D03*
X120220171Y-93984801D03*
%TO.P,S4,3*%
%TO.N,N/C*%
X122075449Y-83474309D03*
%TO.P,S4,4*%
X111578607Y-84949544D03*
%TD*%
%TO.P,S5,1*%
%TO.N,GP11*%
X111296555Y-77768880D03*
X120367411Y-76494054D03*
%TO.P,S5,2*%
%TO.N,GND*%
X113893199Y-77706894D03*
X117854271Y-77150201D03*
%TO.P,S5,3*%
%TO.N,N/C*%
X119709549Y-66639709D03*
%TO.P,S5,4*%
X109212707Y-68114944D03*
%TD*%
%TO.P,S10,1*%
%TO.N,GP8*%
X150166600Y-90200400D03*
X159326600Y-90200400D03*
%TO.P,S10,2*%
%TO.N,GND*%
X152746600Y-90500400D03*
X156746600Y-90500400D03*
%TO.P,S10,3*%
%TO.N,N/C*%
X160046600Y-80350400D03*
%TO.P,S10,4*%
X149446600Y-80350400D03*
%TD*%
%TO.P,S6,1*%
%TO.N,GP26*%
X108930655Y-60934380D03*
X118001511Y-59659554D03*
%TO.P,S6,2*%
%TO.N,GND*%
X111527299Y-60872394D03*
X115488371Y-60315701D03*
%TO.P,S6,3*%
%TO.N,N/C*%
X117343649Y-49805209D03*
%TO.P,S6,4*%
X106846807Y-51280444D03*
%TD*%
%TO.P,S13,1*%
%TO.N,GP9*%
X168166600Y-93033800D03*
X177326600Y-93033800D03*
%TO.P,S13,2*%
%TO.N,GND*%
X170746600Y-93333800D03*
X174746600Y-93333800D03*
%TO.P,S13,3*%
%TO.N,N/C*%
X178046600Y-83183800D03*
%TO.P,S13,4*%
X167446600Y-83183800D03*
%TD*%
%TO.P,S3,1*%
%TO.N,GP15*%
X87631472Y-73481954D03*
X96436629Y-70957116D03*
%TO.P,S3,2*%
%TO.N,GND*%
X90194218Y-73059188D03*
X94039265Y-71956638D03*
%TO.P,S3,3*%
%TO.N,N/C*%
X94413710Y-61290229D03*
%TO.P,S3,4*%
X84224336Y-64211985D03*
%TD*%
D11*
%TO.P,TRRS1,1*%
%TO.N,GND*%
X190846600Y-83433800D03*
X190846600Y-88033800D03*
%TO.P,TRRS1,2*%
X191946600Y-83433800D03*
X191946600Y-88033800D03*
%TO.P,TRRS1,3*%
%TO.N,P3V3*%
X195946600Y-83433800D03*
X195946600Y-88033800D03*
%TO.P,TRRS1,4*%
%TO.N,GP1*%
X198946600Y-83433800D03*
X198946600Y-88033800D03*
%TD*%
D10*
%TO.P,S9,1*%
%TO.N,GP27*%
X129223015Y-52192661D03*
X138360701Y-51553692D03*
%TO.P,S9,2*%
%TO.N,GND*%
X131817657Y-52311959D03*
X135807913Y-52032933D03*
%TO.P,S9,3*%
%TO.N,N/C*%
X138391846Y-41677461D03*
%TO.P,S9,4*%
X127817667Y-42416880D03*
%TD*%
%TO.P,S1,1*%
%TO.N,GP3*%
X97003172Y-106164854D03*
X105808329Y-103640016D03*
%TO.P,S1,2*%
%TO.N,GND*%
X99565918Y-105742088D03*
X103410965Y-104639538D03*
%TO.P,S1,3*%
%TO.N,N/C*%
X103785410Y-93973129D03*
%TO.P,S1,4*%
X93596036Y-96894885D03*
%TD*%
%TO.P,S2,1*%
%TO.N,GP10*%
X92317372Y-89823454D03*
X101122529Y-87298616D03*
%TO.P,S2,2*%
%TO.N,GND*%
X94880118Y-89400688D03*
X98725165Y-88298138D03*
%TO.P,S2,3*%
%TO.N,N/C*%
X99099610Y-77631729D03*
%TO.P,S2,4*%
X88910236Y-80553485D03*
%TD*%
D12*
%TO.P,RP2040Zero1,1*%
%TO.N,GP0*%
X201126600Y-50073800D03*
X201126600Y-50073800D03*
%TO.P,RP2040Zero1,2*%
%TO.N,GP1*%
X201126600Y-52613800D03*
X201126600Y-52613800D03*
%TO.P,RP2040Zero1,3*%
%TO.N,GP2*%
X201126600Y-55153800D03*
X201126600Y-55153800D03*
%TO.P,RP2040Zero1,4*%
%TO.N,GP3*%
X201126600Y-57693800D03*
X201126600Y-57693800D03*
%TO.P,RP2040Zero1,5*%
%TO.N,GP4*%
X201126600Y-60233800D03*
X201126600Y-60233800D03*
D13*
%TO.P,RP2040Zero1,6*%
%TO.N,GP5*%
X201126600Y-62773800D03*
X201126600Y-62773800D03*
%TO.P,RP2040Zero1,7*%
%TO.N,GP6*%
X201126600Y-65313800D03*
X201126600Y-65313800D03*
%TO.P,RP2040Zero1,8*%
%TO.N,GP7*%
X201126600Y-67853800D03*
X201126600Y-67853800D03*
%TO.P,RP2040Zero1,9*%
%TO.N,GP8*%
X201126600Y-70393800D03*
X201126600Y-70393800D03*
D14*
%TO.P,RP2040Zero1,10*%
%TO.N,GP9*%
X197986600Y-71203800D03*
X197986600Y-71203800D03*
D15*
%TO.P,RP2040Zero1,11*%
%TO.N,GP10*%
X195446600Y-71203800D03*
X195446600Y-71203800D03*
%TO.P,RP2040Zero1,12*%
%TO.N,GP11*%
X192906600Y-71203800D03*
X192906600Y-71203800D03*
%TO.P,RP2040Zero1,13*%
%TO.N,GP12*%
X190366600Y-71203800D03*
X190366600Y-71203800D03*
%TO.P,RP2040Zero1,14*%
%TO.N,GP13*%
X187826600Y-71203800D03*
X187826600Y-71203800D03*
D13*
%TO.P,RP2040Zero1,15*%
%TO.N,GP14*%
X184686600Y-70393800D03*
X184686600Y-70393800D03*
%TO.P,RP2040Zero1,16*%
%TO.N,GP15*%
X184686600Y-67853800D03*
X184686600Y-67853800D03*
%TO.P,RP2040Zero1,17*%
%TO.N,GP26*%
X184686600Y-65313800D03*
X184686600Y-65313800D03*
%TO.P,RP2040Zero1,18*%
%TO.N,GP27*%
X184686600Y-62773800D03*
X184686600Y-62773800D03*
%TO.P,RP2040Zero1,19*%
%TO.N,P5V*%
X184686600Y-50073800D03*
X184686600Y-50073800D03*
%TO.P,RP2040Zero1,20*%
%TO.N,GND*%
X184686600Y-52613800D03*
X184686600Y-52613800D03*
%TO.P,RP2040Zero1,21*%
%TO.N,P3V3*%
X184686600Y-55153800D03*
X184686600Y-55153800D03*
%TO.P,RP2040Zero1,22*%
%TO.N,GP28*%
X184686600Y-60233800D03*
X184686600Y-60233800D03*
%TO.P,RP2040Zero1,23*%
%TO.N,GP29*%
X184686600Y-57693800D03*
X184686600Y-57693800D03*
%TD*%
D10*
%TO.P,S8,1*%
%TO.N,GP12*%
X130209315Y-69165161D03*
X139347001Y-68526192D03*
%TO.P,S8,2*%
%TO.N,GND*%
X132803957Y-69284459D03*
X136794213Y-69005433D03*
%TO.P,S8,3*%
%TO.N,N/C*%
X139378146Y-58649961D03*
%TO.P,S8,4*%
X128803967Y-59389380D03*
%TD*%
%TO.P,S15,1*%
%TO.N,GP29*%
X168166600Y-59033800D03*
X177326600Y-59033800D03*
%TO.P,S15,2*%
%TO.N,GND*%
X170746600Y-59333800D03*
X174746600Y-59333800D03*
%TO.P,S15,3*%
%TO.N,N/C*%
X178046600Y-49183800D03*
%TO.P,S15,4*%
X167446600Y-49183800D03*
%TD*%
%TO.P,S12,1*%
%TO.N,GP28*%
X150166600Y-56200400D03*
X159326600Y-56200400D03*
%TO.P,S12,2*%
%TO.N,GND*%
X152746600Y-56500400D03*
X156746600Y-56500400D03*
%TO.P,S12,3*%
%TO.N,N/C*%
X160046600Y-46350400D03*
%TO.P,S12,4*%
X149446600Y-46350400D03*
%TD*%
%TO.P,S14,1*%
%TO.N,GP14*%
X168166600Y-76033800D03*
X177326600Y-76033800D03*
%TO.P,S14,2*%
%TO.N,GND*%
X170746600Y-76333800D03*
X174746600Y-76333800D03*
%TO.P,S14,3*%
%TO.N,N/C*%
X178046600Y-66183800D03*
%TO.P,S14,4*%
X167446600Y-66183800D03*
%TD*%
%TO.P,S17,1*%
%TO.N,GP6*%
X170736735Y-114272812D03*
X179661965Y-116333363D03*
%TO.P,S17,2*%
%TO.N,GND*%
X173183124Y-115145496D03*
X177080604Y-116045300D03*
%TO.P,S17,3*%
%TO.N,N/C*%
X182579279Y-106897783D03*
%TO.P,S17,4*%
X172250956Y-104513302D03*
%TD*%
D16*
%TO.N,GP3*%
X157981218Y-77186565D02*
X151397586Y-77104628D01*
X107125970Y-102111576D02*
X105808329Y-103640016D01*
X187852720Y-57746384D02*
X200526600Y-57693800D01*
X162339610Y-79021607D02*
X161970443Y-78701962D01*
X183845764Y-58971207D02*
X186601373Y-58994962D01*
X123109508Y-79026688D02*
X125793572Y-75614742D01*
X109235227Y-84635969D02*
X108543660Y-98567623D01*
X166320174Y-80478905D02*
X177855793Y-80343590D01*
X179844819Y-78317983D02*
X179818286Y-74231833D01*
X137654008Y-72998565D02*
X129419749Y-73668066D01*
X146981682Y-76095446D02*
X142038125Y-73786780D01*
X181857147Y-60949084D02*
X181893738Y-72365134D01*
X111392618Y-82270912D02*
X119476428Y-81120407D01*
X107125954Y-102111562D02*
G75*
G03*
X108543660Y-98567623I-4448654J3835162D01*
G01*
X129419751Y-73668092D02*
G75*
G03*
X125793572Y-75614742I416849J-5127208D01*
G01*
X162339616Y-79021600D02*
G75*
G03*
X166320174Y-80478904I3910484J4516300D01*
G01*
X183845764Y-58971210D02*
G75*
G03*
X181857147Y-60949084I-16964J-1971590D01*
G01*
X111392620Y-82270926D02*
G75*
G03*
X109235227Y-84635969I354380J-2489774D01*
G01*
X119476433Y-81120440D02*
G75*
G03*
X123109508Y-79026688I-793633J5576040D01*
G01*
X142038128Y-73786774D02*
G75*
G03*
X137654008Y-72998565I-3679428J-7878826D01*
G01*
X180854296Y-73298413D02*
G75*
G03*
X181893737Y-72365134I103404J930313D01*
G01*
X161970436Y-78701970D02*
G75*
G03*
X157981218Y-77186565I-4066536J-4696530D01*
G01*
X180854290Y-73298468D02*
G75*
G03*
X179818287Y-74231833I-102990J-927332D01*
G01*
X177855793Y-80343623D02*
G75*
G03*
X179844818Y-78317983I-23593J2012523D01*
G01*
X186601373Y-58995015D02*
G75*
G03*
X187227038Y-58374668I5327J620315D01*
G01*
X187852720Y-57746443D02*
G75*
G03*
X187227038Y-58374668I2580J-628257D01*
G01*
X146981682Y-76095446D02*
G75*
G03*
X151397586Y-77104627I4549718J9742346D01*
G01*
%TO.N,GND*%
X194717574Y-121729170D02*
X195077361Y-123042333D01*
X126535690Y-94324566D02*
X124129500Y-95260307D01*
X166205943Y-61184533D02*
X161841498Y-60122911D01*
X189389703Y-120695230D02*
X190983252Y-120295698D01*
X137156311Y-53464224D02*
X135807913Y-52032933D01*
X115488371Y-60315701D02*
X117501914Y-61406276D01*
X98725165Y-88298138D02*
X100110100Y-88761138D01*
X161561104Y-115412015D02*
X169107955Y-116310450D01*
X156746600Y-73500400D02*
X157916347Y-74704135D01*
X179861224Y-54756351D02*
X179840094Y-57566628D01*
X203276472Y-113777565D02*
X199338851Y-123969053D01*
X90205312Y-94084237D02*
X95196157Y-109651095D01*
X154546600Y-113733800D02*
X153632252Y-114583201D01*
X111111474Y-80132199D02*
X110284397Y-80354874D01*
X131817657Y-52311959D02*
X135807913Y-52032933D01*
X132803957Y-69284459D02*
X136794213Y-69005433D01*
X95442289Y-72748870D02*
X94039265Y-71956638D01*
X141631178Y-89815739D02*
X147157020Y-92183957D01*
X98725165Y-88298138D02*
X94880118Y-89400688D01*
X130139408Y-71446352D02*
X128393008Y-71492228D01*
X103410965Y-104639538D02*
X99565918Y-105742088D01*
X121442870Y-61098091D02*
X121228643Y-61240133D01*
X90205312Y-94084237D02*
X90063976Y-93643398D01*
X98173703Y-72629241D02*
X108290223Y-65684850D01*
X152746600Y-73500400D02*
X156746600Y-73500400D01*
X158546600Y-113733800D02*
X154546600Y-113733800D01*
X152746600Y-73500400D02*
X151040835Y-74509911D01*
X170746600Y-59333800D02*
X169351142Y-60471973D01*
X176985503Y-61059482D02*
X174746600Y-59333800D01*
X95558758Y-110850297D02*
X96817737Y-115278430D01*
X105097760Y-86743855D02*
X107194459Y-82812545D01*
X98149453Y-108266278D02*
X95652555Y-108890502D01*
X130558147Y-84754923D02*
X130657577Y-84739015D01*
X110734459Y-62711830D02*
X111527299Y-60872394D01*
X194717574Y-121729170D02*
X190983252Y-120295698D01*
X125348616Y-58508411D02*
X127953949Y-56780963D01*
X173183124Y-115145496D02*
X177080604Y-116045300D01*
X103410965Y-104639538D02*
X104962417Y-105658147D01*
X129098346Y-86340974D02*
X128715337Y-91383923D01*
X170746600Y-76333800D02*
X174746600Y-76333800D01*
X89555857Y-74725599D02*
X90194218Y-73059188D01*
X124935743Y-73381834D02*
X122085467Y-77578070D01*
X170746600Y-93333800D02*
X174746600Y-93333800D01*
X177423323Y-117073603D02*
X177080604Y-116045300D01*
X133790357Y-86256959D02*
X132852161Y-85397476D01*
X178804700Y-118411829D02*
X186221871Y-120625017D01*
X137780613Y-85977933D02*
X133790357Y-86256959D01*
X156746600Y-90500400D02*
X152746600Y-90500400D01*
X137780613Y-85977933D02*
X138842746Y-87526915D01*
X150958300Y-91775008D02*
X152746600Y-90500400D01*
X99408428Y-106866497D02*
X99565918Y-105742088D01*
X152746600Y-56500400D02*
X151174936Y-57723445D01*
X160708910Y-76336539D02*
X166257492Y-77802203D01*
X90194218Y-73059188D02*
X94039265Y-71956638D01*
X113127541Y-78751222D02*
X113893199Y-77706894D01*
X125348616Y-58508411D02*
X121442870Y-61098091D01*
X92223558Y-92744206D02*
X90214750Y-93355583D01*
X87228202Y-76967089D02*
X87016629Y-77039115D01*
X151470605Y-115474544D02*
X99483770Y-117222639D01*
X90066058Y-93642741D02*
X85710740Y-79604041D01*
X169328026Y-77286185D02*
X170746600Y-76333800D01*
X131817657Y-52311959D02*
X130721758Y-53992187D01*
X202155865Y-111082940D02*
X189307039Y-105439062D01*
X115488371Y-60315701D02*
X111527299Y-60872394D01*
X187405984Y-90153021D02*
X187347833Y-102423006D01*
X189426658Y-88093606D02*
X191946600Y-88033800D01*
X191946600Y-88033800D02*
X191946600Y-83433800D01*
X159460861Y-114502313D02*
X158546600Y-113733800D01*
X114675389Y-98446070D02*
X107820678Y-105358873D01*
X152746600Y-56500400D02*
X156746600Y-56500400D01*
X197072627Y-124978534D02*
X196709509Y-124840204D01*
X102933294Y-88664815D02*
X102856023Y-88694866D01*
X171875067Y-115814821D02*
X173183124Y-115145496D01*
X140351920Y-55569747D02*
X147732519Y-58263666D01*
X169813350Y-94475805D02*
X170746600Y-93333800D01*
X137626345Y-70098207D02*
X136794213Y-69005433D01*
X116259099Y-94541494D02*
X120220171Y-93984801D01*
X156746600Y-90500400D02*
X157906916Y-91813026D01*
X95216095Y-109645066D02*
X95558758Y-110850297D01*
X113893199Y-77706894D02*
X117854271Y-77150201D01*
X156746600Y-56500400D02*
X158244674Y-58056402D01*
X170746600Y-59333800D02*
X174746600Y-59333800D01*
X139734670Y-71698854D02*
X147493437Y-74786527D01*
X167450646Y-95254774D02*
X160765273Y-93556901D01*
X116259099Y-94541494D02*
X115981398Y-95975271D01*
X179219777Y-60772265D02*
X179412886Y-60182212D01*
X117854271Y-77150201D02*
X119444002Y-78138328D01*
X190846600Y-83433800D02*
X190846600Y-88033800D01*
X120220171Y-93984801D02*
X121457286Y-94901601D01*
X181888716Y-52695240D02*
X185286600Y-52613800D01*
X132107423Y-70348706D02*
X132803957Y-69284459D01*
X94297137Y-90845617D02*
X94880118Y-89400688D01*
X189426657Y-88093544D02*
G75*
G03*
X187405984Y-90153021I49143J-2069256D01*
G01*
X90214753Y-93355592D02*
G75*
G03*
X90063976Y-93643398I66447J-218208D01*
G01*
X167450658Y-95254726D02*
G75*
G03*
X169813350Y-94475805I569942J2244026D01*
G01*
X90063927Y-93643412D02*
G75*
G03*
X90066058Y-93642741I1073J312D01*
G01*
X117501921Y-61406264D02*
G75*
G03*
X121228643Y-61240133I1725079J3185064D01*
G01*
X132852187Y-85397448D02*
G75*
G03*
X130657577Y-84739016I-1778587J-1941552D01*
G01*
X104962424Y-105658137D02*
G75*
G03*
X107820678Y-105358873I1246076J1897937D01*
G01*
X157916339Y-74704143D02*
G75*
G03*
X160708910Y-76336539I4337061J4214643D01*
G01*
X147157030Y-92183933D02*
G75*
G03*
X150958300Y-91775008I1536870J3585933D01*
G01*
X176985506Y-61059478D02*
G75*
G03*
X178275852Y-61477960I1230994J1597078D01*
G01*
X138842740Y-87526919D02*
G75*
G03*
X141631178Y-89815738I5338060J3660319D01*
G01*
X197072626Y-124978535D02*
G75*
G03*
X199338851Y-123969053I625974J1643235D01*
G01*
X159460860Y-114502314D02*
G75*
G03*
X161561104Y-115412014I2572940J3060914D01*
G01*
X157906913Y-91813029D02*
G75*
G03*
X160765273Y-93556900I4256887J3762929D01*
G01*
X130139408Y-71446371D02*
G75*
G03*
X132107422Y-70348706I-63808J2427471D01*
G01*
X87228216Y-76967131D02*
G75*
G03*
X89555857Y-74725599I-1226616J3603031D01*
G01*
X166257493Y-77802201D02*
G75*
G03*
X169328026Y-77286184I964807J3652501D01*
G01*
X147732502Y-58263713D02*
G75*
G03*
X151174936Y-57723445I1233298J3379013D01*
G01*
X166205951Y-61184499D02*
G75*
G03*
X169351142Y-60471973I856049J3519199D01*
G01*
X177423362Y-117073590D02*
G75*
G03*
X178804700Y-118411828I1977338J658990D01*
G01*
X92223551Y-92744182D02*
G75*
G03*
X94297136Y-90845617I-948951J3118082D01*
G01*
X95652547Y-108890470D02*
G75*
G03*
X95216095Y-109645066I147153J-588630D01*
G01*
X95196209Y-109651078D02*
G75*
G03*
X95216095Y-109645066I9891J3178D01*
G01*
X111111478Y-80132213D02*
G75*
G03*
X113127541Y-78751222I-959078J3562213D01*
G01*
X151470605Y-115474557D02*
G75*
G03*
X153632251Y-114583200I-112305J3339157D01*
G01*
X178275852Y-61477964D02*
G75*
G03*
X179219777Y-60772265I-30152J1024464D01*
G01*
X195077332Y-123042341D02*
G75*
G03*
X196709509Y-124840203I2587068J708841D01*
G01*
X102933286Y-88664793D02*
G75*
G03*
X105097760Y-86743855I-1508886J3880093D01*
G01*
X130558144Y-84754902D02*
G75*
G03*
X129098346Y-86340974I274856J-1717798D01*
G01*
X179412872Y-60182207D02*
G75*
G03*
X179840093Y-57566628I-8189972J2680407D01*
G01*
X98149464Y-108266322D02*
G75*
G03*
X99408428Y-106866497I-408364J1633322D01*
G01*
X127953936Y-56780944D02*
G75*
G03*
X130721758Y-53992187I-5367036J8094644D01*
G01*
X119443995Y-78138340D02*
G75*
G03*
X122085467Y-77578070I1029005J1655540D01*
G01*
X126535668Y-94324510D02*
G75*
G03*
X128715336Y-91383923I-1244668J3200710D01*
G01*
X87016640Y-77039148D02*
G75*
G03*
X85710740Y-79604041I664960J-1953452D01*
G01*
X100110108Y-88761114D02*
G75*
G03*
X102856023Y-88694865I1281292J3832514D01*
G01*
X121457261Y-94901635D02*
G75*
G03*
X124129500Y-95260307I1661039J2241435D01*
G01*
X137156305Y-53464230D02*
G75*
G03*
X140351920Y-55569747I6041595J5691730D01*
G01*
X169107956Y-116310446D02*
G75*
G03*
X171875067Y-115814821I570144J4789146D01*
G01*
X187347784Y-102423006D02*
G75*
G03*
X189307039Y-105439061I3277216J-15494D01*
G01*
X114675403Y-98446084D02*
G75*
G03*
X115981397Y-95975271I-3413603J3384884D01*
G01*
X137626328Y-70098220D02*
G75*
G03*
X139734670Y-71698854I3938972J2999520D01*
G01*
X158244681Y-58056395D02*
G75*
G03*
X161841498Y-60122911I5353119J5153795D01*
G01*
X108290236Y-65684869D02*
G75*
G03*
X110734459Y-62711830I-3925436J5718469D01*
G01*
X181888717Y-52695263D02*
G75*
G03*
X179861225Y-54756351I49783J-2076737D01*
G01*
X90066059Y-93642741D02*
G75*
G03*
X90205313Y-94084237I46843441J14532341D01*
G01*
X110284398Y-80354877D02*
G75*
G03*
X107194460Y-82812545I1290702J-4794023D01*
G01*
X203276535Y-113777589D02*
G75*
G03*
X202155865Y-111082941I-1969935J761089D01*
G01*
X147493453Y-74786487D02*
G75*
G03*
X151040835Y-74509911I1492147J3749387D01*
G01*
X95442278Y-72748889D02*
G75*
G03*
X98173703Y-72629240I1269822J2248889D01*
G01*
X95558756Y-110850298D02*
G75*
G03*
X95196156Y-109651095I-36249656J-10306302D01*
G01*
X186221868Y-120625028D02*
G75*
G03*
X189389703Y-120695229I1711832J5737028D01*
G01*
X96817749Y-115278427D02*
G75*
G03*
X99483770Y-117222638I2576051J732427D01*
G01*
X128393008Y-71492211D02*
G75*
G03*
X124935743Y-73381834I113392J-4314989D01*
G01*
%TO.N,GP4*%
X161845549Y-80149643D02*
X161754856Y-80039111D01*
X184476481Y-75242200D02*
X182776807Y-75317407D01*
X127478943Y-87574434D02*
X127409785Y-77408264D01*
X165479620Y-81811405D02*
X178824592Y-81465680D01*
X180786875Y-77420016D02*
X180808405Y-79407623D01*
X147019594Y-77410629D02*
X142240151Y-74848453D01*
X186512496Y-73131489D02*
X186544149Y-69269823D01*
X125714960Y-91112937D02*
X122733311Y-93328654D01*
X189208618Y-60241152D02*
X200526600Y-60233800D01*
X129675937Y-74763180D02*
X137936189Y-73981144D01*
X151356775Y-78462746D02*
X158116239Y-78353723D01*
X187157000Y-68661251D02*
X187194303Y-62245091D01*
X186850937Y-68965539D02*
G75*
G03*
X186544149Y-69269823I-37J-306761D01*
G01*
X125714981Y-91112966D02*
G75*
G03*
X127478943Y-87574434I-2607481J3508766D01*
G01*
X178824594Y-81465740D02*
G75*
G03*
X180808404Y-79407623I-52794J2036040D01*
G01*
X161754850Y-80039116D02*
G75*
G03*
X158116239Y-78353724I-3564250J-2924484D01*
G01*
X161845536Y-80149654D02*
G75*
G03*
X165479620Y-81811405I3516264J2885154D01*
G01*
X142240157Y-74848443D02*
G75*
G03*
X137936189Y-73981144I-3588157J-6693357D01*
G01*
X182776811Y-75317487D02*
G75*
G03*
X180786876Y-77420016I91989J-2080013D01*
G01*
X189208618Y-60241169D02*
G75*
G03*
X187194303Y-62245091I1282J-2015631D01*
G01*
X128040384Y-75631682D02*
G75*
G03*
X127409786Y-77408264I2134416J-1757818D01*
G01*
X129675937Y-74763177D02*
G75*
G03*
X128040358Y-75631660I227463J-2402723D01*
G01*
X147019592Y-77410633D02*
G75*
G03*
X151356775Y-78462745I4194008J7823433D01*
G01*
X186850937Y-68965605D02*
G75*
G03*
X187157000Y-68661251I-37J306105D01*
G01*
X184476480Y-75242184D02*
G75*
G03*
X186512495Y-73131489I-94180J2128184D01*
G01*
%TO.N,GP5*%
X134228752Y-95586300D02*
X131195715Y-86137661D01*
X194738608Y-76181555D02*
X184042353Y-76266446D01*
X180001443Y-97677384D02*
X136995057Y-97607108D01*
X198689976Y-63765133D02*
X198716623Y-67975332D01*
X182004931Y-95680619D02*
X182034964Y-78286339D01*
X199605371Y-62808534D02*
X200526600Y-62773800D01*
X196728527Y-74164701D02*
X196706235Y-70117712D01*
X197711848Y-69046572D02*
G75*
G03*
X198716623Y-67975332I-61448J1064472D01*
G01*
X194738608Y-76181494D02*
G75*
G03*
X196728527Y-74164701I-15908J2005794D01*
G01*
X197711843Y-69046490D02*
G75*
G03*
X196706235Y-70117712I61457J-1065310D01*
G01*
X184042353Y-76266426D02*
G75*
G03*
X182034965Y-78286339I16047J-2023374D01*
G01*
X134228753Y-95586300D02*
G75*
G03*
X136995057Y-97607107I2771047J889500D01*
G01*
X199605371Y-62808532D02*
G75*
G03*
X198689976Y-63765133I35829J-950568D01*
G01*
X180001443Y-97677430D02*
G75*
G03*
X182004930Y-95680619I3257J2000230D01*
G01*
%TO.N,GP7*%
X183199528Y-79157466D02*
X183199528Y-100389385D01*
X166830310Y-102587988D02*
X181194782Y-102417995D01*
X185199526Y-77157468D02*
X197298568Y-77157468D01*
X199916105Y-67871040D02*
X200526600Y-67853800D01*
X164767868Y-104625886D02*
X164644188Y-109820459D01*
X199300322Y-75157168D02*
X199305165Y-68499018D01*
X162862432Y-112591546D02*
X161126600Y-113433800D01*
X197298568Y-77157422D02*
G75*
G03*
X199300321Y-75157168I32J2001722D01*
G01*
X162862415Y-112591511D02*
G75*
G03*
X164644187Y-109820459I-1381115J2846411D01*
G01*
X199916107Y-67871114D02*
G75*
G03*
X199305165Y-68499018I17693J-628386D01*
G01*
X181194782Y-102417986D02*
G75*
G03*
X183199528Y-100389385I-23982J2028586D01*
G01*
X185199526Y-77157528D02*
G75*
G03*
X183199528Y-79157466I-26J-1999972D01*
G01*
X166830310Y-102588023D02*
G75*
G03*
X164767869Y-104625886I24690J-2087577D01*
G01*
%TO.N,GP6*%
X182587321Y-115574928D02*
X179661965Y-116333363D01*
X184618724Y-112950156D02*
X184624122Y-81045739D01*
X202936883Y-66485243D02*
X202936883Y-77003232D01*
X186625442Y-79040316D02*
X200935971Y-79008585D01*
X201731741Y-65296891D02*
X200526600Y-65313800D01*
X200935971Y-79008578D02*
G75*
G03*
X202936883Y-77003232I-4471J2005378D01*
G01*
X202936825Y-66485243D02*
G75*
G03*
X201731741Y-65296892I-1188425J43D01*
G01*
X186625442Y-79040327D02*
G75*
G03*
X184624122Y-81045739I4458J-2005773D01*
G01*
X182587321Y-115574929D02*
G75*
G03*
X184618724Y-112950156I-680621J2625229D01*
G01*
%TO.N,GP2*%
X185574322Y-114431517D02*
X185574322Y-83143216D01*
X201434684Y-81143218D02*
X187574320Y-81143218D01*
X203564230Y-56677370D02*
X203447262Y-79141092D01*
X202049379Y-55154206D02*
X200526600Y-55153800D01*
X187128223Y-117778349D02*
X188682125Y-119091035D01*
X187574320Y-81143222D02*
G75*
G03*
X185574322Y-83143216I-20J-1999978D01*
G01*
X203564274Y-56677370D02*
G75*
G03*
X202049379Y-55154206I-1515274J7870D01*
G01*
X201434684Y-81143189D02*
G75*
G03*
X203447262Y-79141092I16J2012589D01*
G01*
X185574303Y-114431517D02*
G75*
G03*
X187128223Y-117778348I4381197J17D01*
G01*
%TD*%
%TA.AperFunction,Conductor*%
%TO.N,GND*%
G36*
X190973688Y-86437227D02*
G01*
X190975083Y-86438911D01*
X191640354Y-87415062D01*
X191642182Y-87423828D01*
X191637784Y-87430952D01*
X190853697Y-88029382D01*
X190845042Y-88031677D01*
X190839501Y-88029382D01*
X190055414Y-87430952D01*
X190050916Y-87423208D01*
X190052843Y-87415063D01*
X190718116Y-86438911D01*
X190725608Y-86434004D01*
X190727785Y-86433800D01*
X190965415Y-86433800D01*
X190973688Y-86437227D01*
G37*
%TD.AperFunction*%
%TD*%
%TA.AperFunction,Conductor*%
%TO.N,GND*%
G36*
X111531108Y-60874898D02*
G01*
X112084176Y-61429250D01*
X112087593Y-61437528D01*
X112084157Y-61445797D01*
X112083612Y-61446306D01*
X111015198Y-62384312D01*
X111006720Y-62387195D01*
X111002848Y-62386264D01*
X110786845Y-62293162D01*
X110780604Y-62286741D01*
X110779784Y-62282853D01*
X110727750Y-60884515D01*
X110730867Y-60876120D01*
X110739007Y-60872388D01*
X110739424Y-60872380D01*
X111522832Y-60871481D01*
X111531108Y-60874898D01*
G37*
%TD.AperFunction*%
%TD*%
%TA.AperFunction,Conductor*%
%TO.N,GND*%
G36*
X153818409Y-113432158D02*
G01*
X154219948Y-113597948D01*
X154542836Y-113731264D01*
X154549175Y-113737588D01*
X154549186Y-113737613D01*
X154847879Y-114461113D01*
X154847868Y-114470068D01*
X154841529Y-114476393D01*
X154840581Y-114476737D01*
X153470362Y-114908536D01*
X153461441Y-114907754D01*
X153458273Y-114905340D01*
X153298178Y-114733004D01*
X153295058Y-114724610D01*
X153295871Y-114720736D01*
X153684866Y-113737588D01*
X153803128Y-113438691D01*
X153809357Y-113432261D01*
X153818311Y-113432119D01*
X153818409Y-113432158D01*
G37*
%TD.AperFunction*%
%TD*%
%TA.AperFunction,Conductor*%
%TO.N,GND*%
G36*
X99299111Y-87740452D02*
G01*
X100268345Y-88678885D01*
X100271904Y-88687102D01*
X100271302Y-88691001D01*
X100196720Y-88914091D01*
X100190847Y-88920850D01*
X100187024Y-88921997D01*
X98738249Y-89096561D01*
X98729625Y-89094148D01*
X98725233Y-89086345D01*
X98725149Y-89084959D01*
X98724947Y-88914091D01*
X98724222Y-88302680D01*
X98727637Y-88294407D01*
X99282709Y-87740575D01*
X99290985Y-87737158D01*
X99299111Y-87740452D01*
G37*
%TD.AperFunction*%
%TD*%
%TA.AperFunction,Conductor*%
%TO.N,GND*%
G36*
X171063324Y-92599732D02*
G01*
X171063840Y-92599961D01*
X172339917Y-93205628D01*
X172345921Y-93212271D01*
X172346600Y-93216198D01*
X172346600Y-93451401D01*
X172343173Y-93459674D01*
X172339917Y-93461971D01*
X171063851Y-94067633D01*
X171054907Y-94068084D01*
X171048264Y-94062080D01*
X171048030Y-94061553D01*
X171018498Y-93990490D01*
X170747464Y-93338287D01*
X170747454Y-93329338D01*
X171048030Y-92606045D01*
X171054369Y-92599721D01*
X171063324Y-92599732D01*
G37*
%TD.AperFunction*%
%TD*%
%TA.AperFunction,Conductor*%
%TO.N,GND*%
G36*
X90207776Y-72261390D02*
G01*
X91678280Y-72500312D01*
X91685896Y-72505022D01*
X91687650Y-72508636D01*
X91752483Y-72734735D01*
X91751469Y-72743632D01*
X91749004Y-72746709D01*
X90768138Y-73617560D01*
X90759676Y-73620490D01*
X90752106Y-73617093D01*
X90744252Y-73609256D01*
X90196697Y-73062896D01*
X90193262Y-73054629D01*
X90194201Y-72272924D01*
X90197638Y-72264657D01*
X90205915Y-72261240D01*
X90207776Y-72261390D01*
G37*
%TD.AperFunction*%
%TD*%
%TA.AperFunction,Conductor*%
%TO.N,GND*%
G36*
X153063324Y-72766332D02*
G01*
X153063840Y-72766561D01*
X154339917Y-73372228D01*
X154345921Y-73378871D01*
X154346600Y-73382798D01*
X154346600Y-73618001D01*
X154343173Y-73626274D01*
X154339917Y-73628571D01*
X153063851Y-74234233D01*
X153054907Y-74234684D01*
X153048264Y-74228680D01*
X153048030Y-74228153D01*
X152997204Y-74105848D01*
X152747464Y-73504887D01*
X152747454Y-73495938D01*
X153048030Y-72772645D01*
X153054369Y-72766321D01*
X153063324Y-72766332D01*
G37*
%TD.AperFunction*%
%TD*%
%TA.AperFunction,Conductor*%
%TO.N,GND*%
G36*
X191556993Y-119738503D02*
G01*
X191557192Y-119738709D01*
X192090218Y-120300203D01*
X192513077Y-120745645D01*
X192516288Y-120754004D01*
X192515515Y-120757893D01*
X192431219Y-120977491D01*
X192425055Y-120983986D01*
X192421194Y-120984963D01*
X190995835Y-121094728D01*
X190987323Y-121091947D01*
X190983272Y-121083961D01*
X190983237Y-121083077D01*
X190983122Y-120984396D01*
X190982324Y-120300201D01*
X190985741Y-120291926D01*
X190985744Y-120291922D01*
X191540447Y-119738483D01*
X191548723Y-119735067D01*
X191556993Y-119738503D01*
G37*
%TD.AperFunction*%
%TD*%
%TA.AperFunction,Conductor*%
%TO.N,GND*%
G36*
X137529318Y-68704643D02*
G01*
X137535643Y-68710983D01*
X137536266Y-68712985D01*
X137853024Y-70184347D01*
X137851415Y-70193156D01*
X137848674Y-70196117D01*
X137661556Y-70338605D01*
X137652898Y-70340891D01*
X137649131Y-70339709D01*
X136497656Y-69749453D01*
X136491857Y-69742629D01*
X136492178Y-69734577D01*
X136791753Y-69009129D01*
X136798074Y-69002794D01*
X137520366Y-68704632D01*
X137529318Y-68704643D01*
G37*
%TD.AperFunction*%
%TD*%
%TA.AperFunction,Conductor*%
%TO.N,GND*%
G36*
X133389161Y-52073573D02*
G01*
X133395593Y-52079803D01*
X133396526Y-52083630D01*
X133412498Y-52312028D01*
X133412936Y-52318289D01*
X133410094Y-52326781D01*
X133407000Y-52329303D01*
X132135287Y-53044603D01*
X132126396Y-53045672D01*
X132119353Y-53040141D01*
X132118747Y-53038895D01*
X132101725Y-52997939D01*
X131818524Y-52316515D01*
X131818514Y-52307566D01*
X132119390Y-51583476D01*
X132125729Y-51577152D01*
X132134499Y-51577087D01*
X133389161Y-52073573D01*
G37*
%TD.AperFunction*%
%TD*%
%TA.AperFunction,Conductor*%
%TO.N,GND*%
G36*
X171063324Y-58599732D02*
G01*
X171063840Y-58599961D01*
X172339917Y-59205628D01*
X172345921Y-59212271D01*
X172346600Y-59216198D01*
X172346600Y-59451401D01*
X172343173Y-59459674D01*
X172339917Y-59461971D01*
X171063851Y-60067633D01*
X171054907Y-60068084D01*
X171048264Y-60062080D01*
X171048030Y-60061553D01*
X170997204Y-59939248D01*
X170747464Y-59338287D01*
X170747454Y-59329338D01*
X171048030Y-58606045D01*
X171054369Y-58599721D01*
X171063324Y-58599732D01*
G37*
%TD.AperFunction*%
%TD*%
%TA.AperFunction,Conductor*%
%TO.N,GND*%
G36*
X192073688Y-86437227D02*
G01*
X192075083Y-86438911D01*
X192740355Y-87415062D01*
X192742183Y-87423828D01*
X192737785Y-87430952D01*
X191953698Y-88029382D01*
X191945043Y-88031677D01*
X191939502Y-88029382D01*
X191155414Y-87430952D01*
X191150916Y-87423208D01*
X191152843Y-87415063D01*
X191818116Y-86438911D01*
X191825608Y-86434004D01*
X191827785Y-86433800D01*
X192065415Y-86433800D01*
X192073688Y-86437227D01*
G37*
%TD.AperFunction*%
%TD*%
%TA.AperFunction,Conductor*%
%TO.N,GP6*%
G36*
X202359142Y-64706583D02*
G01*
X202362984Y-64709667D01*
X203046380Y-65550672D01*
X203048938Y-65559253D01*
X203044678Y-65567130D01*
X203037300Y-65569750D01*
X202811883Y-65569750D01*
X202185326Y-66078830D01*
X202176744Y-66081387D01*
X202173004Y-66080353D01*
X201072139Y-65567130D01*
X200553244Y-65325221D01*
X200547195Y-65318621D01*
X200547585Y-65309674D01*
X200554186Y-65303624D01*
X200554481Y-65303521D01*
X202350211Y-64705944D01*
X202359142Y-64706583D01*
G37*
%TD.AperFunction*%
%TD*%
%TA.AperFunction,Conductor*%
%TO.N,GND*%
G36*
X132706616Y-85090318D02*
G01*
X134084228Y-85514078D01*
X134091127Y-85519786D01*
X134091970Y-85528701D01*
X134091602Y-85529726D01*
X133792948Y-86253140D01*
X133786623Y-86259479D01*
X133786598Y-86259489D01*
X133062156Y-86558603D01*
X133053201Y-86558593D01*
X133046877Y-86552254D01*
X133046840Y-86552166D01*
X132928787Y-86259489D01*
X132533433Y-85279325D01*
X132533518Y-85270370D01*
X132535656Y-85267047D01*
X132694554Y-85093597D01*
X132702667Y-85089813D01*
X132706616Y-85090318D01*
G37*
%TD.AperFunction*%
%TD*%
%TA.AperFunction,Conductor*%
%TO.N,GND*%
G36*
X117552523Y-76422196D02*
G01*
X117553527Y-76424098D01*
X117853394Y-77145572D01*
X117853405Y-77154526D01*
X117853395Y-77154551D01*
X117552237Y-77879404D01*
X117545898Y-77885729D01*
X117537902Y-77886070D01*
X116308239Y-77496922D01*
X116301385Y-77491158D01*
X116300184Y-77487398D01*
X116267450Y-77254496D01*
X116269693Y-77245827D01*
X116272641Y-77243071D01*
X117536333Y-76418787D01*
X117545132Y-76417139D01*
X117552523Y-76422196D01*
G37*
%TD.AperFunction*%
%TD*%
%TA.AperFunction,Conductor*%
%TO.N,GND*%
G36*
X138570659Y-85977922D02*
G01*
X138578928Y-85981357D01*
X138582197Y-85987760D01*
X138778694Y-87206869D01*
X138776627Y-87215582D01*
X138773760Y-87218380D01*
X138579789Y-87351385D01*
X138571027Y-87353238D01*
X138567295Y-87351853D01*
X137483305Y-86722171D01*
X137477873Y-86715052D01*
X137478368Y-86707588D01*
X137777057Y-85984351D01*
X137783382Y-85978012D01*
X137787882Y-85977117D01*
X138570659Y-85977922D01*
G37*
%TD.AperFunction*%
%TD*%
%TA.AperFunction,Conductor*%
%TO.N,GND*%
G36*
X113894231Y-77709514D02*
G01*
X113896780Y-77713329D01*
X114195309Y-78436224D01*
X114195300Y-78445179D01*
X114190028Y-78450999D01*
X113063122Y-79055872D01*
X113054212Y-79056765D01*
X113050671Y-79054999D01*
X112861008Y-78915945D01*
X112856362Y-78908289D01*
X112856448Y-78904240D01*
X113091336Y-77716315D01*
X113096303Y-77708863D01*
X113102800Y-77706884D01*
X113885956Y-77706095D01*
X113894231Y-77709514D01*
G37*
%TD.AperFunction*%
%TD*%
%TA.AperFunction,Conductor*%
%TO.N,GP2*%
G36*
X202185036Y-54387553D02*
G01*
X203221070Y-55026092D01*
X203226315Y-55033350D01*
X203226631Y-55036055D01*
X203226567Y-55272981D01*
X203223138Y-55281253D01*
X203220996Y-55282944D01*
X202185032Y-55920055D01*
X202176190Y-55921470D01*
X202173968Y-55920697D01*
X201076791Y-55410239D01*
X200548400Y-55164407D01*
X200542345Y-55157811D01*
X200542728Y-55148865D01*
X200548400Y-55143192D01*
X202173962Y-54386904D01*
X202182907Y-54386522D01*
X202185036Y-54387553D01*
G37*
%TD.AperFunction*%
%TD*%
%TA.AperFunction,Conductor*%
%TO.N,GND*%
G36*
X156444935Y-55772119D02*
G01*
X156445169Y-55772646D01*
X156745734Y-56495910D01*
X156745744Y-56504863D01*
X156745735Y-56504885D01*
X156745734Y-56504890D01*
X156445169Y-57228153D01*
X156438830Y-57234478D01*
X156429875Y-57234467D01*
X156429348Y-57234233D01*
X155153283Y-56628571D01*
X155147279Y-56621928D01*
X155146600Y-56618001D01*
X155146600Y-56382798D01*
X155150027Y-56374525D01*
X155153283Y-56372228D01*
X156429349Y-55766565D01*
X156438292Y-55766115D01*
X156444935Y-55772119D01*
G37*
%TD.AperFunction*%
%TD*%
%TA.AperFunction,Conductor*%
%TO.N,GND*%
G36*
X191953698Y-83438217D02*
G01*
X192737785Y-84036646D01*
X192742283Y-84044390D01*
X192740355Y-84052536D01*
X192075083Y-85028689D01*
X192067592Y-85033596D01*
X192065415Y-85033800D01*
X191827785Y-85033800D01*
X191819512Y-85030373D01*
X191818117Y-85028689D01*
X191152844Y-84052536D01*
X191151016Y-84043770D01*
X191155412Y-84036647D01*
X191939502Y-83438216D01*
X191948157Y-83435922D01*
X191953698Y-83438217D01*
G37*
%TD.AperFunction*%
%TD*%
%TA.AperFunction,Conductor*%
%TO.N,GND*%
G36*
X104149782Y-104337216D02*
G01*
X104155279Y-104341924D01*
X104800369Y-105398432D01*
X104801755Y-105407279D01*
X104800163Y-105410950D01*
X104671083Y-105607554D01*
X104663678Y-105612589D01*
X104659696Y-105612722D01*
X103421047Y-105440936D01*
X103413323Y-105436405D01*
X103410954Y-105429359D01*
X103410928Y-105404756D01*
X103410138Y-104646823D01*
X103413556Y-104638547D01*
X103417368Y-104636000D01*
X104140829Y-104337207D01*
X104149782Y-104337216D01*
G37*
%TD.AperFunction*%
%TD*%
%TA.AperFunction,Conductor*%
%TO.N,GND*%
G36*
X152017130Y-90198231D02*
G01*
X152740172Y-90496829D01*
X152746511Y-90503154D01*
X152747406Y-90507655D01*
X152746609Y-91290647D01*
X152743174Y-91298917D01*
X152737004Y-91302146D01*
X151535769Y-91520800D01*
X151527016Y-91518910D01*
X151524146Y-91516080D01*
X151387641Y-91324561D01*
X151385630Y-91315835D01*
X151386938Y-91312096D01*
X152002436Y-90203366D01*
X152009447Y-90197797D01*
X152017130Y-90198231D01*
G37*
%TD.AperFunction*%
%TD*%
%TA.AperFunction,Conductor*%
%TO.N,GND*%
G36*
X170020031Y-93032827D02*
G01*
X170742737Y-93331170D01*
X170749077Y-93337495D01*
X170749087Y-93337519D01*
X171048486Y-94062587D01*
X171048476Y-94071542D01*
X171042642Y-94077645D01*
X169845033Y-94639606D01*
X169836088Y-94640018D01*
X169832659Y-94638074D01*
X169650521Y-94489231D01*
X169646284Y-94481342D01*
X169646571Y-94477347D01*
X170004218Y-93040815D01*
X170009542Y-93033617D01*
X170018398Y-93032291D01*
X170020031Y-93032827D01*
G37*
%TD.AperFunction*%
%TD*%
%TA.AperFunction,Conductor*%
%TO.N,GND*%
G36*
X183509463Y-51933050D02*
G01*
X185261795Y-52603898D01*
X185268296Y-52610057D01*
X185268539Y-52619008D01*
X185262548Y-52625433D01*
X183638962Y-53380932D01*
X183630016Y-53381315D01*
X183628343Y-53380551D01*
X182595578Y-52806726D01*
X182590011Y-52799713D01*
X182589564Y-52796783D01*
X182583888Y-52559933D01*
X182587116Y-52551581D01*
X182589024Y-52549967D01*
X183498723Y-51934288D01*
X183507495Y-51932489D01*
X183509463Y-51933050D01*
G37*
%TD.AperFunction*%
%TD*%
%TA.AperFunction,Conductor*%
%TO.N,GND*%
G36*
X152189227Y-72943292D02*
G01*
X152190901Y-72944677D01*
X152744017Y-73496457D01*
X152747454Y-73504726D01*
X152747454Y-73504753D01*
X152746611Y-74289702D01*
X152743175Y-74297971D01*
X152735943Y-74301343D01*
X151452897Y-74414990D01*
X151444354Y-74412307D01*
X151441796Y-74409295D01*
X151371018Y-74289702D01*
X151322011Y-74206895D01*
X151320748Y-74198031D01*
X151322413Y-74194348D01*
X151792406Y-73504753D01*
X152172971Y-72946369D01*
X152180461Y-72941464D01*
X152189227Y-72943292D01*
G37*
%TD.AperFunction*%
%TD*%
%TA.AperFunction,Conductor*%
%TO.N,GND*%
G36*
X115439230Y-77360172D02*
G01*
X115446084Y-77365936D01*
X115447286Y-77369699D01*
X115480018Y-77602598D01*
X115477776Y-77611267D01*
X115474824Y-77614026D01*
X114211138Y-78438306D01*
X114202337Y-78439955D01*
X114194946Y-78434898D01*
X114193942Y-78432996D01*
X113894075Y-77711522D01*
X113894064Y-77702568D01*
X113894074Y-77702543D01*
X113935599Y-77602598D01*
X114195233Y-76977688D01*
X114201571Y-76971365D01*
X114209565Y-76971024D01*
X115439230Y-77360172D01*
G37*
%TD.AperFunction*%
%TD*%
%TA.AperFunction,Conductor*%
%TO.N,GND*%
G36*
X174444935Y-75605519D02*
G01*
X174445169Y-75606046D01*
X174745734Y-76329310D01*
X174745744Y-76338263D01*
X174745735Y-76338285D01*
X174745734Y-76338290D01*
X174445169Y-77061553D01*
X174438830Y-77067878D01*
X174429875Y-77067867D01*
X174429348Y-77067633D01*
X173153283Y-76461971D01*
X173147279Y-76455328D01*
X173146600Y-76451401D01*
X173146600Y-76216198D01*
X173150027Y-76207925D01*
X173153283Y-76205628D01*
X174429349Y-75599965D01*
X174438292Y-75599515D01*
X174444935Y-75605519D01*
G37*
%TD.AperFunction*%
%TD*%
%TA.AperFunction,Conductor*%
%TO.N,GND*%
G36*
X115186623Y-59587696D02*
G01*
X115187627Y-59589598D01*
X115487494Y-60311072D01*
X115487505Y-60320026D01*
X115487495Y-60320051D01*
X115186337Y-61044904D01*
X115179998Y-61051229D01*
X115172002Y-61051570D01*
X113942339Y-60662422D01*
X113935485Y-60656658D01*
X113934284Y-60652898D01*
X113901550Y-60419996D01*
X113903793Y-60411327D01*
X113906741Y-60408571D01*
X115170433Y-59584287D01*
X115179232Y-59582639D01*
X115186623Y-59587696D01*
G37*
%TD.AperFunction*%
%TD*%
%TA.AperFunction,Conductor*%
%TO.N,GND*%
G36*
X158244935Y-113005519D02*
G01*
X158245169Y-113006046D01*
X158545734Y-113729309D01*
X158545745Y-113738264D01*
X158545734Y-113738289D01*
X158245169Y-114461553D01*
X158238830Y-114467878D01*
X158229875Y-114467867D01*
X158229348Y-114467633D01*
X156953283Y-113861971D01*
X156947279Y-113855328D01*
X156946600Y-113851401D01*
X156946600Y-113616198D01*
X156950027Y-113607925D01*
X156953283Y-113605628D01*
X158229349Y-112999965D01*
X158238292Y-112999515D01*
X158244935Y-113005519D01*
G37*
%TD.AperFunction*%
%TD*%
%TA.AperFunction,Conductor*%
%TO.N,GP4*%
G36*
X200079471Y-59474327D02*
G01*
X200079589Y-59474521D01*
X200524090Y-60227854D01*
X200525342Y-60236721D01*
X200524090Y-60239746D01*
X200079581Y-60993090D01*
X200072425Y-60998474D01*
X200063558Y-60997221D01*
X200063376Y-60997111D01*
X199032249Y-60363196D01*
X199026996Y-60355944D01*
X199026677Y-60353243D01*
X199026523Y-60116310D01*
X199029944Y-60108035D01*
X199032079Y-60106346D01*
X200063374Y-59470507D01*
X200072212Y-59469083D01*
X200079471Y-59474327D01*
G37*
%TD.AperFunction*%
%TD*%
%TA.AperFunction,Conductor*%
%TO.N,GND*%
G36*
X170016842Y-76031512D02*
G01*
X170345352Y-76167186D01*
X170740187Y-76330252D01*
X170746526Y-76336577D01*
X170747421Y-76341078D01*
X170746610Y-77123736D01*
X170743175Y-77132006D01*
X170736647Y-77135294D01*
X169507968Y-77319752D01*
X169499278Y-77317592D01*
X169496517Y-77314704D01*
X169375064Y-77133800D01*
X169365419Y-77119434D01*
X169363654Y-77110657D01*
X169365077Y-77106935D01*
X170002323Y-76036342D01*
X170009499Y-76030986D01*
X170016842Y-76031512D01*
G37*
%TD.AperFunction*%
%TD*%
%TA.AperFunction,Conductor*%
%TO.N,GND*%
G36*
X137478916Y-85249750D02*
G01*
X137479522Y-85250996D01*
X137779744Y-85973374D01*
X137779755Y-85982329D01*
X137779744Y-85982353D01*
X137478879Y-86706414D01*
X137472540Y-86712739D01*
X137463770Y-86712804D01*
X136209108Y-86216318D01*
X136202676Y-86210088D01*
X136201743Y-86206265D01*
X136185334Y-85971598D01*
X136188175Y-85963110D01*
X136191266Y-85960589D01*
X137462982Y-85245287D01*
X137471873Y-85244219D01*
X137478916Y-85249750D01*
G37*
%TD.AperFunction*%
%TD*%
%TA.AperFunction,Conductor*%
%TO.N,GND*%
G36*
X135506216Y-51304750D02*
G01*
X135506822Y-51305996D01*
X135807044Y-52028374D01*
X135807055Y-52037329D01*
X135807044Y-52037353D01*
X135506179Y-52761414D01*
X135499840Y-52767739D01*
X135491070Y-52767804D01*
X134236408Y-52271318D01*
X134229976Y-52265088D01*
X134229043Y-52261265D01*
X134212634Y-52026598D01*
X134215475Y-52018110D01*
X134218566Y-52015589D01*
X135490282Y-51300287D01*
X135499173Y-51299219D01*
X135506216Y-51304750D01*
G37*
%TD.AperFunction*%
%TD*%
%TA.AperFunction,Conductor*%
%TO.N,GND*%
G36*
X177867413Y-116045284D02*
G01*
X177875682Y-116048721D01*
X177879099Y-116056998D01*
X177879014Y-116058394D01*
X177703084Y-117507646D01*
X177698685Y-117515446D01*
X177695168Y-117517336D01*
X177472008Y-117591712D01*
X177463076Y-117591077D01*
X177459898Y-117588744D01*
X176522902Y-116619245D01*
X176519618Y-116610916D01*
X176523033Y-116602852D01*
X177076855Y-116047791D01*
X177085120Y-116044357D01*
X177867413Y-116045284D01*
G37*
%TD.AperFunction*%
%TD*%
%TA.AperFunction,Conductor*%
%TO.N,GND*%
G36*
X174444935Y-92605519D02*
G01*
X174445169Y-92606046D01*
X174745734Y-93329310D01*
X174745744Y-93338263D01*
X174745735Y-93338285D01*
X174745734Y-93338290D01*
X174445169Y-94061553D01*
X174438830Y-94067878D01*
X174429875Y-94067867D01*
X174429348Y-94067633D01*
X173153283Y-93461971D01*
X173147279Y-93455328D01*
X173146600Y-93451401D01*
X173146600Y-93216198D01*
X173150027Y-93207925D01*
X173153283Y-93205628D01*
X174429349Y-92599965D01*
X174438292Y-92599515D01*
X174444935Y-92605519D01*
G37*
%TD.AperFunction*%
%TD*%
%TA.AperFunction,Conductor*%
%TO.N,GND*%
G36*
X134375461Y-69046073D02*
G01*
X134381893Y-69052303D01*
X134382826Y-69056130D01*
X134398798Y-69284528D01*
X134399236Y-69290789D01*
X134396394Y-69299281D01*
X134393300Y-69301803D01*
X133121587Y-70017103D01*
X133112696Y-70018172D01*
X133105653Y-70012641D01*
X133105047Y-70011395D01*
X133088025Y-69970439D01*
X132804824Y-69289015D01*
X132804814Y-69280066D01*
X133105690Y-68555976D01*
X133112029Y-68549652D01*
X133120799Y-68549587D01*
X134375461Y-69046073D01*
G37*
%TD.AperFunction*%
%TD*%
%TA.AperFunction,Conductor*%
%TO.N,GP2*%
G36*
X202185036Y-54387553D02*
G01*
X203221070Y-55026092D01*
X203226315Y-55033350D01*
X203226631Y-55036055D01*
X203226567Y-55272981D01*
X203223138Y-55281253D01*
X203220996Y-55282944D01*
X202185032Y-55920055D01*
X202176190Y-55921470D01*
X202173968Y-55920697D01*
X201076791Y-55410239D01*
X200548400Y-55164407D01*
X200542345Y-55157811D01*
X200542728Y-55148865D01*
X200548400Y-55143192D01*
X202173962Y-54386904D01*
X202182907Y-54386522D01*
X202185036Y-54387553D01*
G37*
%TD.AperFunction*%
%TD*%
%TA.AperFunction,Conductor*%
%TO.N,GND*%
G36*
X152017565Y-56198410D02*
G01*
X152742895Y-56497930D01*
X152749234Y-56504255D01*
X152749244Y-56504280D01*
X153047452Y-57226677D01*
X153047441Y-57235631D01*
X153041101Y-57241956D01*
X153039210Y-57242555D01*
X151578411Y-57571861D01*
X151569587Y-57570337D01*
X151566604Y-57567632D01*
X151422156Y-57382011D01*
X151419780Y-57373378D01*
X151420918Y-57369607D01*
X152002632Y-56203999D01*
X152009392Y-56198128D01*
X152017565Y-56198410D01*
G37*
%TD.AperFunction*%
%TD*%
%TA.AperFunction,Conductor*%
%TO.N,GND*%
G36*
X176773736Y-115309856D02*
G01*
X176778196Y-115315198D01*
X177078572Y-116038288D01*
X177078581Y-116047242D01*
X177076031Y-116051058D01*
X176522300Y-116603618D01*
X176514024Y-116607036D01*
X176506755Y-116604494D01*
X175513895Y-115815146D01*
X175509552Y-115807315D01*
X175509776Y-115803356D01*
X175562681Y-115574195D01*
X175567880Y-115566907D01*
X175571610Y-115565393D01*
X176764928Y-115308249D01*
X176773736Y-115309856D01*
G37*
%TD.AperFunction*%
%TD*%
%TA.AperFunction,Conductor*%
%TO.N,GND*%
G36*
X156444935Y-89772119D02*
G01*
X156445169Y-89772646D01*
X156745734Y-90495910D01*
X156745744Y-90504863D01*
X156745735Y-90504885D01*
X156745734Y-90504890D01*
X156445169Y-91228153D01*
X156438830Y-91234478D01*
X156429875Y-91234467D01*
X156429348Y-91234233D01*
X155153283Y-90628571D01*
X155147279Y-90621928D01*
X155146600Y-90618001D01*
X155146600Y-90382798D01*
X155150027Y-90374525D01*
X155153283Y-90372228D01*
X156429349Y-89766565D01*
X156438292Y-89766115D01*
X156444935Y-89772119D01*
G37*
%TD.AperFunction*%
%TD*%
%TA.AperFunction,Conductor*%
%TO.N,GND*%
G36*
X153063324Y-89766332D02*
G01*
X153063840Y-89766561D01*
X154339917Y-90372228D01*
X154345921Y-90378871D01*
X154346600Y-90382798D01*
X154346600Y-90618001D01*
X154343173Y-90626274D01*
X154339917Y-90628571D01*
X153063851Y-91234233D01*
X153054907Y-91234684D01*
X153048264Y-91228680D01*
X153048030Y-91228153D01*
X153018498Y-91157090D01*
X152747464Y-90504887D01*
X152747454Y-90495938D01*
X153048030Y-89772645D01*
X153054369Y-89766321D01*
X153063324Y-89766332D01*
G37*
%TD.AperFunction*%
%TD*%
%TA.AperFunction,Conductor*%
%TO.N,GP5*%
G36*
X200079496Y-62014254D02*
G01*
X200079840Y-62014802D01*
X200524091Y-62767818D01*
X200525343Y-62776685D01*
X200524091Y-62779708D01*
X200079389Y-63533560D01*
X200072234Y-63538944D01*
X200063560Y-63537803D01*
X199037471Y-62958463D01*
X199031951Y-62951412D01*
X199031531Y-62948721D01*
X199022605Y-62711967D01*
X199025718Y-62703572D01*
X199027801Y-62701797D01*
X200063271Y-62011013D01*
X200072054Y-62009273D01*
X200079496Y-62014254D01*
G37*
%TD.AperFunction*%
%TD*%
%TA.AperFunction,Conductor*%
%TO.N,GND*%
G36*
X156444935Y-72772119D02*
G01*
X156445169Y-72772646D01*
X156745734Y-73495909D01*
X156745745Y-73504864D01*
X156745734Y-73504889D01*
X156445169Y-74228153D01*
X156438830Y-74234478D01*
X156429875Y-74234467D01*
X156429348Y-74234233D01*
X155153283Y-73628571D01*
X155147279Y-73621928D01*
X155146600Y-73618001D01*
X155146600Y-73382798D01*
X155150027Y-73374525D01*
X155153283Y-73372228D01*
X156429349Y-72766565D01*
X156438292Y-72766115D01*
X156444935Y-72772119D01*
G37*
%TD.AperFunction*%
%TD*%
%TA.AperFunction,Conductor*%
%TO.N,GND*%
G36*
X191346428Y-87301969D02*
G01*
X191941498Y-88026350D01*
X191944101Y-88034918D01*
X191941498Y-88041203D01*
X191346098Y-88766031D01*
X191338199Y-88770249D01*
X191332320Y-88769303D01*
X190061744Y-88206733D01*
X190055567Y-88200250D01*
X190054785Y-88196318D01*
X190049203Y-87961153D01*
X190052433Y-87952802D01*
X190055576Y-87950459D01*
X191332069Y-87298974D01*
X191340995Y-87298266D01*
X191346428Y-87301969D01*
G37*
%TD.AperFunction*%
%TD*%
%TA.AperFunction,Conductor*%
%TO.N,GP6*%
G36*
X179675791Y-115535946D02*
G01*
X181158448Y-115812988D01*
X181165950Y-115817875D01*
X181167624Y-115821552D01*
X181226648Y-116049216D01*
X181225407Y-116058084D01*
X181222858Y-116061102D01*
X180235856Y-116892138D01*
X180227320Y-116894845D01*
X180220056Y-116891470D01*
X179664439Y-116337047D01*
X179661003Y-116328780D01*
X179661947Y-115547431D01*
X179665384Y-115539165D01*
X179673661Y-115535748D01*
X179675791Y-115535946D01*
G37*
%TD.AperFunction*%
%TD*%
%TA.AperFunction,Conductor*%
%TO.N,GND*%
G36*
X173756972Y-114586301D02*
G01*
X174749832Y-115375649D01*
X174754175Y-115383480D01*
X174753951Y-115387439D01*
X174701047Y-115616598D01*
X174695847Y-115623888D01*
X174692112Y-115625403D01*
X173498801Y-115882546D01*
X173489991Y-115880939D01*
X173485531Y-115875597D01*
X173377941Y-115616598D01*
X173185154Y-115152505D01*
X173185146Y-115143553D01*
X173187694Y-115139739D01*
X173741427Y-114587176D01*
X173749703Y-114583759D01*
X173756972Y-114586301D01*
G37*
%TD.AperFunction*%
%TD*%
%TA.AperFunction,Conductor*%
%TO.N,GND*%
G36*
X157483131Y-73199023D02*
G01*
X157489456Y-73205362D01*
X157489718Y-73206061D01*
X157947392Y-74552166D01*
X157946811Y-74561102D01*
X157944469Y-74564323D01*
X157775782Y-74728246D01*
X157767460Y-74731554D01*
X157763555Y-74730823D01*
X156451823Y-74243726D01*
X156445260Y-74237634D01*
X156444928Y-74228685D01*
X156445068Y-74228324D01*
X156744048Y-73504176D01*
X156750373Y-73497838D01*
X156750374Y-73497837D01*
X157474176Y-73199012D01*
X157483131Y-73199023D01*
G37*
%TD.AperFunction*%
%TD*%
%TA.AperFunction,Conductor*%
%TO.N,GND*%
G36*
X174444935Y-58605519D02*
G01*
X174445169Y-58606046D01*
X174745734Y-59329309D01*
X174745745Y-59338264D01*
X174745734Y-59338289D01*
X174445169Y-60061553D01*
X174438830Y-60067878D01*
X174429875Y-60067867D01*
X174429348Y-60067633D01*
X173153283Y-59461971D01*
X173147279Y-59455328D01*
X173146600Y-59451401D01*
X173146600Y-59216198D01*
X173150027Y-59207925D01*
X173153283Y-59205628D01*
X174429349Y-58599965D01*
X174438292Y-58599515D01*
X174444935Y-58605519D01*
G37*
%TD.AperFunction*%
%TD*%
%TA.AperFunction,Conductor*%
%TO.N,GND*%
G36*
X102853076Y-104081632D02*
G01*
X103408484Y-104635828D01*
X103411920Y-104644097D01*
X103411920Y-104644124D01*
X103410981Y-105425799D01*
X103407544Y-105434068D01*
X103399267Y-105437485D01*
X103397405Y-105437334D01*
X101926903Y-105198413D01*
X101919286Y-105193703D01*
X101917532Y-105190089D01*
X101852699Y-104963988D01*
X101853713Y-104955093D01*
X101856175Y-104952019D01*
X102837044Y-104081164D01*
X102845506Y-104078235D01*
X102853076Y-104081632D01*
G37*
%TD.AperFunction*%
%TD*%
%TA.AperFunction,Conductor*%
%TO.N,GND*%
G36*
X195503682Y-121729153D02*
G01*
X195511951Y-121732590D01*
X195515368Y-121740867D01*
X195515195Y-121742856D01*
X195258659Y-123219038D01*
X195253866Y-123226602D01*
X195250224Y-123228319D01*
X195023382Y-123290470D01*
X195014497Y-123289351D01*
X195011448Y-123286848D01*
X194159014Y-122303078D01*
X194156186Y-122294581D01*
X194159572Y-122287154D01*
X194713877Y-121731645D01*
X194722142Y-121728211D01*
X195503682Y-121729153D01*
G37*
%TD.AperFunction*%
%TD*%
%TA.AperFunction,Conductor*%
%TO.N,GND*%
G36*
X120958403Y-93682720D02*
G01*
X120964252Y-93688047D01*
X121565024Y-94821900D01*
X121565870Y-94830815D01*
X121564086Y-94834344D01*
X121424058Y-95023295D01*
X121416379Y-95027902D01*
X121412332Y-95027796D01*
X119927925Y-94726724D01*
X119920498Y-94721721D01*
X119918784Y-94712931D01*
X119919434Y-94710798D01*
X120217513Y-93988698D01*
X120223836Y-93982360D01*
X120949450Y-93682711D01*
X120958403Y-93682720D01*
G37*
%TD.AperFunction*%
%TD*%
%TA.AperFunction,Conductor*%
%TO.N,GND*%
G36*
X154863324Y-112999732D02*
G01*
X154863840Y-112999961D01*
X156139917Y-113605628D01*
X156145921Y-113612271D01*
X156146600Y-113616198D01*
X156146600Y-113851401D01*
X156143173Y-113859674D01*
X156139917Y-113861971D01*
X154863851Y-114467633D01*
X154854907Y-114468084D01*
X154848264Y-114462080D01*
X154848030Y-114461553D01*
X154797204Y-114339248D01*
X154547464Y-113738287D01*
X154547454Y-113729338D01*
X154848030Y-113006045D01*
X154854369Y-112999721D01*
X154863324Y-112999732D01*
G37*
%TD.AperFunction*%
%TD*%
%TA.AperFunction,Conductor*%
%TO.N,GND*%
G36*
X131818644Y-52314548D02*
G01*
X131821194Y-52318364D01*
X132120000Y-53041853D01*
X132119991Y-53050808D01*
X132115316Y-53056284D01*
X131062957Y-53703668D01*
X131054115Y-53705084D01*
X131050435Y-53703503D01*
X130853440Y-53575016D01*
X130848383Y-53567626D01*
X130848238Y-53563653D01*
X131016287Y-52322078D01*
X131020792Y-52314340D01*
X131027868Y-52311948D01*
X131810368Y-52311130D01*
X131818644Y-52314548D01*
G37*
%TD.AperFunction*%
%TD*%
%TA.AperFunction,Conductor*%
%TO.N,GND*%
G36*
X171063324Y-75599732D02*
G01*
X171063840Y-75599961D01*
X172339917Y-76205628D01*
X172345921Y-76212271D01*
X172346600Y-76216198D01*
X172346600Y-76451401D01*
X172343173Y-76459674D01*
X172339917Y-76461971D01*
X171063851Y-77067633D01*
X171054907Y-77068084D01*
X171048264Y-77062080D01*
X171048030Y-77061553D01*
X171018498Y-76990490D01*
X170747464Y-76338287D01*
X170747454Y-76329338D01*
X171048030Y-75606045D01*
X171054369Y-75599721D01*
X171063324Y-75599732D01*
G37*
%TD.AperFunction*%
%TD*%
%TA.AperFunction,Conductor*%
%TO.N,GND*%
G36*
X190853697Y-83438217D02*
G01*
X191637784Y-84036646D01*
X191642282Y-84044390D01*
X191640354Y-84052536D01*
X190975083Y-85028689D01*
X190967592Y-85033596D01*
X190965415Y-85033800D01*
X190727785Y-85033800D01*
X190719512Y-85030373D01*
X190718117Y-85028689D01*
X190052844Y-84052536D01*
X190051016Y-84043770D01*
X190055412Y-84036647D01*
X190839503Y-83438216D01*
X190848156Y-83435922D01*
X190853697Y-83438217D01*
G37*
%TD.AperFunction*%
%TD*%
%TA.AperFunction,Conductor*%
%TO.N,GP4*%
G36*
X200079471Y-59474327D02*
G01*
X200079589Y-59474521D01*
X200524090Y-60227854D01*
X200525342Y-60236721D01*
X200524090Y-60239746D01*
X200079581Y-60993090D01*
X200072425Y-60998474D01*
X200063558Y-60997221D01*
X200063376Y-60997111D01*
X199032249Y-60363196D01*
X199026996Y-60355944D01*
X199026677Y-60353243D01*
X199026523Y-60116310D01*
X199029944Y-60108035D01*
X199032079Y-60106346D01*
X200063374Y-59470507D01*
X200072212Y-59469083D01*
X200079471Y-59474327D01*
G37*
%TD.AperFunction*%
%TD*%
%TA.AperFunction,Conductor*%
%TO.N,GP5*%
G36*
X200079496Y-62014254D02*
G01*
X200079840Y-62014802D01*
X200524091Y-62767818D01*
X200525343Y-62776685D01*
X200524091Y-62779708D01*
X200079389Y-63533560D01*
X200072234Y-63538944D01*
X200063560Y-63537803D01*
X199037471Y-62958463D01*
X199031951Y-62951412D01*
X199031531Y-62948721D01*
X199022605Y-62711967D01*
X199025718Y-62703572D01*
X199027801Y-62701797D01*
X200063271Y-62011013D01*
X200072054Y-62009273D01*
X200079496Y-62014254D01*
G37*
%TD.AperFunction*%
%TD*%
%TA.AperFunction,Conductor*%
%TO.N,GP6*%
G36*
X202359142Y-64706583D02*
G01*
X202362984Y-64709667D01*
X203046380Y-65550672D01*
X203048938Y-65559253D01*
X203044678Y-65567130D01*
X203037300Y-65569750D01*
X202811883Y-65569750D01*
X202185326Y-66078830D01*
X202176744Y-66081387D01*
X202173004Y-66080353D01*
X201072139Y-65567130D01*
X200553244Y-65325221D01*
X200547195Y-65318621D01*
X200547585Y-65309674D01*
X200554186Y-65303624D01*
X200554481Y-65303521D01*
X202350211Y-64705944D01*
X202359142Y-64706583D01*
G37*
%TD.AperFunction*%
%TD*%
%TA.AperFunction,Conductor*%
%TO.N,GND*%
G36*
X136544263Y-51731630D02*
G01*
X136550588Y-51737969D01*
X136550907Y-51738840D01*
X136990776Y-53101594D01*
X136990056Y-53110520D01*
X136987665Y-53113704D01*
X136816454Y-53274999D01*
X136808082Y-53278178D01*
X136804199Y-53277391D01*
X135512909Y-52776360D01*
X135506435Y-52770172D01*
X135506233Y-52761220D01*
X135506270Y-52761128D01*
X135805372Y-52036700D01*
X135811696Y-52030362D01*
X135811721Y-52030351D01*
X136535310Y-51731619D01*
X136544263Y-51731630D01*
G37*
%TD.AperFunction*%
%TD*%
%TA.AperFunction,Conductor*%
%TO.N,GND*%
G36*
X194713502Y-120932920D02*
G01*
X194717553Y-120940906D01*
X194717588Y-120941790D01*
X194718501Y-121724664D01*
X194715084Y-121732941D01*
X194715065Y-121732961D01*
X194160379Y-122286383D01*
X194152102Y-122289800D01*
X194143832Y-122286364D01*
X194143630Y-122286155D01*
X193615224Y-121729528D01*
X193187747Y-121279221D01*
X193184537Y-121270863D01*
X193185308Y-121266979D01*
X193269607Y-121047374D01*
X193275770Y-121040881D01*
X193279630Y-121039904D01*
X194704990Y-120930139D01*
X194713502Y-120932920D01*
G37*
%TD.AperFunction*%
%TD*%
%TA.AperFunction,Conductor*%
%TO.N,GND*%
G36*
X175484636Y-59031800D02*
G01*
X175490591Y-59037331D01*
X176076088Y-60196691D01*
X176076758Y-60205620D01*
X176074911Y-60209108D01*
X175931327Y-60395394D01*
X175923562Y-60399854D01*
X175919536Y-60399676D01*
X174454061Y-60075910D01*
X174446722Y-60070779D01*
X174445160Y-60061961D01*
X174445766Y-60060032D01*
X174743953Y-59337682D01*
X174750276Y-59331344D01*
X175475683Y-59031791D01*
X175484636Y-59031800D01*
G37*
%TD.AperFunction*%
%TD*%
%TA.AperFunction,Conductor*%
%TO.N,GND*%
G36*
X172625732Y-114588220D02*
G01*
X172626861Y-114589211D01*
X173180571Y-115141606D01*
X173184008Y-115149875D01*
X173184008Y-115149902D01*
X173183136Y-115934110D01*
X173179700Y-115942379D01*
X173171742Y-115945793D01*
X171832023Y-115980837D01*
X171823663Y-115977628D01*
X171821303Y-115974474D01*
X171714149Y-115765065D01*
X171713432Y-115756141D01*
X171715289Y-115752607D01*
X172609324Y-114590359D01*
X172617085Y-114585892D01*
X172625732Y-114588220D01*
G37*
%TD.AperFunction*%
%TD*%
%TA.AperFunction,Conductor*%
%TO.N,GND*%
G36*
X170017800Y-59031907D02*
G01*
X170742880Y-59331312D01*
X170749218Y-59337637D01*
X170749229Y-59337662D01*
X171047565Y-60060352D01*
X171047554Y-60069306D01*
X171041214Y-60075631D01*
X171039567Y-60076172D01*
X169602071Y-60432700D01*
X169593216Y-60431365D01*
X169590187Y-60428739D01*
X169441515Y-60246460D01*
X169438943Y-60237885D01*
X169439994Y-60234092D01*
X170002751Y-59037740D01*
X170009371Y-59031714D01*
X170017800Y-59031907D01*
G37*
%TD.AperFunction*%
%TD*%
%TA.AperFunction,Conductor*%
%TO.N,GND*%
G36*
X99570545Y-105742964D02*
G01*
X99812556Y-105843551D01*
X100292026Y-106042833D01*
X100298351Y-106049173D01*
X100298340Y-106058127D01*
X100297338Y-106060025D01*
X99473787Y-107323778D01*
X99466399Y-107328838D01*
X99462362Y-107328977D01*
X99229447Y-107296353D01*
X99221729Y-107291812D01*
X99219917Y-107288302D01*
X98830055Y-106058460D01*
X98830822Y-106049538D01*
X98836717Y-106044120D01*
X99561567Y-105742962D01*
X99570521Y-105742954D01*
X99570545Y-105742964D01*
G37*
%TD.AperFunction*%
%TD*%
%TA.AperFunction,Conductor*%
%TO.N,GND*%
G36*
X113073330Y-60525672D02*
G01*
X113080184Y-60531436D01*
X113081386Y-60535199D01*
X113114118Y-60768098D01*
X113111876Y-60776767D01*
X113108924Y-60779526D01*
X111845238Y-61603806D01*
X111836437Y-61605455D01*
X111829046Y-61600398D01*
X111828042Y-61598496D01*
X111528175Y-60877022D01*
X111528164Y-60868068D01*
X111528174Y-60868043D01*
X111569699Y-60768098D01*
X111829333Y-60143188D01*
X111835671Y-60136865D01*
X111843665Y-60136524D01*
X113073330Y-60525672D01*
G37*
%TD.AperFunction*%
%TD*%
%TA.AperFunction,Conductor*%
%TO.N,GND*%
G36*
X117805130Y-94194772D02*
G01*
X117811984Y-94200536D01*
X117813186Y-94204299D01*
X117845918Y-94437198D01*
X117843676Y-94445867D01*
X117840724Y-94448626D01*
X116577038Y-95272906D01*
X116568237Y-95274555D01*
X116560846Y-95269498D01*
X116559842Y-95267596D01*
X116259975Y-94546122D01*
X116259964Y-94537168D01*
X116259974Y-94537143D01*
X116301499Y-94437198D01*
X116561133Y-93812288D01*
X116567471Y-93805965D01*
X116575465Y-93805624D01*
X117805130Y-94194772D01*
G37*
%TD.AperFunction*%
%TD*%
%TA.AperFunction,Conductor*%
%TO.N,GP4*%
G36*
X123932933Y-92285763D02*
G01*
X123935872Y-92288544D01*
X124076149Y-92477312D01*
X124078333Y-92485997D01*
X124077104Y-92489755D01*
X123477386Y-93625387D01*
X123470492Y-93631102D01*
X123462574Y-93630737D01*
X122737002Y-93331105D01*
X122730664Y-93324781D01*
X122432569Y-92602643D01*
X122432580Y-92593691D01*
X122438920Y-92587366D01*
X122441042Y-92586717D01*
X123924144Y-92284059D01*
X123932933Y-92285763D01*
G37*
%TD.AperFunction*%
%TD*%
%TA.AperFunction,Conductor*%
%TO.N,GND*%
G36*
X157483077Y-56199045D02*
G01*
X157489402Y-56205384D01*
X157489682Y-56206135D01*
X157942024Y-57557249D01*
X157941401Y-57566182D01*
X157939044Y-57569392D01*
X157769597Y-57732531D01*
X157761260Y-57735800D01*
X157757361Y-57735052D01*
X156451755Y-57243757D01*
X156445219Y-57237636D01*
X156444926Y-57228686D01*
X156445061Y-57228342D01*
X156744051Y-56504173D01*
X156750376Y-56497835D01*
X156750377Y-56497834D01*
X157474123Y-56199034D01*
X157483077Y-56199045D01*
G37*
%TD.AperFunction*%
%TD*%
%TA.AperFunction,Conductor*%
%TO.N,GND*%
G36*
X183509463Y-51933050D02*
G01*
X185261795Y-52603898D01*
X185268296Y-52610057D01*
X185268539Y-52619008D01*
X185262548Y-52625433D01*
X183638962Y-53380932D01*
X183630016Y-53381315D01*
X183628343Y-53380551D01*
X182595578Y-52806726D01*
X182590011Y-52799713D01*
X182589564Y-52796783D01*
X182583888Y-52559933D01*
X182587116Y-52551581D01*
X182589024Y-52549967D01*
X183498723Y-51934288D01*
X183507495Y-51932489D01*
X183509463Y-51933050D01*
G37*
%TD.AperFunction*%
%TD*%
%TA.AperFunction,Conductor*%
%TO.N,GP2*%
G36*
X187555631Y-117971631D02*
G01*
X188963115Y-118345253D01*
X188975362Y-118348504D01*
X188982479Y-118353938D01*
X188983668Y-118362814D01*
X188983175Y-118364277D01*
X188684742Y-119087187D01*
X188678417Y-119093526D01*
X188678392Y-119093536D01*
X187953505Y-119392852D01*
X187944551Y-119392842D01*
X187938369Y-119386835D01*
X187390162Y-118167426D01*
X187389896Y-118158478D01*
X187391892Y-118155086D01*
X187543696Y-117975388D01*
X187551651Y-117971281D01*
X187555631Y-117971631D01*
G37*
%TD.AperFunction*%
%TD*%
%TA.AperFunction,Conductor*%
%TO.N,GND*%
G36*
X153063324Y-55766332D02*
G01*
X153063840Y-55766561D01*
X154339917Y-56372228D01*
X154345921Y-56378871D01*
X154346600Y-56382798D01*
X154346600Y-56618001D01*
X154343173Y-56626274D01*
X154339917Y-56628571D01*
X153063851Y-57234233D01*
X153054907Y-57234684D01*
X153048264Y-57228680D01*
X153048030Y-57228153D01*
X153018498Y-57157090D01*
X152747464Y-56504887D01*
X152747454Y-56495938D01*
X153048030Y-55772645D01*
X153054369Y-55766321D01*
X153063324Y-55766332D01*
G37*
%TD.AperFunction*%
%TD*%
%TA.AperFunction,Conductor*%
%TO.N,GND*%
G36*
X99579476Y-104944290D02*
G01*
X101049980Y-105183212D01*
X101057596Y-105187922D01*
X101059350Y-105191536D01*
X101124183Y-105417635D01*
X101123169Y-105426532D01*
X101120704Y-105429609D01*
X100139838Y-106300460D01*
X100131376Y-106303390D01*
X100123806Y-106299993D01*
X100115952Y-106292156D01*
X99568397Y-105745796D01*
X99564962Y-105737529D01*
X99565901Y-104955824D01*
X99569338Y-104947557D01*
X99577615Y-104944140D01*
X99579476Y-104944290D01*
G37*
%TD.AperFunction*%
%TD*%
%TA.AperFunction,Conductor*%
%TO.N,GP5*%
G36*
X131982382Y-86137645D02*
G01*
X131990651Y-86141082D01*
X131994068Y-86149359D01*
X131993967Y-86150879D01*
X131801605Y-87605815D01*
X131797123Y-87613567D01*
X131793582Y-87615421D01*
X131569613Y-87687316D01*
X131560688Y-87686582D01*
X131557536Y-87684215D01*
X130637838Y-86711603D01*
X130634644Y-86703237D01*
X130638056Y-86695302D01*
X131191977Y-86140148D01*
X131200242Y-86136714D01*
X131982382Y-86137645D01*
G37*
%TD.AperFunction*%
%TD*%
%TA.AperFunction,Conductor*%
%TO.N,GND*%
G36*
X94893676Y-88602890D02*
G01*
X96364180Y-88841812D01*
X96371796Y-88846522D01*
X96373550Y-88850136D01*
X96438383Y-89076235D01*
X96437369Y-89085132D01*
X96434904Y-89088209D01*
X95454038Y-89959060D01*
X95445576Y-89961990D01*
X95438006Y-89958593D01*
X95430152Y-89950756D01*
X94882597Y-89404396D01*
X94879162Y-89396129D01*
X94880101Y-88614424D01*
X94883538Y-88606157D01*
X94891815Y-88602740D01*
X94893676Y-88602890D01*
G37*
%TD.AperFunction*%
%TD*%
%TA.AperFunction,Conductor*%
%TO.N,GND*%
G36*
X135361861Y-86018573D02*
G01*
X135368293Y-86024803D01*
X135369226Y-86028630D01*
X135385198Y-86257028D01*
X135385636Y-86263289D01*
X135382794Y-86271781D01*
X135379700Y-86274303D01*
X134107987Y-86989603D01*
X134099096Y-86990672D01*
X134092053Y-86985141D01*
X134091447Y-86983895D01*
X134074425Y-86942939D01*
X133791224Y-86261515D01*
X133791214Y-86252566D01*
X134092090Y-85528476D01*
X134098429Y-85522152D01*
X134107199Y-85522087D01*
X135361861Y-86018573D01*
G37*
%TD.AperFunction*%
%TD*%
%TA.AperFunction,Conductor*%
%TO.N,GP3*%
G36*
X200079471Y-56934328D02*
G01*
X200079610Y-56934557D01*
X200524090Y-57687850D01*
X200525343Y-57696717D01*
X200524090Y-57699742D01*
X200079560Y-58453126D01*
X200072404Y-58458509D01*
X200063537Y-58457257D01*
X200063390Y-58457168D01*
X199032705Y-57828425D01*
X199027427Y-57821191D01*
X199027098Y-57818492D01*
X199026116Y-57581560D01*
X199029509Y-57573274D01*
X199031638Y-57571577D01*
X200063360Y-56930564D01*
X200072194Y-56929110D01*
X200079471Y-56934328D01*
G37*
%TD.AperFunction*%
%TD*%
%TA.AperFunction,Conductor*%
%TO.N,GND*%
G36*
X116264823Y-94546059D02*
G01*
X116817697Y-95100077D01*
X116821115Y-95108354D01*
X116818846Y-95115266D01*
X116084881Y-96115017D01*
X116077223Y-96119658D01*
X116073225Y-96119580D01*
X115842324Y-96074859D01*
X115834854Y-96069921D01*
X115833219Y-96066289D01*
X115522520Y-94857465D01*
X115523780Y-94848600D01*
X115529360Y-94843750D01*
X116252053Y-94543518D01*
X116261007Y-94543510D01*
X116264823Y-94546059D01*
G37*
%TD.AperFunction*%
%TD*%
%TA.AperFunction,Conductor*%
%TO.N,GND*%
G36*
X94883906Y-89403183D02*
G01*
X94883925Y-89403202D01*
X95437195Y-89957746D01*
X95440612Y-89966023D01*
X95437176Y-89974293D01*
X95436831Y-89974622D01*
X94403358Y-90924912D01*
X94394949Y-90927990D01*
X94391061Y-90927150D01*
X94172934Y-90839143D01*
X94166544Y-90832870D01*
X94165634Y-90828997D01*
X94080859Y-89413070D01*
X94083785Y-89404609D01*
X94091839Y-89400694D01*
X94092502Y-89400673D01*
X94875629Y-89399766D01*
X94883906Y-89403183D01*
G37*
%TD.AperFunction*%
%TD*%
%TA.AperFunction,Conductor*%
%TO.N,GND*%
G36*
X190425097Y-119737527D02*
G01*
X190980779Y-120292020D01*
X190984215Y-120300289D01*
X190984215Y-120300316D01*
X190983269Y-121081521D01*
X190979832Y-121089790D01*
X190971555Y-121093207D01*
X190969336Y-121092992D01*
X189482975Y-120803965D01*
X189475508Y-120799022D01*
X189473860Y-120795329D01*
X189416665Y-120567203D01*
X189417977Y-120558347D01*
X189420549Y-120555351D01*
X190409373Y-119736795D01*
X190417930Y-119734161D01*
X190425097Y-119737527D01*
G37*
%TD.AperFunction*%
%TD*%
%TA.AperFunction,Conductor*%
%TO.N,GND*%
G36*
X94611697Y-71400747D02*
G01*
X94612957Y-71402241D01*
X95478203Y-72621968D01*
X95480194Y-72630698D01*
X95478848Y-72634490D01*
X95363200Y-72839300D01*
X95356148Y-72844819D01*
X95352224Y-72845220D01*
X94050165Y-72757373D01*
X94042142Y-72753397D01*
X94039253Y-72745713D01*
X94039125Y-72628025D01*
X94038400Y-71961007D01*
X94041817Y-71952733D01*
X94595153Y-71400725D01*
X94603428Y-71397310D01*
X94611697Y-71400747D01*
G37*
%TD.AperFunction*%
%TD*%
%TA.AperFunction,Conductor*%
%TO.N,GND*%
G36*
X157482578Y-90199251D02*
G01*
X157488903Y-90205590D01*
X157489329Y-90206810D01*
X157892461Y-91603151D01*
X157891463Y-91612050D01*
X157888969Y-91615162D01*
X157712726Y-91770953D01*
X157704258Y-91773865D01*
X157700415Y-91772961D01*
X156451130Y-91244024D01*
X156444848Y-91237643D01*
X156444877Y-91228787D01*
X156744082Y-90504144D01*
X156750405Y-90497807D01*
X156750409Y-90497805D01*
X157473623Y-90199240D01*
X157482578Y-90199251D01*
G37*
%TD.AperFunction*%
%TD*%
%TA.AperFunction,Conductor*%
%TO.N,GND*%
G36*
X118593343Y-76847774D02*
G01*
X118598668Y-76852208D01*
X119262405Y-77874555D01*
X119264036Y-77883360D01*
X119262529Y-77887103D01*
X119138374Y-78086845D01*
X119131096Y-78092062D01*
X119127139Y-78092296D01*
X117864661Y-77951360D01*
X117856819Y-77947036D01*
X117854259Y-77939746D01*
X117853430Y-77157507D01*
X117856848Y-77149232D01*
X117860660Y-77146684D01*
X118584390Y-76847765D01*
X118593343Y-76847774D01*
G37*
%TD.AperFunction*%
%TD*%
%TA.AperFunction,Conductor*%
%TO.N,GND*%
G36*
X159284198Y-113431982D02*
G01*
X159290369Y-113437963D01*
X159840652Y-114654104D01*
X159840940Y-114663054D01*
X159838948Y-114666455D01*
X159687591Y-114846517D01*
X159679645Y-114850645D01*
X159675660Y-114850304D01*
X158253401Y-114476308D01*
X158246271Y-114470890D01*
X158245061Y-114462018D01*
X158245556Y-114460541D01*
X158543981Y-113737647D01*
X158550302Y-113731312D01*
X159275244Y-113431972D01*
X159284198Y-113431982D01*
G37*
%TD.AperFunction*%
%TD*%
%TA.AperFunction,Conductor*%
%TO.N,GND*%
G36*
X119918423Y-93256796D02*
G01*
X119919427Y-93258698D01*
X120219294Y-93980172D01*
X120219305Y-93989126D01*
X120219295Y-93989151D01*
X119918137Y-94714004D01*
X119911798Y-94720329D01*
X119903802Y-94720670D01*
X118674139Y-94331522D01*
X118667285Y-94325758D01*
X118666084Y-94321998D01*
X118633350Y-94089096D01*
X118635593Y-94080427D01*
X118638541Y-94077671D01*
X119902233Y-93253387D01*
X119911032Y-93251739D01*
X119918423Y-93256796D01*
G37*
%TD.AperFunction*%
%TD*%
%TA.AperFunction,Conductor*%
%TO.N,GP3*%
G36*
X200079471Y-56934328D02*
G01*
X200079610Y-56934557D01*
X200524090Y-57687850D01*
X200525343Y-57696717D01*
X200524090Y-57699742D01*
X200079560Y-58453126D01*
X200072404Y-58458509D01*
X200063537Y-58457257D01*
X200063390Y-58457168D01*
X199032705Y-57828425D01*
X199027427Y-57821191D01*
X199027098Y-57818492D01*
X199026116Y-57581560D01*
X199029509Y-57573274D01*
X199031638Y-57571577D01*
X200063360Y-56930564D01*
X200072194Y-56929110D01*
X200079471Y-56934328D01*
G37*
%TD.AperFunction*%
%TD*%
%TA.AperFunction,Conductor*%
%TO.N,GND*%
G36*
X191946355Y-83436226D02*
G01*
X191949221Y-83440907D01*
X192200688Y-84218500D01*
X192199973Y-84227426D01*
X192193156Y-84233232D01*
X192189556Y-84233800D01*
X190971600Y-84233800D01*
X190735270Y-84233800D01*
X190726997Y-84230373D01*
X190723570Y-84222100D01*
X190723710Y-84220294D01*
X190845055Y-83443682D01*
X190849718Y-83436039D01*
X190856601Y-83433790D01*
X191938079Y-83432807D01*
X191946355Y-83436226D01*
G37*
%TD.AperFunction*%
%TD*%
%TA.AperFunction,Conductor*%
%TO.N,GND*%
G36*
X132804946Y-69287049D02*
G01*
X132807495Y-69290865D01*
X133106293Y-70014336D01*
X133106284Y-70023291D01*
X133101592Y-70028778D01*
X132047068Y-70674966D01*
X132038223Y-70676367D01*
X132034548Y-70674780D01*
X131920529Y-70600156D01*
X131837756Y-70545983D01*
X131832711Y-70538586D01*
X131832572Y-70534608D01*
X132002572Y-69294558D01*
X132007091Y-69286828D01*
X132014150Y-69284448D01*
X132796669Y-69283631D01*
X132804946Y-69287049D01*
G37*
%TD.AperFunction*%
%TD*%
%TA.AperFunction,Conductor*%
%TO.N,GND*%
G36*
X136492516Y-68277250D02*
G01*
X136493122Y-68278496D01*
X136793344Y-69000874D01*
X136793355Y-69009829D01*
X136793344Y-69009853D01*
X136492479Y-69733914D01*
X136486140Y-69740239D01*
X136477370Y-69740304D01*
X135222708Y-69243818D01*
X135216276Y-69237588D01*
X135215343Y-69233765D01*
X135198934Y-68999098D01*
X135201775Y-68990610D01*
X135204866Y-68988089D01*
X136476582Y-68272787D01*
X136485473Y-68271719D01*
X136492516Y-68277250D01*
G37*
%TD.AperFunction*%
%TD*%
%TA.AperFunction,Conductor*%
%TO.N,GP7*%
G36*
X162505322Y-112629751D02*
G01*
X162507620Y-112632961D01*
X162610308Y-112844592D01*
X162610837Y-112853532D01*
X162608908Y-112857022D01*
X161700444Y-113989315D01*
X161692594Y-113993623D01*
X161683996Y-113991119D01*
X161683055Y-113990276D01*
X161129143Y-113437670D01*
X161125706Y-113429401D01*
X161125706Y-113429374D01*
X161126586Y-112645420D01*
X161130022Y-112637154D01*
X161138220Y-112633736D01*
X162497033Y-112626369D01*
X162505322Y-112629751D01*
G37*
%TD.AperFunction*%
%TD*%
%TA.AperFunction,Conductor*%
%TO.N,GP7*%
G36*
X199946796Y-67187050D02*
G01*
X199948501Y-67188652D01*
X200521071Y-67846449D01*
X200523918Y-67854940D01*
X200522332Y-67860060D01*
X200080016Y-68612460D01*
X200072869Y-68617856D01*
X200064001Y-68616617D01*
X200063161Y-68616074D01*
X199875179Y-68482742D01*
X199430407Y-68167273D01*
X199430405Y-68167272D01*
X199204104Y-68167109D01*
X199195833Y-68163676D01*
X199192412Y-68155401D01*
X199194827Y-68148291D01*
X199930393Y-67189212D01*
X199938146Y-67184734D01*
X199946796Y-67187050D01*
G37*
%TD.AperFunction*%
%TD*%
%TA.AperFunction,Conductor*%
%TO.N,GP7*%
G36*
X199946796Y-67187050D02*
G01*
X199948501Y-67188652D01*
X200521071Y-67846449D01*
X200523918Y-67854940D01*
X200522332Y-67860060D01*
X200080016Y-68612460D01*
X200072869Y-68617856D01*
X200064001Y-68616617D01*
X200063161Y-68616074D01*
X199875179Y-68482742D01*
X199430407Y-68167273D01*
X199430405Y-68167272D01*
X199204104Y-68167109D01*
X199195833Y-68163676D01*
X199192412Y-68155401D01*
X199194827Y-68148291D01*
X199930393Y-67189212D01*
X199938146Y-67184734D01*
X199946796Y-67187050D01*
G37*
%TD.AperFunction*%
%TD*%
%TA.AperFunction,Conductor*%
%TO.N,GND*%
G36*
X93481376Y-71398732D02*
G01*
X94036784Y-71952928D01*
X94040220Y-71961197D01*
X94040220Y-71961224D01*
X94039281Y-72742899D01*
X94035844Y-72751168D01*
X94027567Y-72754585D01*
X94025705Y-72754434D01*
X92555203Y-72515513D01*
X92547586Y-72510803D01*
X92545832Y-72507189D01*
X92480999Y-72281088D01*
X92482013Y-72272193D01*
X92484475Y-72269119D01*
X93465344Y-71398264D01*
X93473806Y-71395335D01*
X93481376Y-71398732D01*
G37*
%TD.AperFunction*%
%TD*%
%TA.AperFunction,Conductor*%
%TO.N,GP3*%
G36*
X106757771Y-102358523D02*
G01*
X106935934Y-102512114D01*
X106939963Y-102520112D01*
X106939574Y-102524086D01*
X106550949Y-103933410D01*
X106545446Y-103940475D01*
X106536560Y-103941579D01*
X106535205Y-103941115D01*
X105812169Y-103642627D01*
X105805831Y-103636303D01*
X105506554Y-102911500D01*
X105506564Y-102902547D01*
X105512676Y-102896318D01*
X106372071Y-102520112D01*
X106745440Y-102356666D01*
X106754393Y-102356489D01*
X106757771Y-102358523D01*
G37*
%TD.AperFunction*%
%TD*%
%TA.AperFunction,Conductor*%
%TO.N,GND*%
G36*
X90197988Y-73061677D02*
G01*
X90198008Y-73061696D01*
X90751436Y-73616387D01*
X90754853Y-73624664D01*
X90751417Y-73632934D01*
X90751214Y-73633131D01*
X89745355Y-74589235D01*
X89736997Y-74592451D01*
X89733109Y-74591681D01*
X89513455Y-74507536D01*
X89506955Y-74501376D01*
X89505975Y-74497516D01*
X89438813Y-73633131D01*
X89395196Y-73071778D01*
X89397972Y-73063266D01*
X89405955Y-73059208D01*
X89406839Y-73059173D01*
X90189712Y-73058260D01*
X90197988Y-73061677D01*
G37*
%TD.AperFunction*%
%TD*%
%TA.AperFunction,Conductor*%
%TO.N,GND*%
G36*
X116060965Y-59759649D02*
G01*
X116062112Y-59760986D01*
X116466650Y-60311790D01*
X116939863Y-60956101D01*
X116941998Y-60964797D01*
X116940721Y-60968598D01*
X116828698Y-61175426D01*
X116821745Y-61181069D01*
X116817831Y-61181540D01*
X115499479Y-61116251D01*
X115491386Y-61112419D01*
X115488358Y-61104580D01*
X115487497Y-60320085D01*
X115490914Y-60311811D01*
X116044420Y-59759628D01*
X116052696Y-59756212D01*
X116060965Y-59759649D01*
G37*
%TD.AperFunction*%
%TD*%
%TA.AperFunction,Conductor*%
%TO.N,GND*%
G36*
X98167276Y-87740232D02*
G01*
X98722684Y-88294428D01*
X98726120Y-88302697D01*
X98726120Y-88302724D01*
X98725181Y-89084399D01*
X98721744Y-89092668D01*
X98713467Y-89096085D01*
X98711605Y-89095934D01*
X97241103Y-88857013D01*
X97233486Y-88852303D01*
X97231732Y-88848689D01*
X97166899Y-88622588D01*
X97167913Y-88613693D01*
X97170375Y-88610619D01*
X98151244Y-87739764D01*
X98159706Y-87736835D01*
X98167276Y-87740232D01*
G37*
%TD.AperFunction*%
%TD*%
M02*
