M48
; DRILL file {KiCad 7.0.2-0} date 2023 May 15, Monday 17:52:45
; FORMAT={-:-/ absolute / inch / decimal}
; #@! TF.CreationDate,2023-05-15T17:52:45-04:00
; #@! TF.GenerationSoftware,Kicad,Pcbnew,7.0.2-0
; #@! TF.FileFunction,Plated,1,2,PTH
FMAT,2
INCH
; #@! TA.AperFunction,Plated,PTH,ComponentDrill
T1C0.0354
; #@! TA.AperFunction,Plated,PTH,ComponentDrill
T2C0.0430
; #@! TA.AperFunction,Plated,PTH,ComponentDrill
T3C0.0433
%
G90
G05
T2
X7.2947Y-1.9714
X7.2947Y-1.9714
X7.2947Y-2.0714
X7.2947Y-2.0714
X7.2947Y-2.1714
X7.2947Y-2.1714
X7.2947Y-2.2714
X7.2947Y-2.2714
X7.2947Y-2.3714
X7.2947Y-2.3714
X7.2947Y-2.4714
X7.2947Y-2.4714
X7.2947Y-2.5714
X7.2947Y-2.5714
X7.2947Y-2.6714
X7.2947Y-2.6714
X7.2947Y-2.7714
X7.2947Y-2.7714
X7.3947Y-2.7797
X7.3947Y-2.7797
X7.4947Y-2.7797
X7.4947Y-2.7797
X7.5947Y-2.7797
X7.5947Y-2.7797
X7.6947Y-2.7797
X7.6947Y-2.7797
X7.7947Y-2.7797
X7.7947Y-2.7797
X7.8947Y-1.9714
X7.8947Y-1.9714
X7.8947Y-2.0714
X7.8947Y-2.0714
X7.8947Y-2.1714
X7.8947Y-2.1714
X7.8947Y-2.2714
X7.8947Y-2.2714
X7.8947Y-2.3714
X7.8947Y-2.3714
X7.8947Y-2.4714
X7.8947Y-2.4714
X7.8947Y-2.5714
X7.8947Y-2.5714
X7.8947Y-2.6714
X7.8947Y-2.6714
X7.8947Y-2.7714
X7.8947Y-2.7714
T3
X3.3159Y-2.528
X3.4501Y-2.893
X3.5004Y-3.1714
X3.551Y-2.8763
X3.6345Y-3.5364
X3.6849Y-3.8148
X3.7023Y-2.8329
X3.7171Y-2.413
X3.7354Y-3.5197
X3.7967Y-2.7936
X3.819Y-4.1797
X3.8868Y-3.4763
X3.9016Y-3.0564
X3.9199Y-4.1631
X3.9812Y-3.437
X4.0713Y-4.1197
X4.086Y-3.6997
X4.1657Y-4.0803
X4.2066Y-2.0189
X4.2886Y-2.399
X4.2997Y-2.6817
X4.3818Y-3.0618
X4.3908Y-2.3966
X4.3929Y-3.3445
X4.4749Y-3.7245
X4.484Y-3.0593
X4.5468Y-2.3746
X4.5771Y-3.7221
X4.6198Y-1.9608
X4.6399Y-3.0374
X4.6457Y-2.3488
X4.713Y-2.6236
X4.7331Y-3.7002
X4.7389Y-3.0116
X4.8061Y-3.2864
X4.832Y-3.6744
X5.0322Y-1.67
X5.071Y-2.3382
X5.0875Y-2.0548
X5.1099Y-3.0064
X5.1264Y-2.723
X5.1652Y-3.3912
X5.1897Y-2.0595
X5.2285Y-2.7277
X5.2673Y-3.3959
X5.3468Y-2.0485
X5.3856Y-2.7167
X5.4244Y-3.385
X5.4473Y-2.0297
X5.4485Y-1.6408
X5.4861Y-2.6979
X5.4873Y-2.3091
X5.5249Y-3.3661
X5.5262Y-2.9773
X5.8837Y-1.8248
X5.8837Y-2.4941
X5.8837Y-3.1634
X5.9121Y-2.2126
X5.9121Y-2.8819
X5.9121Y-3.5512
X5.9546Y-4.0781
X5.9829Y-4.4659
X6.0136Y-2.2244
X6.0136Y-2.8937
X6.0136Y-3.563
X6.0845Y-4.4777
X6.1711Y-2.2244
X6.1711Y-2.8937
X6.1711Y-3.563
X6.242Y-4.4777
X6.2727Y-2.2126
X6.2727Y-2.8819
X6.2727Y-3.5512
X6.301Y-1.8248
X6.301Y-2.4941
X6.301Y-3.1634
X6.3436Y-4.4659
X6.3719Y-4.0781
X6.5924Y-1.9364
X6.5924Y-2.6057
X6.5924Y-3.275
X6.6207Y-2.3242
X6.6207Y-2.9935
X6.6207Y-3.6627
X6.7219Y-4.4989
X6.7223Y-2.336
X6.7223Y-3.0053
X6.7223Y-3.6746
X6.7815Y-4.1147
X6.8182Y-4.5333
X6.8798Y-2.336
X6.8798Y-3.0053
X6.8798Y-3.6746
X6.9717Y-4.5687
X6.9814Y-2.3242
X6.9814Y-2.9935
X6.9814Y-3.6627
X7.0097Y-1.9364
X7.0097Y-2.6057
X7.0097Y-3.275
X7.0733Y-4.5801
X7.1882Y-4.2086
X7.4284Y-4.6886
X7.519Y-4.7361
X7.5409Y-4.3164
X7.666Y-4.7925
X7.7651Y-4.8179
X7.9305Y-4.466
T1
G00X7.5255Y-3.2848
M15
G01X7.5018Y-3.2848
M16
G05
G00X7.5255Y-3.4659
M15
G01X7.5018Y-3.4659
M16
G05
G00X7.5688Y-3.2848
M15
G01X7.5451Y-3.2848
M16
G05
G00X7.5688Y-3.4659
M15
G01X7.5451Y-3.4659
M16
G05
G00X7.7262Y-3.2848
M15
G01X7.7026Y-3.2848
M16
G05
G00X7.7262Y-3.4659
M15
G01X7.7026Y-3.4659
M16
G05
G00X7.8444Y-3.2848
M15
G01X7.8207Y-3.2848
M16
G05
G00X7.8444Y-3.4659
M15
G01X7.8207Y-3.4659
M16
G05
T0
M30
