%TF.GenerationSoftware,KiCad,Pcbnew,7.0.2-0*%
%TF.CreationDate,2023-05-11T15:54:29-04:00*%
%TF.ProjectId,mini,6d696e69-2e6b-4696-9361-645f70636258,v1.0.0*%
%TF.SameCoordinates,Original*%
%TF.FileFunction,Profile,NP*%
%FSLAX46Y46*%
G04 Gerber Fmt 4.6, Leading zero omitted, Abs format (unit mm)*
G04 Created by KiCad (PCBNEW 7.0.2-0) date 2023-05-11 15:54:29*
%MOMM*%
%LPD*%
G01*
G04 APERTURE LIST*
%TA.AperFunction,Profile*%
%ADD10C,0.150000*%
%TD*%
%TA.AperFunction,Profile*%
%ADD11C,0.120000*%
%TD*%
G04 APERTURE END LIST*
D10*
X189849113Y-103939111D02*
X204855185Y-110301539D01*
X205941686Y-112859623D02*
G75*
G03*
X204855185Y-110301540I-1867186J716723D01*
G01*
X147508772Y-116980215D02*
X97437120Y-118912941D01*
X95437456Y-117465704D02*
G75*
G03*
X97437120Y-118912941I1922544J551304D01*
G01*
X202146574Y-89933774D02*
G75*
G03*
X204146574Y-87933756I26J1999974D01*
G01*
X124398034Y-38846696D02*
G75*
G03*
X123750610Y-39003133I139466J-1995104D01*
G01*
X141867707Y-37688572D02*
X202509594Y-48881609D01*
X95437455Y-117465704D02*
X79855985Y-63126659D01*
X165576679Y-117007773D02*
G75*
G03*
X165166047Y-116965489I-409079J-1957627D01*
G01*
X202146574Y-89933756D02*
X190727454Y-89933756D01*
X198417505Y-126796308D02*
G75*
G03*
X201029244Y-125656831I744595J1856208D01*
G01*
X188727547Y-91914545D02*
X188629912Y-102078570D01*
X124398033Y-38846681D02*
X141365174Y-37660222D01*
X204146574Y-50848387D02*
X204146574Y-87933756D01*
X80767806Y-60849557D02*
X102545579Y-48095767D01*
X147584407Y-116978729D02*
G75*
G03*
X147508772Y-116980217I1593J-2003571D01*
G01*
X183355842Y-120754669D02*
G75*
G03*
X183020380Y-120653195I-744542J-1856131D01*
G01*
X102769344Y-47982917D02*
G75*
G03*
X102545579Y-48095767I786956J-1838683D01*
G01*
X188629917Y-102078570D02*
G75*
G03*
X189849114Y-103939112I1999883J-19230D01*
G01*
X80767817Y-60849575D02*
G75*
G03*
X79855985Y-63126659I1010683J-1725825D01*
G01*
X198417498Y-126796325D02*
X183355841Y-120754671D01*
X141867707Y-37688570D02*
G75*
G03*
X141365174Y-37660223I-363007J-1966730D01*
G01*
X190727454Y-89933754D02*
G75*
G03*
X188727547Y-91914545I46J-2000046D01*
G01*
X165166047Y-116965487D02*
X147584407Y-116978728D01*
X102769345Y-47982918D02*
X123750609Y-39003132D01*
X205941639Y-112859605D02*
X201029245Y-125656831D01*
X204146607Y-50848387D02*
G75*
G03*
X202509594Y-48881610I-2000007J-13D01*
G01*
X183020380Y-120653194D02*
X165576678Y-117007780D01*
D11*
%TO.C,S18*%
X190428019Y-111138504D02*
X201257552Y-115295572D01*
X188439077Y-116319875D02*
X190428019Y-111138504D01*
X191753287Y-117592081D02*
X188439077Y-116319875D01*
X191753287Y-117592081D02*
X191394919Y-118525662D01*
X191394919Y-118525662D02*
X195596031Y-120138317D01*
X195954399Y-119204737D02*
X199268610Y-120476943D01*
X195596031Y-120138317D02*
X195954399Y-119204737D01*
X201257552Y-115295572D02*
X199268610Y-120476943D01*
%TO.C,S7*%
X129417147Y-78192374D02*
X140988890Y-77383199D01*
X129804295Y-83728854D02*
X129417147Y-78192374D01*
X133345648Y-83481219D02*
X129804295Y-83728854D01*
X133345648Y-83481219D02*
X133415404Y-84478783D01*
X133415404Y-84478783D02*
X137904442Y-84164879D01*
X137834686Y-83167314D02*
X141376038Y-82919679D01*
X137904442Y-84164879D02*
X137834686Y-83167314D01*
X140988890Y-77383199D02*
X141376038Y-82919679D01*
%TO.C,S11*%
X148946600Y-65150400D02*
X160546600Y-65150400D01*
X148946600Y-70700400D02*
X148946600Y-65150400D01*
X152496600Y-70700400D02*
X148946600Y-70700400D01*
X152496600Y-70700400D02*
X152496600Y-71700400D01*
X152496600Y-71700400D02*
X156996600Y-71700400D01*
X156996600Y-70700400D02*
X160546600Y-70700400D01*
X156996600Y-71700400D02*
X156996600Y-70700400D01*
X160546600Y-65150400D02*
X160546600Y-70700400D01*
%TO.C,S16*%
X150746600Y-105383800D02*
X162346600Y-105383800D01*
X150746600Y-110933800D02*
X150746600Y-105383800D01*
X154296600Y-110933800D02*
X150746600Y-110933800D01*
X154296600Y-110933800D02*
X154296600Y-111933800D01*
X154296600Y-111933800D02*
X158796600Y-111933800D01*
X158796600Y-110933800D02*
X162346600Y-110933800D01*
X158796600Y-111933800D02*
X158796600Y-110933800D01*
X162346600Y-105383800D02*
X162346600Y-110933800D01*
%TO.C,S4*%
X111333985Y-86801613D02*
X122821094Y-85187205D01*
X112106395Y-92297601D02*
X111333985Y-86801613D01*
X115621847Y-91803536D02*
X112106395Y-92297601D01*
X115621847Y-91803536D02*
X115761020Y-92793805D01*
X115761020Y-92793805D02*
X120217226Y-92167526D01*
X120078053Y-91177258D02*
X123593505Y-90683193D01*
X120217226Y-92167526D02*
X120078053Y-91177258D01*
X122821094Y-85187205D02*
X123593505Y-90683193D01*
%TO.C,S5*%
X108968085Y-69967013D02*
X120455194Y-68352605D01*
X109740495Y-75463001D02*
X108968085Y-69967013D01*
X113255947Y-74968936D02*
X109740495Y-75463001D01*
X113255947Y-74968936D02*
X113395120Y-75959205D01*
X113395120Y-75959205D02*
X117851326Y-75332926D01*
X117712153Y-74342658D02*
X121227605Y-73848593D01*
X117851326Y-75332926D02*
X117712153Y-74342658D01*
X120455194Y-68352605D02*
X121227605Y-73848593D01*
%TO.C,S10*%
X148946600Y-82150400D02*
X160546600Y-82150400D01*
X148946600Y-87700400D02*
X148946600Y-82150400D01*
X152496600Y-87700400D02*
X148946600Y-87700400D01*
X152496600Y-87700400D02*
X152496600Y-88700400D01*
X152496600Y-88700400D02*
X156996600Y-88700400D01*
X156996600Y-87700400D02*
X160546600Y-87700400D01*
X156996600Y-88700400D02*
X156996600Y-87700400D01*
X160546600Y-82150400D02*
X160546600Y-87700400D01*
%TO.C,S6*%
X106602185Y-53132513D02*
X118089294Y-51518105D01*
X107374595Y-58628501D02*
X106602185Y-53132513D01*
X110890047Y-58134436D02*
X107374595Y-58628501D01*
X110890047Y-58134436D02*
X111029220Y-59124705D01*
X111029220Y-59124705D02*
X115485426Y-58498426D01*
X115346253Y-57508158D02*
X118861705Y-57014093D01*
X115485426Y-58498426D02*
X115346253Y-57508158D01*
X118089294Y-51518105D02*
X118861705Y-57014093D01*
%TO.C,S13*%
X166946600Y-84983800D02*
X178546600Y-84983800D01*
X166946600Y-90533800D02*
X166946600Y-84983800D01*
X170496600Y-90533800D02*
X166946600Y-90533800D01*
X170496600Y-90533800D02*
X170496600Y-91533800D01*
X170496600Y-91533800D02*
X174996600Y-91533800D01*
X174996600Y-90533800D02*
X178546600Y-90533800D01*
X174996600Y-91533800D02*
X174996600Y-90533800D01*
X178546600Y-84983800D02*
X178546600Y-90533800D01*
%TO.C,S3*%
X84239852Y-66080075D02*
X95390488Y-62882681D01*
X85769639Y-71415077D02*
X84239852Y-66080075D01*
X89182118Y-70436564D02*
X85769639Y-71415077D01*
X89182118Y-70436564D02*
X89457756Y-71397826D01*
X89457756Y-71397826D02*
X93783433Y-70157458D01*
X93507796Y-69196196D02*
X96920275Y-68217684D01*
X93783433Y-70157458D02*
X93507796Y-69196196D01*
X95390488Y-62882681D02*
X96920275Y-68217684D01*
%TO.C,S9*%
X127444447Y-44247374D02*
X139016190Y-43438199D01*
X127831595Y-49783854D02*
X127444447Y-44247374D01*
X131372948Y-49536219D02*
X127831595Y-49783854D01*
X131372948Y-49536219D02*
X131442704Y-50533783D01*
X131442704Y-50533783D02*
X135931742Y-50219879D01*
X135861986Y-49222314D02*
X139403338Y-48974679D01*
X135931742Y-50219879D02*
X135861986Y-49222314D01*
X139016190Y-43438199D02*
X139403338Y-48974679D01*
%TO.C,S1*%
X93611552Y-98762975D02*
X104762188Y-95565581D01*
X95141339Y-104097977D02*
X93611552Y-98762975D01*
X98553818Y-103119464D02*
X95141339Y-104097977D01*
X98553818Y-103119464D02*
X98829456Y-104080726D01*
X98829456Y-104080726D02*
X103155133Y-102840358D01*
X102879496Y-101879096D02*
X106291975Y-100900584D01*
X103155133Y-102840358D02*
X102879496Y-101879096D01*
X104762188Y-95565581D02*
X106291975Y-100900584D01*
%TO.C,S2*%
X88925752Y-82421575D02*
X100076388Y-79224181D01*
X90455539Y-87756577D02*
X88925752Y-82421575D01*
X93868018Y-86778064D02*
X90455539Y-87756577D01*
X93868018Y-86778064D02*
X94143656Y-87739326D01*
X94143656Y-87739326D02*
X98469333Y-86498958D01*
X98193696Y-85537696D02*
X101606175Y-84559184D01*
X98469333Y-86498958D02*
X98193696Y-85537696D01*
X100076388Y-79224181D02*
X101606175Y-84559184D01*
%TO.C,RP2040Zero1*%
X187746600Y-67803800D02*
X187746600Y-62433800D01*
X187746600Y-67803800D02*
X198246600Y-67803800D01*
X198246600Y-62433800D02*
X187746600Y-62433800D01*
X198246600Y-62433800D02*
X198246600Y-67803800D01*
%TO.C,S8*%
X128430747Y-61219874D02*
X140002490Y-60410699D01*
X128817895Y-66756354D02*
X128430747Y-61219874D01*
X132359248Y-66508719D02*
X128817895Y-66756354D01*
X132359248Y-66508719D02*
X132429004Y-67506283D01*
X132429004Y-67506283D02*
X136918042Y-67192379D01*
X136848286Y-66194814D02*
X140389638Y-65947179D01*
X136918042Y-67192379D02*
X136848286Y-66194814D01*
X140002490Y-60410699D02*
X140389638Y-65947179D01*
%TO.C,S15*%
X166946600Y-50983800D02*
X178546600Y-50983800D01*
X166946600Y-56533800D02*
X166946600Y-50983800D01*
X170496600Y-56533800D02*
X166946600Y-56533800D01*
X170496600Y-56533800D02*
X170496600Y-57533800D01*
X170496600Y-57533800D02*
X174996600Y-57533800D01*
X174996600Y-56533800D02*
X178546600Y-56533800D01*
X174996600Y-57533800D02*
X174996600Y-56533800D01*
X178546600Y-50983800D02*
X178546600Y-56533800D01*
%TO.C,S12*%
X148946600Y-48150400D02*
X160546600Y-48150400D01*
X148946600Y-53700400D02*
X148946600Y-48150400D01*
X152496600Y-53700400D02*
X148946600Y-53700400D01*
X152496600Y-53700400D02*
X152496600Y-54700400D01*
X152496600Y-54700400D02*
X156996600Y-54700400D01*
X156996600Y-53700400D02*
X160546600Y-53700400D01*
X156996600Y-54700400D02*
X156996600Y-53700400D01*
X160546600Y-48150400D02*
X160546600Y-53700400D01*
%TO.C,S14*%
X166946600Y-67983800D02*
X178546600Y-67983800D01*
X166946600Y-73533800D02*
X166946600Y-67983800D01*
X170496600Y-73533800D02*
X166946600Y-73533800D01*
X170496600Y-73533800D02*
X170496600Y-74533800D01*
X170496600Y-74533800D02*
X174996600Y-74533800D01*
X174996600Y-73533800D02*
X178546600Y-73533800D01*
X174996600Y-74533800D02*
X174996600Y-73533800D01*
X178546600Y-67983800D02*
X178546600Y-73533800D01*
%TO.C,S17*%
X171358859Y-106154692D02*
X182661552Y-108764124D01*
X170110381Y-111562446D02*
X171358859Y-106154692D01*
X173569395Y-112361022D02*
X170110381Y-111562446D01*
X173569395Y-112361022D02*
X173344444Y-113335392D01*
X173344444Y-113335392D02*
X177729109Y-114347672D01*
X177954060Y-113373302D02*
X181413074Y-114171878D01*
X177729109Y-114347672D02*
X177954060Y-113373302D01*
X182661552Y-108764124D02*
X181413074Y-114171878D01*
%TD*%
M02*
