%TF.GenerationSoftware,KiCad,Pcbnew,7.0.10*%
%TF.CreationDate,2024-01-08T12:38:43-05:00*%
%TF.ProjectId,mini,6d696e69-2e6b-4696-9361-645f70636258,2*%
%TF.SameCoordinates,Original*%
%TF.FileFunction,Soldermask,Top*%
%TF.FilePolarity,Negative*%
%FSLAX46Y46*%
G04 Gerber Fmt 4.6, Leading zero omitted, Abs format (unit mm)*
G04 Created by KiCad (PCBNEW 7.0.10) date 2024-01-08 12:38:43*
%MOMM*%
%LPD*%
G01*
G04 APERTURE LIST*
G04 Aperture macros list*
%AMRoundRect*
0 Rectangle with rounded corners*
0 $1 Rounding radius*
0 $2 $3 $4 $5 $6 $7 $8 $9 X,Y pos of 4 corners*
0 Add a 4 corners polygon primitive as box body*
4,1,4,$2,$3,$4,$5,$6,$7,$8,$9,$2,$3,0*
0 Add four circle primitives for the rounded corners*
1,1,$1+$1,$2,$3*
1,1,$1+$1,$4,$5*
1,1,$1+$1,$6,$7*
1,1,$1+$1,$8,$9*
0 Add four rect primitives between the rounded corners*
20,1,$1+$1,$2,$3,$4,$5,0*
20,1,$1+$1,$4,$5,$6,$7,0*
20,1,$1+$1,$6,$7,$8,$9,0*
20,1,$1+$1,$8,$9,$2,$3,0*%
%AMFreePoly0*
4,1,14,0.035355,0.435355,0.635355,-0.164645,0.650000,-0.200000,0.650000,-0.400000,0.635355,-0.435355,0.600000,-0.450000,-0.600000,-0.450000,-0.635355,-0.435355,-0.650000,-0.400000,-0.650000,-0.200000,-0.635355,-0.164645,-0.035355,0.435355,0.000000,0.450000,0.035355,0.435355,0.035355,0.435355,$1*%
%AMFreePoly1*
4,1,16,0.635355,0.285355,0.650000,0.250000,0.650000,-1.000000,0.635355,-1.035355,0.600000,-1.050000,0.564645,-1.035355,0.000000,-0.470710,-0.564645,-1.035355,-0.600000,-1.050000,-0.635355,-1.035355,-0.650000,-1.000000,-0.650000,0.250000,-0.635355,0.285355,-0.600000,0.300000,0.600000,0.300000,0.635355,0.285355,0.635355,0.285355,$1*%
G04 Aperture macros list end*
%ADD10C,0.100000*%
%ADD11C,1.700000*%
%ADD12C,2.300000*%
%ADD13C,1.500000*%
%ADD14FreePoly0,180.000000*%
%ADD15FreePoly0,0.000000*%
%ADD16FreePoly1,0.000000*%
%ADD17FreePoly1,180.000000*%
%ADD18RoundRect,0.425000X-0.925000X-0.425000X0.925000X-0.425000X0.925000X0.425000X-0.925000X0.425000X0*%
%ADD19RoundRect,0.425050X-0.924950X-0.425050X0.924950X-0.425050X0.924950X0.425050X-0.924950X0.425050X0*%
%ADD20RoundRect,0.425000X-0.425000X-0.925000X0.425000X-0.925000X0.425000X0.925000X-0.425000X0.925000X0*%
%ADD21RoundRect,0.418700X-0.418700X-0.931300X0.418700X-0.931300X0.418700X0.931300X-0.418700X0.931300X0*%
G04 APERTURE END LIST*
%TO.C,AdamTech-MDJ004FS1*%
D10*
X195054574Y-88695756D02*
X194038574Y-88695756D01*
X194038574Y-87679756D01*
X195054574Y-87679756D01*
X195054574Y-88695756D01*
G36*
X195054574Y-88695756D02*
G01*
X194038574Y-88695756D01*
X194038574Y-87679756D01*
X195054574Y-87679756D01*
X195054574Y-88695756D01*
G37*
X192554574Y-88695756D02*
X191538574Y-88695756D01*
X191538574Y-87679756D01*
X192554574Y-87679756D01*
X192554574Y-88695756D01*
G36*
X192554574Y-88695756D02*
G01*
X191538574Y-88695756D01*
X191538574Y-87679756D01*
X192554574Y-87679756D01*
X192554574Y-88695756D01*
G37*
X192562574Y-92179756D02*
X191546574Y-92179756D01*
X191546574Y-91163756D01*
X192562574Y-91163756D01*
X192562574Y-92179756D01*
G36*
X192562574Y-92179756D02*
G01*
X191546574Y-92179756D01*
X191546574Y-91163756D01*
X192562574Y-91163756D01*
X192562574Y-92179756D01*
G37*
X195054574Y-92187756D02*
X194038574Y-92187756D01*
X194038574Y-91171756D01*
X195054574Y-91171756D01*
X195054574Y-92187756D01*
G36*
X195054574Y-92187756D02*
G01*
X194038574Y-92187756D01*
X194038574Y-91171756D01*
X195054574Y-91171756D01*
X195054574Y-92187756D01*
G37*
%TD*%
D11*
%TO.C,S8*%
X130209355Y-69165157D03*
X139347041Y-68526188D03*
X132803997Y-69284455D03*
X136794253Y-69005429D03*
X139378186Y-58649957D03*
X128804007Y-59389376D03*
%TD*%
D12*
%TO.C,AdamTech-MDJ004FS1*%
X197546574Y-83183756D03*
D13*
X194546574Y-86533756D03*
X192046574Y-86533756D03*
D14*
X194546574Y-87933756D03*
X192046574Y-87933756D03*
D12*
X198346574Y-89933756D03*
D15*
X192054574Y-91925756D03*
X194546574Y-91933756D03*
D13*
X194546574Y-93333756D03*
X192046574Y-93333756D03*
D12*
X197546574Y-96683756D03*
D16*
X194546574Y-90917756D03*
D17*
X194546574Y-88949756D03*
D16*
X192054574Y-90909756D03*
D17*
X192046574Y-88949756D03*
%TD*%
D11*
%TO.C,S17*%
X170736709Y-114272768D03*
X179661939Y-116333319D03*
X173183098Y-115145452D03*
X177080578Y-116045256D03*
X182579253Y-106897739D03*
X172250930Y-104513258D03*
%TD*%
%TO.C,S7*%
X131195702Y-86137698D03*
X140333388Y-85498729D03*
X133790344Y-86256996D03*
X137780600Y-85977970D03*
X140364533Y-75622498D03*
X129790354Y-76361917D03*
%TD*%
%TO.C,S4*%
X113662503Y-94603448D03*
X122733359Y-93328622D03*
X116259147Y-94541462D03*
X120220219Y-93984769D03*
X122075497Y-83474277D03*
X111578655Y-84949512D03*
%TD*%
%TO.C,S14*%
X168166574Y-76033756D03*
X177326574Y-76033756D03*
X170746574Y-76333756D03*
X174746574Y-76333756D03*
X178046574Y-66183756D03*
X167446574Y-66183756D03*
%TD*%
%TO.C,S11*%
X150166574Y-73200423D03*
X159326574Y-73200423D03*
X152746574Y-73500423D03*
X156746574Y-73500423D03*
X160046574Y-63350423D03*
X149446574Y-63350423D03*
%TD*%
%TO.C,S3*%
X87631502Y-73481956D03*
X96436659Y-70957118D03*
X90194248Y-73059190D03*
X94039295Y-71956640D03*
X94413740Y-61290231D03*
X84224366Y-64211987D03*
%TD*%
%TO.C,S2*%
X92317337Y-89823405D03*
X101122494Y-87298567D03*
X94880083Y-89400639D03*
X98725130Y-88298089D03*
X99099575Y-77631680D03*
X88910201Y-80553436D03*
%TD*%
%TO.C,S10*%
X150166574Y-90200423D03*
X159326574Y-90200423D03*
X152746574Y-90500423D03*
X156746574Y-90500423D03*
X160046574Y-80350423D03*
X149446574Y-80350423D03*
%TD*%
%TO.C,S13*%
X168166574Y-93033756D03*
X177326574Y-93033756D03*
X170746574Y-93333756D03*
X174746574Y-93333756D03*
X178046574Y-83183756D03*
X167446574Y-83183756D03*
%TD*%
D18*
%TO.C,RP2040Zero1*%
X201126574Y-50073756D03*
X201126574Y-50073756D03*
X201126574Y-52613756D03*
X201126574Y-52613756D03*
X201126574Y-55153756D03*
X201126574Y-55153756D03*
X201126574Y-57693756D03*
X201126574Y-57693756D03*
X201126574Y-60233756D03*
X201126574Y-60233756D03*
D19*
X201126574Y-62773756D03*
X201126574Y-62773756D03*
X201126574Y-65313756D03*
X201126574Y-65313756D03*
X201126574Y-67853756D03*
X201126574Y-67853756D03*
X201126574Y-70393756D03*
X201126574Y-70393756D03*
D20*
X197986574Y-71203756D03*
X197986574Y-71203756D03*
D21*
X195446574Y-71203756D03*
X195446574Y-71203756D03*
X192906574Y-71203756D03*
X192906574Y-71203756D03*
X190366574Y-71203756D03*
X190366574Y-71203756D03*
X187826574Y-71203756D03*
X187826574Y-71203756D03*
D19*
X184686574Y-70393756D03*
X184686574Y-70393756D03*
X184686574Y-67853756D03*
X184686574Y-67853756D03*
X184686574Y-65313756D03*
X184686574Y-65313756D03*
X184686574Y-62773756D03*
X184686574Y-62773756D03*
X184686574Y-50073756D03*
X184686574Y-50073756D03*
X184686574Y-52613756D03*
X184686574Y-52613756D03*
X184686574Y-55153756D03*
X184686574Y-55153756D03*
X184686574Y-60233756D03*
X184686574Y-60233756D03*
X184686574Y-57693756D03*
X184686574Y-57693756D03*
%TD*%
D11*
%TO.C,S16*%
X151966574Y-113433756D03*
X161126574Y-113433756D03*
X154546574Y-113733756D03*
X158546574Y-113733756D03*
X161846574Y-103583756D03*
X151246574Y-103583756D03*
%TD*%
%TO.C,S9*%
X129223007Y-52192617D03*
X138360693Y-51553648D03*
X131817649Y-52311915D03*
X135807905Y-52032889D03*
X138391838Y-41677417D03*
X127817659Y-42416836D03*
%TD*%
%TO.C,S18*%
X188682114Y-119091064D03*
X197233711Y-122373714D03*
X190983241Y-120295727D03*
X194717563Y-121729199D03*
X201435813Y-113435972D03*
X191539860Y-109637272D03*
%TD*%
%TO.C,S15*%
X168166574Y-59033756D03*
X177326574Y-59033756D03*
X170746574Y-59333756D03*
X174746574Y-59333756D03*
X178046574Y-49183756D03*
X167446574Y-49183756D03*
%TD*%
%TO.C,S1*%
X97003172Y-106164854D03*
X105808329Y-103640016D03*
X99565918Y-105742088D03*
X103410965Y-104639538D03*
X103785410Y-93973129D03*
X93596036Y-96894885D03*
%TD*%
%TO.C,S5*%
X111296560Y-77768891D03*
X120367416Y-76494065D03*
X113893204Y-77706905D03*
X117854276Y-77150212D03*
X119709554Y-66639720D03*
X109212712Y-68114955D03*
%TD*%
%TO.C,S12*%
X150166574Y-56200423D03*
X159326574Y-56200423D03*
X152746574Y-56500423D03*
X156746574Y-56500423D03*
X160046574Y-46350423D03*
X149446574Y-46350423D03*
%TD*%
%TO.C,S6*%
X108930617Y-60934333D03*
X118001473Y-59659507D03*
X111527261Y-60872347D03*
X115488333Y-60315654D03*
X117343611Y-49805162D03*
X106846769Y-51280397D03*
%TD*%
M02*
